<svg id="Layer_1" data-name="Layer 1" xmlns="http://www.w3.org/2000/svg" xmlns:xlink="http://www.w3.org/1999/xlink" viewBox="0 0 370 427.58"><defs><clipPath id="clip-path"><rect x="-0.34" y="308.18" width="85.97" height="53.67" fill="none"/></clipPath><clipPath id="clip-path-2"><rect x="289.98" y="309.54" width="76.7" height="52.3" transform="translate(656.67 671.39) rotate(180)" fill="none"/></clipPath></defs><title>dffdf</title><path d="M164.62,154.15V132.66l-20.1-2.58a51.17,51.17,0,0,0-5.15-12.43l12.39-16L136.57,86.42l-16,12.39a51.1,51.1,0,0,0-12.43-5.15l-2.58-20.1H84l-2.58,20.1A51.1,51.1,0,0,0,69,98.81L53,86.42l-15.2,15.19,12.39,16A51.57,51.57,0,0,0,45,130.08l-20.1,2.58v21.49L45,156.72a51.73,51.73,0,0,0,5.15,12.43l-12.39,16L53,200.39,69,188a50.71,50.71,0,0,0,12.43,5.15L84,213.25h21.49l2.58-20.11A50.71,50.71,0,0,0,120.53,188l16,12.4,15.19-15.2-12.39-16a51.33,51.33,0,0,0,5.15-12.43ZM94.78,173.38a30,30,0,1,1,30-30A30,30,0,0,1,94.78,173.38Z" fill="#84a9ff"/><path d="M244.94,114.62h-127a13.75,13.75,0,0,0-13.75,13.75V342.3a19.54,19.54,0,0,0,19.54,19.55H239.15a19.54,19.54,0,0,0,19.54-19.55V128.37A13.75,13.75,0,0,0,244.94,114.62Z" fill="#155bcd"/><path d="M104.81,167.91h178.3a0,0,0,0,1,0,0V302.24a0,0,0,0,1,0,0H104.81a25.06,25.06,0,0,1-25.06-25.06V193A25.06,25.06,0,0,1,104.81,167.91Z" transform="translate(-53.64 416.51) rotate(-90)" fill="#84a9ff"/><circle cx="181.43" cy="349.77" r="6.65" fill="#050f64"/><path d="M207.75,126H155.12a1.7,1.7,0,0,1-1.7-1.7h0a1.7,1.7,0,0,1,1.7-1.7h52.63a1.7,1.7,0,0,1,1.7,1.7h0A1.7,1.7,0,0,1,207.75,126Z" fill="#050f64"/><rect x="45.93" y="160.27" width="115.54" height="76.32" transform="translate(-94.73 302.14) rotate(-90)" fill="#e5e6eb"/><path d="M103.71,210.8v-12a18.34,18.34,0,0,0,15.2-28.57l9.91-6.7a30.29,30.29,0,0,1-25.11,47.23Z" fill="#ff654f"/><path d="M118.91,170.27a18.32,18.32,0,0,0-29-1.82l-9-7.88a30.3,30.3,0,0,1,47.92,3Z" fill="#fff"/><path d="M103.71,210.8A30.3,30.3,0,0,1,80.9,160.57l9,7.88a18.33,18.33,0,0,0,13.8,30.39Z" fill="#050f64"/><path d="M129.94,230.48H79.4a6,6,0,0,1,0-12h50.54a6,6,0,0,1,0,12Z" fill="#155bcd"/><path d="M129.94,247.47H79.4a6,6,0,0,1,0-12h50.54a6,6,0,0,1,0,12Z" fill="#fff"/><rect x="161.35" y="249.23" width="84.93" height="76.32" transform="translate(-83.58 491.2) rotate(-90)" fill="#fff"/><rect x="175.46" y="255.49" width="7.1" height="7.1" fill="#155bcd"/><rect x="188.03" y="256.87" width="44.13" height="3.55" fill="#84a9ff"/><rect x="188.03" y="271.95" width="44.13" height="3.55" fill="#84a9ff"/><rect x="188.03" y="287.04" width="44.13" height="3.55" fill="#84a9ff"/><rect x="175.46" y="270.18" width="7.1" height="7.1" fill="#155bcd"/><rect x="175.46" y="284.87" width="7.1" height="7.1" fill="#155bcd"/><rect x="134.92" y="302.46" width="79.14" height="18.94" fill="#ff654f"/><rect x="147.01" y="309.96" width="54.95" height="3.94" fill="#fff"/><rect x="165.65" y="181.8" width="131.67" height="42.51" fill="#e5e6eb"/><circle cx="190.62" cy="203.06" r="15.81" transform="translate(-40.35 358.69) rotate(-80.78)" fill="#050f64"/><path d="M190.62,203.77a6.91,6.91,0,0,0-6.91,6.91V213h13.82v-2.31A6.92,6.92,0,0,0,190.62,203.77Z" fill="#fff"/><path d="M190.62,202.6a5.69,5.69,0,1,0-5.68-5.69A5.68,5.68,0,0,0,190.62,202.6Z" fill="#fff"/><rect x="216.6" y="190.86" width="71.57" height="3.94" fill="#84a9ff"/><rect x="216.6" y="201.09" width="71.57" height="3.94" fill="#84a9ff"/><rect x="216.6" y="211.31" width="50.57" height="3.94" fill="#84a9ff"/><rect x="177.89" y="138.47" width="91.43" height="33.45" fill="#e5e6eb"/><rect x="187.83" y="148.12" width="71.57" height="3.94" fill="#84a9ff"/><rect x="187.83" y="158.34" width="71.57" height="3.94" fill="#84a9ff"/><path d="M99.14,356.06l11.46,5.79a1.76,1.76,0,0,0-.62-2.43,11.1,11.1,0,0,0-1.29-.75A8,8,0,0,1,106,356.2a11.21,11.21,0,0,0-1.08-1.57l-3.16-1.49a4,4,0,0,0-1.69,1.26A7,7,0,0,0,99.14,356.06Z" fill="#050f64"/><path d="M88,360.2l12.72,1.65a2,2,0,0,0-.2-1.24,2,2,0,0,0-1.19-.85,11.76,11.76,0,0,0-1.46-.28A7.88,7.88,0,0,1,94.55,358,11.2,11.2,0,0,0,93,356.92l-3.48-.36a4,4,0,0,0-1.17,1.75A7.09,7.09,0,0,0,88,360.2Z" fill="#050f64"/><polygon points="93.38 317.79 93.38 317.8 93.38 317.79 93.38 317.79" fill="#093f61"/><g opacity="0"><polygon points="95.09 290.96 95.09 290.96 95.09 290.96 95.09 290.96 95.09 290.96" fill="#093f61"/></g><polygon points="93.38 317.79 93.38 317.8 93.38 317.79 93.38 317.79" fill="#093f61"/><polygon points="93.38 317.79 93.38 317.8 93.38 317.79 93.38 317.79" fill="#093f61"/><path d="M122.32,316.58h0l-6-27s-27.5,1.64-27.41,2.28L89,356.75l4.53.28,9.72-50.75,8.57,13.52-10.6,33.33,4.19,1.7,16.63-35.74A4.72,4.72,0,0,0,122.32,316.58Zm-28.94,1.21Z" fill="#050f64"/><g opacity="0"><polygon points="93.38 317.79 93.38 317.8 93.38 317.79 93.38 317.79" fill="#093f61"/></g><path d="M130.14,289.21c-1.1-1.51-2.23-2.92-3.3-4.35-.27-.35-.52-.71-.79-1.07s-.53-.71-.77-1.08l-.75-1.09-.37-.55-.36-.55a68.7,68.7,0,0,1-5-9.21c-.66-1.62-1.35-3.21-1.91-4.86l-.44-1.23c-.07-.2-.15-.4-.21-.61l-.19-.63-.77-2.49c-.06-.21-.13-.42-.19-.63l-.16-.63-.33-1.27-.32-1.26-.17-.63-.08-.32-.07-.32-.54-2.56c-.18-.85-.38-1.7-.51-2.56a3.61,3.61,0,0,0-1.9-2.49,5,5,0,0,0-3.47-.45,4.55,4.55,0,0,0-2.86,2,3.91,3.91,0,0,0-.46,3.27c.27.89.62,1.78.94,2.66l1,2.63.12.33.14.33.28.65.55,1.3.55,1.3.27.64.3.64,1.22,2.55.31.64c.1.21.22.42.33.62l.66,1.25c.86,1.68,1.86,3.28,2.82,4.9a72.8,72.8,0,0,0,6.73,9l.46.53.48.51,1,1c.31.34.64.67,1,1l1,1c1.3,1.29,2.63,2.53,3.87,3.78a1.29,1.29,0,0,0,1.68,0h0A1.21,1.21,0,0,0,130.14,289.21Z" fill="#ea8096"/><path d="M106,267.71l-3-11.51a6.39,6.39,0,0,1,4.4-8h0a6.83,6.83,0,0,1,8.21,4.71l3,11.51Z" fill="#155bcd"/><path d="M99.68,245.07h0A12,12,0,0,1,113.58,256l2.74,33.58c-10.78,6.21-17.52,4.8-27.59,2.27l-1.42-31.59A14.72,14.72,0,0,1,99.68,245.07Z" fill="#155bcd"/><path d="M89.2,251.62A15.46,15.46,0,0,0,87.36,256l.36.12a14.84,14.84,0,0,1,1.82-4.29Zm-.47,40.25-.36-8-.37.05.37,8.25.27.07,2.5.62.08-.37Zm26.35-22-.37,0,1.61,19.72a38,38,0,0,1-5.76,2.75l.07.38a38.39,38.39,0,0,0,5.88-2.81l.2-.12ZM98.43,294.22a28.71,28.71,0,0,0,3.07.17V294c-1,0-1.94-.06-2.91-.16ZM87.55,265.75l-.37,0,.34,7.6h.37ZM114,256a12.41,12.41,0,0,0-12.45-11.45l-.81,0V245c.31,0,.62,0,.92,0a12,12,0,0,1,12,11.11l.49,6,.37-.08Z" fill="#84a9ff"/><polygon points="123.73 260.39 121.34 271.27 120.25 271.33 122.65 260.45 123.73 260.39" fill="#155bcd"/><polygon points="129.8 260.02 127.41 270.9 121.34 271.27 123.73 260.39 129.8 260.02" fill="#050f64"/><path d="M126.77,264.27a1.26,1.26,0,0,0-1.69.41c-1.07,1.62-2.17,3.21-3.37,4.69-.59.74-1.21,1.45-1.85,2.12a20.11,20.11,0,0,1-2,1.85,11.71,11.71,0,0,1-2.08,1.38l-.53.24-.25.1-.13.05-.13,0a4.66,4.66,0,0,1-1,.21,4.56,4.56,0,0,1-.91,0,4.44,4.44,0,0,1-.87-.22,5.67,5.67,0,0,1-.86-.42,7.67,7.67,0,0,1-.87-.61,12.44,12.44,0,0,1-1.67-1.66,23.74,23.74,0,0,1-1.55-2.07,44.4,44.4,0,0,1-2.7-4.75c-.83-1.68-1.6-3.4-2.33-5.16s-1.43-3.55-2.09-5.35a4.31,4.31,0,0,0-2.42-2.41,4.62,4.62,0,0,0-3.52,0,4.45,4.45,0,0,0-2.46,2.54,4.36,4.36,0,0,0,.2,3.51c1,1.79,1.93,3.57,3,5.33s2.12,3.52,3.29,5.24a50.42,50.42,0,0,0,3.88,5.06,27.69,27.69,0,0,0,2.35,2.38,17.84,17.84,0,0,0,2.85,2.11,12.84,12.84,0,0,0,1.7.85,11.11,11.11,0,0,0,1.91.58,9.51,9.51,0,0,0,2.06.18,9.11,9.11,0,0,0,2-.28,9.7,9.7,0,0,0,1.83-.67l.22-.1.2-.12.41-.22c.25-.16.52-.32.76-.49a16,16,0,0,0,2.56-2.25,24.58,24.58,0,0,0,2-2.49c.62-.85,1.18-1.71,1.71-2.59,1.06-1.76,2-3.56,2.84-5.37A1.26,1.26,0,0,0,126.77,264.27Z" fill="#f5bdc8"/><path d="M95.84,272.05l-5-10.81a6.39,6.39,0,0,1,2.93-8.62h0a6.82,6.82,0,0,1,8.91,3.19l5,10.8Z" fill="#155bcd"/><path d="M103,255.66a6.73,6.73,0,0,0-.67-1.13l-.26.22a5.88,5.88,0,0,1,.62,1.06l.49,1.07.32-.14Zm-4.51,15.16-2.67,1.23-1.4-3-.28.2,1.51,3.28,3-1.36Zm-7.17-7.74,1.87,4.06.32-.12-1.81-3.94Zm5.24-11.4a6.91,6.91,0,0,0-2.92.63,6.32,6.32,0,0,0-3.14,3.12l.28.21a6,6,0,0,1,3-3,6.86,6.86,0,0,1,5.28-.14l.3-.25A7.32,7.32,0,0,0,96.58,251.68Zm9,9.46-.3.16,1.26,2.74.27-.24Zm-1.31,7.06-2.65,1.21.1.33,2.72-1.25Z" fill="#84a9ff"/><path d="M103.23,240.42,104,249a4.79,4.79,0,0,1-5.59.47l-.72-8.58Z" fill="#f5bdc8"/><path d="M103.23,240.42l.33,3.88a4.21,4.21,0,0,1-1.23.39l-.42.05a5,5,0,0,1-4.07-1.55l-.2-2.3Z" fill="#ea8096"/><path d="M105.34,235l.16,3.6.07,1.45a4,4,0,0,1-3.33,4.13,4.52,4.52,0,0,1-1.94-.1l-.42-.14-.26-.11a4.36,4.36,0,0,1-2-1.76,23.44,23.44,0,0,1-1.15-2.19c-.21-.44-.42-.9-.62-1.37a6.08,6.08,0,0,1,.77-6.26,4.91,4.91,0,0,1,8.67,2.75Z" fill="#f5bdc8"/><path d="M98.53,237.79l.56-.43s-1.58-2.33-1.31-3.24c.39-1.3,3.42-2.07,5-1.94a1.32,1.32,0,0,1,1.17.59,11.27,11.27,0,0,1,1.47,4.88s1.06-6.34-1.42-9.16c-1.62-1.84-3-3.09-5.53-1.34-4,2.77-5.71,6.74-4,11.75l2.66-1.64Z" fill="#050f64"/><path d="M98.65,238.15a2.12,2.12,0,1,1-2.25-1.69A2,2,0,0,1,98.65,238.15Z" fill="#f5bdc8"/><path d="M282,360.39a1.49,1.49,0,0,1,1-.51,8.32,8.32,0,0,1,1.12-.07,5.92,5.92,0,0,0,2.62-.76,8,8,0,0,1,1.26-.68l2.63.07a2.94,2.94,0,0,1,.7,1.41,5.42,5.42,0,0,1,.08,1.45v.55h-9.65v-.55h0A1.46,1.46,0,0,1,282,360.39Z" fill="#050f64"/><polygon points="290.95 355.51 290.62 358.44 287.99 358.37 287.81 355.66 290.95 355.51" fill="#f5bdc8"/><path d="M256.31,359.35a1.53,1.53,0,0,1,1-.41,10.37,10.37,0,0,1,1.12.06,5.89,5.89,0,0,0,2.69-.46,10.28,10.28,0,0,1,1.33-.54l2.61.37a3.12,3.12,0,0,1,.54,1.49,5.81,5.81,0,0,1-.08,1.44l-.07.55-9.59-1.09.06-.55h0A1.56,1.56,0,0,1,256.31,359.35Z" fill="#050f64"/><path d="M293.26,313.07c.55-10.18.46-24.61-2.3-32.74,0-.14-21.34,1.77-21.34,1.77l-5,20.47a90.06,90.06,0,0,0-2.54,22l.26,30.71,3.59.24,6.67-40.68a157.05,157.05,0,0,0,7.19-15.8l7.76,56.64,3.6-.18s2.09-42.4,2.09-42.43Z" fill="#050f64"/><polygon points="265.73 355.5 265.08 358.37 262.47 358 262.6 355.3 265.73 355.5" fill="#f5bdc8"/><path d="M227.13,259.53a1.32,1.32,0,0,1,1.33-1.2,117.28,117.28,0,0,0,11.87-.16,87.55,87.55,0,0,0,11.61-1.52A75,75,0,0,0,263,253.51q2.67-1,5.24-2.22c.42-.21.85-.4,1.27-.62l1.27-.64c.83-.45,1.66-.89,2.46-1.37a4.6,4.6,0,0,1,.81-.33,4.12,4.12,0,0,1,.84-.15,4.75,4.75,0,0,1,1.71.2,5,5,0,0,1,2.81,2.29,4.49,4.49,0,0,1,.39,3.62,4.2,4.2,0,0,1-.93,1.59,4.89,4.89,0,0,1-.71.65,4.23,4.23,0,0,1-.86.48c-1,.41-2,.78-3,1.15l-1.51.53-1.52.49q-3,.94-6.14,1.64a80.4,80.4,0,0,1-12.45,1.75,92.93,92.93,0,0,1-12.38-.08A121.76,121.76,0,0,1,228.19,261,1.31,1.31,0,0,1,227.13,259.53Z" fill="#ea8096"/><path d="M266.64,262.45l9.73-4.16a5.69,5.69,0,0,0,3.22-7.44h0a6.07,6.07,0,0,0-7.78-3.22l-9.73,4.16Z" fill="#ff654f"/><path d="M281.19,245.93h0a13.17,13.17,0,0,0-13.19,15l1.62,21.18c8.94,3.24,15.59,1.47,21.34-1.77l1-22.53A10.9,10.9,0,0,0,281.19,245.93Z" fill="#ff654f"/><path d="M290.14,250.37l-.16.18a10.75,10.75,0,0,1,1.8,4.22l.23,0A11.22,11.22,0,0,0,290.14,250.37Zm-8.91,33.31v.23a22.66,22.66,0,0,0,5.87-1.47l-.07-.22A23.27,23.27,0,0,1,281.23,283.68Zm4.62-36.91a11.32,11.32,0,0,0-4.66-1.08H281A13.4,13.4,0,0,0,268,256.16l.22,0a13.18,13.18,0,0,1,13-10.28A10.78,10.78,0,0,1,285.8,247Zm-16.44,32.66-.22.12.21,2.72.14.05a29.22,29.22,0,0,0,5.9,1.5v-.23a28.67,28.67,0,0,1-5.82-1.49ZM267.77,261l.82,10.67h.23L268,261Z" fill="#da5544"/><path d="M283.16,231.22s5.57,1.29,4.18,7.48c-.93,4.13-3.92,6.23-8.26,6.94Z" fill="#050f64"/><path d="M277.35,241.63l.42,6.38a4.48,4.48,0,0,0,5.26-.28l-.42-6.38Z" fill="#f5bdc8"/><path d="M277.38,242.36l.11,2a5.69,5.69,0,0,0,2.71.66h.17a3.49,3.49,0,0,0,2.37-1.09l-.1-1.85Z" fill="#ea8096"/><path d="M274.77,234.14l.36,4.7.08,1a5,5,0,0,0,5,4.58,2.64,2.64,0,0,0,.78-.12l.3-.1.06,0a2.8,2.8,0,0,0,1-.71,8.67,8.67,0,0,0,1.3-2.19,14.71,14.71,0,0,0,.74-2,6.42,6.42,0,0,0,.22-2.48l-.35-4.11-8-.61Z" fill="#f5bdc8"/><path d="M283,232.94s-9.18.57-7.37,8.63c0,0-2.89-5.84,0-9.75,3.24-4.31,7.55-2.89,9.09-.83s2.68,5.47-1.59,7.91A7,7,0,0,0,283,232.94Z" fill="#050f64"/><path d="M282.83,237.86a1.92,1.92,0,1,0,1.82-2A1.91,1.91,0,0,0,282.83,237.86Z" fill="#f5bdc8"/><path d="M250.54,292.23a1.32,1.32,0,0,1,.23-1.78c3.1-2.5,6.08-5.12,8.88-7.88a90.19,90.19,0,0,0,7.78-8.74,73.77,73.77,0,0,0,6.32-9.62q1.38-2.5,2.52-5.1c.19-.43.39-.86.57-1.3l.53-1.31c.33-.88.67-1.76,1-2.65a4.77,4.77,0,0,1,.4-.78,4.22,4.22,0,0,1,.53-.67,4.76,4.76,0,0,1,1.43-1,5,5,0,0,1,3.62-.11,4.47,4.47,0,0,1,2.66,2.48,4.29,4.29,0,0,1,.34,1.81,4.49,4.49,0,0,1-.11,1,5.81,5.81,0,0,1-.34.93c-.48,1-1,1.89-1.51,2.82l-.8,1.39c-.27.46-.55.91-.83,1.36q-1.68,2.71-3.57,5.26a81.52,81.52,0,0,1-8.28,9.46,92.76,92.76,0,0,1-9.42,8,120.7,120.7,0,0,1-10.17,6.79A1.3,1.3,0,0,1,250.54,292.23Z" fill="#f5bdc8"/><path d="M282.56,268.61l4.65-9.51a5.7,5.7,0,0,0-2.43-7.74h0a6.06,6.06,0,0,0-8,2.65l-4.65,9.51Z" fill="#ff654f"/><path d="M286.45,252.27a5.9,5.9,0,0,0-1.57-1.12,6.31,6.31,0,0,0-4.72-.29,6.13,6.13,0,0,0-.75.29l.13.2a6.12,6.12,0,0,1,5.24,0,5.51,5.51,0,0,1,3,5.53l.24,0A5.9,5.9,0,0,0,286.45,252.27Zm1,6.93a1,1,0,0,0,0-.1l-.28.06-1.4,2.86.22.08Zm-1.94,4-.25,0-1.31,2.68.23.07Zm-2,4.09-.23-.07-.7,1.43-8-3.9-.12.2,8.22,4ZM276,255.2l-3.39,6.93.2.12,3.41-7Z" fill="#da5544"/><path d="M127.19,152.77H114.57a1.74,1.74,0,0,1,1.62-1.85,12,12,0,0,1,1.47-.09,7.77,7.77,0,0,0,3.42-1,12.52,12.52,0,0,1,1.64-.9l3.44.09a3.81,3.81,0,0,1,.92,1.85A6.66,6.66,0,0,1,127.19,152.77Z" fill="#050f64"/><path d="M163.88,107.31a6.15,6.15,0,0,0-7.24-4.81h0L131,106.25l-.28,0-.16,0h0a4.69,4.69,0,0,0-3.69,3.72h0l-.06.44v0h0l-4.62,38.39,4.39.37,8.58-33.82,21.91-.83a5.85,5.85,0,0,0,1.95-.08h0A6.15,6.15,0,0,0,163.88,107.31Z" fill="#050f64"/><path d="M141.44,153l-12.62.11a1.93,1.93,0,0,1,.35-1.18,2,2,0,0,1,1.25-.69,12.1,12.1,0,0,1,1.47-.1,7.69,7.69,0,0,0,3.41-1,12,12,0,0,1,1.64-.91l3.44.06a4,4,0,0,1,.94,1.84A6.67,6.67,0,0,1,141.44,153Z" fill="#050f64"/><path d="M140.85,149.8l-4.38-.48L142,111.05v0a3.11,3.11,0,0,1,.07-.44h0a4.7,4.7,0,0,1,3.46-3.57h.05l.37-.07,25.42-4.86h0a6.15,6.15,0,0,1,6,10.15c-1.59,1.72-3.89,2-6.11,2.2l-3,.22-4.46.34-4.94.36-4.49.34-3.13.23a4.94,4.94,0,0,0-.89.07Z" fill="#050f64"/><path d="M141.4,147.81h.39l5.85-21-.37-.08Zm-3.49-11,.36.06L142,111.05h0v0a3.11,3.11,0,0,1,.07-.44h0a4.68,4.68,0,0,1,3.46-3.56h.05l.37-.07,25.42-4.86h0a6.16,6.16,0,0,1,5.91,1.71l.73.29a6.53,6.53,0,0,0-6.73-2.35l-25.41,4.86-.39.08-.37.07v0a5.08,5.08,0,0,0-3.41,3.76v0h0a.3.3,0,0,1,0,.1h0v0c0,.09,0,.19-.05.3Z" fill="#155bcc"/><path d="M120.73,99.8A1.36,1.36,0,0,1,122,98.41c.92-.11,1.85-.23,2.75-.36l.66-.09,1.09-.17.61-.09.84-.14.84-.15.6-.11c.36-.07.72-.13,1.08-.21l1.66-.36,1.64-.4c.34-.08.69-.19,1-.28l.58-.17a36.77,36.77,0,0,0,6.11-2.35,24.34,24.34,0,0,0,5.22-3.48A31.34,31.34,0,0,0,154,79.82c.86-1.76,1.72-3.76,2.64-6.09.73-1.88,1.47-3.9,2.34-6.39a5,5,0,0,1,2.61-2.87,4.11,4.11,0,0,1,5.62,2.22,5.06,5.06,0,0,1-.14,4c-1.18,2.47-2.19,4.5-3.17,6.38-1.28,2.45-2.43,4.46-3.61,6.32a47.29,47.29,0,0,1-4.45,6l-.45.52a32.24,32.24,0,0,1-5.23,4.64,30.4,30.4,0,0,1-6.76,3.5,41,41,0,0,1-7.12,1.88l-.62.11c-.38.06-.77.13-1.16.18l-1.78.23-1.77.18-1.15.1-.63,0-.88.07-.88,0-.62,0-1.15,0-.65,0c-.94,0-1.91,0-2.87,0A1.36,1.36,0,0,1,120.73,99.8Z" fill="#ea8096"/><path d="M163.41,83.36l4.7-10.7a6.28,6.28,0,0,0-3-8.43h-.27a6.4,6.4,0,0,0-8.44,3.28l-4.71,10.7Z" fill="#84a9ff"/><path d="M168.14,63h0a11.81,11.81,0,0,0-13.65,10.79l-2.17,29.39c6.75,6.37,19.6,9,26.68,5.25l1.33-30.5A14.49,14.49,0,0,0,168.14,63Z" fill="#84a9ff"/><path d="M153.42,83.24l.36,0,.71-9.52a11.82,11.82,0,0,1,11.76-11,12.23,12.23,0,0,1,1.89.15,17.1,17.1,0,0,1,1.91.44l.13-.34a15.6,15.6,0,0,0-2-.46,12.58,12.58,0,0,0-1.94-.15,12.23,12.23,0,0,0-12.13,11.29Zm-1.48,20,.12.12a28.4,28.4,0,0,0,15.69,6.87v-.37c-5.66-.69-11.55-3.1-15.43-6.77l.93-12.6h-.37Zm28.39-25.39-1,23.13h.37l1-23.12a15,15,0,0,0-.21-3.23l-.35.15A14.11,14.11,0,0,1,180.33,77.89Z" fill="#e5e6eb"/><path d="M162.73,60.08l2.39,8.06a4.67,4.67,0,0,0,5.26-1.56L168,58.52Z" fill="#f4bcc7"/><path d="M162.73,60.08l1.08,3.65a4.89,4.89,0,0,0,1.26-.08l.4-.11a4.9,4.9,0,0,0,3.16-2.86L168,58.52Z" fill="#ea8096"/><path d="M158.88,55.86l1.58,4.67a3.92,3.92,0,0,0,4.5,2.58h0a4.36,4.36,0,0,0,3.41-3.54,33.9,33.9,0,0,0,.35-3.87,5.93,5.93,0,0,0-2.93-5.42,4.53,4.53,0,0,0-5.06.25A4.59,4.59,0,0,0,158.88,55.86Z" fill="#f4bcc7"/><path d="M126.31,101.66c.93,0,1.87,0,2.78-.06l.67,0,1.11,0,.6,0,.86,0,.85-.07.6,0c.36,0,.73,0,1.1-.1l1.68-.17,1.68-.23,1.06-.17.59-.1a36.14,36.14,0,0,0,6.32-1.7,24.42,24.42,0,0,0,5.57-2.9,31.5,31.5,0,0,0,8.36-9.39c1.05-1.67,2.12-3.56,3.28-5.78.92-1.78,1.87-3.72,3-6.1a5,5,0,0,1,2.91-2.58,4.21,4.21,0,0,1,3.29.23,4.12,4.12,0,0,1,2,2.57,5,5,0,0,1-.55,3.94c-1.45,2.35-2.66,4.26-3.83,6-1.54,2.29-2.9,4.17-4.27,5.89A47,47,0,0,1,161,96.29a31.3,31.3,0,0,1-6.2,4.52,29.56,29.56,0,0,1-7.09,2.77,41,41,0,0,1-7.27,1.11l-.63,0c-.39,0-.79,0-1.18.06l-1.79,0H135c-.38,0-.76,0-1.13,0l-.62,0-.89,0-.88-.06-.62,0-1.15-.07-.64-.06c-.94-.07-1.91-.15-2.86-.25a1.36,1.36,0,0,1-1.29-1.37A1.38,1.38,0,0,1,126.31,101.66Z" fill="#f4bcc7"/><path d="M168.79,91l6-10a6.29,6.29,0,0,0-2-8.74l-.26,0a6.41,6.41,0,0,0-8.78,2.23l-6,10Z" fill="#84a9ff"/><path d="M161.87,76.91l.33.17,1.57-2.63a6.4,6.4,0,0,1,7-2.94l.16-.34a7,7,0,0,0-1.71-.22,6.8,6.8,0,0,0-5.82,3.31Zm-4.59,7.71,7,4.17.18-.32-6.69-4,1.26-2.1-.33-.17ZM174.77,81,170,89l.36.13,4.7-7.9a7,7,0,0,0,.88-5.1,6.32,6.32,0,0,0-2.37-3.75l-.19.33A6.33,6.33,0,0,1,174.77,81Z" fill="#e5e6eb"/><rect x="118.83" y="99.89" width="34.72" height="1.17" transform="translate(-14.39 23.22) rotate(-9.26)" fill="#155bcc"/><polygon points="118.96 102.69 140.25 99.22 130.83 82.87 109.55 86.34 118.96 102.69" fill="#155bcc"/><path d="M124,94.49c.72,1.72,1.82,2.89,2.46,2.62s.56-1.87-.16-3.59-1.83-2.89-2.46-2.62S123.22,92.78,124,94.49Z" fill="#fff"/><path d="M158,57.08a2,2,0,0,1-.72-1.43,3.59,3.59,0,0,0-.43-1.59c-.41-.57-1.18-.75-1.47-1.4a1.92,1.92,0,0,1,.38-1.81c.89-1.34,1.77-2.69,2.66-4a5.11,5.11,0,0,1,1.25-1.47,1.69,1.69,0,0,1,1.82-.13c.32.18.59.48.91.65a2.41,2.41,0,0,0,2.15-.33,3.74,3.74,0,0,1,2.69-.38,2.7,2.7,0,0,1,1.85,2.37,5.86,5.86,0,0,1-.3,1.44,2,2,0,0,0,.09,1.49c.35.61,1.05.74,1.63,1a3.64,3.64,0,0,1,1.76,2.22,3.25,3.25,0,0,1-.37,2.7,1.27,1.27,0,0,1-1.89.37c-.7-.64-.73-2.08-1.55-2.4-1-.38-1.6,1.48-2.58,1.07-.53-.22-.78-1-1.27-1.31-.64-.44-1.33,0-1.85.29a9.92,9.92,0,0,1-1.73.77,3.07,3.07,0,0,0-1.35,1C159.24,56.67,158.71,57.45,158,57.08Z" fill="#050f64"/><path d="M166.58,55.87A2.07,2.07,0,1,0,168,53.54,2,2,0,0,0,166.58,55.87Z" fill="#f4bcc7"/><path d="M162.17,95.14c-.4.4-.8.78-1.21,1.15a31.3,31.3,0,0,1-6.2,4.52,29.56,29.56,0,0,1-7.09,2.77,41,41,0,0,1-7.1,1.1l-1.36-4h.09l.59-.1a36.38,36.38,0,0,0,6.32-1.7,24.42,24.42,0,0,0,5.57-2.9,26.41,26.41,0,0,0,5.35-5.12c.25.34.5.68.77,1a12.22,12.22,0,0,0,1.19,1.4,6.08,6.08,0,0,0,1.2,1.06l.83.48A4.92,4.92,0,0,0,162.17,95.14Z" fill="#f4bcc7"/><path d="M155.11,87.45c-.06,0-.08,0,0-.06Z" fill="#84a9ff"/><rect x="-0.29" y="361.85" width="73.71" height="3.15" fill="#84a9ff"/><rect x="76.57" y="361.85" width="84.01" height="3.15" fill="#84a9ff"/><rect x="163.74" y="361.85" width="142.77" height="3.15" fill="#84a9ff"/><rect x="309.67" y="361.85" width="53.49" height="3.15" fill="#84a9ff"/><g clip-path="url(#clip-path)"><path d="M44.77,363.29a2.6,2.6,0,0,1-.4.41,2.93,2.93,0,0,1-.5.34,4,4,0,0,1-2.74.28,9.52,9.52,0,0,1-3.46-1.95A67.24,67.24,0,0,1,29,354.24l-.51-.58a66,66,0,0,1-5-6.46c-1.76-2.58-3.6-4.57-4.68-7.58a26,26,0,0,1-.86-2.89c-.05-.2-.1-.39-.14-.59a28,28,0,0,1-.63-6.45,27.11,27.11,0,0,1,2.56-11.16A67.41,67.41,0,0,1,35,334.69c.14.2.28.41.41.62a67.81,67.81,0,0,1,8.08,17.1c.09.27.17.53.24.8a60.2,60.2,0,0,1,1.47,5.92C45.45,360.54,45.64,362.15,44.77,363.29Z" fill="#84a9ff"/><path d="M44.37,363.7a2.93,2.93,0,0,1-.5.34c-1.22-2.45-2.49-4.94-3.82-7.45-.1-.17-.19-.35-.28-.52q-1.17-2.2-2.39-4.42l-.29-.52c-1.79-3.25-3.65-6.51-5.55-9.71-.1-.18-.2-.36-.31-.53q-1.85-3.11-3.72-6.14l-.32-.51c-1.67-2.68-3.35-5.29-5-7.8l.49-.33c1.69,2.54,3.38,5.18,5.07,7.89l.31.5q1.82,2.92,3.6,5.93L32,341c1.92,3.24,3.81,6.54,5.62,9.84.1.17.2.34.29.52q1.23,2.24,2.41,4.45l.28.53C41.89,358.8,43.16,361.27,44.37,363.7Z" fill="#e5e6eb"/><path d="M28.05,334.5l-.54.25a23.48,23.48,0,0,1-9.45,2H18c-.05-.2-.1-.39-.14-.59a22.84,22.84,0,0,0,9.33-1.9c.19-.07.37-.16.55-.24Z" fill="#e5e6eb"/><path d="M35.38,335.31A17.17,17.17,0,0,1,32,341l-.43.45c-.1-.18-.2-.36-.31-.53a6,6,0,0,0,.42-.46A16.47,16.47,0,0,0,35,334.69C35.11,334.89,35.25,335.1,35.38,335.31Z" fill="#e5e6eb"/><path d="M37.88,351.33l-.5.32A17.82,17.82,0,0,1,29,354.24l-.51-.58a17.12,17.12,0,0,0,8.58-2.53l.5-.32C37.69,351,37.79,351.15,37.88,351.33Z" fill="#e5e6eb"/><path d="M43.7,353.21a8.85,8.85,0,0,1-3.13,3.1l-.52.28c-.1-.17-.19-.35-.28-.52a5.29,5.29,0,0,0,.52-.29,8.11,8.11,0,0,0,3.17-3.37C43.55,352.68,43.63,352.94,43.7,353.21Z" fill="#e5e6eb"/><path d="M41.78,361.94A14.63,14.63,0,0,0,38.39,363l-.54.23c-1.72.73-3.34,1.35-5.36.76a53,53,0,0,1-11.62-5l-.62-.36A53.75,53.75,0,0,1,2.46,341.49a48,48,0,0,1,17,3.26l.7.27a50.94,50.94,0,0,1,9.93,5.37l.66.47A47.72,47.72,0,0,1,41.78,361.94Z" fill="#e5e6eb"/><path d="M31.21,357.8a19.1,19.1,0,0,0-.5-6.94l-.66-.47a18.43,18.43,0,0,1,.67,7.08c-1.07-.73-2.16-1.45-3.25-2.16L27,355c-1.76-1.13-3.53-2.23-5.33-3.29A18.11,18.11,0,0,0,20.12,345l-.7-.27a17.6,17.6,0,0,1,1.75,6.66q-4.77-2.81-9.71-5.3l-.23.46c3.37,1.7,6.7,3.53,10,5.46l.52.31c1.65,1,3.29,2,4.91,3a15.41,15.41,0,0,1-6.38,3.3l.62.36a15.89,15.89,0,0,0,6.21-3.37c1.2.78,2.39,1.57,3.58,2.38l.47.33q3.42,2.36,6.72,4.87l.54-.23Q34.88,360.32,31.21,357.8Z" fill="#84a9ff"/><path d="M56.44,362.39c0,.29-.1.58-.16.86a.2.2,0,0,1-.08,0,34.36,34.36,0,0,1-6.33-4.07l-.5-.41a34.79,34.79,0,0,1-9.88-13.12,28.84,28.84,0,0,1-1.12-3.24c-.06-.21-.12-.41-.17-.62a34.17,34.17,0,0,1,.91-19.69,34.86,34.86,0,0,1,15.81,18.36c.24.68.47,1.35.67,2,.07.21.13.42.19.63A44.09,44.09,0,0,1,56.44,362.39Z" fill="#e5e6eb"/><path d="M53.48,356.36l-.12-.23-.16-.33h0L49,347.34h0a19.42,19.42,0,0,0,6.74-4.25c-.06-.21-.12-.42-.19-.63a18.67,18.67,0,0,1-6.8,4.36h0l-2.12-4.31-.15-.31-.27-.53c-2.19-4.5-4.52-9.54-4.53-14.82h-.58c0,5.35,2.32,10.4,4.53,14.92a21.3,21.3,0,0,1-7.47,0c0,.21.11.41.17.62.45.08.91.14,1.37.19a21.41,21.41,0,0,0,6.19-.24c.08.15.15.3.22.45L48.24,347l.25.53,4.3,8.73h0a10.71,10.71,0,0,1-3.42,2.46l.5.41a11.37,11.37,0,0,0,3.19-2.31h0l3.14,6.38.24-.82Z" fill="#84a9ff"/><path d="M78.33,337.85c-3.35,6.47-6.8,13.07-12.1,18.06-.74.7-1.52,1.36-2.32,2l-.62.46a32.82,32.82,0,0,1-21.53,6.28c-.31,1.41-1.3,1.85-2.74,2a21.47,21.47,0,0,1,2.46-10.81l.33-.62a27,27,0,0,1,2.92-4.26,38.07,38.07,0,0,1,13.8-9.84c1.09-.49,2.21-.95,3.35-1.36l.66-.24C67.64,337.71,73.09,336.82,78.33,337.85Z" fill="#84a9ff"/><path d="M76.16,340.1a77.51,77.51,0,0,0-13.8,6.42l-.57.34a81.72,81.72,0,0,0-8.11,5.6l-.49.39a78.17,78.17,0,0,0-7.08,6.4c-.15.15-.3.3-.44.46a76.67,76.67,0,0,0-5.36,6.19l-.48-.37a73.46,73.46,0,0,1,5.29-6.14l.44-.45a78.75,78.75,0,0,1,7.16-6.5l.49-.39a79.44,79.44,0,0,1,8.49-5.85l.59-.35A77.33,77.33,0,0,1,76,339.52Z" fill="#e5e6eb"/><path d="M62.29,345.85c0,.23,0,.45.07.67l-.57.34-.09-.66a22.77,22.77,0,0,1,.18-6.49l.66-.24A22.38,22.38,0,0,0,62.29,345.85Z" fill="#e5e6eb"/><path d="M63.91,357.89l-.62.46a28.61,28.61,0,0,1-10.1-5.5l-.47-.41.49-.39.47.41A28.14,28.14,0,0,0,63.91,357.89Z" fill="#e5e6eb"/><path d="M46.11,359.25c-.15.15-.3.3-.44.46-.19-.1-.37-.21-.55-.32a12.58,12.58,0,0,1-3.64-3.6l.33-.62a12,12,0,0,0,3.75,3.77Z" fill="#e5e6eb"/></g><g clip-path="url(#clip-path-2)"><path d="M351.34,348.39c-3.11.09-6,1.35-9,2.42s-6.09,2-9.14,1.3c-2.57-.56-4.93-2.2-7.56-2.09-3.35.14-6,3.05-9.25,3.75-2.57.55-5.22-.31-7.84-.42a13.5,13.5,0,0,0-14,14.39c4.21-2.08,9.11-2.1,13.81-2.07l41.48.27c2.26,0,4.67,0,6.55-1.28a7.64,7.64,0,0,0,3-5.11c.36-2.07.68-5.56-.41-7.51C357.58,349.48,354.1,348.31,351.34,348.39Z" fill="#e5e6eb"/><path d="M329.87,353.8c.08,3,2.07,6.83,4.79,8.3a11,11,0,0,0,3.84.94l.87.12.46.08a19.2,19.2,0,0,1,5.06,1.48,10.75,10.75,0,0,0,2.58,1A2.68,2.68,0,0,0,350,365c.81-1,.43-2.5-.23-3.59a11.25,11.25,0,0,1-1.86-3.34c-.43-2,1-3.92,2.3-5.55s2.59-3.69,1.87-5.63a4.38,4.38,0,0,0-1.81-2.09,5.69,5.69,0,0,0-.52-.33,12.73,12.73,0,0,1-3.56-2.52c-1.43-1.78-1.2-4.41-.27-6.49s2.43-3.84,3.51-5.84c.17-.31.32-.63.47-.95l.2-.48a9.53,9.53,0,0,0,.72-4.21,6.24,6.24,0,0,0-2.75-4.86l-.08-.05-.32-.17a4.47,4.47,0,0,0-5.1.77c-2.43,2.62-.36,7.32-2.45,10.22A18.58,18.58,0,0,1,338,332a2.57,2.57,0,0,0-.33.33,3.13,3.13,0,0,0-.93,1.84c-.14,1.51,1.17,2.76,1.56,4.23.51,1.89-.56,3.86-1.94,5.25s-3.07,2.45-4.33,3.95a9.21,9.21,0,0,0-1.86,3.74c0,.18-.08.37-.11.56A8.92,8.92,0,0,0,329.87,353.8Z" fill="#84a9ff"/><path d="M339.37,363.16l.46.08a24,24,0,0,0,2-7.44l.06-.47c.23-2,.33-4,.42-6,0-.72.08-1.47.12-2.19,0-.56.07-1.13.11-1.69,0-.15,0-.3,0-.45A104.42,104.42,0,0,1,344,334.57l.09-.46c.35-1.85.75-3.68,1.2-5.51,0-.15.07-.29.11-.44.77-3.05,1.67-6.06,2.72-9l-.08-.05-.32-.17q-1.6,4.53-2.77,9.18c0,.15-.08.29-.11.44q-.69,2.78-1.21,5.59l-.09.45a100.25,100.25,0,0,0-1.36,10.4c0,.15,0,.3,0,.45,0,.57-.08,1.14-.11,1.71-.05.73-.08,1.48-.12,2.2-.1,2-.2,4.07-.44,6.08h0l-.06.47A23.72,23.72,0,0,1,339.37,363.16Z" fill="#e5e6eb"/><path d="M344.82,328.53l.45.07a18.07,18.07,0,0,0,2.62.18,20.18,20.18,0,0,0,2-.1l.2-.48a19.23,19.23,0,0,1-4.75,0l-.45-.07C344.89,328.24,344.85,328.38,344.82,328.53Z" fill="#e5e6eb"/><path d="M337.62,332.37a10.44,10.44,0,0,0,5.9,2.2H344l.09-.46h-.46A10.06,10.06,0,0,1,338,332,2.57,2.57,0,0,0,337.62,332.37Z" fill="#e5e6eb"/><path d="M342.12,345.42l.45.05a18.82,18.82,0,0,0,2.12.11,20.86,20.86,0,0,0,5.61-.77,5.69,5.69,0,0,0-.52-.33,20.37,20.37,0,0,1-7.17.54l-.45,0C342.14,345.12,342.13,345.27,342.12,345.42Z" fill="#e5e6eb"/><path d="M330,351.94a11.62,11.62,0,0,0,2.58,2.22,14.1,14.1,0,0,0,8.8,1.72l.47-.08.06-.47-.47.08h0a13.29,13.29,0,0,1-8.62-1.64,11.41,11.41,0,0,1-2.71-2.39C330.08,351.56,330,351.75,330,351.94Z" fill="#e5e6eb"/></g></svg>