<?xml version="1.0" encoding="utf-8"?>
<!-- Generator: Adobe Illustrator 25.2.1, SVG Export Plug-In . SVG Version: 6.00 Build 0)  -->
<svg version="1.1" id="Layer_1" xmlns="http://www.w3.org/2000/svg" xmlns:xlink="http://www.w3.org/1999/xlink" x="0px" y="0px"
	 viewBox="0 0 370 427.6" style="enable-background:new 0 0 370 427.6;" xml:space="preserve">
<style type="text/css">
	.st0{fill:#FBAA00;}
	.st1{fill:#BEC9ED;}
	.st2{fill:#FFFFFF;}
	.st3{fill:#D1D6DE;}
	.st4{fill:#ADB1B8;}
	.st5{fill:#679AF4;}
	.st6{fill:#80C4FF;}
	.st7{opacity:0.6;fill:#BEC9ED;enable-background:new    ;}
	.st8{fill:#FF5B97;}
	.st9{fill:#DEE4F6;}
	.st10{fill:#0885F1;}
	.st11{fill:#211534;}
	.st12{fill:#FFACAD;}
	.st13{fill:#FF9099;}
	.st14{fill:#1F143F;}
</style>
<rect x="156.9" y="178.3" class="st0" width="94.5" height="121.7"/>
<polygon class="st1" points="125.3,170.9 119.9,189.6 115,186.7 112.7,190.4 108.9,183.7 102.3,182.1 "/>
<polygon class="st2" points="125.4,166.2 102.4,177.4 109,179 "/>
<polygon class="st2" points="120,184.9 112.4,180.4 125.4,166.2 "/>
<polygon class="st3" points="112.4,180.4 112.8,185.7 109,179 125.4,166.2 "/>
<polygon class="st4" points="112.8,185.7 115.1,182 112.4,180.4 "/>
<path class="st5" d="M338.7,301.7c0,0.5-0.2,1-0.6,1.4c-0.4,0.4-0.9,0.6-1.4,0.6H33.2c-1.1,0-2-0.9-2-2c0-0.5,0.2-1,0.6-1.4
	c0.4-0.4,0.9-0.6,1.4-0.6h303.6C337.8,299.8,338.7,300.7,338.7,301.7z"/>
<path class="st6" d="M68.7,260.5c0,0,7.1-0.3,11.4,5.1c0,0-0.4-4.3-3.3-6.8S69.1,258.6,68.7,260.5z"/>
<path class="st6" d="M64.6,271.1c0,0-12.2,0-16.6,4.7c0,0,0.7-5.8,6.2-7.4S64.6,271.1,64.6,271.1z"/>
<path class="st6" d="M69.4,253.9c2.4-1.4,5.3-1.7,7.9-0.8c0,0-2.6-2.9-5.7-2.3S69.4,253.9,69.4,253.9z"/>
<path class="st6" d="M60.2,249.2c0,0-7.1-1.4-10,0.7c0,0,2.5-4.1,7.1-3.8S60.2,249.2,60.2,249.2z"/>
<path class="st6" d="M68.7,248.4c0,0,5.1-2.3,8.3-2.7c0,0-4.7-1.4-6.1-0.3C70,246.2,69.2,247.2,68.7,248.4z"/>
<path class="st6" d="M63.7,245.7c-1.9-1.1-3.9-1.9-6-2.5c0,0,3.6-0.7,4.5,0.1C62.9,244,63.4,244.8,63.7,245.7z"/>
<path class="st6" d="M69.4,268c0,0,4.1-2,8.1-0.8c0,0-2-3.1-4.6-2.6S69.6,266.5,69.4,268z"/>
<path class="st6" d="M63.5,255.4c0,0-5.4-0.5-9.3,2.5c0,0,0.8-4.3,4-4.8S62.8,253.9,63.5,255.4z"/>
<path class="st6" d="M63.4,277.5c0.8,0.9,1.2,2.1,0.9,3.2c-0.4,2-5.2,3.5-7.6,3.3C56.7,284,57,273.9,63.4,277.5z"/>
<path class="st6" d="M70.9,274.6c0.9,0.6,2,0.8,3,0.5c1.7-0.6,2.7-3.1,2.7-3.1S66.9,269.9,70.9,274.6z"/>
<path class="st6" d="M69.3,279.2c-0.5,0.6-0.5,1.5-0.1,2.2c0.7,1.2,4.8,2.4,4.8,2.4s0.5-3.2-0.4-4S70,278.2,69.3,279.2z"/>
<path class="st6" d="M63.3,261c1.9-0.2,5-0.6,4.5,1s-6,4-6,4s-6.1-3.6-4.3-4.9S63.3,261,63.3,261z"/>
<path class="st6" d="M64.9,244.3c-1.7-0.9-2.3-4.9,0.6-6.5c1.9-1,4-1.4,6.1-1.2c-0.6,1.7-1.2,3.5-1.6,5.3
	C69.7,243.3,68.2,246,64.9,244.3z"/>
<rect x="65.5" y="244" class="st6" width="0.4" height="44.1"/>
<path class="st6" d="M65.6,253.6c-1.6-1.9-3.5-3.4-5.7-4.6l0.1-0.2c2.2,1.2,4.2,2.8,5.8,4.7L65.6,253.6z"/>
<path class="st6" d="M65.8,281.6l-0.2-0.1c0.9-1.8,4-1.9,4.1-1.9v0.3C69.6,279.9,66.7,280,65.8,281.6z"/>
<path class="st6" d="M62.8,278.1l-0.2-0.1c0.4-0.6,1-1.1,1.7-1.3c0.5-0.1,1.1,0.1,1.4,0.5l-0.2,0.2c-0.3-0.3-0.8-0.4-1.2-0.4
	C63.7,277,63.2,277.5,62.8,278.1z"/>
<path class="st6" d="M65.6,272.7c-1-1.5-1.5-1.6-1.5-1.6v-0.3c0.1,0,0.6,0,1.7,1.7L65.6,272.7z"/>
<path class="st6" d="M65.8,276.1l-0.2-0.2c1.3-1.4,2.8-2.6,4.5-3.4l0.1,0.2C68.5,273.6,67,274.7,65.8,276.1z"/>
<path class="st6" d="M65.8,251.8l-0.2-0.1c1-1.6,2.3-2.9,3.8-3.9l0.2,0.2C68,249,66.7,250.3,65.8,251.8z"/>
<path class="st6" d="M65.8,257.6l-0.2-0.1c1-1.6,2.3-3,3.9-4l0.1,0.2C68.1,254.7,66.7,256.1,65.8,257.6z"/>
<path class="st6" d="M65.6,257c-0.8-0.7-1.8-1.3-2.8-1.8l0.1-0.2c1,0.4,2,1,2.9,1.8L65.6,257z"/>
<path class="st6" d="M65.8,263.5l-0.2-0.1c1-1.5,2.3-2.7,3.9-3.6l0.1,0.2C68.1,260.8,66.8,262,65.8,263.5z"/>
<path class="st6" d="M65.8,270.5l-0.2-0.2c1.2-1.1,2.6-2.1,4.1-2.8l0.1,0.2C68.3,268.4,67,269.3,65.8,270.5z"/>
<path class="st6" d="M72.1,285.9H59.2c0,0,0.7,13.8,3.8,13.8h5.3C71.4,299.8,72.1,285.9,72.1,285.9z"/>
<path class="st6" d="M65.6,248.8c-0.6-1.3-1.4-2.5-2.4-3.5l0.2-0.2c1,1,1.9,2.3,2.4,3.6L65.6,248.8z"/>
<path class="st6" d="M334.1,255.1c-0.3-0.3-0.7-0.6-1.1-0.9l0,0c-1.4-1.2-3.2-1.6-5-1.3c-2.1,0.5-2.7,2.8-2.8,3.9
	c-2.5,1.4-4.6,3.5-6.1,6.1l-0.2,0.3c-0.1,0.1-0.3,0.1-0.4,0.2c0,0.2,0,0.3,0,0.5c-1.4,2.8-2.4,5.8-2.9,8.9l0,0c0-1.1,0-2.2-0.1-3.4
	c-0.2-9.5,0.5-13.4,1.1-15c0.3,0.2,0.5,0.3,0.8,0.4c4.3,1.9,4.8,3.2,4.8,3.2s2.2-1.9,1.5-6.8s-6.1-3.4-6.9-1.7
	c-3.7-1.1-3.7,2.6-0.5,4.8c-0.6,1.7-1.3,5.7-1.1,15.2c0,1.1,0,2.1,0.1,3.1h-0.1c-0.3-2.1-0.5-4-0.8-5.5c0.2-0.9,0-1.9-0.5-2.6
	c-0.1-0.4-0.2-0.8-0.2-1.1c-0.3-1.7-0.9-3.3-1.5-4.8c0.1-0.4,1-5.9-4.8-6.5c-3.8-0.4-6.4,2.4-7.8,4.5c-0.9,0.9-1.6,2.1-1.9,3.4
	c5.7-4.2,12.2-2.2,14-1.5c0.8,1.7,1.4,3.4,1.7,5.2c0,0.1,0.1,0.3,0.1,0.5c-0.9-0.8-2.4-0.8-4.1,0.7c-0.4-1.2-1.3-2.1-2.4-2.5
	c-1.9-0.5-5.4,1-3.8,7.8c-0.7,0-1.4,0.1-2.1,0.3c-0.6-1.4-2.1-2.1-3.6-1.7c-3.1,0.6-4,7.9-4,7.9c1.4-3.1,4.3-5.3,7.7-5.9v-0.1
	c0.7-0.2,1.4-0.3,2.1-0.3l0.1,0.4c0.6,1.8,1.6,3.5,2.8,4.9c0.8-1.1,1.6-2.2,2.6-3.1c1.2,1,2.1,2.2,2.9,3.5c0,0.6,0,1.2,0.1,1.8
	c-0.3-0.1-0.6-0.3-0.9-0.4c-1.7-0.4-3.5,0-4.9,1.1c-0.1-0.4-0.4-1.1-1.5-1c-1.7,0-3.6,3.7-3.6,7.7c2-1.1,4-2,6.1-2.8
	c1-0.4,1.5-1.6,1.1-2.6c-0.3-0.7-1-1.2-1.7-1.3c1.3-0.9,2.9-1.2,4.4-0.9c0.3,0.1,0.7,0.2,1,0.4c0.2,1.7,0.7,3.3,1.4,4.8
	c0,0,0.6-0.5,1.5-1.3c0.1,0.2,0.2,0.5,0.3,0.7c0,2.6,0.2,5.2,0.5,7.9h-3.4c0,8.7,1.8,9.8,2.7,9.8h3.5c0.8,0,2.7-1,2.7-9.8h-3.9
	c0.2-5.7,1.7-9.7,4.6-11.9c1.3,1.1,2.8,1.9,4.4,2.4c0.6-1.3,0.9-2.8,0.9-4.2c1-0.1,2,0,2.9,0.2c0,0.2,0.1,0.4,0.3,0.5
	c2,1.4,3.3,3.6,3.6,6c0,0,1.2-10-3.6-7c-0.1,0.1-0.2,0.2-0.2,0.3c-1-0.2-2-0.2-3-0.2c0-0.7-0.4-1.2-1-1.6c-1-0.6-2.3-0.3-2.9,0.6
	c0,0.1-0.1,0.1-0.1,0.2c-0.9-0.6-1.7-0.6-2,0.2c-0.4,0.9-0.1,1.8,0.6,2.4c-3,2.2-4.5,6.3-4.7,12.1h-0.4c-0.1-1.5-0.1-3-0.2-4.4
	c0.2-2.4,0.5-4.5,0.7-6.3c0.7-0.7,1.3-1.4,1.9-2.1c1.5-2,0.6-3.4-1-3.7c0.3-2.5,1-5.1,1.9-7.5c0.6,0.5,1.6,1.2,2.9,2.3
	c3.1,2.7,9.2,4.8,9.2,4.8s-1.9-15.4-12.2-10.1c1.4-2.3,3.3-4.3,5.6-5.6c0,0,0,0.1,0,0.1c0,0,8.2-2.5,11.9,6.9
	C337.1,264.3,337.5,258.7,334.1,255.1z M316,290.1h-0.1c0-0.3,0-0.7,0.1-1C315.9,289.4,316,289.8,316,290.1z M315.3,280.9l0.2-0.2
	c0,0.9,0.1,1.8,0.1,2.6c-0.1-0.3-0.2-0.6-0.4-0.9C315.2,281.9,315.2,281.4,315.3,280.9L315.3,280.9z M314.8,272.5
	c-0.3-0.1-0.5-0.1-0.8-0.1c-0.4-1-0.9-2-1.4-2.9c0.7-0.4,1.2-1,1.5-1.7C314.3,269.1,314.5,270.7,314.8,272.5L314.8,272.5z
	 M308.8,272.2c1-1,2.2-1.9,3.5-2.6c0.5,0.9,1,1.8,1.4,2.8c-0.2,0-0.5,0.1-0.7,0.2c-0.9,0.3-1.3,1.4-1.4,2.8
	C310.8,274.2,309.9,273.1,308.8,272.2L308.8,272.2z M314.9,281.2v0.4l-0.1-0.3L314.9,281.2z M315.6,284.2c0.1,1.1,0.1,2.2,0.2,3.1
	c0,0.6-0.1,1.1-0.1,1.8c-0.2-2.1-0.4-4.1-0.4-6C315.4,283.5,315.5,283.8,315.6,284.2L315.6,284.2z M315.9,280.4l0.7-0.7
	c-0.2,1.3-0.3,2.8-0.5,4.4C316,282.7,315.9,281.5,315.9,280.4L315.9,280.4z M317.5,273.4c-0.4,0-0.9,0-1.3,0
	c-0.1-0.1-0.2-0.2-0.3-0.3c0.5-2.9,1.4-5.8,2.7-8.5c0.1,0.5,0.4,0.9,0.8,1.2C318.5,268.3,317.8,270.8,317.5,273.4L317.5,273.4z"/>
<rect x="168.4" y="190.1" class="st7" width="74.2" height="99.5"/>
<rect x="166.7" y="188.4" class="st2" width="74.2" height="99.5"/>
<path class="st6" d="M229.1,192.1c0,5.3-4.2,9.5-9.5,9.6c-0.9,0-1.8-0.1-2.7-0.4V183c5.1-1.5,10.4,1.4,11.8,6.5
	C229,190.4,229.1,191.3,229.1,192.1L229.1,192.1z"/>
<path class="st7" d="M231.4,196c-0.1-2.2-0.9-4.2-2.3-5.9v88.2l0,0v0.1c0,4.8-3.6,8.9-8.4,9.5c0.4,0.1,0.8,0.1,1.2,0.1
	c5.3,0,9.5-4.3,9.5-9.5L231.4,196L231.4,196z"/>
<path class="st8" d="M189.2,214.1h-2.5c-0.2,0-0.5-0.1-0.7-0.2c-0.2-0.1-0.3-0.3-0.4-0.5l-1.3-3.6H177l-1.3,3.6
	c-0.1,0.2-0.2,0.4-0.4,0.5c-0.2,0.2-0.4,0.2-0.7,0.2h-2.5l6.9-17.5h3.3L189.2,214.1z M177.9,207.5h5.6l-2.1-5.8
	c-0.1-0.3-0.2-0.6-0.3-0.9s-0.2-0.7-0.3-1.1c-0.1,0.4-0.2,0.8-0.3,1.1s-0.2,0.7-0.3,0.9L177.9,207.5z"/>
<rect x="172.2" y="220.9" class="st9" width="48.5" height="2.4"/>
<rect x="172.2" y="230.1" class="st9" width="48.5" height="2.4"/>
<rect x="172.2" y="239.2" class="st9" width="48.5" height="2.4"/>
<rect x="172.2" y="248.4" class="st9" width="48.5" height="2.4"/>
<rect x="172.2" y="257.6" class="st9" width="48.5" height="2.4"/>
<rect x="172.2" y="266.8" class="st9" width="48.5" height="2.4"/>
<rect x="172.2" y="275.9" class="st9" width="48.5" height="2.4"/>
<rect x="193" y="211.7" class="st9" width="27.7" height="2.4"/>
<rect x="193" y="202.6" class="st9" width="27.7" height="2.4"/>
<path class="st6" d="M219.6,182.6c-0.9,0-1.8,0.1-2.7,0.4v86.3c5-1.5,10.3,1.4,11.8,6.4c0.3,0.9,0.4,1.8,0.4,2.7v-86.3
	C229.1,186.9,224.8,182.6,219.6,182.6z"/>
<path class="st7" d="M297.7,253.5h-8.8c-1-0.3-2.1-0.3-3.1,0h-2.5c0,0.4,0,0.9,0.1,1.3l-3.3,2.5l-4.1,3.1l-2.5-17.6l-0.1-0.3
	c0.5-1.3,0.8-2.7,0.8-4.2v-14.8c0-1.4-0.2-2.7-0.7-4v-0.1c1.9-1.2,2.5-3.6,1.3-5.5c0.8-0.6,1.3-1.5,1.5-2.4c0.2-1.2-0.1-2.5-1-3.5
	c1.4-1.7,1.1-4.2-0.7-5.6c-0.2-0.2-0.5-0.3-0.7-0.5c0.6-4.8-2.8-9.2-7.6-9.8c-2.8-0.4-5.6,0.6-7.5,2.7c-3.2,0.4-5.4,3.3-5,6.5
	c0.1,0.6,0.2,1.1,0.5,1.7c-1.8,1.7-2.2,4.3-1.2,6.6c-0.5,0.5-0.9,1.1-1.2,1.7l-6.7-5.1l-5.2-12.5c0.2-0.6,0.3-1.2,0.3-1.9
	c0-3.2-2.6-5.8-5.7-5.8s-5.8,2.6-5.8,5.7c0,2.4,1.5,4.6,3.8,5.4l5.6,13.1c0.3,0.7,0.7,1.2,1.3,1.7l12.1,9.2
	c-0.1,0.7-0.2,1.5-0.2,2.2v14.8c0,0.5,0,1.1,0.1,1.6h-0.1v2.8c0,0.9,0.1,1.8,0.3,2.7l2.3,55.9c-0.4,0.9-0.6,1.8-0.6,2.8h13.1
	c0-1.1-0.3-2.3-0.9-3.3l-1.8-45.3l2.3,16.4c0.3,2,1.6,3.8,3.6,4.6c0.7,0.3,1.4,0.4,2.2,0.4c1.3,0,2.5-0.4,3.5-1.2l15.7-12.2
	c1.1-0.8,1.8-2.1,2.1-3.4C295.8,259.1,297.7,256.5,297.7,253.5z"/>
<path class="st7" d="M170.6,271.5l-6.9-10.4c-0.6-0.8-1.4-1.5-2.3-1.8c-1-1-2.2-1.9-3.5-2.5c0.1-0.5-0.1-1-0.5-1.4
	c-0.3-0.3-0.6-0.4-1-0.5c1.2-1,2.2-2.4,2.7-3.9c2-0.5,3.2-2.5,2.7-4.4c-0.1-0.6-0.4-1.1-0.8-1.6c1.6-2.3,1.1-5.4-1.1-7
	c-0.9-0.6-1.9-1-3-1l0,0l0,0c0-1.7-1.4-3.1-3.1-3.1c0,0,0,0,0,0c-0.3,0-0.6,0-0.9,0.1c-1.2-3-4.7-4.4-7.6-3.1
	c-2.2,0.9-3.6,3-3.6,5.4c0,0.3,0,0.5,0.1,0.8c-2,0.2-3.6,1.9-3.6,3.9v0.2c0,2.2,1.7,3.9,3.9,3.9h0.2c-1.6,4.5,0.5,9.4,4.9,11.3v0.5
	l-0.4,0.4c-1.1,0.6-2.1,1.4-3,2.4l-7.8,3.3l-0.9-2.8h-29.3l6.9,20.3l4.7,2.4l-20.9,10.2c-1.6,0.8-2.8,2.2-3.3,3.9
	c-0.1,0.2-0.1,0.5-0.2,0.7c-3.6-1.7-7.9-0.2-9.7,3.4c-0.5,1-0.7,2.1-0.7,3.1h32.9v-1l2.4-1.2l10.5-5.1l12.8,6.8
	c1.4,0.8,3.1,1,4.7,0.5h7.3c1.1,0.3,2.3,0.3,3.4,0h2.1c3.5,0,6.3-2.8,6.3-6.3l0,0v-17.7l3.8-1.8c2.4-1.1,3.4-4,2.3-6.4
	C170.8,271.9,170.7,271.7,170.6,271.5L170.6,271.5z M140.3,271.3v4.9l-1.5-4.3L140.3,271.3z"/>
<path class="st1" d="M36.1,270.4l-0.7-0.1v-0.1l0.7,0.1V270.4z M36.3,268.6l-0.7-0.1c0.1-0.5,0.1-1.1,0.2-1.6l0.7,0.1
	C36.5,267.6,36.4,268.1,36.3,268.6z M36.8,265.4l-0.7-0.1c0.1-0.5,0.2-1.1,0.3-1.6l0.7,0.1C37,264.4,36.9,264.9,36.8,265.4
	L36.8,265.4z M37.5,262.3l-0.7-0.2c0.1-0.5,0.3-1.1,0.5-1.6l0.7,0.2C37.8,261.2,37.7,261.8,37.5,262.3L37.5,262.3z M38.4,259.2
	l-0.6-0.2c0.2-0.5,0.3-1,0.5-1.5l0.6,0.2C38.8,258.2,38.6,258.7,38.4,259.2L38.4,259.2z M39.6,256.2l-0.6-0.2c0.2-0.5,0.4-1,0.6-1.5
	l0.6,0.3C40,255.1,39.8,255.6,39.6,256.2L39.6,256.2z M40.9,253.2l-0.6-0.3c0.2-0.5,0.5-1,0.7-1.5l0.6,0.3
	C41.4,252.2,41.1,252.7,40.9,253.2L40.9,253.2z M42.4,250.3l-0.6-0.3c0.3-0.5,0.5-1,0.8-1.4l0.6,0.4
	C42.9,249.4,42.7,249.9,42.4,250.3z M44.1,247.6l-0.6-0.4c0.3-0.5,0.6-0.9,0.9-1.4l0.5,0.4C44.7,246.7,44.4,247.1,44.1,247.6z
	 M45.9,244.9l-0.5-0.4c0.3-0.4,0.7-0.9,1-1.3l0.5,0.4C46.6,244.1,46.3,244.5,45.9,244.9L45.9,244.9z M47.9,242.4l-0.5-0.5
	c0.3-0.4,0.7-0.8,1.1-1.2l0.5,0.5C48.7,241.6,48.3,242,47.9,242.4L47.9,242.4z M50.1,240l-0.5-0.5l0.5-0.5l0.7-0.6l0.5,0.5l-0.7,0.6
	L50.1,240z M52.5,237.8l-0.5-0.5l1.2-1.1l0.5,0.5L52.5,237.8z M55,235.6l-0.5-0.5l1.2-1.1l0.5,0.5L55,235.6z M57.4,233.4l-0.5-0.5
	c0.4-0.4,0.8-0.8,1.2-1.1l0.5,0.5C58.1,232.6,57.7,233,57.4,233.4L57.4,233.4z M59.7,231.1l-0.5-0.5c0.4-0.4,0.8-0.8,1.1-1.2
	l0.5,0.5L59.7,231.1z M62,228.7l-0.5-0.4l1-1.2l0.5,0.4C62.6,227.9,62.3,228.3,62,228.7L62,228.7z M64.1,226.2l-0.5-0.4l1-1.2
	l0.5,0.4C64.8,225.4,64.4,225.8,64.1,226.2L64.1,226.2z M66.2,223.7l-0.5-0.4l1-1.3l0.5,0.4C66.8,222.9,66.5,223.3,66.2,223.7
	L66.2,223.7z M68.2,221.2l-0.5-0.4l0.8-1l0.2-0.3l0.5,0.4l-0.2,0.3C68.7,220.5,68.4,220.8,68.2,221.2L68.2,221.2z M70.2,218.6
	l-0.6-0.4c0.3-0.5,0.6-0.9,0.9-1.3l0.6,0.4C70.8,217.6,70.5,218.1,70.2,218.6L70.2,218.6z M64.7,218.3v-0.7c0.5,0,1.1-0.1,1.6-0.1
	l0.1,0.7C65.8,218.2,65.2,218.2,64.7,218.3L64.7,218.3z M63,218.2c-0.6-0.1-1.1-0.2-1.7-0.4l0.3-0.6c0.5,0.2,1,0.3,1.5,0.4L63,218.2
	z M68,217.8l-0.1-0.7l1.6-0.4l0.2,0.7L68,217.8z M71.2,217.1l-0.2-0.7l1.5-0.4l0.2,0.6L71.2,217.1z M59.9,216.8
	c-0.3-0.3-0.5-0.6-0.7-0.9c-0.1-0.2-0.2-0.4-0.3-0.6l0.6-0.2c0.1,0.2,0.1,0.3,0.2,0.5c0.2,0.3,0.3,0.5,0.6,0.7L59.9,216.8z
	 M74.3,216.2l-0.2-0.6c0.5-0.2,1-0.3,1.5-0.5l0.2,0.6C75.3,215.8,74.8,216,74.3,216.2L74.3,216.2z M72,215.8l-0.6-0.3
	c0.2-0.5,0.4-1,0.6-1.5l0.6,0.2C72.4,214.7,72.2,215.3,72,215.8L72,215.8z M77.4,215.1l-0.2-0.6l1.5-0.6l0.2,0.6L77.4,215.1z
	 M80.4,213.9l-0.3-0.6l1.5-0.6l0.3,0.6L80.4,213.9z M58.6,213.6c0-0.1,0-0.2,0-0.3c0-0.3,0-0.6,0-0.9c0-0.2,0-0.3,0.1-0.5l0.7,0.1
	l-0.1,0.5c0,0.3,0,0.5,0,0.8v0.3L58.6,213.6z M73,212.6l-0.7-0.1c0.1-0.5,0.1-1,0.1-1.4v-0.1h0.7v0.1
	C73.2,211.6,73.1,212.1,73,212.6L73,212.6z M83.4,212.5l-0.3-0.6l1.4-0.7l0.3,0.6L83.4,212.5z M86.3,211l-0.3-0.6
	c0.5-0.2,1-0.5,1.4-0.8l0.3,0.6L86.3,211z M59.7,210.5l-0.7-0.2c0.2-0.5,0.4-1.1,0.7-1.6l0.6,0.3C60.1,209.5,59.9,210,59.7,210.5
	L59.7,210.5z M72.3,209.4c-0.1-0.5-0.3-1-0.6-1.4l0.6-0.3c0.3,0.5,0.5,1,0.6,1.6L72.3,209.4z M89.1,209.4l-0.3-0.6l1.4-0.9l0.4,0.6
	L89.1,209.4z M61.2,207.7l-0.5-0.4c0.4-0.4,0.8-0.8,1.2-1.2l0.4,0.5C61.9,207,61.5,207.3,61.2,207.7z M91.9,207.6l-0.4-0.6l1.3-0.9
	l0.4,0.6L91.9,207.6z M70.8,206.7c-0.4-0.4-0.8-0.7-1.2-0.9l0.3-0.6c0.5,0.3,1,0.6,1.4,1L70.8,206.7z M63.6,205.7l-0.3-0.6l0.3-0.2
	c0.4-0.2,0.8-0.3,1.3-0.4l0.2,0.7c-0.4,0.1-0.8,0.2-1.2,0.4L63.6,205.7z M94.6,205.7l-0.4-0.6c0.4-0.3,0.9-0.6,1.3-1l0.4,0.5
	L94.6,205.7z M68.1,205.3c-0.5-0.1-1-0.2-1.5-0.2v-0.7c0.6,0,1.1,0.1,1.7,0.2L68.1,205.3z M97.1,203.7l-0.4-0.5l1.2-1l0.4,0.5
	L97.1,203.7z M99.6,201.6l-0.5-0.5c0.4-0.4,0.8-0.7,1.2-1.1l0.5,0.5C100.5,200.9,100.1,201.2,99.6,201.6L99.6,201.6z M102,199.3
	l-0.5-0.5l1.1-1.1l0.5,0.5C102.8,198.6,102.4,199,102,199.3L102,199.3z M104.3,197l-0.5-0.5l1.1-1.2l0.5,0.4L104.3,197z
	 M106.5,194.5l-0.5-0.4c0.3-0.4,0.7-0.8,1-1.3l0.5,0.4C107.2,193.7,106.8,194.1,106.5,194.5L106.5,194.5z M108.5,192l-0.5-0.4
	c0.3-0.4,0.7-0.9,1-1.3l0.6,0.4C109.2,191.1,108.9,191.6,108.5,192L108.5,192z M110.4,189.3l-0.6-0.4c0.3-0.4,0.6-0.9,0.9-1.4
	l0.6,0.4C111.1,188.4,110.8,188.9,110.4,189.3L110.4,189.3z M112.2,186.6l-0.6-0.4c0.3-0.5,0.6-0.9,0.8-1.4l0.6,0.3
	C112.8,185.6,112.5,186.1,112.2,186.6L112.2,186.6z"/>
<path class="st10" d="M253.4,219.4c-0.9,0-1.8-0.3-2.5-0.8l-14.2-10.9c-0.6-0.4-1-1-1.3-1.7l-6.2-14.7c-0.9-2.1,0.1-4.5,2.2-5.4
	s4.5,0.1,5.4,2.2l5.8,13.7l13.3,10.2c1.8,1.4,2.1,4,0.8,5.7C255.8,218.8,254.6,219.4,253.4,219.4L253.4,219.4z"/>
<ellipse transform="matrix(0.1602 -0.9871 0.9871 0.1602 22.0022 418.4405)" class="st11" cx="256.9" cy="196.3" rx="5.8" ry="5.8"/>
<ellipse transform="matrix(0.1602 -0.9871 0.9871 0.1602 14.5093 422.7736)" class="st11" cx="255.7" cy="202.9" rx="5.8" ry="5.8"/>
<circle class="st11" cx="254.5" cy="209.4" r="5.8"/>
<path class="st6" d="M269,272.7c-0.7,0-1.5-0.1-2.2-0.4c-1.9-0.8-3.3-2.5-3.6-4.6l-3.9-27.6c-0.3-3.2,2-6,5.1-6.4
	c3-0.3,5.8,1.8,6.3,4.8l2.5,17.7l7.8-6c2.6-1.9,6.2-1.3,8.1,1.2c1.8,2.5,1.4,6-1,7.9l-15.7,12.2C271.5,272.3,270.3,272.7,269,272.7z
	"/>
<ellipse transform="matrix(0.1602 -0.9871 0.9871 0.1602 26.4949 424.181)" class="st11" cx="262.5" cy="196.5" rx="8.7" ry="8.7"/>
<ellipse transform="matrix(3.908534e-02 -0.9992 0.9992 3.908534e-02 49.4807 462.7619)" class="st11" cx="265.3" cy="205.7" rx="5.5" ry="5.5"/>
<polygon class="st6" points="262.9,299.8 251.2,299.8 248.6,232.7 260.1,232.7 "/>
<polygon class="st5" points="260.2,257.8 260.2,246.7 251.4,244.9 260,262.8 "/>
<path class="st6" d="M248.6,235.6h13.7l0,0v13.7l0,0l0,0C254.7,249.2,248.6,243.1,248.6,235.6L248.6,235.6L248.6,235.6z"/>
<path class="st10" d="M260,245.5c-6.3,0-11.4-5.1-11.4-11.5v-14.8c0-6.4,5.1-11.5,11.5-11.5c6.4,0,11.5,5.1,11.5,11.5V234
	C271.5,240.3,266.4,245.5,260,245.5C260,245.5,260,245.5,260,245.5z"/>
<ellipse class="st2" cx="258.9" cy="211.1" rx="4.4" ry="3.6"/>
<path class="st12" d="M262.6,208.2l-0.4,2.5c-0.2,1.2-1.1,2.2-2.3,2.6c-0.4,0.1-0.9,0.2-1.3,0.1c-0.1,0-0.2,0-0.3,0
	c-1.8-0.3-3-2.1-2.7-3.9l0.5-2.5c0.3-1.8,2.1-3,3.9-2.7c1.5,0.3,2.6,1.6,2.7,3.1C262.7,207.7,262.7,207.9,262.6,208.2z"/>
<path class="st13" d="M262.8,207.4l-0.6,3.2c-0.2,1.2-1.1,2.2-2.3,2.6c-0.9-0.2-1.4-1.1-1.2-1.9l0.8-4.5L262.8,207.4z"/>
<circle class="st12" cx="260.5" cy="201.1" r="8.4"/>
<path class="st13" d="M262,192.8c-0.4-0.1-0.8-0.1-1.3-0.1c4.4,1.5,6.7,6.3,5.2,10.7c-1.2,3.5-4.5,5.8-8.2,5.7
	c0.4,0.1,0.8,0.3,1.2,0.3c4.6,0.9,9-2.1,9.9-6.7c0.9-4.6-2.1-9-6.7-9.9C262.1,192.8,262,192.8,262,192.8L262,192.8z"/>
<path class="st5" d="M257,293.3c-3.6,0-6.5,2.9-6.5,6.5c0,0,0,0,0,0h13.1C263.6,296.2,260.7,293.3,257,293.3
	C257,293.3,257,293.3,257,293.3z"/>
<path class="st5" d="M287.7,256.4c4,0,7.2-3.2,7.2-7.2c0,0,0,0,0,0h-14.5C280.5,253.1,283.8,256.4,287.7,256.4z"/>
<ellipse transform="matrix(0.4741 -0.8805 0.8805 0.4741 -35.5372 343.0409)" class="st11" cx="269.4" cy="201.3" rx="4" ry="4"/>
<ellipse transform="matrix(0.9999 -1.186802e-02 1.186802e-02 0.9999 -2.4308 3.2144)" class="st11" cx="269.6" cy="206.4" rx="4" ry="4"/>
<circle class="st12" cx="266" cy="201.8" r="2.6"/>
<path class="st6" d="M261.8,232.9h-0.5c-1.9-0.2-3.4-1.7-3.6-3.6l-1.7-15.1c-0.3-2.2,1.3-4.3,3.6-4.6c1.9-0.2,3.7,0.9,4.4,2.7
	c1.7-1.5,4.3-1.4,5.8,0.2c1,1.1,1.4,2.7,0.8,4.2l-4.9,13.4C265.1,231.8,263.5,232.9,261.8,232.9z"/>
<ellipse transform="matrix(0.5 -0.866 0.866 0.5 -52.1466 330.9742)" class="st12" cx="260.6" cy="210.6" rx="4.9" ry="2.5"/>
<polygon class="st5" points="273.2,256.1 273.9,260.4 279,251.8 "/>
<path class="st11" d="M265.9,199.2c-0.5,0.7-0.8,1.5-0.9,2.4l-0.3,1.7c0,0-7.5-2.5-9.8-8.6l4.6-4.9l9.2,4.1v3.8L265.9,199.2z"/>
<circle class="st11" cx="268.6" cy="211.7" r="4"/>
<ellipse transform="matrix(0.4741 -0.8805 0.8805 0.4741 -49.4637 348.2449)" class="st11" cx="266.8" cy="215.5" rx="4" ry="4"/>
<circle class="st12" cx="231.9" cy="187.5" r="5.8"/>
<path class="st8" d="M100.3,253c-0.3,0-0.5-0.2-0.6-0.5l-1.1-5c0-0.3,0.2-0.6,0.5-0.7c0.3,0,0.5,0.1,0.6,0.4l1.2,5
	c0.1,0.3-0.1,0.6-0.4,0.7C100.4,253,100.3,253,100.3,253z"/>
<path class="st8" d="M97.3,256.4h-5.1c-0.3,0-0.6-0.3-0.6-0.6s0.3-0.6,0.6-0.6h5.1c0.3,0,0.6,0.3,0.6,0.6S97.6,256.4,97.3,256.4z"/>
<path class="st8" d="M98.3,254.5c-0.2,0-0.3-0.1-0.4-0.2l-4.2-4.1c-0.2-0.2-0.2-0.6,0-0.8c0,0,0,0,0,0c0.2-0.2,0.6-0.2,0.8,0
	l4.2,4.1c0.2,0.2,0.2,0.6,0,0.8C98.6,254.4,98.4,254.5,98.3,254.5z"/>
<rect x="139.6" y="295.3" class="st5" width="10.8" height="4.5"/>
<rect x="139.6" y="295.8" class="st5" width="12.7" height="4"/>
<path class="st5" d="M88.8,297.2c0.5,1.1,1.3,2,2.3,2.6h6.9l4.5-2.2l16.1-7.9l17.9,9.5c3,1.8,7,0.8,8.8-2.2c1.8-3,0.8-7-2.2-8.8
	c-0.2-0.1-0.4-0.2-0.5-0.3l-20.2-10.8c-2.2-1.2-4.8-1.2-7-0.1l-23.5,11.5C88.6,290.2,87.3,294,88.8,297.2z"/>
<path class="st5" d="M99.4,294.4H90c-3-2.7-7.6-2.4-10.2,0.6c-1.2,1.3-1.8,3-1.8,4.8h21.5L99.4,294.4z"/>
<path class="st10" d="M126.5,270.4c-0.3,0-0.7,0-1-0.1l-15.5-3.4c-2.6-0.6-4.2-3.1-3.7-5.7c0.6-2.6,3.1-4.2,5.7-3.7l0,0l14,3.1
	l13.5-5.8c2.4-1.1,5.2-0.1,6.4,2.3c1.1,2.4,0.1,5.2-2.3,6.4c-0.1,0-0.2,0.1-0.3,0.1l-14.8,6.4C127.8,270.2,127.1,270.4,126.5,270.4z
	"/>
<path class="st6" d="M148,299.8c-6.8,0-12.3-5.5-12.3-12.3l0,0v-15.8c0.2-6.8,5.8-12.1,12.6-11.9c6.5,0.2,11.7,5.4,11.9,11.9v15.8
	C160.3,294.3,154.8,299.8,148,299.8C148,299.8,148,299.8,148,299.8z"/>
<path class="st10" d="M148,291.4c-6.8,0-12.3-5.5-12.3-12.3l0,0v-15.8c0.2-6.8,5.8-12.1,12.6-11.9c6.5,0.2,11.7,5.4,11.9,11.9v15.8
	C160.3,285.9,154.8,291.4,148,291.4C148,291.4,148,291.4,148,291.4z"/>
<path class="st2" d="M141.8,257.1c-1,0-1.8-0.8-1.8-1.7c0-0.5,0.2-0.9,0.5-1.3l3.2-3.2c0.7-0.7,1.8-0.7,2.4,0c0,0,0,0,0,0
	c0.7,0.7,0.7,1.8,0,2.5l-3.2,3.2C142.7,256.9,142.3,257.1,141.8,257.1z"/>
<path class="st12" d="M149.5,250.6v2.7c0,1.9-1.4,3.4-3.3,3.5H146c-2,0-3.6-1.6-3.6-3.5c0,0,0,0,0,0v-2.7c0-2,1.6-3.6,3.6-3.6
	C148,247,149.6,248.6,149.5,250.6C149.6,250.5,149.6,250.5,149.5,250.6L149.5,250.6z"/>
<path class="st13" d="M149.5,251.1v2.2c0,1.9-1.4,3.4-3.3,3.5v-5.7H149.5z"/>
<circle class="st12" cx="146" cy="243.5" r="9"/>
<path class="st13" d="M146,234.5c-0.5,0-0.9,0-1.4,0.1c4.9,0.8,8.2,5.4,7.5,10.3c-0.6,3.8-3.6,6.8-7.5,7.5c0.4,0.1,0.9,0.1,1.4,0.1
	c5,0,9-4,9-9S151,234.5,146,234.5L146,234.5z"/>
<path class="st2" d="M148.3,257.1c-1,0-1.8-0.8-1.8-1.7c0-0.5,0.2-0.9,0.5-1.3l3.2-3.2c0.7-0.6,1.8-0.6,2.5,0.2
	c0.6,0.7,0.6,1.7,0,2.3l-3.2,3.2C149.2,256.9,148.8,257.1,148.3,257.1z"/>
<circle class="st14" cx="152.2" cy="237.5" r="5"/>
<path class="st14" d="M137.4,232.5h12.5l0,0v8l0,0h-12.5c-2.2,0-4-1.8-4-4l0,0C133.4,234.3,135.2,232.5,137.4,232.5z"/>
<ellipse transform="matrix(0.9871 -0.1602 0.1602 0.9871 -35.2761 25.8734)" class="st14" cx="142.8" cy="231.7" rx="5.8" ry="5.8"/>
<circle class="st14" cx="149.1" cy="232.4" r="3.1"/>
<circle class="st14" cx="153.6" cy="242.9" r="3.7"/>
<circle class="st12" cx="151.8" cy="243.2" r="2.8"/>
<path class="st14" d="M148.1,240.5h1.4l0,0v3.2c0,0.4-0.3,0.7-0.7,0.7l0,0l0,0c-0.4,0-0.7-0.3-0.7-0.7l0,0L148.1,240.5L148.1,240.5z
	"/>
<circle class="st14" cx="147.6" cy="241.4" r="1.9"/>
<path class="st6" d="M144.8,282.6c-2.6,0-4.8-2.2-4.8-4.8c0-1.8,1.1-3.5,2.8-4.3l12.2-5.8l-3.9-5.8c-1.5-2.2-0.9-5.2,1.3-6.7
	s5.2-0.9,6.7,1.3l6.9,10.4c1.5,2.2,0.9,5.2-1.3,6.6c-0.2,0.1-0.4,0.3-0.6,0.4l-17.3,8.2C146.2,282.4,145.5,282.6,144.8,282.6z"/>
<circle class="st12" cx="144.2" cy="277.8" r="6.1"/>
<path class="st6" d="M148,299.8h6c3.5,0,6.3-2.8,6.3-6.3v-7.8L148,299.8z"/>
<polygon class="st14" points="107.9,276 124.9,284.6 150.1,284.5 134.6,275.1 "/>
<polygon class="st5" points="137.2,276 107.9,276 101,255.6 130.3,255.6 "/>
<ellipse transform="matrix(0.6568 -0.754 0.754 0.6568 -159.5252 181.023)" class="st9" cx="119.1" cy="265.8" rx="1.4" ry="2"/>
<path class="st14" d="M151.2,282.3l-15.2-8c-0.6-0.3-1.4-0.1-1.7,0.5l0,0c-0.3,0.6-0.1,1.4,0.5,1.7l15.3,8c0.6,0.3,1.4,0.1,1.7-0.5
	c0,0,0,0,0,0l0,0C152.1,283.4,151.8,282.6,151.2,282.3C151.2,282.3,151.2,282.3,151.2,282.3z"/>
<path class="st6" d="M99.5,297.2c0.5,1.1,1.3,2,2.3,2.6h6.9l4.5-2.2l16.1-7.9l17.9,9.5c3,1.8,7,0.8,8.8-2.2c1.8-3,0.8-7-2.2-8.8
	c-0.2-0.1-0.4-0.2-0.5-0.3L133,277.2c-2.2-1.2-4.8-1.2-7-0.1l-23.6,11.5C99.2,290.2,97.9,294,99.5,297.2L99.5,297.2z"/>
<path class="st5" d="M89.2,299.8h21.5v-5.4h-9.5c-1.3-1.1-2.9-1.8-4.6-1.8h-0.2C92.5,292.5,89.3,295.8,89.2,299.8z"/>
</svg>
