<svg xmlns="http://www.w3.org/2000/svg" xmlns:xlink="http://www.w3.org/1999/xlink" viewBox="0 0 370 427.58"><defs><linearGradient id="Безымянный_градиент_6" x1="157.01" y1="311.43" x2="157.01" y2="244.88" gradientUnits="userSpaceOnUse"><stop offset="0.01" stop-color="#ffd819"/><stop offset="1" stop-color="#feb744"/></linearGradient><linearGradient id="Безымянный_градиент_6-2" x1="141.41" y1="211.68" x2="255.06" y2="211.68" xlink:href="#Безымянный_градиент_6"/></defs><title>dffdf</title><g style="isolation:isolate"><g id="Layer_1" data-name="Layer 1"><path d="M35.1,326.5c0,1.22-5.55,2.21-12.4,2.21s-12.4-1-12.4-2.21,5.55-2.22,12.4-2.22S35.1,325.27,35.1,326.5Z" fill="#e4e9ff"/><path d="M28,327.11a20.19,20.19,0,0,1-9.59,0c-.68-.18-1.3-.5-1.44-1.18l-2.72-13.67H32.19l-2.72,13.67C29.33,326.61,28.7,326.91,28,327.11Z" fill="#9393d8"/><path d="M32.19,312.26c0-.72-4-1.31-8.93-1.31s-8.93.59-8.93,1.31,4,1.31,8.93,1.31S32.19,313,32.19,312.26Z" fill="#8282d1"/><g opacity="0.35" style="mix-blend-mode:multiply"><path d="M31.82,314.13a30.46,30.46,0,0,1-6.09,3.9,4.23,4.23,0,0,0-1.68,1.16,1.33,1.33,0,0,0,.16,1.83c.25.15.61.27.61.56a.53.53,0,0,1-.17.34,17.36,17.36,0,0,1-2.23,1.61c-.7.59-1.16,1.72-.53,2.4a2.55,2.55,0,0,0,1,.71c.5.19.62,1.05.81,1.05a14.07,14.07,0,0,0,4.32-.58,1.48,1.48,0,0,0,1.44-1.18Z" fill="#5851bc"/></g><path d="M26.56,244.11a16.56,16.56,0,0,0,.06-6.94c-.4-2.41-1.45-4.67-3.85-4.22s-3.11,3.21-3.24,5.22c-.18,2.78.71,5.46,1,8.2.46,4.16-.5,8.7-1.58,12.73-.88,3.23-2,5.85-2.82,9.63a19.91,19.91,0,0,0,.1,8.68c.77,3.15,5.79,14.44,6.76,26,.46-14.82,3.4-19,4.38-24a22.2,22.2,0,0,0,.66-6.27c-.48-5.39-2-10.64-2.87-16S25.21,249.7,26.56,244.11Z" fill="#112353"/><path d="M23.54,312.57h0a.32.32,0,0,0,.29-.34c-2.29-26.59-.46-72.2-.44-72.65a.32.32,0,1,0-.63,0c0,.46-1.85,46.11.44,72.74A.31.31,0,0,0,23.54,312.57Z" fill="#8282d1"/><path d="M22.44,285.25h0a.31.31,0,0,0,.3-.32c-.35-7.82-3.92-10.25-4.07-10.35a.32.32,0,0,0-.35.53h0s3.46,2.38,3.79,9.84A.32.32,0,0,0,22.44,285.25Z" fill="#8282d1"/><path d="M22.39,279.59a.32.32,0,0,0,.31-.3c.47-7.94,3.42-9.05,3.45-9.06a.32.32,0,0,0-.2-.6c-.14.05-3.38,1.19-3.87,9.62a.32.32,0,0,0,.29.34Z" fill="#8282d1"/><path d="M22.42,269.83h0a.31.31,0,0,0,.28-.34c-.59-6.16-2.54-7.94-2.62-8a.33.33,0,0,0-.45,0,.31.31,0,0,0,0,.44s1.85,1.76,2.42,7.61A.31.31,0,0,0,22.42,269.83Z" fill="#8282d1"/><path d="M43.1,265.94c.69-1.71,3.66-8.16,3.18-10.37-1.28.51-4.84,6-6,8.49a80.76,80.76,0,0,1-6.08,9.74c-1.53,2.08-2.39,2.63-3.54,5-.84,1.66-2.15,8.58-2.24,11.07-.2,4.64,1,5.56-.36,14.33,2.9-11,9.08-17.6,10.07-20.86,1.15-3.73,1.18-5.24,2.07-9.23S40.92,271.12,43.1,265.94Z" fill="#112353"/><path d="M26.84,312.89a.32.32,0,0,1-.29-.34c.86-10.91,5-23.59,8.31-32.3s7.14-16.81,7.67-17a.33.33,0,0,1,.33.06.31.31,0,0,1,0,.44l-.07.07c-1.2,1.52-14.09,29-15.64,48.81a.33.33,0,0,1-.32.29Zm15.66-49.1,0,0Zm0,0Z" fill="#8282d1"/><path d="M31.13,292.45a.33.33,0,0,0,.31-.24c1.46-5.61-.27-8.45-.55-8.63a.31.31,0,0,0-.43.1.3.3,0,0,0,0,.36c.08.12,1.76,2.57.35,8a.32.32,0,0,0,.23.38Z" fill="#8282d1"/><path d="M32.4,288.31a.32.32,0,0,0,.29-.2c2.12-5.35,4.35-5.6,4.6-5.61a.33.33,0,0,0,.3-.26l-.07-.33-.26,0c-.47,0-2.93.4-5.16,6a.33.33,0,0,0,.18.41Z" fill="#8282d1"/><path d="M35,281.19a.31.31,0,0,0,.3-.23c1.18-4.48.47-6.52.18-6.64a.32.32,0,0,0-.4.45c.05.1.73,1.79-.39,6a.31.31,0,0,0,.23.38Z" fill="#8282d1"/><path d="M7.07,280c-.89-1-4.91-4.64-6.69-4.47.21,1,3.26,4.56,4.47,6a21.91,21.91,0,0,1,3.84,7,27.11,27.11,0,0,0,1.13,4c.54,1.06,3.34,4.71,4.38,6.05,1.94,2.42,4.07,3.3,6.13,9.34C19,300,17.85,292.26,16.35,290a26.12,26.12,0,0,0-4.8-5.31C9.27,282.61,10,283.05,7.07,280Z" fill="#112353"/><path d="M21.48,312.89h.07a.3.3,0,0,0,.24-.37,76.64,76.64,0,0,0-8.61-22.42,61.1,61.1,0,0,0-7.24-10c-.19-.21-.36-.41-.42-.49a.32.32,0,0,0-.38-.19.32.32,0,0,0-.22.22c-.06.19,0,.2.54.87a60,60,0,0,1,7.17,10,75.65,75.65,0,0,1,8.55,22.23A.32.32,0,0,0,21.48,312.89Z" fill="#8282d1"/><path d="M17,298.65a.35.35,0,0,0,.14,0,.31.31,0,0,0,.15-.42c-1.77-3.64-4.19-4-4.66-4h-.24l-.11.32a.33.33,0,0,0,.31.3c.25,0,2.49.28,4.13,3.68A.31.31,0,0,0,17,298.65Z" fill="#8282d1"/><path d="M15.72,295.85a.25.25,0,0,0,.12,0,.31.31,0,0,0,.17-.41c-1.55-3.76-.63-5.15-.56-5.25a.31.31,0,0,0,.08-.35.32.32,0,0,0-.42-.17s-1.61,1.34.32,6A.31.31,0,0,0,15.72,295.85Z" fill="#8282d1"/><path d="M13.25,291.17a.35.35,0,0,0,.19-.06.32.32,0,0,0,.06-.44c-1.83-2.41-3.32-2.77-3.73-2.83l-.25.08-.12.29a.34.34,0,0,0,.29.26c.25,0,1.59.31,3.31,2.58A.3.3,0,0,0,13.25,291.17Z" fill="#8282d1"/><path d="M53.36,247.21a5.43,5.43,0,0,0,5.43,5.43h33a7.31,7.31,0,1,0,0-14.61h0a9.8,9.8,0,0,0-18.91-3.24,8.54,8.54,0,0,0-3.13-.59,8.63,8.63,0,0,0-8.62,8.1,5.54,5.54,0,0,0-2.34-.53A5.43,5.43,0,0,0,53.36,247.21Z" fill="#f2eaf4"/><path d="M193.36,132.66a1.29,1.29,0,0,1-1.29-1.29V96.21a1.29,1.29,0,0,1,2.58,0v35.16A1.29,1.29,0,0,1,193.36,132.66Z" fill="#f7b75c"/><path d="M218.57,137.49a1.26,1.26,0,0,1-.67-.19,1.28,1.28,0,0,1-.42-1.77L236,105.61a1.29,1.29,0,1,1,2.19,1.35l-18.47,29.92A1.28,1.28,0,0,1,218.57,137.49Z" fill="#f7b75c"/><path d="M168.15,137.49a1.29,1.29,0,0,1-1.1-.61L148.58,107a1.29,1.29,0,0,1,2.19-1.35l18.48,29.92a1.29,1.29,0,0,1-.42,1.77A1.32,1.32,0,0,1,168.15,137.49Z" fill="#f7b75c"/><path d="M300.38,175.82a7.75,7.75,0,0,0-3.3.75,12.24,12.24,0,0,0-16.65-10.64,13.87,13.87,0,0,0-26.76,4.59h0a10.35,10.35,0,0,0,0,20.69h46.72a7.7,7.7,0,0,0,0-15.39Z" fill="#f2eaf4"/><path d="M111.72,163.54a3.86,3.86,0,0,0-1.67.38,6.2,6.2,0,0,0-8.43-5.38,7,7,0,0,0-13.54,2.32h0a5.24,5.24,0,1,0,0,10.47h23.64a3.9,3.9,0,0,0,0-7.79Z" fill="#f2eaf4"/><polygon points="260.81 143.19 249.49 154.92 249.62 150.88 260.81 143.19" fill="#b9b9f1" opacity="0.7" style="mix-blend-mode:multiply"/><polygon points="243.73 148.9 255.62 153.79 260.81 143.19 243.73 148.9" fill="#cdcdf7"/><polygon points="260.81 143.19 248.01 150.66 249.49 154.92 250.5 151.69 260.81 143.19" fill="#b9b9f1" opacity="0.7" style="mix-blend-mode:multiply"/><rect x="132.19" y="160.32" width="32.22" height="0.89" transform="translate(-68.93 135.29) rotate(-40.62)" fill="#b9b9f1"/><path d="M136,158.25,147.63,161l-8.31-10.47a2.66,2.66,0,1,1,.31-3.78,2.66,2.66,0,0,1-.31,3.78h0l8.78,10.06s-.76-8.23-.92-12.3a128.19,128.19,0,0,1-12.76-8.56l-.7-.61s1.86-1.41-5.09,4.55l.52.76C131.94,148.54,136,158.25,136,158.25Z" fill="#cdcdf7"/><path d="M124.37,143.26l1.82,2.13a1,1,0,0,0,1.34.1l8.54-7.33a.94.94,0,0,0,.14-1.28l0-.06-1.82-2.12a1,1,0,0,0-1.34-.1l-8.54,7.32A.94.94,0,0,0,124.37,143.26Z" fill="#b9b9f1"/><g opacity="0.35" style="mix-blend-mode:multiply"><path d="M124.37,143.26l1.82,2.13a1,1,0,0,0,1.34.1l8.54-7.33a.94.94,0,0,0,.14-1.28c-6.68,6.46-8.62,3.85-9.08,2.76l-2.66,2.28A.94.94,0,0,0,124.37,143.26Z" fill="#5851bc"/></g><path d="M139.48,164.05a11.85,11.85,0,0,0,13-12.06,15.76,15.76,0,0,0-3.91-10.35l-.68.57a14.88,14.88,0,0,1,3.7,9.77,11.28,11.28,0,0,1-3.84,8.61c-5.05,4.34-13.21,3.15-18.19-2.65l-.67.58A15.66,15.66,0,0,0,139.48,164.05Z" fill="#b9b9f1"/><path d="M159.71,151a1.07,1.07,0,0,0,1.52.12,1.08,1.08,0,1,0-1.52-.12Z" fill="#b9b9f1"/><path d="M147.45,142.72a1.07,1.07,0,0,0,1.52.12,1.08,1.08,0,1,0-1.52-.12Z" fill="#b9b9f1"/><path d="M128.61,158.94a1.08,1.08,0,0,0,1.52.12,1.08,1.08,0,1,0-1.41-1.64A1.08,1.08,0,0,0,128.61,158.94Z" fill="#b9b9f1"/><path d="M135.25,172a1.09,1.09,0,0,0,1.53.11,1.08,1.08,0,0,0-1.41-1.64A1.09,1.09,0,0,0,135.25,172Z" fill="#b9b9f1"/><path d="M126.46,260.53l-2-5.39,5.4-2,2,5.4Zm-.89-4.88,1.41,3.74,3.73-1.41-1.41-3.73Z" fill="#9393d8"/><path d="M129.88,256.81a3.22,3.22,0,1,1,1.13-.21A3.2,3.2,0,0,1,129.88,256.81Zm0-5.53a2.37,2.37,0,0,0-.82.15,2.33,2.33,0,0,0-1.35,3,2.33,2.33,0,0,0,3,1.35,2.27,2.27,0,0,0,1.29-1.22,2.36,2.36,0,0,0,.06-1.77h0a2.31,2.31,0,0,0-1.22-1.29A2.23,2.23,0,0,0,129.88,251.28Z" fill="#9393d8"/><path d="M303.53,163.68l.1-1-1.4-.58-.66.8-.87-.37,3-3.29,1,.41-.24,4.43Zm.19-1.79q.13-1.41.15-1.59c0-.12,0-.22,0-.29-.15.2-.55.69-1.19,1.46Z" fill="#b9b9f1"/><polygon points="306.12 164.56 305.71 164.39 307.18 160.86 307.59 161.03 306.12 164.56" fill="#b9b9f1"/><polygon points="306.68 165.04 304.97 164.33 305.14 163.92 306.85 164.63 306.68 165.04" fill="#b9b9f1"/><rect x="307.16" y="160.02" width="0.44" height="1.85" transform="translate(40.67 382.88) rotate(-67.4)" fill="#b9b9f1"/><polygon points="306.26 159.11 302.74 157.64 302.91 157.23 306.43 158.7 306.26 159.11" fill="#b9b9f1"/><polygon points="302.67 158.38 302.26 158.21 302.97 156.5 303.38 156.67 302.67 158.38" fill="#b9b9f1"/><rect x="305.42" y="158.68" width="1.85" height="0.44" transform="translate(42.11 380.89) rotate(-67.45)" fill="#b9b9f1"/><path d="M80.44,189.12l-1-.42-1,1.15.55.87-.62.72-2.2-3.84.71-.82,4.12,1.62Zm-1.65-.74-1.46-.64-.26-.13c.15.21.48.74,1,1.59Z" fill="#cdcdf7"/><rect x="80.27" y="183.95" width="0.45" height="3.82" transform="translate(-112.74 125.17) rotate(-49.15)" fill="#cdcdf7"/><polygon points="81.5 187.95 81.17 187.66 82.38 186.26 82.71 186.55 81.5 187.95" fill="#cdcdf7"/><rect x="78.12" y="184.38" width="1.85" height="0.45" transform="translate(-112.25 123.51) rotate(-49.11)" fill="#cdcdf7"/><polygon points="74.45 187.99 74.11 187.69 76.61 184.8 76.95 185.09 74.45 187.99" fill="#cdcdf7"/><rect x="74.06" y="186.91" width="0.45" height="1.85" transform="translate(-116.38 121.14) rotate(-49.14)" fill="#cdcdf7"/><polygon points="77.34 185.72 75.94 184.51 76.23 184.17 77.63 185.38 77.34 185.72" fill="#cdcdf7"/><path d="M41.24,224l.71-.12-.12-.71.7-.12c.17,1,.35,2,.52,3.06l1.33-1.91-1.33.23-.12-.72h0l2-.33s.06,0,.09,0c.18-.27.37-.53.56-.79l0,0,.36.25,0,0-.56.79a.11.11,0,0,0,0,.08c.12.66.23,1.32.34,2v.07l-.71.12c-.08-.46-.15-.91-.23-1.35l-1.36,1.88h0l3-.51.12.7-.69.12.12.72-.71.12-.13-.72-2.63.45-.45-2.63-.71.12Z" fill="#9393d8"/><path d="M275.25,205.81l.38-.86-.86-.37c.12-.29.24-.57.37-.86l3.72,1.62-1.14-2.82-.7,1.62-.87-.38,0-.07c.34-.8.69-1.59,1-2.39a.17.17,0,0,0,0-.14c-.16-.39-.31-.78-.47-1.18l0-.06.53-.21a.17.17,0,0,0,0,.07c.15.4.31.79.46,1.18a.16.16,0,0,0,.09.09l2.4,1,.07,0c-.12.29-.25.57-.37.87l-1.65-.72c.37.95.73,1.9,1.1,2.84h0c.53-1.23,1.07-2.46,1.6-3.7l.86.37c-.12.29-.25.57-.37.85l.88.38-.38.87-.87-.38-1.4,3.22-3.2-1.39-.38.86Z" fill="#9393d8"/><ellipse cx="267.73" cy="319.99" rx="101.93" ry="9.35" fill="#e4e9ff"/><ellipse cx="192.84" cy="327.27" rx="40.95" ry="4.35" fill="#e4e9ff"/><ellipse cx="110.85" cy="328.65" rx="70.08" ry="4.35" fill="#e4e9ff"/><ellipse cx="45.03" cy="326.89" rx="14.13" ry="3.45" fill="#e4e9ff"/><ellipse cx="230.06" cy="325.11" rx="14.13" ry="3.45" fill="#e4e9ff"/><path d="M344.44,275.79a22.49,22.49,0,0,0-9.73,2.22,36,36,0,0,0-49-31.32A40.82,40.82,0,0,0,207,260.2h0a30.44,30.44,0,1,0,0,60.87H344.44a22.64,22.64,0,0,0,0-45.28Z" fill="#b9b9f1"/><path d="M246.26,226.79a40.35,40.35,0,0,1,37.52,25.53,35.55,35.55,0,0,1,48.4,30.94,22.36,22.36,0,0,1,30.18,29A22.61,22.61,0,0,0,334.71,278a36,36,0,0,0-49-31.32,40.82,40.82,0,0,0-78.53,10.41A40.34,40.34,0,0,1,246.26,226.79Z" fill="#b9b9f1" opacity="0.7" style="mix-blend-mode:multiply"/><path d="M205.91,265.66h0a40.59,40.59,0,0,1,.58-5.44,30.4,30.4,0,0,0-30,29.1A30.08,30.08,0,0,1,205.91,265.66Z" fill="#eaeaea"/><path d="M243.43,260.17c7.48-.92,14.88-1.69,22.28-.18a13.75,13.75,0,0,1,11.34,11.89c.9,6.69-2.13,12.74-7.87,15.66A24.64,24.64,0,0,1,257.26,290c-1,0-2,0-3.19,0,0,5.54.05,11,.08,16.55l-10.48.05C243.59,291.19,243.51,275.82,243.43,260.17Zm10.67,21.35c3,.37,5.78.44,8.45-.8A7.11,7.11,0,0,0,266.5,273a6.12,6.12,0,0,0-5.65-5.46,57.38,57.38,0,0,0-6.82,0C254.05,272.27,254.08,276.79,254.1,281.52Z" fill="#fff"/><path d="M302,273.53l-1.75,6.91c-2.22-.52-4.33-1.1-6.48-1.46a5.3,5.3,0,0,0-3,.24,3.37,3.37,0,0,0-1.85,2,3.08,3.08,0,0,0,1.23,2.41,27.17,27.17,0,0,0,4.1,1.86,34.26,34.26,0,0,1,4.91,2.38,9.89,9.89,0,0,1-.24,16.69c-3.79,2.43-8.05,2.9-12.38,2.44-2.9-.31-5.75-1.12-8.87-1.76l1.78-7.49c3.34.64,6.51,1.3,9.7,1.82a3.63,3.63,0,0,0,2.36-.44,3.31,3.31,0,0,0,1.59-2,3.41,3.41,0,0,0-1.18-2.49,14.06,14.06,0,0,0-3.23-1.5,44.36,44.36,0,0,1-5.62-2.64c-6-3.86-6.18-11.78-.43-16.07C287.31,271,296.23,270.49,302,273.53Z" fill="#fff"/><path d="M223,321.07c.17-.15.34-.29.5-.45l.18-.17c.26-.24.52-.49.77-.75l.19-.2c.24-.25.48-.5.71-.76l.21-.24c.22-.25.43-.51.64-.76l.23-.29c.19-.25.39-.49.57-.75l1.64,4.37h2.89a56.35,56.35,0,0,0-1.22-10.19l.21-.54c.09-.24.19-.47.27-.71s.14-.4.21-.6.16-.46.23-.69l.18-.65c.06-.22.13-.44.19-.66s.11-.47.16-.7l.15-.65c.05-.25.09-.5.13-.75s.08-.41.11-.62.07-.54.1-.82.05-.38.07-.57,0-.62.07-.93,0-.32,0-.48c0-.48,0-.95,0-1.43v-4.79c.06-.15.14-.31.2-.46,0,1.34.08,2.9.16,4.49a58,58,0,0,0,.74,7.37c.32,3.81,1,10.69,1.36,14.38h3c.33-3,.86-7.87,1-10a8.27,8.27,0,0,0-.57-3.7h0c-1-1.84.71-7.59,1.53-17.41.12-1.48.79-1.65,1.23-4.71a9.17,9.17,0,0,0-1.05-5.36c.19-.12.2-.47.14-.84s-.06-.58-.09-.87l.41-.32c1.48-1.24,2.79-2.58,3-3.56.36-2.2.08-8.72-.1-11.8,0-.19,0-.36,0-.53a6.06,6.06,0,0,0-1.17-3.42c-1-1.66-3.11-1.93-4.09-1.95a2.19,2.19,0,0,0-.44-1,2,2,0,0,0-.88-.24,9.53,9.53,0,0,1-.15-1.44h.74c.34-.13.16-.21.29-.85.08-.41.67-.68,1.13-1.87.11-.12.22-.25.34-.37a61.9,61.9,0,0,0,11-14.85c.39-.73.76-1.47,1.12-2.22a61.53,61.53,0,0,0,4.34-12.19,41.17,41.17,0,0,0-7.9-.76c-.68,0-1.35,0-2,.05l-.66,0-1.32.09-.79.1-1.17.14-.84.14-1.08.19-.87.19-1,.23-.89.23-1,.27-.9.28-.92.31-.9.33-.87.33-.92.38-.81.36-.92.44-.76.38-.93.49-.7.39-.95.56-.63.39-1,.63-.56.39c-.33.23-.66.46-1,.7l-.48.37c-.34.26-.68.52-1,.79l-.38.32c-.35.3-.71.6-1.05.91a2.73,2.73,0,0,0-.25.23c-.38.34-.76.69-1.12,1.05l-.09.09A40.76,40.76,0,0,0,207,260.2h0a30.44,30.44,0,1,0,0,60.87ZM227.09,280v-.06c0-.62.07-1.25.13-1.9h0a42.57,42.57,0,0,1,.75-5c0,.27.07.54.1.8a19.5,19.5,0,0,1,0,3.24c-.12,1-1,2.5-.43,2.77-.09.44-.22,1.06-.38,1.8h-.23C227.07,281.1,227.07,280.53,227.09,280Z" fill="#5851bc" opacity="0.35" style="mix-blend-mode:multiply"/><path d="M192.84,143.09a62.21,62.21,0,0,0-44,106.21c7.91,7.91,12.39,21.3,12.13,31.15h63.74c-.26-9.85,4.22-23.24,12.13-31.15a62.21,62.21,0,0,0-44-106.21Z" fill="#f7b75c"/><path d="M225,280.07H160.55a5.15,5.15,0,0,0-5.14,5.15V298.5a28.05,28.05,0,0,0,28.05,28.05H202.1a28,28,0,0,0,28-28.05V285.22A5.15,5.15,0,0,0,225,280.07Z" fill="#cdcdf7"/><path d="M223.68,208.74c-2.82-.93-7.57-.39-14.16,7.4a37.7,37.7,0,0,0-5.37,8.77,109.63,109.63,0,0,1-11.43-1.53l-.93,4.75c.4.08,4.85.93,10.48,1.47-7.58,21.33-6.5,51.7-6.44,53.28l4.83-.19c0-.38-1.16-32.31,6.61-52.74,5.85.24,12-.09,16-2,4.3-2.09,6-7.11,5.67-11.15S226.67,209.72,223.68,208.74Zm-2.5,14.84c-2.72,1.32-7.16,1.7-11.81,1.6a30.64,30.64,0,0,1,3.84-5.92c4.33-5.12,7.47-6.42,9-5.93,1.07.35,1.84,1.83,2,3.78C224.3,219.46,223.44,222.48,221.18,223.58Z" fill="#fff"/><path d="M193,223.38a109.89,109.89,0,0,1-11.44,1.53,37.7,37.7,0,0,0-5.37-8.77c-6.59-7.8-11.34-8.33-14.15-7.4-3,1-5,4.06-5.29,8s1.38,9.06,5.68,11.15c4,1.93,10.15,2.27,16,2,7.76,20.43,6.62,52.36,6.61,52.74l4.83.19c.06-1.58,1.14-31.95-6.44-53.28,5.63-.54,10.08-1.39,10.48-1.47Zm-28.46.2c-2.27-1.1-3.13-4.12-3-6.47.13-2,.91-3.43,2-3.78a2.16,2.16,0,0,1,.65-.1c1.66,0,4.53,1.56,8.31,6a30.67,30.67,0,0,1,3.85,5.92C171.65,225.28,167.21,224.9,164.5,223.58Z" fill="#fff"/><path d="M225,280.07H160.55a5.15,5.15,0,0,0-5.14,5.15v5.35h42.93a5.32,5.32,0,1,1,0,10.64H155.56a27.84,27.84,0,0,0,3.23,10.65h38.73a5.33,5.33,0,0,1,5.33,5.33v9.34a28,28,0,0,0,27.29-28V285.22A5.15,5.15,0,0,0,225,280.07Z" fill="#9393d8"/><path d="M156,249.7c-4.68-4.17-14.43-7.95-7.14-.4,7.72,8,12.32,21.13,12.13,31h6.59C167.56,276.16,170.42,262.59,156,249.7Z" opacity="0.5" fill="url(#Безымянный_градиент_6)" style="mix-blend-mode:multiply"/><path d="M192.84,143.09a62.19,62.19,0,0,0-51.43,27.18C156.6,151,185.25,142.81,213.23,160A33,33,0,0,1,224,170.82c19.34,31.55,8.55,62.58-16.31,75.52-11.1,5.77-17.91,21.87-13.35,33.92h30.39c-.2-9.83,4.27-23.1,12.13-31a62.21,62.21,0,0,0-44-106.21Z" opacity="0.5" fill="url(#Безымянный_градиент_6-2)" style="mix-blend-mode:multiply"/><g opacity="0.55" style="mix-blend-mode:screen"><path d="M137.63,200.22l11.67.91A47.46,47.46,0,0,1,157,182.5l-9.42-6.34A61.36,61.36,0,0,0,137.63,200.22Z" fill="#fff"/><path d="M151.62,201.31l11.67.9a30.93,30.93,0,0,1,5-12.11l-9.42-6.34A44.82,44.82,0,0,0,151.62,201.31Z" fill="#fff"/><path d="M150.81,171.87l8.69,7.32a47.63,47.63,0,0,1,15.79-12.54l-4.08-11A61.53,61.53,0,0,0,150.81,171.87Z" fill="#fff"/><path d="M161.23,180.64l8.69,7.31a30.94,30.94,0,0,1,10.26-8.14l-4.08-11A44.92,44.92,0,0,0,161.23,180.64Z" fill="#fff"/></g><path d="M312.29,246.49h-18.2q.18,8.85.3,17.7a7,7,0,0,1-.33,2.67h0c-.24,0-.14.06-.22.49v0a5.46,5.46,0,0,1-3.57,2.17.33.33,0,0,0,0,.2.44.44,0,0,0-.14.55,3.91,3.91,0,0,0,2.55.31,7.27,7.27,0,0,0,1.58-.44,2.45,2.45,0,0,0,.58-.39,2.42,2.42,0,0,0,.53-.13l.06.05L297,269s-.17-1-.31-1.56a1.17,1.17,0,0,0-.11-.25,74.86,74.86,0,0,0,3.19-11.36c-.29,4.79-2,14.53-2.14,14.87a2.51,2.51,0,0,1-2.07,1.45c-.39,0-2.28-.08-2.08.8a3.86,3.86,0,0,0,2.46.75,7.45,7.45,0,0,0,1.63-.16,3,3,0,0,0,1-.55l.22.29,1.73-.42s0-.45,0-1a2.3,2.3,0,0,0-.37-1.05l0-1,1-.12s1.92-6.21,2.83-8.33a18.21,18.21,0,0,0,1-2.65,19.3,19.3,0,0,0,.39-3.31,29.69,29.69,0,0,1,1.11-6,1,1,0,0,1,.17-.35,1,1,0,0,1,.63-.22c2.44-.22,3.56.2,5.09-.28a3.5,3.5,0,0,0,2.34-1.58A6.24,6.24,0,0,0,312.29,246.49Z" fill="#5851bc" opacity="0.35" style="mix-blend-mode:multiply"/><path d="M302.35,211.8a1.46,1.46,0,0,0,.13,1.21l1.49-2h-1Z" fill="#214ebe"/><path d="M310.45,214.47a5.55,5.55,0,0,1-2.31,4.11l.15,2.37-1.51,1-1,.67-.6-1.24-.08-1.53a.8.8,0,0,0-.63-.73,2.81,2.81,0,0,1-1.47-.89.52.52,0,0,1-.1-.11h0c-1-1.34-1.36-6.47,2-7.93S310.52,211.86,310.45,214.47Z" fill="#f39f86"/><path d="M306.82,215.27c.13.06.26-.15.26-.15a14,14,0,0,1,1-1.89c.45-.46,1.51-.41,1.59,1,.07,1.09-1.22,3.42-1.62,4.1a.25.25,0,0,0,.21.38h0a.27.27,0,0,0,.17-.06c.83-.73,4.5-4.24,1.59-7.55,0,0-2.32.15-2.67,1.27a23.11,23.11,0,0,0-.6,2.62S306.68,215.21,306.82,215.27Z" fill="#214ebe"/><path d="M302.35,211.8s2-1.58,5.1.34l2.51-.64s.11,0,.05-.41-.33-4.07-4.74-3.24C302.74,208.33,301.19,210.08,302.35,211.8Z" fill="#214ebe"/><path d="M308.24,218.7h0a.27.27,0,0,0,.17-.06c.83-.73,4.5-4.24,1.59-7.55a3.51,3.51,0,0,1,.08,1.06S312,215.15,308.24,218.7Z" fill="#1548ad"/><path d="M284.57,224.47s-1.58-1.12-1.64-1.59a10.77,10.77,0,0,0-1.51-2.75,8.5,8.5,0,0,0-2.61-1.08c-.39-.05-2.67.14-2.38.45s1.75.2,2,.37l.29.17s-.29.38-.17.61-.49.59-.26,1-.09.37.11.78c.33.68,1.19,1.06,1.41.88.17.4.82,1.22,1.43,1.17s2.09,1.33,2.09,1.33" fill="#f39f86"/><path d="M308.72,216.52c.06,1.06,0,2.92.28,3.19s1.29.23,1.29.23-3.51,4.45-3.83,4.2-4.47-3.63-3.53-3.81,1.84-.13,1.82-.62-.05-1-.08-1.45" fill="#f39f86"/><path d="M312.73,240.25s-6.86.78-8.44.81-1.5-.79-1.5-.79a62,62,0,0,0-.7-7.22c-.3-1.3-.44-1.77-.7-3-.59-2.74-.57-3.26-1.19-6.64l4.09-3.29a2.17,2.17,0,0,0,2.15,1.28,3.11,3.11,0,0,0,3-1.58l5.59,3.71.52,9-.66,7.43" fill="#f7b75e"/><path d="M293.42,264.71a15.46,15.46,0,0,0,.41,1.83c.18.47,1.71,0,1.81-.27a14,14,0,0,0-.48-2.51" fill="#f39f86"/><path d="M296.17,266.66c.14.5.3,1.47.3,1.47l-1.53.66-.25-.23a2.76,2.76,0,0,1-.85.67,5.7,5.7,0,0,1-1.48.41,3.53,3.53,0,0,1-2.39-.29c-.33-.77,1.44-1,1.79-1.07a2.36,2.36,0,0,0,1.68-1.68c.07-.41,0-.48.2-.47a.53.53,0,0,1,.38.18,1,1,0,0,0,1.09.26,1.2,1.2,0,0,0,.54-.45A.66.66,0,0,1,296.17,266.66Z" fill="#132555"/><path d="M300.18,246.88a25.88,25.88,0,0,1-7.81.19,28,28,0,0,1,1.48,3.57,100.44,100.44,0,0,1,1.67,14.29s-.5,1-2.1.23c-2.4-5.91-6.58-17.9-6.54-20.5.05-3.31,8.31-4.1,14.37-4.92" fill="#132555"/><path d="M310.73,240.26c1.9,1.39-10.55,6.62-10.55,6.62a19.67,19.67,0,0,1-4.09.39,3.42,3.42,0,0,1-.3-.77c-.07-.36,0-.74-.1-1.1a2.55,2.55,0,0,0-1.24-1.68,5.75,5.75,0,0,0-2-.66,27.39,27.39,0,0,0-4.62-.08c3.74-2.76,11.4-3.12,15-3.35C303.44,240.76,310.46,240.06,310.73,240.26Z" fill="#0c1e47"/><path d="M297.37,267.86a16.28,16.28,0,0,0,.08,1.87c.1.49,1.68.33,1.83,0a13.32,13.32,0,0,0,0-2.56" fill="#f39f86"/><path d="M299.74,270.25c.05.52,0,1.5,0,1.5l-1.62.39-.21-.27a3,3,0,0,1-.95.52,6.51,6.51,0,0,1-1.53.14,3.6,3.6,0,0,1-2.31-.7c-.19-.82,1.59-.72,1.95-.75a2.36,2.36,0,0,0,1.95-1.36c.14-.39.06-.47.28-.42a.5.5,0,0,1,.34.24,1,1,0,0,0,1,.44,1.17,1.17,0,0,0,.61-.35A.66.66,0,0,1,299.74,270.25Z" fill="#132555"/><path d="M314.89,240a76.66,76.66,0,0,1-8.44.27c-1.08,0-9.23,1.53-10,2.91-1.29,2.27.83,15.55.64,25.06a2.58,2.58,0,0,0,2.7,0c.43-4.67,3.19-15.69,1.29-20.83,4.49.59,8.12,1.19,12.2-.17a3.24,3.24,0,0,0,2.11-2.23A7.85,7.85,0,0,0,314.89,240Z" fill="#132555"/><path d="M304.29,220.12l-1.17.07a9.15,9.15,0,0,0-2.42.45,10.14,10.14,0,0,0-2.8,2.26c-.87.78-5.38,5.07-6.22,5.23s-8.23-4.9-8.23-4.9l-1.8,1.8s8,7.41,10.4,7.42c1.16,0,7.56-3.36,9.61-4.67Z" fill="#f7b75e"/><path d="M292.07,231c-1.65.09-9.2-5.67-10.07-6.35l-.35.35s8,7.41,10.4,7.42c1,0,5.57-2.33,8.27-3.87l.69-.4-.42-2.49S293.82,230.93,292.07,231Z" fill="#ce4a30" opacity="0.25" style="mix-blend-mode:multiply"/><path d="M284.38,241.46h18.35l-3.29-10.72a1.4,1.4,0,0,0-1.35-1H282a.91.91,0,0,0-.87,1.18Z" fill="#a4a4f7"/><path d="M284.15,241.46h18.07l-3.29-10.72a1.4,1.4,0,0,0-1.35-1H281.51a.91.91,0,0,0-.87,1.18l3.15,10.28A.37.37,0,0,0,284.15,241.46Z" fill="#7a74d1"/><g opacity="0.25" style="mix-blend-mode:multiply"><path d="M312.37,225.29A71.22,71.22,0,0,0,311,235.6c-3.2,1.25-4.51,3.1-7.65,4.5,0,0-2.47-.42-2.73.52-.15.54,2.9,1,2.9,1,2.9,0,10.57-2.11,11.09-2.26s2-9.89,2.09-15.18a3.29,3.29,0,0,0-.48-2.15,2.86,2.86,0,0,0-.95-.7,13.21,13.21,0,0,0-5.86-1.48" fill="#ce4a30"/></g><path d="M303.82,240.74a1.85,1.85,0,0,0-1.53-.49,10.2,10.2,0,0,0-1.23.1c-.18,0-.39.07-.41.27s.89,0,1.38.14a24.54,24.54,0,0,1-2.84.07.91.91,0,0,0-.33,0,.27.27,0,0,0-.18.25.28.28,0,0,0,.13.21,2,2,0,0,0,1,.4,7.57,7.57,0,0,0,4.32-.38" fill="#f39f86"/><path d="M312.17,225.21c-.08,4.41-.39,6.43-.31,10.85-2.21.47-5.28,3-8.42,4.38a1.68,1.68,0,0,0,.11,1.15c.24.08,10.58-2.43,11.4-3.19s1.72-9,1.78-14.25a3.29,3.29,0,0,0-.48-2.15,2.86,2.86,0,0,0-.95-.7,13.21,13.21,0,0,0-5.86-1.48" fill="#f7b75e"/><path d="M293.48,235.79c.06.94-1.05,1.7-2.49,1.7s-2.65-.76-2.72-1.7,1.05-1.71,2.49-1.71S293.41,234.85,293.48,235.79Z" fill="none" stroke="#a4a4f7" stroke-miterlimit="10" opacity="0.45"/><ellipse cx="290.87" cy="235.79" rx="0.95" ry="1.65" transform="translate(43.94 517.25) rotate(-87.77)" fill="#a4a4f7"/><path d="M215.33,264.49a18.09,18.09,0,0,0,2.61,0,58.19,58.19,0,0,0,7-.69h0c0,.11,0,.23,0,.34s0,.35,0,.53,0,.55,0,.83,0,.36,0,.54.05.61.09.93,0,.35,0,.54l.12,1c0,.19,0,.38.07.57l.09.67c.12-.5.24-1,.38-1.5a.5.5,0,0,0,0-.13c.19-.65.38-1.3.6-2a2,2,0,0,1,.08-.22c.2-.62.41-1.24.64-1.85.05-.13.11-.25.15-.38.22-.56.44-1.12.68-1.68.08-.2.18-.4.27-.6.21-.48.42-.95.64-1.42.12-.25.26-.5.38-.75.21-.41.41-.82.63-1.22s.33-.59.5-.88l0,0a11.61,11.61,0,0,0-1.29.62c-.08.07-.07.22,0,.39l-2.75.15c-1,.07-7.71,1.86-8.52,2.12l-.17.06-.25,0-.16.06a8.31,8.31,0,0,0-1-1.85,66.19,66.19,0,0,1-3.78-6.93l-.28.08-.05-.18a.72.72,0,0,0,.21-.45v0c.93,1.07,1.4.62,1.4.62l0,0c.12-.12.43-.58-.49-1.69-1.09-1.32-2.78-2.62-2.63-3s.53-1.08.72-1.48a.47.47,0,0,0,0-.51l-.55-.69h0l-.55-.68a8.18,8.18,0,0,1-1.13-2.32s-.2.07-.45.19c0,0,0,0,0,0a.3.3,0,0,0-.25,0,4.68,4.68,0,0,0-2,1.19,6.66,6.66,0,0,0-1.68,1.71.66.66,0,0,0-.12.34.3.3,0,0,0,.16.3.37.37,0,0,0,.36-.08h0l0,0a13.25,13.25,0,0,1,1.55,1.55l.55.69.55.69a.5.5,0,0,0,.49.17c.43-.1,1.33-.34,1.6-.38.05,0,.12,0,.2.11a3.41,3.41,0,0,0-.35,2.66,4.11,4.11,0,0,0,1.19,1.72l-.15,0s.47,2.7.93,4.87a20.91,20.91,0,0,0,1.61,5,.08.08,0,0,1,0,0C213.9,263.15,214.75,264.36,215.33,264.49Zm-1.75-13-.09.05s0,0,0,0A.28.28,0,0,0,213.58,251.48Zm-.42-.22a.31.31,0,0,0,.05.18h0a.33.33,0,0,1-.05-.16Zm-6.65-6.54,0,0c.06.07.09.12.07.11Zm2.73-.1.88-.7Zm2.62,5.81v0h0Z" fill="#5851bc" opacity="0.35" style="mix-blend-mode:multiply"/><path d="M229.62,285.22a5.13,5.13,0,0,0-3.92-5c-.08.38-.09.68.12.78-.73,3.42-3.56,16.78-4.06,21.11a14.63,14.63,0,0,0-.6,4.2c.12.8,1.54,4.8,3,8.75.26-.34.52-.67.76-1s.43-.71.65-1.07.5-.8.73-1.22.39-.81.58-1.21.4-.81.58-1.22c0-.09.06-.19.1-.28-.15-.42-.3-.86-.45-1.23h0a6.05,6.05,0,0,1,.47-4.93l.16-.31.05-.08h0c.62-1.15,1.25-2.46,1.85-3.76,0-.07,0-.15,0-.23Z" fill="#5851bc" opacity="0.35" style="mix-blend-mode:multiply"/><path d="M236.48,247.12c.29-.54-.16-1.27-.69-1.62-1.25-.8-3.89-.59-5.32-1.05a1.43,1.43,0,0,1-1.08-1.08,2.2,2.2,0,0,0-.81,3.14,2.92,2.92,0,0,0,.49.68,7.5,7.5,0,0,0-1.07,2.17,12.76,12.76,0,0,0-.41,4.11,2.88,2.88,0,0,0,.92,2.07c.36.24,1.76,0,2,.29a2.15,2.15,0,0,1,.23.84l.33-.58c.21-.34.44-.67.65-1s.35-.56.54-.83.55-.78.84-1.16l.43-.6c.34-.44.7-.87,1.06-1.29.1-.12.2-.25.3-.36.46-.54.94-1.05,1.44-1.54s.72-.79,1.09-1.18C237.16,247.06,236.48,247.12,236.48,247.12Z" fill="#5851bc" opacity="0.35" style="mix-blend-mode:multiply"/><path d="M236,278.8c.63-.46,1.31-1,2-1.52,1.47-1.24,2.79-2.59,3-3.56.36-2.2.08-8.72-.09-11.8,0-.19,0-.36,0-.53a5.52,5.52,0,0,0-2.52-4.67c-.4,3.78-1.3,12.32-1.38,12.76S236,278.8,236,278.8Z" fill="#fff"/><path d="M211.5,250.1c-.13-.5-1.3-4.74-2-4.18s-.64,2.26-.48,2.79c.3.93,1.31,2.06,1.92,2.08C211.4,250.8,211.62,250.57,211.5,250.1Z" fill="#f39f86"/><path d="M240.38,325.78c0,.54-4.95,1-11.06,1s-11.06-.44-11.06-1,5-1,11.06-1S240.38,325.24,240.38,325.78Z" fill="#e4e9ff"/><path d="M232.81,321.53s.05,1.86.08,2.33,1.55.51,1.72.26a12.93,12.93,0,0,0,.27-2.42" fill="#f39f86"/><path d="M235,324.54a9.79,9.79,0,0,1-.14,1.3h-1.74l-.08-.29a2.78,2.78,0,0,1-1,.29h-1.47c-1.07,0-1.68-.14-1.71-.32-.11-.8,1.17-.76,1.51-.76a2.72,2.72,0,0,0,2.22-.94c.17-.35.09-.44.29-.37a.51.51,0,0,1,.3.25.87.87,0,0,0,.91.5,1.06,1.06,0,0,0,.58-.28A.63.63,0,0,1,235,324.54Z" fill="#132555"/><path d="M226.71,321a14,14,0,0,0,.53,1.7c.21.43,1.62-.1,1.69-.39a13.38,13.38,0,0,0-.65-2.35" fill="#f39f86"/><path d="M229.46,322.58c.18.45.45,1.34.45,1.34l-1.32.79-.26-.19a2.55,2.55,0,0,1-.69.72,5.67,5.67,0,0,1-1.3.54,3.28,3.28,0,0,1-2.23,0c-.4-.7,1.19-1.08,1.5-1.2a2.13,2.13,0,0,0,1.33-1.76c0-.38-.07-.44.13-.45a.51.51,0,0,1,.38.13.88.88,0,0,0,1,.12,1,1,0,0,0,.44-.48A.65.65,0,0,1,229.46,322.58Z" fill="#132555"/><path d="M236,278.8c.63-.46,1.31-1,2-1.52a53.24,53.24,0,0,1,1.78-10c1.19-5.3.44-6.28.44-6.28l-2.4.37c-.4,3.74-.84,7.78-.89,8.08C236.79,270,236,278.8,236,278.8Z" fill="#eaeaea"/><path d="M230.22,298.71a56.59,56.59,0,0,0,.74,7.4c.32,1.64,5.48,1.94,4.82.68-1-1.84.71-7.59,1.53-17.41.12-1.48.78-1.65,1.23-4.71a9.4,9.4,0,0,0-1.25-5.71l-7.15-.67-.1,8.92,0,3S230,294.36,230.22,298.71Z" fill="#2342a7"/><path d="M235.14,305.64a7.34,7.34,0,0,1,1.21,4.86c-.2,3.15-1.29,12.53-1.29,12.53a6.58,6.58,0,0,1-2.49-.07s-1.77-17.41-1.78-19.38S235.14,305.64,235.14,305.64Z" fill="#2342a7"/><path d="M230.22,298.71a56.31,56.31,0,0,1,2.07-5.78,11.15,11.15,0,0,1,2-3.14c3.63-3.81,1.14-8.74,1.14-8.74s-3,2.45-3.17,2.71-1.37,2.31-2.25,3.45l0,3S230,294.36,230.22,298.71Z" fill="#ce4a30" opacity="0.25" style="mix-blend-mode:multiply"/><path d="M221.73,297.54s-1.62,5.34-1.36,7,6.19,17.34,6.19,17.34a6.1,6.1,0,0,0,2.38-.59,59,59,0,0,0-1.29-11.21c-1.17-4.31-2.52-6.95-3.68-7.34S222.05,298.44,221.73,297.54Z" fill="#2342a7"/><path d="M227,300.71s-1.76,2.81-.68,5.32-1.81,2.1-1.81,2.1-1.45-4.22-1.13-4.77,1.51-2.38,1.9-2.47A16.44,16.44,0,0,1,227,300.71Z" fill="#2342a7"/><path d="M225.2,278.44s-3.76,17.42-4.25,22.12c-.21,2,1.88,5.28,3.81,3.48,2.31-2.15,6-12,7.2-13.73s5.49-3.33,2.53-12.15" fill="#2342a7"/><path d="M210.1,250.48s.47,2.7.93,4.87a21.13,21.13,0,0,0,1.61,5,0,0,0,0,1,0,0c.46,1,1.31,2.21,1.89,2.33a18.09,18.09,0,0,0,2.61,0,58.63,58.63,0,0,0,7.13-.71h.12c1.26-.17,2.41-.32,3.2-.41a1.63,1.63,0,0,0,1-.43,1.48,1.48,0,0,0,.47-.82h0a2.1,2.1,0,0,0-1.14-2.08.41.41,0,0,0-.11-.07c.92-.91,1.86-1.91,1.86-1.91s-2.59.13-4,.22c-1,.07-7.7,1.87-8.51,2.12l-.17.06-.26.05-.15.05a8.25,8.25,0,0,0-1-1.84,67.78,67.78,0,0,1-3.79-6.94l-1.3.39h0Z" fill="#fff"/><g id="_Group_" data-name="&lt;Group&gt;"><g id="_Group_2" data-name="&lt;Group&gt;"><path id="_Path_" data-name="&lt;Path&gt;" d="M212.42,249.66a.27.27,0,0,1,0-.37.26.26,0,0,1,.33.41A.27.27,0,0,1,212.42,249.66Z" fill="none"/><path id="_Compound_Path_" data-name="&lt;Compound Path&gt;" d="M213.05,250l0,0c.12-.12.43-.57-.49-1.69-1.09-1.32-2.78-2.62-2.63-3s.53-1.08.72-1.48a.5.5,0,0,0-.05-.51l-.55-.69-3.25,2.59-.27.22.55.69a.48.48,0,0,0,.48.17c.43-.1,1.34-.33,1.6-.38s1.23,1.91,2.27,3.26S213.05,250,213.05,250Zm-.36-.27a.29.29,0,0,1-.27-.09.35.35,0,0,1-.06-.16.28.28,0,0,1,.1-.21.26.26,0,0,1,.33.41A.31.31,0,0,1,212.69,249.75Z" fill="#42666e"/></g><rect id="_Rectangle_" data-name="&lt;Rectangle&gt;" x="205.81" y="243.28" width="4.5" height="0.88" transform="translate(522.69 304.47) rotate(141.42)" fill="#d7d8da"/><g id="_Group_3" data-name="&lt;Group&gt;"><path id="_Path_2" data-name="&lt;Path&gt;" d="M205.86,243.93a15.77,15.77,0,0,0-1.45-1.1l.17-.17A4,4,0,0,1,205.86,243.93Z" fill="#ccb285"/><path id="_Path_3" data-name="&lt;Path&gt;" d="M204.41,242.83a15.77,15.77,0,0,1,1.45,1.1,4,4,0,0,0-1.28-1.27l.29-.29s.88.61,1,.65a9.89,9.89,0,0,0-.71-.9s.29-.3.72-.68a8,8,0,0,0,1.21,1c-.34-.39-.7-.77-1.06-1.16a10.53,10.53,0,0,1,.85-.68l.67.84a3.75,3.75,0,0,1-.36-1.07,2.48,2.48,0,0,1,.47-.37,9.13,9.13,0,0,0,.83,1.92,10.72,10.72,0,0,1-.55-2.07,4.79,4.79,0,0,1,.51-.22,8.18,8.18,0,0,0,1.13,2.32l-3.52,2.8a14.58,14.58,0,0,0-1.8-1.76Z" fill="#c6a673"/><path id="_Path_4" data-name="&lt;Path&gt;" d="M207.62,240l.28-.15a10.72,10.72,0,0,0,.55,2.07A9.13,9.13,0,0,1,207.62,240Z" fill="#ccb285"/><path id="_Path_5" data-name="&lt;Path&gt;" d="M205.84,241.44l.15-.14c.36.39.72.77,1.06,1.16A8,8,0,0,1,205.84,241.44Z" fill="#ccb285"/></g><path id="_Path_6" data-name="&lt;Path&gt;" d="M204.06,243.32a.36.36,0,0,0,.37-.08.66.66,0,0,1-.11-.24,1,1,0,0,1,.37-.83,15.15,15.15,0,0,1,1.47-1.42,2.58,2.58,0,0,1,1.43-.74c.11,0,.25,0,.29.13a.14.14,0,0,1,0,.11A.53.53,0,0,0,208,240a.21.21,0,0,0-.05-.2.3.3,0,0,0-.25,0,4.65,4.65,0,0,0-2,1.19,6.78,6.78,0,0,0-1.67,1.71.66.66,0,0,0-.12.34A.3.3,0,0,0,204.06,243.32Z" fill="#e59e4a"/><path id="_Path_7" data-name="&lt;Path&gt;" d="M207.61,241.63a.36.36,0,0,0,0-.09c.06-.2-.13-.35-.18-.53a.36.36,0,0,1,0-.14.48.48,0,0,0,0,.37c0,.1.12.17.16.27A.25.25,0,0,1,207.61,241.63Z" fill="#e59e4a"/><path id="_Path_8" data-name="&lt;Path&gt;" d="M207.07,243.65a.37.37,0,0,0,.12-.36.77.77,0,0,0-.23-.41,3.41,3.41,0,0,1-.38-.38,2.6,2.6,0,0,0,.28.45A.88.88,0,0,1,207.07,243.65Z" fill="#e59e4a"/><path id="_Path_9" data-name="&lt;Path&gt;" d="M204.43,243.24h0a3.09,3.09,0,0,1,.29-.2.34.34,0,0,1,.39,0c.29.2.4.2.59-.13.06-.09.16-.17.26-.14a.23.23,0,0,1,.11.11l.33.44a1.29,1.29,0,0,0,.25.27.39.39,0,0,0,.35.05l.06,0a.88.88,0,0,0-.21-.7,2.6,2.6,0,0,1-.28-.45h0l-.06-.09a.46.46,0,0,1,.06-.59.81.81,0,0,1,.58-.06.5.5,0,0,0,.45-.13.25.25,0,0,0,0-.12c0-.1-.12-.17-.16-.27a.48.48,0,0,1,0-.37.65.65,0,0,1,.25-.46,1.29,1.29,0,0,0,.17-.16.14.14,0,0,0,0-.11c0-.11-.18-.13-.29-.13a2.58,2.58,0,0,0-1.43.74,15.15,15.15,0,0,0-1.47,1.42,1,1,0,0,0-.37.83A.66.66,0,0,0,204.43,243.24Z" fill="#f7b75c"/><path id="_Path_10" data-name="&lt;Path&gt;" d="M213.05,250l0,0a2.7,2.7,0,0,1-.4-.24.29.29,0,0,1-.27-.09.35.35,0,0,1-.06-.16l-.24-.2a17.46,17.46,0,0,1-2.46-3.4.51.51,0,0,0-.56-.26l-1.31.29a.49.49,0,0,1-.5-.16l-.45-.53-.27.22.55.69a.48.48,0,0,0,.48.17c.43-.1,1.34-.33,1.6-.38s1.23,1.91,2.27,3.26S213.05,250,213.05,250Z" fill="#557f87"/></g><path d="M211.65,249.42c0-.23.3-1.61,0-1.67s-.6.79-.74,1.37c-.08.32,0,.81.3.84S211.58,249.79,211.65,249.42Z" fill="#f39f86"/><path d="M234.28,255.18a7.77,7.77,0,0,1-.15-2.91c.27-1.22,1.11-3.39.91-5.07s-2.22-3.15-4.45-3-3,2.2-3.38,3.41a12.76,12.76,0,0,0-.41,4.11,2.89,2.89,0,0,0,.92,2.08c.36.23,1.76,0,2,.28a6.72,6.72,0,0,1,.35,1.85" fill="#f39f86"/><path d="M234.78,253.36s-3.28-.06-4-.18a2.45,2.45,0,0,1-2.09-2.1c.8,0,.94-1.65.54-2.31s-1-.29-1.07.31,0,.41-.18.48-.52.07-.39-1.08a4.39,4.39,0,0,1,.53-1.91c.33-.66.5-.61.77-.72a2.11,2.11,0,0,1-1.13-1.11,2.21,2.21,0,0,1,.81-3.15,1.42,1.42,0,0,0,1.08,1.08c1.43.46,4.07.25,5.32,1.06.53.34,1,1.07.69,1.61,0,0,1.06-.12,1,2-.07,4.23-1.52,4.55-1.65,5.19S235.13,253.23,234.78,253.36Z" fill="#112353"/><path d="M235.59,256.4a3,3,0,0,0-.51-1.37c-.39-.36-3-.36-3.74-.27a12.51,12.51,0,0,0-2.93,1.17c-.25.19.25,1.17.25,1.17Z" fill="#f2f2f2"/><path d="M225.45,276.48c-.11,1-1,2.57-.4,2.79a12.24,12.24,0,0,0,2.44-.08h.09l3.31-.29c4.09-.17,6.18.64,6.59.41.2-.12.21-.47.15-.84a9.12,9.12,0,0,1-.07-2.71c.1-.76.24-1.67.44-2.7.67-3.59,2-9.07,2.19-12.36.32-5.16-5.21-4.67-5.21-4.67-7-.44-10.34,1.58-10.73,4.61,0,.21,0,.44-.06.68-.18,3.12.77,8.16,1.22,11.92A17.56,17.56,0,0,1,225.45,276.48Z" fill="#fff"/><path d="M225.45,276.48c-.11,1-1,2.57-.4,2.79a12.24,12.24,0,0,0,2.44-.08c-1.09.08-1.29-.75-1.05-1.31a8.05,8.05,0,0,0,.7-3.33c0-1.5-.62-4.88-.95-8.07a26.05,26.05,0,0,1,0-5.59c-.17.33-.66.81-2,1.12,0,3.14.83,7.73,1.24,11.23A17.56,17.56,0,0,1,225.45,276.48Z" fill="#eaeaea"/><path d="M281.57,317.89a2.31,2.31,0,0,0-.66-.5,1.68,1.68,0,0,0-.78-.19,1.65,1.65,0,0,0-.4.05,2.13,2.13,0,0,0-.38.14,2.1,2.1,0,0,0-.34.22l-.16.14h-7.26a2,2,0,0,0-.32-.21,1.59,1.59,0,0,0-.7-.17,1.74,1.74,0,0,0-1.27.6,3.48,3.48,0,0,0-.55.76v-4a.42.42,0,0,0,.42-.42.41.41,0,0,0-.42-.42h-9.53a.42.42,0,0,0-.42.42.42.42,0,0,0,.42.42h0v6.35H283a5.1,5.1,0,0,0-1.16-2.88A3.69,3.69,0,0,0,281.57,317.89Zm-10.67-.14a1.07,1.07,0,0,0-.39.07h0a1.29,1.29,0,0,0-.39.23,1.25,1.25,0,0,1,.82-.31h0Z" fill="#5851bc" opacity="0.35" style="mix-blend-mode:multiply"/><path d="M253.3,326.17c0,.5,7.2.9,16.08.9s16.08-.4,16.08-.9-7.2-.91-16.08-.91S253.3,325.67,253.3,326.17Z" fill="#e4e9ff"/><rect x="257.49" y="313.4" width="9.53" height="12.22" fill="#e1fbff"/><rect x="257.49" y="315.67" width="9.53" height="7.67" fill="#f7b75c"/><g opacity="0.35" style="mix-blend-mode:multiply"><rect x="263.46" y="313.4" width="3.56" height="12.22" fill="#5851bc"/></g><path d="M257.49,326.17H267a.55.55,0,0,0,.55-.55.55.55,0,0,0-.55-.55h-9.54a.55.55,0,0,0-.55.55A.55.55,0,0,0,257.49,326.17Z" fill="#9999d6"/><path d="M267.45,313.43a.42.42,0,0,1-.42.42h-9.54a.42.42,0,0,1-.42-.42.42.42,0,0,1,.42-.42H267A.42.42,0,0,1,267.45,313.43Z" fill="#9999d6"/><path d="M263,313a.42.42,0,1,1,0,.84h-.46a.42.42,0,1,1,0-.84Z" fill="#f7b75c"/><rect x="257.86" y="313.01" width="2.98" height="0.84" rx="0.22" ry="0.22" fill="#f7b75c"/><g style="mix-blend-mode:multiply"><rect x="257.49" y="313.85" width="9.53" height="0.49" fill="#f9dfd0"/></g><path d="M267,325.26a1.23,1.23,0,0,1,1.32-1.11h11.43a1.13,1.13,0,1,1,0,2.22H268.33A1.23,1.23,0,0,1,267,325.26Z" fill="#e29a44"/><path d="M277.28,325.26a1.24,1.24,0,0,1,1.32-1.11h2.57a1.13,1.13,0,1,1,0,2.22H278.6A1.24,1.24,0,0,1,277.28,325.26Z" fill="#e29a44"/><path d="M266.4,322.56a6.74,6.74,0,0,0,.31,1.27,5.43,5.43,0,0,0,.23.55,4.11,4.11,0,0,0,.39.66,2.72,2.72,0,0,0,.68.64,1.6,1.6,0,0,0,1.85-.14h0a1.14,1.14,0,0,0,.17-.15,3.58,3.58,0,0,0,.63-.87,5.93,5.93,0,0,0,.53-1.53c.05-.23.09-.51.11-.63v-.05a7.39,7.39,0,0,0,.07-1v-.37a5.41,5.41,0,0,0-.06-.72,4.68,4.68,0,0,0-.1-.67,5.8,5.8,0,0,0-.16-.63,4.18,4.18,0,0,0-.92-1.76l-.1-.1a1.14,1.14,0,0,0-.17-.15,1.52,1.52,0,0,0-.33-.21,1.44,1.44,0,0,0-.7-.17,1.68,1.68,0,0,0-1.27.59,4.83,4.83,0,0,0-1.1,2.34,9.11,9.11,0,0,0-.17,1.4A8.77,8.77,0,0,0,266.4,322.56Zm.67-.21a8,8,0,0,1-.07-1.22c0-2.39,1-4.3,2.2-4.25l.19,0a1.33,1.33,0,0,1,.5.23c.85.6,1.46,2.24,1.44,4.15a7.37,7.37,0,0,1-.08,1.07,4.37,4.37,0,0,1-1.36,2.94,1.19,1.19,0,0,1-.5.23.78.78,0,0,1-.26,0C268.14,325.51,267.32,324.16,267.07,322.35Z" fill="#9999d6"/><path d="M268.29,325.16a2.45,2.45,0,0,1-.36-.41,6.32,6.32,0,0,1-.92-3.62,8.3,8.3,0,0,1,.05-.87,7,7,0,0,1,.13-.8,5.77,5.77,0,0,1,.48-1.37,4.06,4.06,0,0,1,.32-.51,2.35,2.35,0,0,1,.38-.39,1.48,1.48,0,0,1,.4-.23h0a1.21,1.21,0,0,1,.38-.06h.38c-1.18,0-2.14,1.88-2.16,4.24s.93,4.36,2.12,4.4h-.38A1.33,1.33,0,0,1,268.29,325.16Zm.41.27h0" fill="#e1fbff"/><path d="M267.39,321.13a6.89,6.89,0,0,0,.08,1.22c.23,1.73,1,3,1.92,3.17h1.17a1.08,1.08,0,0,1-.52-.15l-.15-.09a4.35,4.35,0,0,1-1.38-2.94,8.09,8.09,0,0,1-.07-1.22c0-1.86.62-3.43,1.45-4A.6.6,0,0,1,270,317a1.15,1.15,0,0,1,.56-.15h-1.21C268.29,317.06,267.41,318.88,267.39,321.13Z" fill="#e1fbff"/><path d="M268.44,321.13a8.09,8.09,0,0,0,.07,1.22,4.35,4.35,0,0,0,1.38,2.94l.15.09a1.08,1.08,0,0,0,.52.15h6c-1,0-1.8-1.37-2-3.18a6.89,6.89,0,0,1-.08-1.22c0-2.36,1-4.24,2.16-4.24h-6a1.15,1.15,0,0,0-.56.15.6.6,0,0,0-.15.09C269.06,317.7,268.45,319.27,268.44,321.13Z" fill="#f7b75c"/><path d="M274.46,321.13a6.89,6.89,0,0,0,.08,1.22c.24,1.81,1.06,3.15,2,3.18h1.31c-1,0-1.8-1.37-2-3.18a6.82,6.82,0,0,1-.08-1.22c0-2.36,1-4.24,2.16-4.24h-1.31C275.44,316.89,274.48,318.77,274.46,321.13Z" fill="#e1fbff"/><path d="M275.77,322.35l0,.23a6.35,6.35,0,0,0,.22,1,4.9,4.9,0,0,0,.75,1.59,2.68,2.68,0,0,0,.35.39,2.31,2.31,0,0,0,.19.16l0,0,.2.13h0a1.63,1.63,0,0,0,.87.23,1.76,1.76,0,0,0,1-.31,3.87,3.87,0,0,0,.4-.33l.27-.32.2-.31a4.8,4.8,0,0,0,.38-.81,5.93,5.93,0,0,0,.21-.66c0-.12.05-.22.08-.32s.08-.43.11-.7l0-.11c0-.36,0-.64.05-.92v-.38a6.87,6.87,0,0,0-.06-.73c-.06-.45-.06-.45-.1-.69s-.12-.5-.16-.64a4.51,4.51,0,0,0-1-1.82,2.36,2.36,0,0,0-.65-.51,1.82,1.82,0,0,0-.78-.19,2.26,2.26,0,0,0-.4.05,1.85,1.85,0,0,0-.39.15,2.1,2.1,0,0,0-.34.22l-.16.14-.1.09a3.83,3.83,0,0,0-.63.92,6.22,6.22,0,0,0-.51,1.5A8.79,8.79,0,0,0,275.77,322.35Zm1-.31a1.49,1.49,0,0,1,0-.21,5.4,5.4,0,0,1,0-.7c0-2.38,1-4.28,2.19-4.24s2.15,2,2.13,4.39a6.62,6.62,0,0,1-.06.91c0,.25-.07.49-.11.71-.34,1.58-1.12,2.66-2,2.63S277,324,276.77,322Z" fill="#9999d6"/><g opacity="0.35" style="mix-blend-mode:multiply"><path d="M266.4,322.56a6.74,6.74,0,0,0,.31,1.27,5.43,5.43,0,0,0,.23.55,4.11,4.11,0,0,0,.39.66,2.72,2.72,0,0,0,.68.64,1.6,1.6,0,0,0,1.85-.14h7.26a1.81,1.81,0,0,0,1.29.55,1.76,1.76,0,0,0,1-.31,3.87,3.87,0,0,0,.4-.33l.27-.32.2-.31a4.8,4.8,0,0,0,.38-.81,5.93,5.93,0,0,0,.21-.66c0-.12.05-.22.08-.32l-.06-.12c-.34,1.58-1.12,2.66-2,2.63-1.08,0-2-1.64-2.1-3.7a.78.78,0,0,0,0,.22c0,.47-.74.33-.87.3h-8.78A1.53,1.53,0,0,1,266.4,322.56Z" fill="#5851bc"/></g><path d="M276,323.55a4.9,4.9,0,0,0,.75,1.59,2.68,2.68,0,0,0,.35.39,2.31,2.31,0,0,0,.19.16l0,0a1.37,1.37,0,0,1,.2.13h0a1.63,1.63,0,0,0,.87.23,1.76,1.76,0,0,0,1-.31,3.87,3.87,0,0,0,.4-.33l.27-.32.2-.31a4.8,4.8,0,0,0,.38-.81,5.93,5.93,0,0,0,.21-.66c0-.12.05-.22.08-.32s.08-.43.11-.7l0-.11-.08,0a13.36,13.36,0,0,0-4.22-.15h0A2.86,2.86,0,0,0,276,323.55Z" fill="#e29a44"/><path d="M276.81,321.14c0,.16,0,.32,0,.48.1,2.07,1,3.7,2,3.74s2-1.61,2.1-3.74c0-.11,0-.23,0-.34,0-2.29-.89-4.18-2-4.22S276.83,318.85,276.81,321.14Z" fill="#4b4b5e"/><path d="M278.84,325.69c-1.25,0-2.24-1.75-2.35-4.06,0-.17,0-.34,0-.5a5.73,5.73,0,0,1,1.28-3.9,1.64,1.64,0,0,1,1.17-.5c1.35,0,2.38,2,2.36,4.55,0,.12,0,.24,0,.35-.11,2.33-1.14,4.06-2.39,4.06Zm-.62-8a5.2,5.2,0,0,0-1.08,3.44h0c0,.14,0,.3,0,.46.09,1.86.86,3.4,1.71,3.43h0c.86,0,1.64-1.53,1.73-3.43,0-.11,0-.21,0-.32,0-2.26-.89-3.86-1.72-3.89h0A1,1,0,0,0,278.22,317.7Z" fill="#e29a44"/><path d="M171.54,298.57a15.69,15.69,0,0,0-4.68-.71,15.22,15.22,0,0,0-1.79.1,15.85,15.85,0,0,0-3.38.79,16.89,16.89,0,0,0-1.58.65,24.53,24.53,0,0,0-4.7-13.08V298.5a28,28,0,0,0,21.38,27.24,14.28,14.28,0,0,0,1.75-1.64l.17-.17a16.17,16.17,0,0,0,1.28-1.68l0-.05a15.07,15.07,0,0,0,1-1.71c.06-.12.12-.24.17-.37a15.77,15.77,0,0,0,.75-1.91s0-.08,0-.11a15.21,15.21,0,0,0,.43-1.89c0-.17.06-.34.08-.52a16.08,16.08,0,0,0,.16-2.1,15.74,15.74,0,0,0-11.06-15Z" fill="#5851bc" opacity="0.35" style="mix-blend-mode:multiply"/><path d="M163.31,296.08a15.6,15.6,0,0,0-6.76,1.54,25,25,0,0,0-34-21.76,28.36,28.36,0,0,0-54.73,9.39h0a21.15,21.15,0,0,0,0,42.29h95.56a15.73,15.73,0,0,0,0-31.46ZM110,311.81h-1.5c.39-.19.78-.38,1.16-.59Z" fill="#cdcdf7"/><path d="M109.82,313.8c-.36.2-.72.39-1.09.57h1.42Z" fill="#f4f4f4"/><path d="M163.31,296.08a15.6,15.6,0,0,0-6.76,1.54,25,25,0,0,0-34-21.76,28.36,28.36,0,0,0-54.73,9.39h0A21.15,21.15,0,0,0,58,325.14,20,20,0,0,1,70.13,289.2h0A26.87,26.87,0,0,1,122,280.31a23.69,23.69,0,0,1,32.25,20.61,14.89,14.89,0,0,1,15.48,25.24,15.72,15.72,0,0,0-6.42-30.08Z" fill="#cdcdf7" opacity="0.7" style="mix-blend-mode:multiply"/><path d="M103.27,289.79c1.15,0,2.31,0,3.46,0a.91.91,0,0,1,1,.68c.47,1.58.92,3.16,1.4,4.73s1,3.19,1.51,4.78c.35,1.14.67,2.29,1,3.44s.7,2.23,1,3.34.71,2.34,1.06,3.51.64,2.13,1,3.2c.46,1.46,1,2.92,1.38,4.39,0,.1-.31.45-.49.46-1,0-2,0-3,0h-2.81a.69.69,0,0,1-.78-.61c-.49-1.73-1-3.45-1.58-5.17a2.63,2.63,0,0,1-.1-.56,1,1,0,0,0-1.07-.94c-2.25,0-4.5,0-6.76,0-.45,0-.62.14-.74.61-.48,1.77-1,3.52-1.56,5.27-.46,1.4-.5,1.38-2,1.37s-2.84,0-4.26,0c-.59,0-.8-.21-.62-.77.36-1.14.72-2.28,1.07-3.42s.72-2.39,1.08-3.58.67-2.19,1-3.28q.78-2.5,1.55-5c.5-1.6,1-3.19,1.49-4.79s1-3.31,1.52-5c.18-.61.35-1.22.55-1.83a1.11,1.11,0,0,1,1.29-.88c1.1.08,2.2,0,3.3,0Zm-.21,5.13c-.13.09-.22.13-.24.19-.3,1.12-.6,2.26-.89,3.39-.39,1.46-.78,2.93-1.16,4.39-.21.83-.4,1.66-.6,2.49-.11.46.08.64.54.64l4.91,0c.42,0,.57-.16.4-.61q-.37-1-.66-2c-.61-2.29-1.2-4.58-1.81-6.87C103.41,296,103.23,295.48,103.06,294.92Z" fill="#fff"/><path d="M125.28,308.08c0,3.14,0,6.28,0,9.41,0,.65-.17.91-.86.88-1.61,0-3.22,0-4.83,0-.66,0-.87-.23-.87-.9,0-6.24,0-12.49.05-18.74,0-1.15,0-1.17,1.17-1.17,1.47,0,2.95.05,4.42,0,.74,0,1,.22,1,1,0,3.19,0,6.38,0,9.57Z" fill="#fff"/><path d="M122.06,288.6a3.23,3.23,0,0,1,3.44,3.32c-.09,2-1.21,3.13-3.47,3.18a3.17,3.17,0,0,1-3.44-3.31A3.23,3.23,0,0,1,122.06,288.6Z" fill="#fff"/><path d="M150.05,184.57a1.06,1.06,0,0,0-.06-.19v0a1.43,1.43,0,0,0-.15-.33.88.88,0,0,0-.86-.37l-3.3.52-10.95,1.71L132.85,187a62.3,62.3,0,0,0-2.71,16.21c.69-.23,2.3-.85,2.7-1.76l7-4,7.65-9.12,2.31-2.75A1.21,1.21,0,0,0,150.05,184.57Z" fill="#5851bc" opacity="0.35" style="mix-blend-mode:multiply"/><g id="_Group_4" data-name="&lt;Group&gt;"><path id="_Path_11" data-name="&lt;Path&gt;" d="M111.63,197.32a1.66,1.66,0,0,0,.23.44l.14.16a2.15,2.15,0,0,0,1.72.44h0l.21-.07.07,0a47.91,47.91,0,0,0,6.79-4.58h0c1.28-1,2.21-1.74,2.21-1.74l-.19-.29-.76-1.12s-4.79,2.26-7,3a15.21,15.21,0,0,0-2.63,1.07l-.24.16A2.72,2.72,0,0,0,111.63,197.32Z" fill="#35aad3"/><path id="_Path_12" data-name="&lt;Path&gt;" d="M105.62,198a50.53,50.53,0,0,0,6.31.61,6,6,0,0,0,2-.28l.06,0h0a47.91,47.91,0,0,0,6.79-4.58c-.31.18-4.39,2.55-6.67,3.64a8.24,8.24,0,0,1-1.28.52,5.86,5.86,0,0,1-.85.08h-.13a6.11,6.11,0,0,1-5.12-2.93,11.12,11.12,0,0,0-1-1.38S105.67,196.16,105.62,198Z" fill="#62c4d1"/></g><path id="_Path_13" data-name="&lt;Path&gt;" d="M95.57,206.85a6.54,6.54,0,0,1,.3,3.74c-.56,2.48.07,2.65.07,2.65a31.81,31.81,0,0,0,6.16,3c2,.63,3.71.52,3.66-1.69v-.42c-.1-5,.94-5.22,1.2-10.79s.2-9.09-1.63-10a12.13,12.13,0,0,0-8.62-.77c-2.92.68-3.88,1.46-3.86,3.62a17.32,17.32,0,0,0,.32,2.66A48,48,0,0,0,95.57,206.85Z" fill="#8ce9fb"/><path id="_Path_14" data-name="&lt;Path&gt;" d="M95.57,206.85a6.54,6.54,0,0,1,.3,3.74c-.56,2.48.07,2.65.07,2.65a31.81,31.81,0,0,0,6.16,3l2.61-.24,1-.82v-1.05a19,19,0,0,1-4-.1,16.35,16.35,0,0,1-3.86-1,1.5,1.5,0,0,1-1-1.67,21.34,21.34,0,0,0,.36-3.47,18.71,18.71,0,0,0-.93-4.28,8.64,8.64,0,0,1-.35-3.16,28.51,28.51,0,0,0,0-3.61L94,195.75l-1.16.43a17.32,17.32,0,0,0,.32,2.66A48,48,0,0,0,95.57,206.85Z" fill="#62c4d1"/><path id="_Path_15" data-name="&lt;Path&gt;" d="M102.63,194.62s3,9.93,2.42,14.69l-1.12,2-1.22-2.21s1-9.51-.9-14.34Z" fill="#16405a"/><path id="_Path_16" data-name="&lt;Path&gt;" d="M102.84,193.78l0,.13a2.4,2.4,0,0,1-.19.71h0l-.82.17-.72-.53.82-.95.13,0a1.82,1.82,0,0,1,.78.43Z" fill="#103649"/><g id="_Group_5" data-name="&lt;Group&gt;"><path id="_Path_17" data-name="&lt;Path&gt;" d="M105.11,259.17a3.47,3.47,0,0,1,.25,1.21c0,.48-1.56.52-1.74.27a13.4,13.4,0,0,1-.27-2.46" fill="#f39f86"/><path id="_Path_18" data-name="&lt;Path&gt;" d="M103.21,261.07a10.27,10.27,0,0,0,.14,1.32h1.77l.08-.3a2.72,2.72,0,0,0,1,.3h1.49c1.09,0,1.71-.14,1.73-.33.12-.8-1.18-.77-1.52-.77a2.73,2.73,0,0,1-2.25-1c-.17-.36-.1-.45-.3-.38a.51.51,0,0,0-.3.26.89.89,0,0,1-.92.5,1.11,1.11,0,0,1-.6-.28A.63.63,0,0,0,103.21,261.07Z" fill="#132555"/></g><g id="_Group_6" data-name="&lt;Group&gt;"><path id="_Path_19" data-name="&lt;Path&gt;" d="M88,257.51a14.57,14.57,0,0,1-.54,1.72c-.21.43-1.64-.1-1.72-.4a13.83,13.83,0,0,1,.66-2.37" fill="#f39f86"/><path id="_Path_20" data-name="&lt;Path&gt;" d="M85.18,259.08c-.19.46-.46,1.36-.46,1.36l1.34.8.26-.2a2.58,2.58,0,0,0,.7.74,5.24,5.24,0,0,0,1.32.54,3.3,3.3,0,0,0,2.26,0c.41-.7-1.21-1.09-1.53-1.21a2.18,2.18,0,0,1-1.34-1.78c0-.39.08-.45-.14-.46a.49.49,0,0,0-.37.13.9.9,0,0,1-1,.12,1,1,0,0,1-.45-.49A.65.65,0,0,0,85.18,259.08Z" fill="#132555"/></g><g id="_Group_7" data-name="&lt;Group&gt;"><path id="_Path_21" data-name="&lt;Path&gt;" d="M94.16,223.14s-2.4-5.74,1.78-9.9a23,23,0,0,0,6.42,1.79,14.28,14.28,0,0,0,3.39-.08,52.33,52.33,0,0,1,.59,11Z" fill="#132555"/><path id="_Path_22" data-name="&lt;Path&gt;" d="M103.14,259.72h.21a12.75,12.75,0,0,0,2.34-.16v-.43c-.09-6.56.71-17.29.86-20.68a3.39,3.39,0,0,0,0-.65c-.26-2.49-2.82-2.16-3.9.12a9.57,9.57,0,0,0-.61,1.76,16.34,16.34,0,0,0-.4,2.47C101.12,247.83,102.7,255.49,103.14,259.72Z" fill="#132555"/><path id="_Path_23" data-name="&lt;Path&gt;" d="M98.69,225.78c0,.07,0,.14,0,.21.57,3,2.41,11.07,3.29,13.69h0a1.6,1.6,0,0,0,1.13.82c1.29.35,3.22-.13,3.38-2.7a5.82,5.82,0,0,0,0-.93c-.11-1.34-.2-7.08-.18-10.89a15.52,15.52,0,0,0-.54-3.87c-.09-1.11-.29-2.74-.88-2.94C102,218.16,97.92,221.6,98.69,225.78Z" fill="#132555"/><path d="M103.35,240l-.72-2c-.8-2.63-.82-8.77-.82-8.77a31.27,31.27,0,0,0,2.23-9.77l-1.68.23-3,3.6L98.73,226c.46,2.43,1.76,8.19,2.7,11.68h0a14.18,14.18,0,0,1,.19,4.49,1.6,1.6,0,0,0,0,.62c-.35,5.59,1.12,12.86,1.54,16.94h.21s-.36-6.7-1-11.35a18.37,18.37,0,0,1,.76-7.87C103.27,240.15,103.35,240,103.35,240Z" fill="#0c1e47"/><path id="_Path_24" data-name="&lt;Path&gt;" d="M92.84,237.76c2-1.87,4.76-1,3.47,1.92-1.39,3.1-5.66,11.72-8,17.86l-.16.4a12.48,12.48,0,0,1-2.43-.79c1.11-4,1.91-10.85,4.2-15.64A12.85,12.85,0,0,1,92.84,237.76Z" fill="#132555"/><g id="_Group_8" data-name="&lt;Group&gt;"><g id="_Group_9" data-name="&lt;Group&gt;"><path id="_Path_25" data-name="&lt;Path&gt;" d="M104,219.39c.39-4.62-5.37-1.55-8.13,0a4,4,0,0,0-1.74,3.14c-.16,1.21-1.65,13.65-2,15.92-.67,5.11,3.8,2.32,4.22.9C97.51,235.74,103.83,221.91,104,219.39Z" fill="#132555"/></g></g><path id="_Path_26" data-name="&lt;Path&gt;" d="M92.62,235.25a12.34,12.34,0,0,1-2.24,5.46,39,39,0,0,0,3.53-1.78,13.16,13.16,0,0,0,.69-2.85C94.53,235.83,92.62,235.25,92.62,235.25Z" fill="#132555"/></g><path id="_Path_27" data-name="&lt;Path&gt;" d="M99.59,215.77l0,.32-.45.49a1.44,1.44,0,0,1-.7-.44,4.3,4.3,0,0,1-.44-.73l-.21.24s-5.09-4-7.29-7.79l.93-1,.83.33s2.46,2.47,2.62,2.7,1.89,2.85,1.89,2.85Z" fill="#bec4cc" opacity="0.67" style="mix-blend-mode:multiply"/><path d="M104.52,180.9a2.74,2.74,0,0,1-.13,3c-1.14,1.32-2.25-2.05-2.25-2.05Z" fill="#112353"/><g id="_Group_10" data-name="&lt;Group&gt;"><path d="M104.94,186.44c-.38.15-.29,1-.37,1.37s.15,1.78-.68,2.09-1.72.57-1.92.64c0,.07,0,.37,0,.66a.45.45,0,0,1,0,.11c0,.29,0,.55,0,.55l-.22,1.63-1.38-.62-2.06-.59s-.09-2.14-.18-2.47-.82-1.64-1.38-3.05a7.21,7.21,0,0,1-.59-2.19c0-1.49,0-3,1-3.82s6.74-3.52,6.9,1a23.67,23.67,0,0,0,.87,3.69C105.3,185.93,105.32,186.3,104.94,186.44Z" fill="#f39f86"/></g><path id="_Path_28" data-name="&lt;Path&gt;" d="M98.79,185.42s-.07-.84-.71-.72a1.29,1.29,0,0,0,.57,2.44A6.93,6.93,0,0,1,98.79,185.42Z" fill="#f39f86"/><path d="M102,191.31a7.92,7.92,0,0,1-2.28-1.13,9.33,9.33,0,0,0,2.23.36c0,.07,0,.37,0,.66A.45.45,0,0,1,102,191.31Z" fill="#f29d77"/><path d="M104.68,178.83s3.62,4.1-5.22,4.38c0,0-.52.17-.25,1.33s-.42.88-.42.88-.91-1.57-1.41.27a3.21,3.21,0,0,0,.31,1.75,6.21,6.21,0,0,1,.73,2.45c0,.29-.24.24-.34.21-.37-.12-1.47-2.1-2.1-4.41s-1.16-4.34,1.49-6.27S104.68,178.83,104.68,178.83Z" fill="#112353"/><path id="_Path_29" data-name="&lt;Path&gt;" d="M98.38,191.5s-.2.25-.59.84a6.38,6.38,0,0,1,1,.5c.43.26,2.49,1.71,2.49,1.71l.6-1.24A21.2,21.2,0,0,0,98.38,191.5Z" fill="#62c4d1"/><path id="_Path_30" data-name="&lt;Path&gt;" d="M101.91,193.31a1.69,1.69,0,0,1,.94.78,2.78,2.78,0,0,0,.06-1.65,1.57,1.57,0,0,0-.86-.81Z" fill="#62c4d1"/><path d="M134.77,192.1a5.61,5.61,0,0,0-2.24-4.39c.29-1.36-1-3-1.81-3.56L78.07,210.51l1.82,3.56h0l2.23,4.4L83.93,222l52.65-26.36C136.61,194.69,136,192.66,134.77,192.1Z" fill="#fc9549"/><path d="M144.69,185.27l-.79-1.56-.65-1.27-12.53,1.71c.8.55,2.1,2.2,1.81,3.56a5.61,5.61,0,0,1,2.24,4.39c1.27.56,1.84,2.59,1.81,3.56l8.76-9.12Z" fill="#fcded6"/><path d="M148.27,182.79a1.18,1.18,0,0,0-.25-.5,1.12,1.12,0,0,0-1-.37l-3.78.52.65,1.27.79,1.56.65,1.27,2.64-2.75A1.11,1.11,0,0,0,148.27,182.79Z" fill="#1a1a1a"/><path d="M67.82,215.39l-4,2a1.13,1.13,0,0,0-.56,1.49L68.46,229a1.14,1.14,0,0,0,1.54.43l4-2Z" fill="#bbbdbf"/><path d="M72.47,224.54l-2-3.94-2.65-5.21-4,2a1.64,1.64,0,0,0-.22.14s0,0,0,.05a1.59,1.59,0,0,0-.13.13h0a.61.61,0,0,0-.07.1.35.35,0,0,0,0,.08.72.72,0,0,0-.09.2,1.05,1.05,0,0,0,0,.78L68.46,229a1.14,1.14,0,0,0,1.54.43l4-2Z" fill="#ed4a23"/><rect x="69.01" y="210.93" width="14.44" height="15.53" rx="1.23" ry="1.23" transform="translate(-90.9 58.36) rotate(-26.97)" fill="#bbbdbf"/><rect x="78.61" y="207.79" width="3.02" height="17.86" rx="1.23" ry="1.23" transform="translate(-89.58 59.91) rotate(-26.97)" fill="#9e9e9e"/><rect x="71.19" y="211.56" width="3.02" height="17.86" rx="1.23" ry="1.23" transform="translate(-92.09 56.96) rotate(-26.97)" fill="#9e9e9e"/><path d="M145.34,186.54l2.64-2.75a1.11,1.11,0,0,0,.29-1,1.46,1.46,0,0,0-.07-.19c-4.3,3.48-13.43,11.39-13.43,11.39l-67.09,33.5.78,1.54.12.19a1.06,1.06,0,0,0,.34.26,1.08,1.08,0,0,0,.41.11,1.24,1.24,0,0,0,.67-.13L72.89,228a1.22,1.22,0,0,0,1.53.34l.47-.24a1.23,1.23,0,0,0,1.62.49l.49-.26a1.21,1.21,0,0,0,.56-1.59l4.74-2.41a1.23,1.23,0,0,0,1.62.48l.5-.25A1.23,1.23,0,0,0,85,223l.11-.06a1.24,1.24,0,0,0,.54-1.66l0-.06,51-25.52Z" fill="#5851bc" opacity="0.35" style="mix-blend-mode:multiply"/><g id="_Group_11" data-name="&lt;Group&gt;"><path id="_Path_31" data-name="&lt;Path&gt;" d="M97.28,214.73l1.6-1.33s.47.78.82.89a3.34,3.34,0,0,0,.43,0,2.83,2.83,0,0,1,1.29.4c.38.17.88.33.9.48s-.24.39-.51.37l-.13,0a.55.55,0,0,1,0,.16c-.11.34-1.68,2.54-3.25.15A4.31,4.31,0,0,0,97.28,214.73Z" fill="#f39f86"/><path id="_Path_32" data-name="&lt;Path&gt;" d="M96.47,199.08a45.69,45.69,0,0,1-2.17,6.4l-.06.13,0,0a1.35,1.35,0,0,1-.08.24,2,2,0,0,1-1.91,1.31,3.83,3.83,0,0,0-.4,0H91c-.33,0-.63-.09-.72-.26h0a1.08,1.08,0,0,1,0-.17s0-.05,0-.09a.31.31,0,0,1,0-.1l0-.27v-.14a9,9,0,0,1,.11-1.33c.17-1.84,2-7.59,2.6-10a1.67,1.67,0,0,1,.56-.89,1.49,1.49,0,0,1,.86-.34h.15a2.14,2.14,0,0,1,1.73,1.42,4.7,4.7,0,0,1,.47,1.59A5.62,5.62,0,0,1,96.47,199.08Z" fill="#8ce9fb"/><path id="_Path_33" data-name="&lt;Path&gt;" d="M99.23,214.15l-1,.91h0l-.26.22s-2-1.76-3.63-3.26a18.11,18.11,0,0,1-3.89-4.8l-.13-.27h0a1.08,1.08,0,0,1,0-.17s0-.05,0-.09a.31.31,0,0,1,0-.1l0-.27v-.14a1.64,1.64,0,0,1,.37-1.07l.07-.08a1.53,1.53,0,0,1,.4-.29,1.3,1.3,0,0,1,.3-.13,2.83,2.83,0,0,1,2.27.31l.19.2.43.49a8.85,8.85,0,0,1,1.09,1.83A65,65,0,0,0,99.23,214.15Z" fill="#8ce9fb"/></g><path id="_Path_34" data-name="&lt;Path&gt;" d="M98.22,215.06h0l-.26.22s-2-1.76-3.63-3.26a18.11,18.11,0,0,1-3.89-4.8l-.13-.27h0a1.08,1.08,0,0,1,0-.17s0-.05,0-.09a.31.31,0,0,1,0-.1l0-.27v-.14a9,9,0,0,1,.11-1.33c.17-1.84,2-7.59,2.6-10a1.67,1.67,0,0,1,.56-.89,1.49,1.49,0,0,1,.86-.34h.15A16.06,16.06,0,0,0,93,198c-.81,3.32-1.38,5.33-1.61,6.62a4.49,4.49,0,0,0-.1,1.39,4.55,4.55,0,0,0,.58,1.21C93.23,209.52,96.77,214.07,98.22,215.06Z" fill="#62c4d1"/><path id="_Path_35" data-name="&lt;Path&gt;" d="M125.1,201.54s2.9-.7,3.47-1.88,0-2.3-1-1.8a5.28,5.28,0,0,0-2,3l-.53.7Z" fill="#f39f86"/><g opacity="0.35" style="mix-blend-mode:multiply"><path d="M46.61,306.4h0c0,.65,0,1.29.09,1.92l.06.53c.06.52.14,1,.24,1.54,0,.12,0,.24.06.36s0,.19.08.3c.17-.38.35-.75.5-1.1h0v0a21.85,21.85,0,0,0,1-2.73l0-.09a1,1,0,0,0,0-.17,3.38,3.38,0,0,0,.08-.34c0-.12,0-.24.08-.36s.09-.44.13-.68l0-.14v0c0-.24.08-.51.12-.76.07-.42.14-.86.21-1.33h.19l1,4.32a25.74,25.74,0,0,0-1.48,6.05,17,17,0,0,0,0,2.77l.25.45c.19.33.39.65.59,1s.28.43.43.64.46.62.69.93.5.61.77.91l.27.31c.77-4.84,2.18-10.69,2.53-13.26a41.45,41.45,0,0,0,.38-4.83h0s.38-8.08.24-13.24A21.12,21.12,0,0,0,46.61,306.4Z" fill="#5851bc"/></g><g id="_Group_12" data-name="&lt;Group&gt;"><g id="_Group_13" data-name="&lt;Group&gt;"><path id="_Path_36" data-name="&lt;Path&gt;" d="M46.32,253s3.55.1,1.67,4.14S46.32,253,46.32,253Z" fill="#214ebe"/><path id="_Path_37" data-name="&lt;Path&gt;" d="M47.31,254.45s.95.59.94,3.75c0,.11.38,1,.42,1.15.13.43-.13.46-.5.63-.14,2.39-.5,2.35-.81,2.56s-3.11-.33-4.87-1.2a4.11,4.11,0,0,1-1.61-5.08C41.62,254.66,45.25,253.07,47.31,254.45Z" fill="#f39f86"/><path id="_Path_38" data-name="&lt;Path&gt;" d="M40.59,254.73a2.15,2.15,0,0,0-2.48-1.29c-1.78.44-2.12,4.22,1.74,3.51A2.91,2.91,0,0,1,40.59,254.73Z" fill="#214ebe"/><path id="_Path_39" data-name="&lt;Path&gt;" d="M40.86,254.16s-.42-.69-1.16.24c-.49.62-1.27,2.46-.21,2.91Z" fill="#473b4c"/><path id="_Path_40" data-name="&lt;Path&gt;" d="M39.38,256.69c-.28,1.5.45,3.79,3.39,4.78,0,0,.26-.91.45-1.79s2.68-1.91,3.76-2.87l.15-.15a2.25,2.25,0,0,0,0-3,3.66,3.66,0,0,0-4.34-1.16A5,5,0,0,0,39.38,256.69Z" fill="#214ebe"/><path id="_Path_41" data-name="&lt;Path&gt;" d="M46.46,260A3.74,3.74,0,0,0,46,262.5l0,.49a14.29,14.29,0,0,0,.27,1.82l-3.39-.08a21.39,21.39,0,0,0-.09-3.27S47.55,258.84,46.46,260Z" fill="#f39f86"/><path id="_Path_42" data-name="&lt;Path&gt;" d="M44.54,258.31a1,1,0,0,0-1.27-.42c-.81.39-.31,1.83.28,2.06a.75.75,0,0,0,.82-.12Z" fill="#7f7f7f" opacity="0.4" style="mix-blend-mode:multiply"/><path id="_Path_43" data-name="&lt;Path&gt;" d="M44.76,258.31a1,1,0,0,0-1.28-.42c-.81.4-.36,1.91.28,2.07a.7.7,0,0,0,.77-.28Z" fill="#f39f86"/><path id="_Path_44" data-name="&lt;Path&gt;" d="M46,263a10,10,0,0,1-2.25-1.14c1,.31,2.22.65,2.22.65Z" fill="#f2a181"/></g><g id="_Group_14" data-name="&lt;Group&gt;"><path id="_Path_45" data-name="&lt;Path&gt;" d="M53.6,264.43,50.92,276.2a.57.57,0,0,0,.46.69l8.35,1.19a.55.55,0,0,0,.63-.43L63,265.88a.56.56,0,0,0-.47-.68L54.23,264A.56.56,0,0,0,53.6,264.43Z" fill="#132555"/><polygon id="_Path_46" data-name="&lt;Path&gt;" points="54.12 264.81 51.55 276.08 59.84 277.27 62.4 266 54.12 264.81" fill="#fff2ee"/><g id="_Group_15" data-name="&lt;Group&gt;"><g id="_Group_16" data-name="&lt;Group&gt;"><path d="M61.52,267h0l-7-1a.14.14,0,0,1-.12-.16.14.14,0,0,1,.17-.12l7,1a.15.15,0,0,1,.13.16A.15.15,0,0,1,61.52,267Z" fill="#cdcdf7" opacity="0.7" style="mix-blend-mode:multiply"/></g><g id="_Group_17" data-name="&lt;Group&gt;" opacity="0.7" style="mix-blend-mode:multiply"><path d="M61.29,268h0l-7-1a.15.15,0,0,1-.13-.16.15.15,0,0,1,.17-.13l7,1a.15.15,0,0,1,.12.17A.14.14,0,0,1,61.29,268Z" fill="#cdcdf7"/></g><g id="_Group_18" data-name="&lt;Group&gt;"><path d="M58.36,268.93h0l-4.4-.63a.15.15,0,0,1-.13-.16A.16.16,0,0,1,54,268l4.4.63a.15.15,0,0,1,.12.17A.15.15,0,0,1,58.36,268.93Z" fill="#cdcdf7" opacity="0.7" style="mix-blend-mode:multiply"/></g><g id="_Group_19" data-name="&lt;Group&gt;" opacity="0.7" style="mix-blend-mode:multiply"><path d="M58,269.84h0l-4.4-.63a.15.15,0,0,1,.05-.29l4.39.63a.16.16,0,0,1,.13.17A.15.15,0,0,1,58,269.84Z" fill="#cdcdf7"/></g><g id="_Group_20" data-name="&lt;Group&gt;" opacity="0.7" style="mix-blend-mode:multiply"><path d="M57.73,270.76h0l-4.4-.64a.14.14,0,0,1-.12-.16.15.15,0,0,1,.16-.13l4.4.64a.15.15,0,0,1,.13.16A.17.17,0,0,1,57.73,270.76Z" fill="#cdcdf7"/></g><g id="_Group_21" data-name="&lt;Group&gt;"><path d="M59.34,275.82h0l-4.4-.64a.14.14,0,0,1-.12-.16.15.15,0,0,1,.17-.12l4.39.63a.15.15,0,0,1,.13.16A.14.14,0,0,1,59.34,275.82Z" fill="#cdcdf7" opacity="0.7" style="mix-blend-mode:multiply"/></g></g></g><g id="_Group_22" data-name="&lt;Group&gt;"><path d="M50.39,276.34a3.67,3.67,0,0,0,1.16-1l1-1.18a1,1,0,0,0,.28-.53c-.47,0-.8.47-1.23.66a.13.13,0,0,1-.17-.17,11.32,11.32,0,0,1,1-2.4.82.82,0,0,0,.16-.65,4.31,4.31,0,0,0-1.55,1.13,7.59,7.59,0,0,0-.83,1.06,11.38,11.38,0,0,0-1.5,3.68Z" fill="#e58d6e"/></g><g id="_Group_23" data-name="&lt;Group&gt;"><path id="_Path_47" data-name="&lt;Path&gt;" d="M48.88,286.33l-5.3-5.71S40.37,284,41,287.74a36.27,36.27,0,0,0,1,3.66c.17.82.58,12.14.35,12.94s-1.47,3-2.13,5.3c-.79,2.82-1.63,7.15-2.27,9.59s.41,5.7.64,4.87c2-7,7.13-15.4,8-18.94S48,295,48.88,286.33Z" fill="#f39f86"/><path d="M45.39,308.18c.12-.93.3-1.85.38-2.78a13.4,13.4,0,0,0-1-6.41l3.3-5.58h.12c0,.32-.06.64-.1,1s0,.53-.08.8l-.12,1c-.13,1.19-.27,2.31-.4,3.33,0,.26-.06.51-.1.76-.08.62-.17,1.21-.26,1.77s-.16,1-.25,1.52c-.05.3-.11.59-.17.86s-.05.24-.07.36-.06.23-.08.34,0,.12,0,.18Z" fill="#f2a181"/><path id="_Path_48" data-name="&lt;Path&gt;" d="M40.16,319s-1.62,4.61-1.49,5.19c.08.36.44,1.57.52,1.74s1.2,1,.42,1-2.57-2.43-2.84-2.61a1.13,1.13,0,0,1-.53-1.18,5,5,0,0,1,1-1.75,14.56,14.56,0,0,0,.86-2.9Z" fill="#f39f86"/><path id="_Path_49" data-name="&lt;Path&gt;" d="M40.64,327.1a4.5,4.5,0,0,0-1.25-1h0c-.14-.18-.26-.3-.2-.18s-.42.29-.67.08c-.89-.71-1.14-1.77-1.58-2.27a1.75,1.75,0,0,1-.12-1.83,4.36,4.36,0,0,0-1.28.58,2.4,2.4,0,0,0-.67.75,10.06,10.06,0,0,1-.61,1.39l.84.67.82-.74.22.24a1.88,1.88,0,0,1,.44.88,3.29,3.29,0,0,0,.21.66,2,2,0,0,0,.62.87l.36.29a1.47,1.47,0,0,0,.95.34h1.66a.38.38,0,0,0,.39-.42A.67.67,0,0,0,40.64,327.1Z" fill="#132555"/></g><g id="_Group_24" data-name="&lt;Group&gt;"><path id="_Path_50" data-name="&lt;Path&gt;" d="M52.89,326.39c-.11-.15-1.47-.5-2.09-.83A3.65,3.65,0,0,1,49.43,324a16.2,16.2,0,0,1,.16-2.87c.6-5.12,2.44-12.53,2.85-15.52.71-5.2.51-10.64-.74-19.2l-7-6.41s-2.44,3.7-2.08,7.49c.22,2.19,2,2.69,2.2,3.55s3.54,14.81,3.54,14.81a25.31,25.31,0,0,0-1.49,6c-.29,2.73.44,6.05.39,9.22a10.71,10.71,0,0,1-.28,2.55c-.27.55-.9,1.17-.94,1.9a1.12,1.12,0,0,0,.77,1.06c.51.21.83-.07,1-.06,1.05.05,1.28.8,3.1,1a2.89,2.89,0,0,0,1.87-.59A.38.38,0,0,0,52.89,326.39Z" fill="#f39f86"/><path id="_Path_51" data-name="&lt;Path&gt;" d="M53,327.05a1.39,1.39,0,0,1-.38.41,1.88,1.88,0,0,1-1.17.37h-.89a2.1,2.1,0,0,1-1-.28,3.76,3.76,0,0,1-.57-.37,1.92,1.92,0,0,0-.9-.41,2.39,2.39,0,0,0-.58,0l-.06,1.08H46.18a6,6,0,0,0-.31-1.54,1.91,1.91,0,0,1,.09-.94,4.45,4.45,0,0,1,.79-1.25A1.72,1.72,0,0,0,48,325.44a10.11,10.11,0,0,0,2.66.76c.33,0,.66-.4.46-.49s.37,0,.73.14a11.2,11.2,0,0,1,1.15.57C53.13,326.49,53.11,326.82,53,327.05Z" fill="#132555"/></g><path id="_Path_52" data-name="&lt;Path&gt;" d="M52.85,300.76s-1.18.59-5.48.75c-.39,0-.79,0-1.23,0h-.79c-2.34,0-3.43-.22-3.42-.44s-1.19-9.23-1.59-10.59a11.63,11.63,0,0,1-.72-4.6A12.12,12.12,0,0,1,42.25,280l9.06-.15a24.73,24.73,0,0,1,1.71,6C53.33,290.63,52.85,300.76,52.85,300.76Z" fill="#2342a7"/><path id="_Path_53" data-name="&lt;Path&gt;" d="M37.85,272.74s.36,1.84.58,2.59,1.34,5.56,2.39,5.47,6.8-4.89,6.8-4.89l-.81-1.63-5.07,2.42a65.48,65.48,0,0,0-.86-6.79Z" fill="#f39f86"/><g id="_Group_25" data-name="&lt;Group&gt;"><path d="M39.31,272.94a31.79,31.79,0,0,0,2,5.37c.17.24,3.57-1,3.58-2.3l-3.52-4Z" fill="#f2a181"/></g><path id="_Path_54" data-name="&lt;Path&gt;" d="M42.51,264.13a6.18,6.18,0,0,0-3.07,1c-2.2,1.64-1.68,7.8-1.68,7.8s-.1.32,1.35.24a10.33,10.33,0,0,0,2.63-.5l-.42-4.94Z" fill="#f7b75e"/><path id="_Path_55" data-name="&lt;Path&gt;" d="M38.86,267.86a18.58,18.58,0,0,0,.46,5.34,6.2,6.2,0,0,0,1.19-.16Z" fill="#ce4a30" opacity="0.25" style="mix-blend-mode:multiply"/><g id="_Group_26" data-name="&lt;Group&gt;"><path d="M42.14,264.46c.06-.4.17-.87.55-1a1.6,1.6,0,0,1,.33-.07,11.17,11.17,0,0,1,2.16-.16,3.24,3.24,0,0,1,1.39.24,3.46,3.46,0,0,1,1.36,1.73Z" fill="#e59e4a"/></g><g id="_Group_27" data-name="&lt;Group&gt;"><path d="M51.18,278.4a12.12,12.12,0,0,1-.49-3.93c.12-.72.75-1.1,1-2.71a5.92,5.92,0,0,0-.95-4.36c-.67-1-1.59-2.95-1.78-3-2.79-.85-3.25-.45-5.13-.37a12.51,12.51,0,0,0-2.44.29c-1,.22-2.23.56-2.43,1.93a13.77,13.77,0,0,0,.59,6.28c.43,1.33,3,6,2.35,6.84a3,3,0,0,0-.55.85c-.16.93,1.35,1.16,2.85,1.34a25.15,25.15,0,0,0,4.33,0C52.82,281.24,51.31,278.66,51.18,278.4Z" fill="#f7b75e"/></g><path id="_Path_56" data-name="&lt;Path&gt;" d="M51.44,272.16a3.66,3.66,0,0,1-.28,1.08,3.31,3.31,0,0,1-1.39.2,25.18,25.18,0,0,1-.83-4.06A19.9,19.9,0,0,1,51.44,272.16Z" fill="#ce4a30" opacity="0.25" style="mix-blend-mode:multiply"/><g id="_Group_28" data-name="&lt;Group&gt;"><path id="_Path_57" data-name="&lt;Path&gt;" d="M50.11,271.3s3.44,8.3,4.93,8.3c1.08,0,3.74-7.67,3.74-7.67l-1.68-.79-1.87,3.21-2.29-5.65Z" fill="#f39f86"/><path id="_Path_58" data-name="&lt;Path&gt;" d="M56.77,271.71a3.19,3.19,0,0,0,.51-1.5,6.53,6.53,0,0,1,0-1.59,6.19,6.19,0,0,1,.56-1.09c.16-.14.76-.37.9-.27s.33-.36.57-.32a.52.52,0,0,1,.45.47c0,.22.32.26.36.42a2.24,2.24,0,0,0,.08.42c.06.12.24.06.3.37s0,.3,0,.44.14.13.1.4a3.33,3.33,0,0,1-.38.92,2.72,2.72,0,0,1-.94.95,1.77,1.77,0,0,0-.55.75Z" fill="#f39f86"/><path id="_Path_59" data-name="&lt;Path&gt;" d="M57.69,265.29a.21.21,0,0,0-.3-.08.27.27,0,0,0-.06.33l1,2.3s.08.1.23,0,.12-.23.12-.23S57.73,265.36,57.69,265.29Z" fill="#7a74d1"/><g id="_Group_29" data-name="&lt;Group&gt;"><path id="_Path_60" data-name="&lt;Path&gt;" d="M58.76,267.42a2.29,2.29,0,0,1-.62.65c-.16.15-.14.24-.31.4.31,0,.25-.21.65-.49a.87.87,0,0,0,.41-.5.07.07,0,0,0-.13-.06Z" fill="#f2a181"/></g></g><g id="_Group_30" data-name="&lt;Group&gt;"><path d="M46.48,263.88A6.86,6.86,0,0,1,52,266.74a22.55,22.55,0,0,1,2.29,4.71,5.67,5.67,0,0,1-3.92,1.63,14.25,14.25,0,0,1-1.45-4Z" fill="#f7b75e"/></g></g></g></g></svg>