<?xml version="1.0" encoding="utf-8"?>
<!-- Generator: Adobe Illustrator 25.2.1, SVG Export Plug-In . SVG Version: 6.00 Build 0)  -->
<svg version="1.1" id="Layer_1" xmlns="http://www.w3.org/2000/svg" xmlns:xlink="http://www.w3.org/1999/xlink" x="0px" y="0px"
	 viewBox="0 0 370 427.6" style="enable-background:new 0 0 370 427.6;" xml:space="preserve">
<style type="text/css">
	.st0{opacity:0.81;}
	.st1{fill:#09C6DA;}
	.st2{fill:#4581FD;}
	.st3{fill:#AEEAF2;}
	.st4{opacity:0.36;fill:#63DBE9;enable-background:new    ;}
	.st5{fill:#E4489B;}
	.st6{fill:#F2F2F2;}
	.st7{opacity:0.75;}
	.st8{fill:#30CFE2;}
	.st9{fill:#56BFEF;}
	.st10{fill:url(#SVGID_1_);}
	.st11{fill:url(#SVGID_2_);}
	.st12{fill:url(#SVGID_3_);}
	.st13{fill:url(#SVGID_4_);}
	.st14{fill:url(#SVGID_5_);}
	.st15{fill:url(#SVGID_6_);}
	.st16{fill:#E3F5FF;}
	.st17{fill:#63DBE9;}
	.st18{fill:#E44899;}
	.st19{opacity:0.5;}
	.st20{fill:url(#SVGID_7_);}
	.st21{opacity:0.6;fill:url(#SVGID_8_);enable-background:new    ;}
	.st22{fill:#0DC3D8;}
	.st23{fill:#09A1CA;}
	.st24{fill:#05E2C7;}
	.st25{fill:#1FE3CB;}
	.st26{fill:#E73233;}
	.st27{opacity:0.6;fill:url(#SVGID_9_);enable-background:new    ;}
	.st28{fill:#009DC8;}
	.st29{fill:#406CCF;}
	.st30{fill:#05C5DA;}
	.st31{fill:url(#SVGID_10_);}
	.st32{fill:#C1D9E5;}
	.st33{fill:url(#SVGID_11_);}
	.st34{fill:#5761A6;}
	.st35{fill:#005679;}
	.st36{fill:url(#SVGID_12_);}
	.st37{fill:url(#SVGID_13_);}
	.st38{fill:url(#SVGID_14_);}
	.st39{fill:#6C79BC;}
	.st40{fill:url(#SVGID_15_);}
	.st41{fill:#F5A8A9;}
	.st42{fill:#103FCD;}
	.st43{fill:#1D1E50;}
	.st44{fill:#222364;}
	.st45{fill:#323275;}
	.st46{fill:#23233B;}
	.st47{fill:#0D1D7D;}
	.st48{fill:#D08F8F;}
	.st49{fill:#3B7AFD;}
	.st50{fill:#E44997;}
	.st51{opacity:0.5;fill:#60C0FD;enable-background:new    ;}
	.st52{fill:#203088;}
	.st53{fill:#1D2C87;}
	.st54{fill:#FFFFFF;}
	.st55{fill:#FED8A7;}
	.st56{fill:#F8C22E;}
	.st57{fill:#7562E0;}
	.st58{fill:#246AFD;}
	.st59{opacity:0.5;fill:#005679;enable-background:new    ;}
	.st60{fill:#36A6FC;}
	.st61{fill:#E6E6E3;}
	.st62{fill:#E5499D;}
	.st63{fill:#231F20;}
	.st64{fill:#D1E7F4;}
	.st65{opacity:0.35;}
	.st66{fill:#D38E57;}
	.st67{fill:#A66430;}
	.st68{fill:#C69C6D;}
	.st69{fill:#171733;}
	.st70{fill:#603813;}
	.st71{fill:none;}
	.st72{fill:#292959;}
	.st73{fill:#42210B;}
	.st74{fill:#292969;}
	.st75{fill:#F3A7A8;}
	.st76{fill:#6048DC;}
	.st77{fill:#DB9195;}
	.st78{fill:#493BD0;}
	.st79{fill:#B03C8F;}
	.st80{fill:url(#SVGID_16_);}
	.st81{fill:#9BBDC9;}
	.st82{fill:#B3D6E0;}
	.st83{fill:#1D49D0;}
	.st84{fill:url(#SVGID_17_);}
	.st85{fill:#0A87B1;}
	.st86{fill:#6D7ABC;}
	.st87{fill:#495591;}
	.st88{fill:#FDCA8D;}
	.st89{fill:url(#SVGID_18_);}
	.st90{fill:#103FCB;}
	.st91{fill:#E373FB;}
	.st92{fill:#F6A9A9;}
</style>
<g class="st0">
	<path class="st1" d="M209.3,141.2c-1-0.2-1.9-0.7-2.4-1.6c-0.7-1.2-1.1-7.1-3.1-7.3s-2.1,2.7-2.1,2.7s-0.2-13-6.6-13
		s-6.4,11.6-6.4,11.6s0.4-3.6-2.2-3.8s-2.4,5.8-2.4,5.8s-0.2-2.9-2.3-2.9s-2.3,3.4-2.3,4.6c-0.2,2.9-6.4,4-6.4,4L209.3,141.2z"/>
	<path class="st2" d="M198.1,140.3c-0.4-0.1-0.8-0.3-1.1-0.7c-0.3-0.5-0.5-3.1-1.4-3.2s-0.9,1.2-0.9,1.2s-0.1-5.6-2.9-5.6
		s-2.8,5-2.8,5s0.2-1.5-1-1.6s-1.1,2.5-1.1,2.5s-0.1-1.2-1-1.2s-1,1.5-1,2c-0.1,1.3-2.8,1.7-2.8,1.7L198.1,140.3z"/>
	<path class="st3" d="M206.2,142.5c-0.6-0.1-1.1-0.4-1.4-0.9c-0.4-0.7-0.6-4.1-1.8-4.2s-1.2,1.6-1.2,1.6s-0.1-7.4-3.8-7.4
		s-3.7,6.6-3.7,6.6s0.3-2-1.3-2.2s-1.4,3.3-1.4,3.3s-0.1-1.6-1.3-1.6s-1.4,2-1.3,2.6c0.1,1.8-3.6,2.3-3.6,2.3L206.2,142.5z"/>
</g>
<path class="st4" d="M156.9,151.3l29.7-4.7c5.4-0.8,10.4,2.8,11.2,8.2l2.5,15.7c0.8,5.4-2.8,10.4-8.2,11.2l-29.7,4.7
	c-5.4,0.8-10.4-2.8-11.2-8.2l-2.5-15.7C147.9,157.2,151.6,152.1,156.9,151.3z"/>
<path class="st5" d="M168.5,154.8l8.2-1.3c6.8-1.1,13.2,3.6,14.3,10.4v0c1.1,6.8-3.6,13.2-10.4,14.3l-8.2,1.3
	c-6.8,1.1-13.2-3.6-14.3-10.4l0,0C157,162.3,161.7,155.9,168.5,154.8z"/>
<path class="st6" d="M171.5,173c0.1,0.5,0.7,0.9,1.2,0.7c0.2,0,0.3-0.1,0.4-0.2l7.1-7.5c0.4-0.4,0.3-1.1-0.1-1.4
	c0,0-0.1-0.1-0.1-0.1l-8.9-4.3c-0.5-0.2-1,0-1.3,0.4c-0.1,0.2-0.1,0.4-0.1,0.6C171.5,164.9,172.1,169,171.5,173"/>
<g class="st7">
	<path class="st8" d="M64.1,120.7c0.7-0.1,1.3-0.5,1.8-1.1c0.5-0.9,0.8-5.1,2.2-5.3s1.5,2,1.5,2s0.2-9.4,4.7-9.4s4.7,8.3,4.7,8.3
		s-0.3-2.6,1.6-2.7s1.8,4.2,1.8,4.2s0.2-2.1,1.7-2.1s1.6,2.5,1.7,3.3s4.6,2.9,4.6,2.9L64.1,120.7z"/>
	<path class="st9" d="M68.2,121.4c0.6-0.1,1.1-0.4,1.6-0.8c0.4-0.6,0.7-3.6,2-3.7s1.3,1.4,1.3,1.4s0.1-6.6,4.2-6.6s4.1,5.9,4.1,5.9
		s-0.3-1.8,1.4-1.9s1.6,2.9,1.6,2.9s0.1-1.5,1.5-1.5s1.4,1.8,1.5,2.3s4.1,2,4.1,2L68.2,121.4z"/>
	<path class="st3" d="M96.3,124.1c-0.7-0.1-1.3-0.5-1.8-1.1c-0.5-0.9-0.8-5.1-2.2-5.3s-1.5,2-1.5,2s-0.2-9.4-4.7-9.4
		s-4.7,8.4-4.7,8.4s0.3-2.6-1.6-2.7s-1.8,4.2-1.8,4.2s-0.2-2.1-1.7-2.1s-1.6,2.5-1.7,3.3c-0.3,2.7-4.6,2.9-4.6,2.9L96.3,124.1z"/>
</g>
<linearGradient id="SVGID_1_" gradientUnits="userSpaceOnUse" x1="63.4459" y1="71.3562" x2="84.2135" y2="71.3562" gradientTransform="matrix(0.9991 -4.222441e-02 -4.222441e-02 -0.9991 14.8991 349.9149)">
	<stop  offset="0.15" style="stop-color:#7C79FE"/>
	<stop  offset="0.19" style="stop-color:#7B7CFE"/>
	<stop  offset="0.59" style="stop-color:#6E98FC"/>
	<stop  offset="0.83" style="stop-color:#69A2FB"/>
</linearGradient>
<path class="st10" d="M96.5,286.1c-5.9-2.1-11.7-4.6-17.3-7.4c0-4.9-1.5-9.7-4.4-13.8c2.9,0.4,5.9,1,8.7,1.9
	c2.2,0.7,4.3,1.6,6.2,2.7C94.4,274.2,96.2,284,96.5,286.1z"/>
<linearGradient id="SVGID_2_" gradientUnits="userSpaceOnUse" x1="42.1849" y1="76.1193" x2="66.7644" y2="76.1193" gradientTransform="matrix(0.9991 -4.222441e-02 -4.222441e-02 -0.9991 14.8991 349.9149)">
	<stop  offset="0.15" style="stop-color:#7C79FE"/>
	<stop  offset="0.19" style="stop-color:#7B7CFE"/>
	<stop  offset="0.59" style="stop-color:#6E98FC"/>
	<stop  offset="0.83" style="stop-color:#69A2FB"/>
</linearGradient>
<path class="st11" d="M78.7,278.4c-11.2-5.4-21.5-11.4-25.2-13.5c2.2-0.5,4.8-0.3,7-0.4c2.5-0.1,5.1-0.2,7.7-0.1
	c2,0.1,3.9,0.2,5.9,0.4C77.1,268.8,78.6,273.5,78.7,278.4z"/>
<linearGradient id="SVGID_3_" gradientUnits="userSpaceOnUse" x1="49.0866" y1="65.8556" x2="78.2149" y2="65.8556" gradientTransform="matrix(0.9991 -4.222441e-02 -4.222441e-02 -0.9991 14.8991 349.9149)">
	<stop  offset="0.15" style="stop-color:#7C79FE"/>
	<stop  offset="0.19" style="stop-color:#7B7CFE"/>
	<stop  offset="0.59" style="stop-color:#6E98FC"/>
	<stop  offset="0.83" style="stop-color:#69A2FB"/>
</linearGradient>
<path class="st12" d="M71.5,275.4c6,3.1,12.7,6.3,18.9,8.9c-1.8,0.8-9.5,4.1-15.5,3.1c-5.3-2.6-10-6.2-13.9-10.6
	C64.5,276.8,68.1,276.3,71.5,275.4L71.5,275.4z"/>
<linearGradient id="SVGID_4_" gradientUnits="userSpaceOnUse" x1="41.8309" y1="77.2666" x2="59.0547" y2="77.2666" gradientTransform="matrix(0.9991 -4.222441e-02 -4.222441e-02 -0.9991 14.8991 349.9149)">
	<stop  offset="0.15" style="stop-color:#7C79FE"/>
	<stop  offset="0.19" style="stop-color:#7B7CFE"/>
	<stop  offset="0.59" style="stop-color:#6E98FC"/>
	<stop  offset="0.83" style="stop-color:#69A2FB"/>
</linearGradient>
<path class="st13" d="M60.5,276.3c-0.6-0.6-1.1-1.3-1.6-2c-2-2.6-4.5-5.8-5.6-9c2.7,1.6,9.5,5.5,17.7,9.7
	C67.5,275.9,64,276.3,60.5,276.3z"/>
<linearGradient id="SVGID_5_" gradientUnits="userSpaceOnUse" x1="63.8809" y1="58.6972" x2="90.9909" y2="58.6972" gradientTransform="matrix(0.9991 -4.222441e-02 -4.222441e-02 -0.9991 14.8991 349.9149)">
	<stop  offset="0.15" style="stop-color:#7C79FE"/>
	<stop  offset="0.19" style="stop-color:#7B7CFE"/>
	<stop  offset="0.59" style="stop-color:#6E98FC"/>
	<stop  offset="0.83" style="stop-color:#69A2FB"/>
</linearGradient>
<path class="st14" d="M91,284.6L91,284.6c4,1.6,8.2,3,12.4,4c-0.9,0.7-1.9,1.2-3,1.4c-8,2.3-16.6,1.6-24.1-2
	C83,288.4,90.9,284.6,91,284.6z"/>
<linearGradient id="SVGID_6_" gradientUnits="userSpaceOnUse" x1="79.4909" y1="67.0971" x2="91.6013" y2="67.0971" gradientTransform="matrix(0.9991 -4.222441e-02 -4.222441e-02 -0.9991 14.8991 349.9149)">
	<stop  offset="0.15" style="stop-color:#7C79FE"/>
	<stop  offset="0.19" style="stop-color:#7B7CFE"/>
	<stop  offset="0.59" style="stop-color:#6E98FC"/>
	<stop  offset="0.83" style="stop-color:#69A2FB"/>
</linearGradient>
<path class="st15" d="M91.1,270.4c2.7,1.6,5.1,3.7,7.2,6c2,2.2,3.6,4.7,4.7,7.5c0.8,2.2,1.2,3.4,0.7,4.3c-2.3-0.5-4.5-1.2-6.7-1.9
	C96.8,284.8,95.3,275.7,91.1,270.4z"/>
<path class="st16" d="M91,284.5L91,284.5c-0.1,0.1-8,3.9-14.8,3.6c-0.5-0.2-0.9-0.4-1.4-0.6c6.1,0.9,13.8-2.4,15.5-3.1
	c-6.2-2.6-12.9-5.8-18.9-8.9l0,0c-3.4,0.9-7,1.4-10.6,1.4l-0.5-0.5c3.5,0.1,7-0.3,10.4-1.2c-8.1-4.2-14.9-8.1-17.7-9.7l-0.1-0.3
	l0.4-0.1c3.6,2.1,14,8.1,25.2,13.5c0-4.9-1.6-9.6-4.5-13.6l0.7,0.1c2.8,4,4.4,8.8,4.4,13.8c5.6,2.8,11.4,5.2,17.3,7.4
	c-0.3-2.1-2.1-11.9-6.7-16.5l1.4,0.8c4.2,5.3,5.7,14.5,5.9,15.9c2.2,0.8,4.4,1.4,6.7,1.9c-0.1,0.2-0.2,0.3-0.3,0.4
	C99.2,287.6,95,286.2,91,284.5z"/>
<path class="st9" d="M94.2,274.3c-4.9-4.3-10.2-9.6-15.1-15c2.6-4,3.4-8.8,2.4-13.4c3,1.8,5.8,3.8,8.5,6c2,1.7,3.8,3.5,5.4,5.4
	C98.1,263.6,94.9,272.5,94.2,274.3z"/>
<path class="st9" d="M78.7,258.9c-9.4-10.2-17.7-20.4-20.6-24c2.7,0.9,5.4,2,7.9,3.3c2.9,1.2,5.7,2.5,8.5,3.9
	c2.1,1.1,4.2,2.2,6.2,3.4C81.9,250.1,81.2,254.9,78.7,258.9z"/>
<path class="st9" d="M72.4,252.8c5,5.6,10.6,11.7,16.1,17c-2.3-0.3-12.5-1.6-18.7-5.5c-4.3-4.6-7.6-10-9.7-15.8
	C64,250.3,68.2,251.8,72.4,252.8L72.4,252.8z"/>
<path class="st9" d="M59.9,247.8c-0.3-0.8-0.5-1.6-0.8-2.5c-0.9-3.2-1.9-7-1.5-10.2c2.2,2.7,7.6,9.4,14.3,17
	C67.7,251.1,63.7,249.7,59.9,247.8z"/>
<path class="st9" d="M89,270.3L89,270.3c3.6,3.5,7.4,6.7,11.5,9.7c-1.4,0.1-2.7,0-4.1-0.4c-9.7-2.1-18.5-6.9-25.4-14
	C78.2,269.3,88.9,270.3,89,270.3z"/>
<path class="st9" d="M96.5,258.8c2,2.6,3.6,5.5,4.8,8.6c1,2.7,1.4,5.6,1.2,8.5c-0.2,2.2-0.4,3.4-1.4,3.9c-2-1.4-4.2-3.1-6.4-5
	C95.2,273.5,98.3,265.3,96.5,258.8z"/>
<path class="st16" d="M89,270.2L89,270.2c-0.1,0-10.8-1-18-4.7c-0.4-0.4-0.8-0.8-1.2-1.2c6.2,3.9,16.3,5.2,18.7,5.5
	c-5.5-5.3-11.1-11.4-16.1-17l0,0c-4.2-1-8.4-2.5-12.3-4.3c-0.1-0.2-0.2-0.5-0.2-0.7c3.8,1.9,7.9,3.4,12,4.4
	c-6.7-7.6-12.1-14.3-14.3-17v-0.3l0.5,0.1c2.9,3.6,11.1,13.8,20.6,24c2.5-4,3.2-8.8,2.1-13.4l0.7,0.4c1.1,4.6,0.2,9.5-2.4,13.4
	c5,5.3,10.2,10.6,15.1,15c0.7-1.9,3.8-10.8,1.2-16.9c0.4,0.5,0.7,0.9,1.1,1.4c1.8,6.5-1.3,14.7-1.8,16c2.2,1.9,4.3,3.6,6.4,5
	c-0.2,0.1-0.4,0.1-0.6,0.2C96.4,277,92.6,273.8,89,270.2z"/>
<path class="st17" d="M286.3,280.7c0.8-1.1,1.6-2,2.6-2.9v7.5C288,283.8,287.1,282.3,286.3,280.7z"/>
<path class="st17" d="M289.2,288.9c1.5-1.9,2.8-4,3.7-6.2c0.5,1.6,0.3,3.5-0.6,5.9c-1.8,4.9,1.2,4,1.8,3.5s2.1-3.2,3.8-2
	c0.1,0.1,0.2,0.1,0.2,0.2c-1.5,4.9-7.6,12.5-8.9,14.2L289.2,288.9z"/>
<path class="st17" d="M288.9,301.3c-0.8-0.5-4.7-3-8.3-11.1c1.6-1,3.1,1.6,3.7,2s3.7,1.4,1.8-3.5c-1.3-3.4-1.3-5.5,0.1-7.6
	c0.8,1.7,1.7,3.3,2.8,4.8L288.9,301.3z"/>
<path class="st17" d="M289.2,288.5v-10.7c1.5,1.2,2.7,2.7,3.5,4.5C291.8,284.5,290.6,286.6,289.2,288.5z"/>
<path class="st17" d="M298.2,290.6c1.1,1.6,0.4,5.6-1.7,10.5c-0.6,1.5-1.4,2.9-2.2,4.3c-0.8,1.4-1.6,2.7-2.5,4c-0.7,1-1.3,1.9-2,2.9
	c-0.2,0.2-0.4,0.3-0.7,0.3V305C290,304,296.6,295.9,298.2,290.6z"/>
<path class="st17" d="M280.3,290.3c3.9,8.6,8,11,8.5,11.3v10.9l0,0c-0.2-0.1-0.3-0.2-0.4-0.4c-0.2-0.3-0.5-0.6-0.7-1
	c-0.4-0.5-0.8-1.1-1.1-1.6c-0.9-1.3-1.8-2.6-2.6-4c-0.9-1.4-1.6-2.9-2.3-4.4v-0.1C279.4,295.8,278.8,291.6,280.3,290.3z"/>
<path class="st16" d="M280.3,290.3l0.1-0.1l0.1-0.1c3.7,8.1,7.5,10.7,8.3,11.1v-15.5c-1-1.5-2-3.1-2.8-4.8c0.1-0.1,0.1-0.2,0.2-0.3
	c0.7,1.6,1.6,3.1,2.6,4.6v-7.5l0.1-0.1c0,0,0.1,0,0.1,0l0.1,0.1v10.7c1.4-1.9,2.6-4,3.5-6.2c0,0.1,0.1,0.2,0.1,0.4
	c-0.9,2.2-2.1,4.4-3.7,6.2v15.6c1.3-1.6,7.4-9.2,8.9-14.2c0.1,0.1,0.1,0.2,0.2,0.2c-1.7,5.3-8.3,13.4-9.1,14.4v7.6
	c-0.1,0-0.2,0-0.3,0v-10.9C288.3,301.3,284.2,298.9,280.3,290.3z"/>
<path class="st18" d="M280.3,292.3c0.5-0.7,1.1-1.3,1.7-1.8l-0.1,4.7C281.3,294.3,280.7,293.3,280.3,292.3z"/>
<path class="st18" d="M282,297.5c1-1.2,1.8-2.5,2.4-3.9c0.3,1.3,0.1,2.6-0.5,3.8c-1.2,3.1,0.7,2.5,1.1,2.2s1.4-2,2.4-1.2l0.1,0.1
	c-1,3.1-4.9,7.9-5.8,8.9L282,297.5z"/>
<path class="st18" d="M281.7,305.4c-0.5-0.3-3-1.9-5.2-7.1c1.1-0.6,2,1,2.3,1.3s2.3,0.9,1.2-2.2c-0.8-2.1-0.8-3.5,0.1-4.9
	c0.5,1.1,1.1,2.1,1.7,3.1L281.7,305.4z"/>
<path class="st18" d="M282,297.3l0.1-6.8c0.9,0.8,1.7,1.8,2.2,2.9C283.7,294.8,282.9,296.1,282,297.3z"/>
<path class="st18" d="M287.8,298.7c0.7,1,0.2,3.5-1.1,6.7c-0.4,0.9-0.9,1.9-1.5,2.7c-0.5,0.9-1.1,1.7-1.6,2.5
	c-0.4,0.6-0.9,1.2-1.3,1.8c-0.1,0.1-0.3,0.2-0.5,0.2l0.1-4.8C282.4,307.1,286.6,302.1,287.8,298.7z"/>
<path class="st18" d="M276.4,298.3c2.4,5.5,5,7.1,5.3,7.2l-0.1,7l0,0c-0.1-0.1-0.2-0.1-0.2-0.2c-0.1-0.2-0.3-0.4-0.4-0.6l-0.7-1
	c-0.6-0.8-1.1-1.7-1.6-2.6c-0.5-0.9-1-1.8-1.4-2.8l0,0C275.7,301.8,275.4,299.2,276.4,298.3z"/>
<g class="st19">
	
		<linearGradient id="SVGID_7_" gradientUnits="userSpaceOnUse" x1="276.35" y1="128.4376" x2="287.75" y2="128.4376" gradientTransform="matrix(1 0 0 -1 0 430)">
		<stop  offset="0.14" style="stop-color:#BDE4E0"/>
		<stop  offset="0.36" style="stop-color:#5ACABF"/>
		<stop  offset="0.85" style="stop-color:#F2F2F2"/>
	</linearGradient>
	<path class="st20" d="M276.4,298.3L276.4,298.3l0.1-0.1c2.3,5.2,4.7,6.8,5.2,7.1l0.2-9.8c-0.7-1-1.2-2-1.7-3.1l0.1-0.2
		c0.5,1,1,2,1.6,2.9l0.1-4.7l0,0h0.1l0.1,0.1l-0.1,6.8c0.9-1.2,1.7-2.5,2.3-3.9c0,0.1,0,0.2,0.1,0.2c-0.6,1.4-1.4,2.7-2.4,3.9
		l-0.2,9.9c0.9-1,4.8-5.8,5.8-8.9c0,0,0.1,0.1,0.1,0.2c-1.1,3.4-5.4,8.4-5.9,9.1l-0.1,4.8c-0.1,0-0.1,0-0.2,0l0.1-7
		C281.3,305.4,278.7,303.9,276.4,298.3z"/>
</g>
<linearGradient id="SVGID_8_" gradientUnits="userSpaceOnUse" x1="201.6121" y1="94.0894" x2="232.4975" y2="94.0894" gradientTransform="matrix(0.9921 -0.1252 -0.1252 -0.9921 73.7815 271.726)">
	<stop  offset="0.15" style="stop-color:#F2F2F2"/>
	<stop  offset="0.25" style="stop-color:#E9E9E9"/>
	<stop  offset="0.4" style="stop-color:#E6E6E6"/>
	<stop  offset="0.59" style="stop-color:#E0E0E0"/>
	<stop  offset="0.83" style="stop-color:#CFCFCF"/>
	<stop  offset="0.87" style="stop-color:#CCCCCC"/>
</linearGradient>
<circle class="st21" cx="277.4" cy="151.2" r="15.4"/>
<path class="st22" d="M286.3,131.7c-1,1.2-2,2.4-3,3.6c-0.3,0.4-0.5,0.5-1.1,0.3c-1.2-0.4-2.4-0.7-3.7-0.8c-0.8-0.1-1-0.2-1.2-0.7
	c-0.4-1.5-0.8-2.9-1.2-4.4c-0.2-0.6-0.5-0.6-1.3-0.3c-1.3,0.6-2.8,0.9-4.2,0.9c-1,0-1.3,0.1-1.2,0.7c0.2,1.6,0.2,3.1,0.4,4.7
	c0.1,0.4-0.1,0.7-0.5,0.9c-1.2,0.7-2.3,1.6-3.5,2.3c-0.2,0.1-0.5,0.1-0.7,0c-1.5-0.8-3-1.6-4.6-2.5c-1.5,1.5-2.7,3.3-3.6,5.2
	c-0.1,0.2,0.1,0.6,0.3,0.7c1.1,1,2.3,2,3.4,2.9c0.5,0.4,0.5,0.7,0.3,1.3c-0.4,1.2-0.6,2.5-0.7,3.7c0,0.5-0.2,0.6-0.6,0.8
	c-1.6,0.5-3.3,1-5,1.5c0.1,0.9,0.1,1.7,0.3,2.6c0.2,1.2,0.6,2.3,0.8,3.5c0.1,0.5,0.3,0.6,0.9,0.6c1.5-0.2,3.1-0.3,4.7-0.4
	c0.3,0,0.5,0.1,0.7,0.4c0.8,1.1,1.4,2.3,2.2,3.4c0.3,0.3,0.3,0.7,0,1c-0.8,1.5-1.6,3-2.5,4.5c1.6,1.6,3.5,2.9,5.5,3.9
	c1.1-1.3,2.2-2.6,3.2-3.9c0.3-0.5,0.9-0.6,1.3-0.4c1.3,0.3,2.5,0.6,3.8,0.8c0.4,0.1,0.6,0.2,0.8,0.6c0.4,1.7,1,3.5,1.5,5.3l0.8-0.2
	c1.7-0.4,3.4-0.7,5-1.1c0.5-0.1,0.7-0.3,0.6-0.9c-0.2-1.5-0.2-3-0.4-4.4c-0.1-0.4,0.1-0.8,0.5-0.9c1.1-0.6,2.2-1.3,3.3-2.1
	c0.3-0.3,0.7-0.3,1-0.1c1.3,0.8,2.7,1.5,4,2.2c0.4,0.2,0.7,0.3,1.1-0.4c0.7-1.5,1.6-2.9,2.8-4.1c0.5-0.5,0.4-0.8,0-1.1
	c-1.2-1-2.4-2-3.6-2.9c-0.3-0.2-0.4-0.6-0.3-0.9c0.4-1.4,0.6-2.8,0.9-4.2c0.1-0.5,0.2-0.7,0.7-0.8c1.6-0.5,3.2-1,4.9-1.5v-0.8
	c-0.1-0.8-0.2-1.5-0.3-2.2c-0.2-1.1-0.5-2.1-0.8-3.2c-0.1-0.4-0.3-0.5-0.7-0.4c-1.7,0.2-3.5,0.4-5,0.5c-1-1.4-1.9-2.7-2.8-4.1
	c-0.1-0.2-0.2-0.5-0.1-0.8c0.7-1.4,1.4-2.7,2.2-4.1c0.4-0.6,0.2-1-1.1-1.4c-1.3-0.4-2.4-1.2-3.2-2.2
	C286.9,131.1,286.6,131.3,286.3,131.7z M289.6,153.9c-1.4,7-8.2,11.5-15.2,10.1c-7-1.4-11.5-8.2-10.1-15.2s8.2-11.5,15.2-10.1
	c0,0,0,0,0,0C286.5,140.1,291,146.9,289.6,153.9z"/>
<path class="st23" d="M265.4,148.9c-1.3,6.5,2.8,12.8,9.3,14.2c6.5,1.3,12.8-2.8,14.2-9.3c1.3-6.5-2.8-12.8-9.3-14.2c0,0,0,0,0,0
	C273,138.3,266.7,142.4,265.4,148.9z M285.3,152.1c-0.3,4.5-4.2,8-8.8,7.7s-8-4.2-7.7-8.8c0.3-4.5,4.2-8,8.7-7.7
	C282.2,143.6,285.6,147.5,285.3,152.1z"/>
<path class="st24" d="M274.1,161.6c3.3,1,6.9,0.3,9.7-1.9l-0.1-0.2c-4.6,3.6-11.3,2.8-14.9-1.8c-2.1-2.7-2.8-6.2-1.8-9.5l-0.2-0.1
	C265,154,268.3,160,274.1,161.6z"/>
<path class="st24" d="M271.6,142.1c2-1.2,4.4-1.7,6.8-1.4v-0.2c-2.4-0.3-4.8,0.2-6.9,1.5L271.6,142.1z"/>
<path class="st24" d="M287.3,154.2l0.2,0.1c1.1-3.9,0-8-2.9-10.8l-0.1,0.1C287.3,146.3,288.4,150.4,287.3,154.2z"/>
<path class="st25" d="M265.3,142.2c-2.9,3.8-3.9,8.7-2.5,13.3l0.3-0.1c-2.3-7.8,2.2-15.9,9.9-18.2c4.5-1.3,9.4-0.4,13.1,2.5l0.2-0.2
	C279.8,134.5,270.4,135.7,265.3,142.2z"/>
<path class="st26" d="M291.6,148.9c0.5,3.2,0,6.5-1.6,9.4l0.2,0.1c1.6-2.9,2.1-6.3,1.6-9.6L291.6,148.9z"/>
<linearGradient id="SVGID_9_" gradientUnits="userSpaceOnUse" x1="41.488" y1="-293.7768" x2="61.907" y2="-293.7768" gradientTransform="matrix(0.9081 -0.419 -0.419 -0.9081 75.8864 -102.5843)">
	<stop  offset="0.15" style="stop-color:#F2F2F2"/>
	<stop  offset="0.25" style="stop-color:#E9E9E9"/>
	<stop  offset="0.4" style="stop-color:#E6E6E6"/>
	<stop  offset="0.59" style="stop-color:#E0E0E0"/>
	<stop  offset="0.83" style="stop-color:#CFCFCF"/>
	<stop  offset="0.87" style="stop-color:#CCCCCC"/>
</linearGradient>
<circle class="st27" cx="244.1" cy="143.4" r="10.2"/>
<path class="st23" d="M245.9,129.3c-0.4,0.9-0.8,1.9-1.2,2.8c-0.1,0.3-0.2,0.4-0.6,0.4c-0.8,0-1.7,0.1-2.5,0.2
	c-0.5,0.1-0.7,0.1-0.9-0.2c-0.5-0.9-1.1-1.7-1.6-2.5c-0.2-0.3-0.4-0.3-0.9,0.1c-0.7,0.6-1.6,1.1-2.5,1.4c-0.6,0.2-0.8,0.3-0.6,0.7
	c0.4,0.9,0.8,1.9,1.2,2.9c0.1,0.2,0.1,0.5-0.1,0.7c-0.6,0.7-1.1,1.4-1.7,2.1c-0.1,0.1-0.3,0.2-0.4,0.1c-1.1-0.2-2.2-0.4-3.4-0.7
	c-0.7,1.3-1.1,2.6-1.3,4c0,0.1,0.2,0.3,0.3,0.4c0.9,0.4,1.8,0.8,2.7,1.2c0.4,0.1,0.5,0.3,0.5,0.8c0,0.8,0.1,1.7,0.3,2.5
	c0.1,0.3,0,0.4-0.2,0.6l-2.9,1.9c0.2,0.5,0.4,1.1,0.7,1.6c0.4,0.7,0.8,1.4,1.2,2c0.1,0.2,0.4,0.3,0.6,0.2c0,0,0,0,0.1,0
	c1-0.4,1.9-0.8,2.9-1.2c0.2,0,0.3,0,0.5,0.1c0.7,0.6,1.4,1.1,2,1.7c0.2,0.1,0.3,0.4,0.2,0.6c-0.2,1.1-0.4,2.2-0.7,3.3
	c1.3,0.7,2.8,1.2,4.3,1.4c0.4-1,0.9-2,1.2-3.1c0.1-0.4,0.4-0.5,0.8-0.5c0.9,0,1.7-0.1,2.6-0.2c0.3,0,0.4,0,0.6,0.2c0.6,1,1.3,2,2,3
	l0.5-0.3l3-1.7c0.3-0.2,0.4-0.4,0.2-0.7c-0.4-0.9-0.8-1.8-1.1-2.7c-0.1-0.2-0.1-0.5,0.1-0.7c0.6-0.6,1.2-1.3,1.7-2
	c0.2-0.2,0.3-0.3,0.6-0.3l3,0.6c0.3,0.1,0.5,0,0.6-0.5c0.2-1.1,0.5-2.1,1-3.1c0.2-0.4,0.1-0.6-0.2-0.7c-1-0.4-1.9-0.8-2.8-1.1
	c-0.2-0.1-0.4-0.3-0.3-0.5c-0.1-0.9-0.1-1.9-0.3-2.8c0-0.3,0-0.5,0.2-0.7c0.9-0.6,1.9-1.3,2.8-1.9l-0.1-0.5
	c-0.2-0.4-0.4-0.9-0.6-1.4c-0.4-0.6-0.7-1.2-1.1-1.8c-0.1-0.2-0.3-0.2-0.5-0.1c-1.1,0.5-2.1,0.9-3.1,1.3c-0.9-0.7-1.8-1.4-2.6-2
	c-0.1-0.1-0.2-0.3-0.2-0.5c0.2-1,0.4-2,0.6-3c0.1-0.5-0.1-0.6-0.9-0.6c-0.9,0-1.8-0.3-2.5-0.8C246.1,128.7,246,129,245.9,129.3z
	 M252.4,142.6c0.5,4.7-2.9,8.9-7.6,9.4c-4.7,0.5-8.9-2.9-9.4-7.6c-0.5-4.7,2.9-8.9,7.6-9.4c0,0,0,0,0,0
	C247.7,134.5,251.9,137.9,252.4,142.6z"/>
<path class="st28" d="M236.1,144.2c0.4,4.4,4.3,7.5,8.7,7.1c4.4-0.4,7.5-4.3,7.1-8.7s-4.3-7.5-8.7-7.1c0,0,0,0,0,0
	C238.8,136,235.7,139.9,236.1,144.2z M249.3,142.2c0.7,2.9-1.1,5.9-4,6.6c-2.9,0.7-5.9-1.1-6.6-4l0,0c-0.7-2.9,1.1-5.9,4-6.6
	C245.7,137.5,248.6,139.3,249.3,142.2z"/>
<path class="st29" d="M244.1,150.6c2.3-0.1,4.4-1.2,5.8-3.1l-0.1-0.1c-2.1,3.2-6.5,4.1-9.7,1.9c-1.9-1.3-3.1-3.5-3.1-5.8h-0.1
	C236.9,147.5,240.1,150.6,244.1,150.6z"/>
<path class="st24" d="M238.7,138.7c1-1.2,2.5-2,4-2.2v-0.1c-1.6,0.3-3,1.1-4.1,2.3L238.7,138.7z"/>
<path class="st29" d="M251,143.2h0.1c-0.1-2.6-1.6-5.1-3.9-6.2l-0.1,0.1C249.4,138.3,250.9,140.7,251,143.2z"/>
<path class="st30" d="M234.8,140.1c-1.1,3-0.7,6.3,1,8.9l0.2-0.1c-3-4.5-1.8-10.5,2.7-13.4c2.6-1.7,5.8-2.1,8.7-1l0.1-0.2
	C242.3,132.4,236.7,135,234.8,140.1z"/>
<path class="st30" d="M252.6,139.1c1,1.9,1.3,4.1,0.9,6.2h0.2c0.4-2.2,0.1-4.4-0.9-6.4L252.6,139.1z"/>
<linearGradient id="SVGID_10_" gradientUnits="userSpaceOnUse" x1="-19.5924" y1="-371.0622" x2="4.6076" y2="-371.0622" gradientTransform="matrix(-0.48 -0.88 0.88 -0.48 629.1601 -18.7)">
	<stop  offset="0" style="stop-color:#005679"/>
	<stop  offset="0.18" style="stop-color:#005E80"/>
	<stop  offset="0.46" style="stop-color:#007294"/>
	<stop  offset="0.79" style="stop-color:#0094B4"/>
	<stop  offset="1" style="stop-color:#00ADCB"/>
</linearGradient>
<polygon class="st31" points="317,182.4 301.8,163.1 314.9,176.8 "/>
<path class="st32" d="M324.1,172.8c0,0-18-7.4-22.2-9.7c0,0,6.1,15.3,7.2,20.3l5.9-6.7l2.2-1.6L324.1,172.8z"/>
<linearGradient id="SVGID_11_" gradientUnits="userSpaceOnUse" x1="-19.5924" y1="-369.721" x2="4.6076" y2="-369.721" gradientTransform="matrix(-0.48 -0.88 0.88 -0.48 629.1601 -18.7)">
	<stop  offset="0" style="stop-color:#00ADCB"/>
	<stop  offset="0.26" style="stop-color:#00AAC8"/>
	<stop  offset="0.46" style="stop-color:#00A0BF"/>
	<stop  offset="0.65" style="stop-color:#0090B0"/>
	<stop  offset="0.82" style="stop-color:#00799A"/>
	<stop  offset="0.98" style="stop-color:#005B7E"/>
	<stop  offset="1" style="stop-color:#005679"/>
</linearGradient>
<polygon class="st33" points="317,182.4 314.9,176.8 301.8,163.1 317.1,175.2 "/>
<path class="st34" d="M317.3,183.2l0.3-0.2c0,0,0.2,0.3,0.4,0.9l-0.3,0.1C317.5,183.5,317.3,183.2,317.3,183.2z"/>
<path class="st34" d="M298.5,217.5c0-0.1,0.1-0.2,0.1-0.3l0.3,0.1l-0.1,0.3c-0.2,0.5-0.4,1-0.5,1.5l-0.3-0.1
	C298.1,218.5,298.3,218.1,298.5,217.5z M299.4,215.3c0.3-0.6,0.6-1.2,0.9-1.8l0.3,0.2c-0.3,0.6-0.6,1.1-0.9,1.8L299.4,215.3z
	 M301.4,211.9c0.4-0.6,0.8-1.1,1.2-1.6l0.3,0.2c-0.4,0.5-0.9,1.1-1.2,1.6L301.4,211.9z M304,208.8c0.5-0.5,1-0.9,1.5-1.4l0.2,0.2
	c-0.5,0.4-1,0.9-1.5,1.3L304,208.8z M307,206.2c0.5-0.4,1.1-0.7,1.7-1l0.2,0.3c-0.6,0.3-1.1,0.7-1.7,1L307,206.2z M310.5,204.2
	c0.6-0.4,1.1-0.7,1.6-1.1l0.2,0.3c-0.5,0.4-1.1,0.8-1.7,1.1L310.5,204.2z M318.5,185.9l0.3-0.1c0.2,0.6,0.4,1.3,0.5,1.9l-0.3,0.1
	C318.8,187.2,318.7,186.5,318.5,185.9L318.5,185.9z M313.7,201.9c0.5-0.4,1-0.9,1.4-1.4l0.2,0.2c-0.5,0.5-0.9,0.9-1.5,1.4
	L313.7,201.9z M319.2,189.8h0.3c0,0.7,0,1.3,0,2h-0.3C319.2,191.1,319.2,190.4,319.2,189.8L319.2,189.8z M316.4,199
	c0.4-0.5,0.8-1.1,1.1-1.7l0.3,0.2c-0.3,0.6-0.7,1.2-1.1,1.7L316.4,199z M318.9,193.7l0.3,0.1c-0.2,0.7-0.3,1.3-0.6,1.9l-0.3-0.1
	C318.5,195,318.7,194.3,318.9,193.7L318.9,193.7z"/>
<path class="st35" d="M73.8,240.6h-6.9c-2.4,0-4.3-1.9-4.3-4.3c0,0,0,0,0,0v-2.4c0-2.4,1.9-4.3,4.3-4.3c0,0,0,0,0,0h6.9
	c0.4,0,0.7,0.3,0.7,0.7v9.7C74.4,240.3,74.2,240.6,73.8,240.6z"/>
<linearGradient id="SVGID_12_" gradientUnits="userSpaceOnUse" x1="117.49" y1="195.26" x2="238.39" y2="195.26" gradientTransform="matrix(1 0 0 -1 0 430)">
	<stop  offset="0.15" style="stop-color:#59BAF1"/>
	<stop  offset="0.71" style="stop-color:#53ADE0"/>
	<stop  offset="1" style="stop-color:#4FA5D6"/>
</linearGradient>
<path class="st36" d="M176.2,203.2c-20.8,5-50.1,8-50.1,8l-7,21.9l-1.6,11.5l8.7,14.2c0,0,29.3,2.8,50.1,7.7
	c21.8,5.2,62.1,33.7,62.1,33.7l-0.1-63.9v-3.3l-0.1-63.9C238.1,169.1,198,197.9,176.2,203.2z"/>
<ellipse transform="matrix(1 -2.268861e-03 2.268861e-03 1 -0.5319 0.5627)" class="st9" cx="247.7" cy="234.7" rx="24.1" ry="72.5"/>
<linearGradient id="SVGID_13_" gradientUnits="userSpaceOnUse" x1="230.76" y1="195.295" x2="267.51" y2="195.295" gradientTransform="matrix(1 0 0 -1 0 430)">
	<stop  offset="0" style="stop-color:#83DDE7"/>
	<stop  offset="0.2" style="stop-color:#9DE2EA"/>
	<stop  offset="0.55" style="stop-color:#C2E9EE"/>
	<stop  offset="0.83" style="stop-color:#D9EDF0"/>
	<stop  offset="1" style="stop-color:#E2EFF1"/>
</linearGradient>
<path class="st37" d="M248.2,168.1c-7.9,0-14.6,16.6-17.5,40.4c11.9,0.3,21.3,10,21.4,21.8v8.8c0,11.9-9.4,21.6-21.3,21.9
	c3,23.7,9.8,40.3,17.7,40.3c10.5,0,19-29.9,19-66.6S258.8,168.1,248.2,168.1z"/>
<linearGradient id="SVGID_14_" gradientUnits="userSpaceOnUse" x1="229.2879" y1="195.245" x2="252.14" y2="195.245" gradientTransform="matrix(1 0 0 -1 0 430)">
	<stop  offset="0.15" style="stop-color:#7C79FE"/>
	<stop  offset="0.19" style="stop-color:#7B7CFE"/>
	<stop  offset="0.59" style="stop-color:#6E98FC"/>
	<stop  offset="0.83" style="stop-color:#69A2FB"/>
</linearGradient>
<path class="st38" d="M252.1,239.1v-8.8c0-11.9-9.5-21.5-21.4-21.8c-1,8.7-1.5,17.5-1.5,26.3c0,8.8,0.5,17.5,1.6,26.2
	C242.7,260.6,252.2,250.9,252.1,239.1z"/>
<path class="st34" d="M94.5,260.9c0,0-2.7,21.1,0.1,36c1.8,9,6.8,17.1,14,22.7c0,0,5.2,2.9,10,1.3s11.3-5.7,14-9.3s2.4-5.3-2.8-6.9
	s-17.5-17.4-8.6-45.6L94.5,260.9z"/>
<path class="st39" d="M111.9,260c-0.7,0.9-0.8,2.9-1,4c-1.3,6.7-2.5,13.5-1.8,20.4c0.7,6.6,2.6,13.1,5.5,19.1
	c2.4,5.2,6.2,9.9,11.6,12.2c0.4,0.2,0.9,0.3,1.4,0.3c0.4-0.1,0.7-0.3,1-0.5c2.1-1.5,5.2-4.1,5.7-6.9c0.4-2.5-2.6-3.4-4.4-3.9
	c-5.3-1.6-17.5-17.4-8.6-45.6l-5.4,0.4c-0.9,0.1-2.6-0.1-3.4,0.2C112.2,259.7,112.1,259.8,111.9,260z"/>
<linearGradient id="SVGID_15_" gradientUnits="userSpaceOnUse" x1="69.7299" y1="195" x2="133.1727" y2="195" gradientTransform="matrix(1 0 0 -1 0 430)">
	<stop  offset="0.17" style="stop-color:#69A2FB"/>
	<stop  offset="0.41" style="stop-color:#6A9FFB"/>
	<stop  offset="0.6" style="stop-color:#6F95FC"/>
	<stop  offset="0.77" style="stop-color:#7685FD"/>
	<stop  offset="0.85" style="stop-color:#7C79FE"/>
</linearGradient>
<path class="st40" d="M133,260.8c1,1.7-1.6,3.5-3.5,3.5l-36.8,0.1c-12.6,0-22.9-10.2-22.9-22.8c0,0,0,0,0,0v-13
	c0-12.6,10.2-22.9,22.8-22.9c0,0,0,0,0,0l36.8-0.1c1.9,0,3.5,1.6,3.5,3.5c0,0,0,0,0,0C132.9,209.1,114.9,230,133,260.8z"/>
<path class="st41" d="M183.5,250.4l-0.4-0.6c-0.1-0.1-0.3-0.3-0.5-0.2l-0.1,0.1c0.1,0.2,0.5,1,0.6,1.3c0.3,0.5,0.7,0.9,1.1,1.4
	l-0.1,1l1.6-0.2l-0.1-0.8l0.4-1l-0.1-2l-0.1-0.2c0,0-0.1-0.1-0.2-0.1l-0.2,0l-0.3-0.3c-0.1-0.1-0.1-0.1-0.2-0.1h-0.2
	c-0.1,0-0.1,0-0.2,0l-0.2-0.1c0,0-0.1,0-0.1,0c-0.1,0-0.3,0.1-0.4,0.2l-0.4-1.7c0-0.1-0.1-0.2-0.1-0.3l-0.1-0.1
	c0-0.1-0.1-0.1-0.2-0.1c0,0-0.1,0-0.1,0.1c-0.1,0.2-0.1,0.4-0.1,0.6l0.3,1.9C183.2,249.5,183.3,250,183.5,250.4z"/>
<path class="st42" d="M177.1,323.1l0.9,4.8c0.8,0.5,1.8,0.5,2.6,0l-1.3-4.3C179.4,323.6,177,323,177.1,323.1z"/>
<path class="st43" d="M179.4,325.6c0,0,0.5,1.3,1.3,1.6s1.4,0,2.5-0.4c1.4-0.5,4,0.9,1.2,1.4c-1.3,0.3-2.7,0.2-4-0.2
	c-0.6-0.3-1-0.9-1-1.6L179.4,325.6z"/>
<path class="st42" d="M160.2,323.3l-0.1,4.9c0.8,0.5,1.8,0.6,2.6,0.2l-0.2-4.4C162.5,324,160.1,323.2,160.2,323.3z"/>
<path class="st42" d="M162.2,327.1c0.9-0.4,2.6,1.3,0.8,1.5c-0.9,0.2-1.8,0-2.6-0.5C160,327.8,161.5,327.4,162.2,327.1z"/>
<path class="st44" d="M180.3,295.3c0,0-0.4-9.6-1.5-18c-0.6-1.4-6.7-1.2-6.7-1.2c-2.2,1.1-2.4,5.1-1.9,7.4
	c0.5,2.5,1.9,13.4,2.6,16.1c0.8,5.9,2.1,18.5,3.3,23.3c0.2,0.9,1,1.5,1.9,1.4c0.6,0,1.3-0.1,1.9-0.2c0.5-0.2,0.8-0.6,1-1.1
	C181,318.4,180.5,302,180.3,295.3z"/>
<path class="st45" d="M174.8,278.5c0.9-3.9-8.9-3.7-8.9-3.7c-0.6,0.2-2.6,0.7-2.8,5.8c-0.1,3.2-1.7,14.3-1.3,19.3
	c-1.6,7.3-2.5,14.7-2.7,22.1c0,0.7,0.4,1.3,1,1.5c0.6,0.2,1.2,0.4,1.8,0.5c0.7,0.1,1.4-0.3,1.6-1c1.7-5,5.2-20.8,5.2-21.6
	c1.5-3.8,2.7-7.7,3.7-11.7C173.3,286.6,173.8,282.8,174.8,278.5z"/>
<path class="st18" d="M173,252.3c-0.8,0.3-1.3,4.2-1,5.1c0.6,1.5,3.8,6.8,3.8,6.8c4.8,6.5,7.2,4.1,7.2,4.1c1.2-1.2,1.1-2.7-1.5-6.2
	L173,252.3z"/>
<path class="st18" d="M185.5,253.1l-0.7-0.1c-0.7-0.1-1.4,0.4-1.6,1.2c-0.4,1.9-0.9,3.7-1.7,5.5l0,0l-0.9,2c-1.3,3-2,5.8-0.2,6.6
	c0,0,2.9,2.6,4.7-5.2l0.4-2.1l0,0c0.4-2.1,0.7-4.2,0.8-6.4C186.6,253.8,186.1,253.2,185.5,253.1z"/>
<path class="st46" d="M173.8,241.6c0.2,1.2,0.1,2.5-0.3,3.6c0,0-2-1.7-1.9-2.6S173.3,240.2,173.8,241.6z"/>
<path class="st41" d="M168.5,248.6l-0.5,2.2l0.3,1.1c0.5,0.5,4.1,3.3,4.1,2.3l-0.5-2.9l-0.2-1.6c0.6-0.1,1.1-0.5,1.3-1.1
	c0.2-1,0.9-4.4-0.1-5.5c-0.3-0.5-0.8-0.9-1.4-1c0,0-2.2-0.9-3.1,0.6c-0.6,0.9-1,2-1.1,3.1C167.4,246.9,167.8,247.8,168.5,248.6z"/>
<path class="st47" d="M168.5,245.8l0.3-2.2c0,0,2.6,0.9,4.2-0.2c3.3-0.7,2.2-1.9,1.5-2.4c-1.2-0.8-2.2-0.6-2.5-0.1
	c0,0-5-1.6-5.6,3.4c0,0-0.7,0.2-0.6,1.2s2.5,3.3,2.5,3.3l-0.2-1.5c0,0-0.9-1.2-0.3-1.9S168.5,245.8,168.5,245.8z"/>
<path class="st48" d="M171.8,249.7l0.4,2.9c-1-0.9-1.7-2-2.2-3.3C170.4,249.6,171.1,249.8,171.8,249.7z"/>
<path class="st42" d="M163.1,254.6c0.8-2.1,2.9-2.7,4.2-3.1l0.2-1.1c0-0.1,0.2-0.2,0.3-0.2c0.1,0,0.1,0,0.1,0.1
	c0.7,0.6,2.1,1,4.2,0.3c0.2,0,0.4,0.2,0.4,0.5c0,0.1,0.1,0.5,0.1,0.9l0.1,0c1.9,1.4,2.4,3.6,3.2,5.7c1.3,3.7,4.3,19.8,2.2,20.7
	c-1.5,0.6-11.6,0.8-14.8,0.6c-0.9-0.1-0.9-1.5-0.9-1.5C162.6,274.7,162,257.7,163.1,254.6z"/>
<path class="st18" d="M164.9,252.2c2.4-0.3,0.9,3.3,0.1,5.9c-2.2,7-1.3,9.2-0.9,10c0.4,0.9-0.9,4.6-1.4,4.6c-1.6,0-3-0.8-3.8-2.2
	c-0.7-2-1-4.2-0.8-6.4c0.2-2.6,1-5.1,2.2-7.3C161,255.5,163.1,252.4,164.9,252.2z"/>
<path class="st41" d="M174,265.1c0.1,0,0.4,0.2,0.1,0.7c-0.1,0.2-0.2,0.4-0.4,0.6h1.5c0.4,0,0.9,0.1,1.3,0.2c0.2,0,0.5,0.1,0.5,0.3
	s-0.2,0.2-0.3,0.2h0.4c0.2,0.1,0.4,0.1,0.4,0.3s-0.3,0.3-0.4,0.3c-0.2,0-0.3,0.1-0.5,0.1h0.1c0.1,0,0.4,0.1,0.4,0.2
	s-0.3,0.2-0.4,0.2l-0.5,0.1c0.1,0,0.3,0.1,0.3,0.2s-0.3,0.2-0.3,0.2c-0.5,0.1-1.1,0.2-1.7,0.2l0,0c-0.3,0-0.5,0-0.8,0
	c-0.4,0-0.8-0.1-1.1-0.3c-0.2-0.1-0.4-0.2-0.6-0.4h-0.3v-1.7h0.4c0.1-0.1,0.2-0.3,0.3-0.4c0.2-0.1,0.5-0.3,0.8-0.4
	c0.2-0.1,0.4-0.2,0.6-0.4C173.6,265.3,173.9,265.1,174,265.1z"/>
<path class="st18" d="M171.4,269.5c0.2-0.2,0.8-0.6,0.7-0.9c-0.2-0.6-0.4-2.1-0.7-2c-1.1,0.1-7.2,1.5-10.4,2.1c-1.7,0.2-2,1.6-1.9,2
	c0.5,1.2,1.1,2.5,3.5,2.4C162.6,273,169.1,271.4,171.4,269.5z"/>
<path class="st16" d="M196.4,197.6c0.5-0.1,0.9-0.1,1.4-0.1c9.2-0.2,17,8.3,17.1,15.8c0.1,3-1.4,5.4-2.6,8.1c-1.4,3-2.6,6.1-3.9,9.1
	c-0.6,1.4-1.6,3-1.8,4.5c0,0.2,0,0.5,0,0.7L191,236c-0.1-0.6-0.3-1.2-0.5-1.7c-2.4-5-4.8-10-7.4-14.9
	C177.9,210.1,186.6,198.7,196.4,197.6z"/>
<path class="st5" d="M190.4,222.7c1.1,0.8,2.5,0.9,3.8,0.4c0.2,1,0.3,2,0.4,3c0.1,0.6,0.1,1.1,0.2,1.6l1.3,8.6l0.8-0.1l-1.3-8.6
	c-0.1-0.4-0.1-1-0.2-1.5c-0.1-1.1-0.2-2.1-0.5-3.2c1-0.4,1.9-1,2.8-1.6l0,0c0.2-0.2,0.5-0.3,0.7-0.5l0.2,0.1
	c1.1,0.8,2.2,1.4,3.5,1.9c0,0.1,0,0.2,0,0.3c-0.1,1-0.3,2.1-0.4,3.2l-1.1,9.8l0.8,0.1l1.1-9.9c0.1-1,0.2-2.1,0.4-3.1v-0.2
	c0.5,0.1,1.1,0.2,1.6,0.1c0.7,0,1.4-0.3,2-0.7c0.8-0.7,1-2,0.3-2.8c-0.5-0.5-1.2-0.8-1.9-0.7c-0.9,0.2-1.7,0.8-2.1,1.7
	c-0.2,0.5-0.4,0.9-0.5,1.4c-1.2-0.4-2.2-1-3.2-1.7l0,0c0.4-0.4,0.7-0.8,1-1.2c0.3-0.5,0.6-1,0.6-1.6c0.1-1.2-0.8-2.3-2-2.4
	c-0.8-0.1-1.6,0.3-2.1,1c-0.5,0.9-0.5,2,0.1,2.9c0.3,0.5,0.7,1,1.1,1.3c-0.2,0.1-0.4,0.3-0.6,0.4l0,0c-0.8,0.6-1.6,1.1-2.5,1.5
	c-0.2-0.9-0.7-1.6-1.4-2.2c-0.7-0.6-1.6-0.8-2.5-0.5c-0.7,0.2-1.2,0.8-1.4,1.5C189.4,221.6,189.7,222.3,190.4,222.7z M202.9,222.2
	c0.1-0.4,0.2-0.9,0.4-1.3c0.3-0.7,0.9-1.1,1.6-1.3h0.2c0.6,0,1.1,0.3,1.3,0.9c0.1,0.5-0.1,1-0.5,1.3c-0.5,0.3-1,0.5-1.6,0.5
	C203.9,222.3,203.4,222.3,202.9,222.2z M197.3,218.5c-0.4-0.6-0.4-1.4-0.1-2.1c0.3-0.4,0.7-0.7,1.2-0.7c0.2,0,0.3,0,0.5,0.1
	c0.6,0.2,1,0.8,1,1.5c-0.1,0.4-0.2,0.8-0.5,1.2c-0.3,0.4-0.6,0.8-1,1.2C197.9,219.4,197.6,219,197.3,218.5z M190.3,221
	c0.1-0.4,0.4-0.8,0.9-0.9c0.6-0.2,1.3-0.1,1.7,0.4c0.5,0.5,0.9,1.2,1.1,1.9c-1,0.4-2.2,0.3-3.1-0.3
	C190.5,221.9,190.2,221.5,190.3,221L190.3,221z"/>
<path class="st49" d="M190.8,235.7l15.6-0.4c0,0.2,0,0.5,0,0.7c0.1,2.2,0.7,4.9-0.3,6.9s-3,6-5.7,6.1l-3.1,0.1
	c-2.6,0.1-5.9-4.5-6.4-6.8c-0.1-0.3-0.1-0.7-0.1-1C191.1,239.5,191,237.6,190.8,235.7z"/>
<path class="st50" d="M228,220.5c0.2,0,0.4-0.2,0.4-0.4c0-0.3-0.1-0.5-0.4-0.6c0,0,0,0,0,0l-9.1-1.4c-0.3,0-0.5,0.2-0.6,0.4
	c0,0,0,0,0,0c0,0.3,0.1,0.5,0.4,0.6c0,0,0,0,0,0l9.1,1.4H228z"/>
<path class="st50" d="M218,204.7h0.1l9.1-4.4c0.3-0.1,0.4-0.4,0.2-0.7s-0.4-0.4-0.7-0.2l-9.1,4.3c-0.3,0.1-0.4,0.4-0.2,0.7
	C217.5,204.7,217.7,204.8,218,204.7z"/>
<path class="st50" d="M210.9,196.3c0.1,0,0.3-0.1,0.4-0.2l4.6-8c0.1-0.2,0.1-0.6-0.2-0.7s-0.6-0.1-0.7,0.2l0,0l-4.6,8
	c-0.1,0.2-0.1,0.6,0.2,0.7C210.6,196.3,210.7,196.3,210.9,196.3z"/>
<path class="st50" d="M196,194.4c0.3,0,0.5-0.3,0.4-0.6c0,0,0,0,0,0l-1.8-9.2c-0.1-0.3-0.3-0.5-0.6-0.4c-0.3,0-0.5,0.3-0.4,0.6
	c0,0,0,0,0,0l1.8,9.2C195.5,194.2,195.7,194.4,196,194.4z"/>
<path class="st50" d="M184.1,199.4c0.1,0,0.2-0.1,0.3-0.2c0.2-0.2,0.1-0.5-0.1-0.7c0,0,0,0,0,0l-7.5-5.9c-0.2-0.2-0.5-0.1-0.7,0.1
	c0,0,0,0,0,0c-0.2,0.2-0.1,0.5,0.1,0.7l7.5,5.9C183.8,199.4,183.9,199.4,184.1,199.4z"/>
<path class="st50" d="M177.5,211c0.2-0.1,0.4-0.3,0.4-0.5c0-0.3-0.2-0.5-0.5-0.5c0,0,0,0,0,0l-9.2,0.4c-0.3-0.1-0.5,0.1-0.6,0.4
	c-0.1,0.3,0.1,0.5,0.4,0.6c0.1,0,0.1,0,0.2,0l9.2-0.4L177.5,211z"/>
<ellipse class="st51" cx="291.5" cy="295.3" rx="7.1" ry="3.8"/>
<path class="st52" d="M291.4,301.2c-4.5,0-8-2.2-8-4.9s3.5-4.9,8-4.9s8,2.2,8,4.9S295.9,301.2,291.4,301.2z M291.4,292.6
	c-3.7,0-6.8,1.7-6.8,3.7s3.1,3.7,6.8,3.7s6.8-1.7,6.8-3.7S295.1,292.6,291.4,292.6L291.4,292.6z"/>
<path class="st34" d="M291.4,300.1c-4.5,0-8-2.2-8-4.9s3.5-4.9,8-4.9s8,2.2,8,4.9S295.9,300.1,291.4,300.1z M291.4,291.5
	c-3.7,0-6.8,1.7-6.8,3.7s3.1,3.7,6.8,3.7s6.8-1.7,6.8-3.7S295.1,291.5,291.4,291.5L291.4,291.5z"/>
<path class="st46" d="M281.8,300.1l2.8-1.5c0,0,0.3-0.2,0.9,0.4c0.2,0.1,0.2,0.4,0.1,0.5c0,0.1-0.1,0.1-0.2,0.1l-3,1.6L281.8,300.1z
	"/>
<path class="st34" d="M284.2,301.7c0.5-0.5,0.2-1.5-0.6-2.2c-0.6-0.6-1.5-0.7-2.2-0.2l-6.6,4l2.6,2.6L284.2,301.7z"/>
<path class="st53" d="M276.8,303.7c0.8,0.7,1.1,1.6,0.6,2.2s-1.5,0.5-2.2-0.2s-1.1-1.6-0.6-2.2S276,303,276.8,303.7z"/>
<path class="st54" d="M290.7,294c0,0.4-0.7,0.6-1.6,0.6s-1.6-0.3-1.6-0.6s0.7-0.6,1.6-0.6S290.7,293.7,290.7,294z"/>
<path class="st54" d="M287.9,294.9c0,0.2-0.4,0.4-0.9,0.4s-0.9-0.2-0.9-0.4s0.4-0.4,0.9-0.4S287.9,294.7,287.9,294.9z"/>
<circle class="st55" cx="109.7" cy="263.5" r="6.4"/>
<path class="st55" d="M114.8,259.7c-0.2,0.6-0.5,1.1-0.8,1.7c-1.3,2.4-3.2,4.5-5.5,6.1c-0.8,0.5-1.6,1-2.5,1.4
	c2.9,2,6.9,1.3,8.9-1.7C116.5,264.9,116.5,261.9,114.8,259.7z"/>
<path class="st55" d="M114.5,263.4c-0.5,1.3-1.3,2.6-2.2,3.6c-1.1,1.2-2.4,2.1-3.9,2.8c0.4,0.1,0.8,0.1,1.2,0.1
	c3.6,0,6.4-2.9,6.4-6.4c0-0.9-0.2-1.9-0.6-2.7C115.1,261.6,114.9,262.5,114.5,263.4z"/>
<ellipse transform="matrix(0.148 -0.989 0.989 0.148 -167.2024 332.9927)" class="st56" cx="109.7" cy="263.5" rx="5" ry="5"/>
<circle class="st16" cx="109.7" cy="263.5" r="4.7"/>
<path class="st47" d="M109.5,266.4v-0.6c-0.7,0-1.3-0.5-1.4-1.2h0.6c0.1,0.4,0.4,0.7,0.8,0.8v-1.7c-0.9-0.3-1.3-0.6-1.3-1.3
	c0-0.7,0.6-1.2,1.3-1.2c0,0,0,0,0,0v-0.5h0.4v0.5c0.6,0,1.2,0.5,1.3,1.1h-0.6c-0.1-0.3-0.3-0.6-0.7-0.6v1.5c1.1,0.3,1.4,0.8,1.4,1.4
	c0,0.8-0.5,1.2-1.4,1.3v0.6L109.5,266.4z M109.5,263v-1.4c-0.4,0-0.7,0.3-0.7,0.6c0,0,0,0,0,0.1C108.8,262.6,108.9,262.8,109.5,263
	L109.5,263z M109.9,263.7v1.6c0.5,0,0.7-0.3,0.7-0.8S110.4,263.9,109.9,263.7L109.9,263.7z"/>
<circle class="st55" cx="94.6" cy="253.9" r="7.8"/>
<path class="st55" d="M100.9,249.2c-0.3,0.7-0.6,1.4-1,2c-1.6,3-3.9,5.5-6.7,7.5c-0.9,0.6-2,1.2-3,1.6c3.6,2.4,8.4,1.5,10.9-2.1
	C102.9,255.5,102.8,251.8,100.9,249.2L100.9,249.2z"/>
<path class="st55" d="M100.5,253.7c-0.6,1.6-1.5,3.1-2.7,4.4c-1.4,1.4-3,2.6-4.7,3.4c0.5,0.1,1,0.2,1.5,0.1c4.3,0,7.8-3.6,7.8-7.9
	c0-1.1-0.3-2.2-0.7-3.2C101.2,251.6,100.9,252.6,100.5,253.7z"/>
<circle class="st56" cx="94.6" cy="253.9" r="6.1"/>
<circle class="st16" cx="94.6" cy="253.8" r="5.7"/>
<path class="st47" d="M94.3,257.4v-0.8c-0.9,0-1.6-0.6-1.7-1.5h0.7c0.1,0.5,0.5,0.9,1,0.9v-2.1c-1.1-0.3-1.6-0.8-1.6-1.6
	c0-0.8,0.7-1.5,1.6-1.5c0,0,0,0,0,0v-0.6h0.5v0.6c0.8,0,1.5,0.6,1.6,1.4h-0.8c-0.1-0.4-0.4-0.7-0.8-0.8v1.9c1.3,0.4,1.7,0.9,1.7,1.7
	c0,0.9-0.6,1.5-1.7,1.6v0.8L94.3,257.4z M94.3,253.2v-1.7c-0.4,0-0.8,0.3-0.8,0.8c0,0,0,0,0,0.1C93.5,252.7,93.7,253,94.3,253.2
	L94.3,253.2z M94.8,254.1v1.9c0.6,0,0.9-0.4,0.9-0.9S95.5,254.3,94.8,254.1L94.8,254.1z"/>
<circle class="st55" cx="80.1" cy="267.1" r="8.8"/>
<path class="st55" d="M87.2,261.8c-0.3,0.8-0.7,1.5-1.1,2.2c-1.8,3.3-4.4,6.2-7.5,8.4c-1.1,0.7-2.2,1.3-3.4,1.9
	c4,2.7,9.5,1.7,12.2-2.4C89.5,268.9,89.4,264.8,87.2,261.8L87.2,261.8z"/>
<path class="st55" d="M86.8,266.9c-0.7,1.8-1.7,3.5-3,5c-1.5,1.6-3.3,2.9-5.3,3.9c0.6,0.1,1.1,0.2,1.7,0.2c4.9,0,8.8-3.9,8.8-8.8
	c0-1.3-0.3-2.6-0.8-3.7C87.6,264.5,87.3,265.7,86.8,266.9z"/>
<circle class="st56" cx="80.1" cy="267.1" r="6.9"/>
<circle class="st16" cx="80.1" cy="267.1" r="6.4"/>
<path class="st47" d="M79.9,271.1v-0.9c-1,0-1.8-0.7-1.9-1.7h0.8c0.1,0.5,0.5,0.9,1.1,1v-2.3c-1.3-0.4-1.8-0.9-1.8-1.8
	c0-0.9,0.8-1.7,1.7-1.7c0,0,0,0,0,0v-0.6h0.6v0.7c0.9,0,1.6,0.7,1.7,1.5h-0.8c-0.1-0.5-0.5-0.8-0.9-0.9v2.1c1.5,0.4,1.9,1,1.9,1.9
	c0,1.1-0.7,1.7-1.9,1.8v0.9H79.9z M79.9,266.4v-1.9c-0.5,0-0.9,0.3-0.9,0.8c0,0,0,0.1,0,0.1C78.9,265.8,79.1,266.1,79.9,266.4z
	 M80.4,267.4v2.2c0.7-0.1,1-0.4,1-1S81.2,267.7,80.4,267.4z"/>
<circle class="st55" cx="93.7" cy="274.9" r="10.5"/>
<path class="st55" d="M102.2,268.6c-0.4,0.9-0.8,1.8-1.3,2.7c-2.2,4-5.3,7.4-9,10.1c-1.3,0.9-2.7,1.6-4.1,2.2
	c4.8,3.3,11.4,2,14.6-2.8C105,277.2,104.9,272.3,102.2,268.6L102.2,268.6z"/>
<path class="st55" d="M101.7,274.7c-0.8,2.2-2.1,4.2-3.6,6c-1.8,1.9-4,3.5-6.4,4.6c0.7,0.1,1.3,0.2,2,0.2c5.8,0,10.5-4.7,10.5-10.5
	c0-1.5-0.3-3.1-1-4.5C102.7,271.9,102.3,273.3,101.7,274.7z"/>
<ellipse transform="matrix(9.793035e-02 -0.9952 0.9952 9.793035e-02 -189.0543 341.2748)" class="st56" cx="93.7" cy="274.9" rx="8.3" ry="8.3"/>
<circle class="st16" cx="93.7" cy="274.9" r="7.7"/>
<path class="st47" d="M93.4,279.7v-1c-1.2,0-2.2-0.8-2.3-2h1c0.1,0.6,0.6,1.1,1.3,1.2v-2.8c-1.5-0.5-2.1-1-2.1-2.1c0-1.1,0.9-2,2-2
	c0,0,0.1,0,0.1,0v-0.8h0.7v0.8c1.1,0,2,0.8,2.1,1.9h-1c-0.1-0.5-0.5-1-1.1-1.1v2.5c1.8,0.5,2.3,1.2,2.3,2.3c0,1.3-0.8,2-2.3,2.1v1
	L93.4,279.7z M93.4,274.1v-2.3c-0.6,0-1.1,0.4-1.1,1c0,0,0,0.1,0,0.1C92.3,273.4,92.6,273.8,93.4,274.1z M94.1,275.3v2.6
	c0.8-0.1,1.2-0.5,1.2-1.2S95,275.6,94.1,275.3z"/>
<path class="st57" d="M302.4,224.2c-0.3-1.8-0.8-3.5-1.7-5.1c-0.7-1.5-1.7-2.9-3-3.9c-2.5-1.8-5.8-1.5-8.7-1.5h-0.2
	c-3.5-0.1-6.7-0.1-9.6,0c-4.9,0.1-9.2,0.3-13.1,0.6c-4.4,0.8-5.9,4.6-6.4,8c-0.3,1.9-0.4,3.8-0.5,5.7l0,0l0,0c0,0.8,0,1.6,0.1,2.4
	c0.1,1.4,0.5,2.8,1.1,4.2c0.7,2.2,1,5,5.7,5.4c0,2.6,0,4.1-1.8,4.9c3.8-0.1,4.5-2.9,5.5-4.6c1.6,0.1,2.6,0.2,3.8,0.2
	c1.7,0,3.4,0.2,5,0.4c3.8,0.7,10,1.7,12,1.5c2.1,0,4.2-0.7,5.9-2c2.4-2.2,4.2-5,5.1-8.2C302.5,229.6,302.8,226.9,302.4,224.2z"/>
<path class="st58" d="M55.6,175.6h93.4c5.3,0,9.6,4.3,9.6,9.6v0c0,5.3-4.3,9.6-9.6,9.6H55.6c-5.3,0-9.6-4.3-9.6-9.6v0
	C45.9,180,50.2,175.6,55.6,175.6z"/>
<path class="st16" d="M134.3,190.3H52.6c-1.1,0-2-0.9-2-2v-6.7c0-1.1,0.9-2,2-2h81.8c1.1,0,2,0.9,2,2v6.7
	C136.3,189.4,135.4,190.3,134.3,190.3z M52.6,180.4c-0.6,0-1.2,0.5-1.2,1.2v6.7c0,0.6,0.5,1.2,1.2,1.2h81.8c0.6,0,1.2-0.5,1.2-1.2
	v-6.7c0-0.6-0.5-1.2-1.2-1.2H52.6z"/>
<path class="st16" d="M149.4,179.6c-2.4,0-4.4,1.9-4.5,4.4c0,0.9,0.3,1.9,0.8,2.6l-3.3,3.2l0,0c-0.3,0.3-0.3,0.8,0,1.1
	c0.3,0.3,0.8,0.3,1.1,0l0,0l3.2-3.2c0.8,0.6,1.7,0.8,2.6,0.9c2.4,0,4.4-1.9,4.4-4.4c0,0,0-0.1,0-0.1
	C153.9,181.7,151.9,179.7,149.4,179.6z M149.5,187.4c-1.8,0-3.3-1.4-3.4-3.3c0-1.8,1.4-3.2,3.1-3.3c0,0,0.1,0,0.1,0
	c1.8,0,3.3,1.4,3.4,3.3C152.8,185.9,151.4,187.3,149.5,187.4C149.6,187.4,149.6,187.4,149.5,187.4L149.5,187.4z"/>
<circle class="st59" cx="92.8" cy="167.4" r="25.6"/>
<ellipse transform="matrix(0.1595 -0.9872 0.9872 0.1595 -80.1425 229.1348)" class="st30" cx="94.5" cy="161.6" rx="24.8" ry="24.8"/>
<path class="st16" d="M93.8,136.7c13.7,0,24.7,11.1,24.7,24.7c0,13.7-11.1,24.7-24.7,24.7s-24.7-11.1-24.7-24.7
	C69.1,147.8,80.2,136.7,93.8,136.7C93.8,136.7,93.8,136.7,93.8,136.7 M93.8,135.1c-14.5,0-26.3,11.8-26.3,26.3
	c0,14.5,11.8,26.3,26.3,26.3s26.3-11.8,26.3-26.3c0,0,0,0,0,0C120.1,146.9,108.3,135.2,93.8,135.1z"/>
<circle class="st60" cx="93.8" cy="161.4" r="17.8"/>
<ellipse transform="matrix(0.9708 -0.2399 0.2399 0.9708 -35.9785 27.2235)" class="st61" cx="93.8" cy="161.4" rx="13.1" ry="13.1"/>
<circle class="st62" cx="93.8" cy="161.4" r="8.2"/>
<polygon class="st62" points="114.1,141.4 113,135.7 121.1,127.6 122.2,133.3 "/>
<polygon class="st62" points="114.2,141.5 119.9,142.6 128,134.5 122.3,133.4 "/>
<rect x="87.9" y="147.1" transform="matrix(0.7071 -0.7071 0.7071 0.7071 -72.5514 119.6779)" class="st63" width="40.6" height="0.6"/>
<rect x="119" y="300.9" class="st55" width="25.2" height="2.5"/>
<g>
	<rect x="119.1" y="301" class="st64" width="0.1" height="2.2"/>
	<rect x="120" y="301" class="st64" width="0.1" height="2.2"/>
	<rect x="120.9" y="301" class="st64" width="0.1" height="2.2"/>
	<rect x="121.9" y="301" class="st64" width="0.1" height="2.2"/>
	<rect x="122.8" y="301" class="st64" width="0.1" height="2.2"/>
	<rect x="123.7" y="301" class="st64" width="0.1" height="2.2"/>
	<rect x="124.6" y="301" class="st64" width="0.1" height="2.2"/>
	<rect x="125.6" y="301" class="st64" width="0.1" height="2.2"/>
	<rect x="126.5" y="301" class="st64" width="0.1" height="2.2"/>
	<rect x="127.4" y="301" class="st64" width="0.1" height="2.2"/>
	<rect x="128.3" y="301" class="st64" width="0.1" height="2.2"/>
	<rect x="129.2" y="301" class="st64" width="0.1" height="2.2"/>
	<rect x="130.2" y="301" class="st64" width="0.1" height="2.2"/>
	<rect x="131.1" y="301" class="st64" width="0.1" height="2.2"/>
	<rect x="132" y="301" class="st64" width="0.1" height="2.2"/>
	<rect x="132.9" y="301" class="st64" width="0.1" height="2.2"/>
	<rect x="133.9" y="301" class="st64" width="0.1" height="2.2"/>
	<rect x="134.8" y="301" class="st64" width="0.1" height="2.2"/>
	<rect x="135.7" y="301" class="st64" width="0.1" height="2.2"/>
	<rect x="136.6" y="301" class="st64" width="0.1" height="2.2"/>
	<rect x="137.5" y="301" class="st64" width="0.1" height="2.2"/>
	<rect x="138.5" y="301" class="st64" width="0.1" height="2.2"/>
	<rect x="139.4" y="301" class="st64" width="0.1" height="2.2"/>
	<rect x="140.3" y="301" class="st64" width="0.1" height="2.2"/>
	<rect x="141.2" y="301" class="st64" width="0.1" height="2.2"/>
	<rect x="142.2" y="301" class="st64" width="0.1" height="2.2"/>
	<rect x="143.1" y="301" class="st64" width="0.1" height="2.2"/>
	<rect x="144" y="301" class="st64" width="0.1" height="2.2"/>
</g>
<rect x="119" y="300.9" class="st56" width="25.2" height="0.3"/>
<rect x="119" y="303.1" class="st55" width="25.2" height="0.3"/>
<rect x="120" y="303.4" class="st55" width="25.2" height="2.5"/>
<g>
	<rect x="120.1" y="303.5" class="st64" width="0.1" height="2.2"/>
	<rect x="121" y="303.5" class="st64" width="0.1" height="2.2"/>
	<rect x="121.9" y="303.5" class="st64" width="0.1" height="2.2"/>
	<rect x="122.8" y="303.5" class="st64" width="0.1" height="2.2"/>
	<rect x="123.8" y="303.5" class="st64" width="0.1" height="2.2"/>
	<rect x="124.7" y="303.5" class="st64" width="0.1" height="2.2"/>
	<rect x="125.6" y="303.5" class="st64" width="0.1" height="2.2"/>
	<rect x="126.5" y="303.5" class="st64" width="0.1" height="2.2"/>
	<rect x="127.4" y="303.5" class="st64" width="0.1" height="2.2"/>
	<rect x="128.4" y="303.5" class="st64" width="0.1" height="2.2"/>
	<rect x="129.3" y="303.5" class="st64" width="0.1" height="2.2"/>
	<rect x="130.2" y="303.5" class="st64" width="0.1" height="2.2"/>
	<rect x="131.1" y="303.5" class="st64" width="0.1" height="2.2"/>
	<rect x="132.1" y="303.5" class="st64" width="0.1" height="2.2"/>
	<rect x="133" y="303.5" class="st64" width="0.1" height="2.2"/>
	<rect x="133.9" y="303.5" class="st64" width="0.1" height="2.2"/>
	<rect x="134.8" y="303.5" class="st64" width="0.1" height="2.2"/>
	<rect x="135.7" y="303.5" class="st64" width="0.1" height="2.2"/>
	<rect x="136.7" y="303.5" class="st64" width="0.1" height="2.2"/>
	<rect x="137.6" y="303.5" class="st64" width="0.1" height="2.2"/>
	<rect x="138.5" y="303.5" class="st64" width="0.1" height="2.2"/>
	<rect x="139.4" y="303.5" class="st64" width="0.1" height="2.2"/>
	<rect x="140.4" y="303.5" class="st64" width="0.1" height="2.2"/>
	<rect x="141.3" y="303.5" class="st64" width="0.1" height="2.2"/>
	<rect x="142.2" y="303.5" class="st64" width="0.1" height="2.2"/>
	<rect x="143.1" y="303.5" class="st64" width="0.1" height="2.2"/>
	<rect x="144.1" y="303.5" class="st64" width="0.1" height="2.2"/>
	<rect x="145" y="303.5" class="st64" width="0.1" height="2.2"/>
</g>
<rect x="120" y="303.4" class="st56" width="25.2" height="0.3"/>
<rect x="120" y="305.6" class="st55" width="25.2" height="0.3"/>
<rect x="118.5" y="305.9" class="st55" width="25.2" height="2.5"/>
<g>
	<rect x="118.6" y="306.1" class="st64" width="0.1" height="2.2"/>
	<rect x="119.5" y="306.1" class="st64" width="0.1" height="2.2"/>
	<rect x="120.5" y="306.1" class="st64" width="0.1" height="2.2"/>
	<rect x="121.4" y="306.1" class="st64" width="0.1" height="2.2"/>
	<rect x="122.3" y="306.1" class="st64" width="0.1" height="2.2"/>
	<rect x="123.2" y="306.1" class="st64" width="0.1" height="2.2"/>
	<rect x="124.1" y="306.1" class="st64" width="0.1" height="2.2"/>
	<rect x="125.1" y="306.1" class="st64" width="0.1" height="2.2"/>
	<rect x="126" y="306.1" class="st64" width="0.1" height="2.2"/>
	<rect x="126.9" y="306.1" class="st64" width="0.1" height="2.2"/>
	<rect x="127.8" y="306.1" class="st64" width="0.1" height="2.2"/>
	<rect x="128.8" y="306.1" class="st64" width="0.1" height="2.2"/>
	<rect x="129.7" y="306.1" class="st64" width="0.1" height="2.2"/>
	<rect x="130.6" y="306.1" class="st64" width="0.1" height="2.2"/>
	<rect x="131.5" y="306.1" class="st64" width="0.1" height="2.2"/>
	<rect x="132.4" y="306.1" class="st64" width="0.1" height="2.2"/>
	<rect x="133.4" y="306.1" class="st64" width="0.1" height="2.2"/>
	<rect x="134.3" y="306.1" class="st64" width="0.1" height="2.2"/>
	<rect x="135.2" y="306.1" class="st64" width="0.1" height="2.2"/>
	<rect x="136.1" y="306.1" class="st64" width="0.1" height="2.2"/>
	<rect x="137.1" y="306.1" class="st64" width="0.1" height="2.2"/>
	<rect x="138" y="306.1" class="st64" width="0.1" height="2.2"/>
	<rect x="138.9" y="306.1" class="st64" width="0.1" height="2.2"/>
	<rect x="139.8" y="306.1" class="st64" width="0.1" height="2.2"/>
	<rect x="140.8" y="306.1" class="st64" width="0.1" height="2.2"/>
	<rect x="141.7" y="306.1" class="st64" width="0.1" height="2.2"/>
	<rect x="142.6" y="306.1" class="st64" width="0.1" height="2.2"/>
	<rect x="143.5" y="306.1" class="st64" width="0.1" height="2.2"/>
</g>
<rect x="118.5" y="305.9" class="st56" width="25.2" height="0.3"/>
<rect x="118.5" y="308.1" class="st55" width="25.2" height="0.3"/>
<rect x="119.5" y="308.4" class="st55" width="25.2" height="2.5"/>
<g>
	<rect x="119.6" y="308.6" class="st64" width="0.1" height="2.2"/>
	<rect x="120.5" y="308.6" class="st64" width="0.1" height="2.2"/>
	<rect x="121.4" y="308.6" class="st64" width="0.1" height="2.2"/>
	<rect x="122.3" y="308.6" class="st64" width="0.1" height="2.2"/>
	<rect x="123.3" y="308.6" class="st64" width="0.1" height="2.2"/>
	<rect x="124.2" y="308.6" class="st64" width="0.1" height="2.2"/>
	<rect x="125.1" y="308.6" class="st64" width="0.1" height="2.2"/>
	<rect x="126" y="308.6" class="st64" width="0.1" height="2.2"/>
	<rect x="127" y="308.6" class="st64" width="0.1" height="2.2"/>
	<rect x="127.9" y="308.6" class="st64" width="0.1" height="2.2"/>
	<rect x="128.8" y="308.6" class="st64" width="0.1" height="2.2"/>
	<rect x="129.7" y="308.6" class="st64" width="0.1" height="2.2"/>
	<rect x="130.6" y="308.6" class="st64" width="0.1" height="2.2"/>
	<rect x="131.6" y="308.6" class="st64" width="0.1" height="2.2"/>
	<rect x="132.5" y="308.6" class="st64" width="0.1" height="2.2"/>
	<rect x="133.4" y="308.6" class="st64" width="0.1" height="2.2"/>
	<rect x="134.3" y="308.6" class="st64" width="0.1" height="2.2"/>
	<rect x="135.3" y="308.6" class="st64" width="0.1" height="2.2"/>
	<rect x="136.2" y="308.6" class="st64" width="0.1" height="2.2"/>
	<rect x="137.1" y="308.6" class="st64" width="0.1" height="2.2"/>
	<rect x="138" y="308.6" class="st64" width="0.1" height="2.2"/>
	<rect x="139" y="308.6" class="st64" width="0.1" height="2.2"/>
	<rect x="139.9" y="308.6" class="st64" width="0.1" height="2.2"/>
	<rect x="140.8" y="308.6" class="st64" width="0.1" height="2.2"/>
	<rect x="141.7" y="308.6" class="st64" width="0.1" height="2.2"/>
	<rect x="142.6" y="308.6" class="st64" width="0.1" height="2.2"/>
	<rect x="143.6" y="308.6" class="st64" width="0.1" height="2.2"/>
	<rect x="144.5" y="308.6" class="st64" width="0.1" height="2.2"/>
</g>
<rect x="119.5" y="308.4" class="st56" width="25.2" height="0.3"/>
<rect x="119.5" y="310.7" class="st55" width="25.2" height="0.3"/>
<rect x="120.2" y="311" class="st55" width="25.2" height="2.5"/>
<g>
	<rect x="120.3" y="311.1" class="st64" width="0.1" height="2.2"/>
	<rect x="121.3" y="311.1" class="st64" width="0.1" height="2.2"/>
	<rect x="122.2" y="311.1" class="st64" width="0.1" height="2.2"/>
	<rect x="123.1" y="311.1" class="st64" width="0.1" height="2.2"/>
	<rect x="124" y="311.1" class="st64" width="0.1" height="2.2"/>
	<rect x="124.9" y="311.1" class="st64" width="0.1" height="2.2"/>
	<rect x="125.9" y="311.1" class="st64" width="0.1" height="2.2"/>
	<rect x="126.8" y="311.1" class="st64" width="0.1" height="2.2"/>
	<rect x="127.7" y="311.1" class="st64" width="0.1" height="2.2"/>
	<rect x="128.6" y="311.1" class="st64" width="0.1" height="2.2"/>
	<rect x="129.6" y="311.1" class="st64" width="0.1" height="2.2"/>
	<rect x="130.5" y="311.1" class="st64" width="0.1" height="2.2"/>
	<rect x="131.4" y="311.1" class="st64" width="0.1" height="2.2"/>
	<rect x="132.3" y="311.1" class="st64" width="0.1" height="2.2"/>
	<rect x="133.2" y="311.1" class="st64" width="0.1" height="2.2"/>
	<rect x="134.2" y="311.1" class="st64" width="0.1" height="2.2"/>
	<rect x="135.1" y="311.1" class="st64" width="0.1" height="2.2"/>
	<rect x="136" y="311.1" class="st64" width="0.1" height="2.2"/>
	<rect x="136.9" y="311.1" class="st64" width="0.1" height="2.2"/>
	<rect x="137.9" y="311.1" class="st64" width="0.1" height="2.2"/>
	<rect x="138.8" y="311.1" class="st64" width="0.1" height="2.2"/>
	<rect x="139.7" y="311.1" class="st64" width="0.1" height="2.2"/>
	<rect x="140.6" y="311.1" class="st64" width="0.1" height="2.2"/>
	<rect x="141.5" y="311.1" class="st64" width="0.1" height="2.2"/>
	<rect x="142.5" y="311.1" class="st64" width="0.1" height="2.2"/>
	<rect x="143.4" y="311.1" class="st64" width="0.1" height="2.2"/>
	<rect x="144.3" y="311.1" class="st64" width="0.1" height="2.2"/>
	<rect x="145.2" y="311.1" class="st64" width="0.1" height="2.2"/>
</g>
<rect x="120.2" y="311" class="st56" width="25.2" height="0.3"/>
<rect x="120.2" y="313.2" class="st55" width="25.2" height="0.3"/>
<rect x="121.2" y="313.5" class="st55" width="25.2" height="2.5"/>
<g>
	<rect x="121.3" y="313.6" class="st64" width="0.1" height="2.2"/>
	<rect x="122.2" y="313.6" class="st64" width="0.1" height="2.2"/>
	<rect x="123.1" y="313.6" class="st64" width="0.1" height="2.2"/>
	<rect x="124.1" y="313.6" class="st64" width="0.1" height="2.2"/>
	<rect x="125" y="313.6" class="st64" width="0.1" height="2.2"/>
	<rect x="125.9" y="313.6" class="st64" width="0.1" height="2.2"/>
	<rect x="126.8" y="313.6" class="st64" width="0.1" height="2.2"/>
	<rect x="127.8" y="313.6" class="st64" width="0.1" height="2.2"/>
	<rect x="128.7" y="313.6" class="st64" width="0.1" height="2.2"/>
	<rect x="129.6" y="313.6" class="st64" width="0.1" height="2.2"/>
	<rect x="130.5" y="313.6" class="st64" width="0.1" height="2.2"/>
	<rect x="131.4" y="313.6" class="st64" width="0.1" height="2.2"/>
	<rect x="132.4" y="313.6" class="st64" width="0.1" height="2.2"/>
	<rect x="133.3" y="313.6" class="st64" width="0.1" height="2.2"/>
	<rect x="134.2" y="313.6" class="st64" width="0.1" height="2.2"/>
	<rect x="135.1" y="313.6" class="st64" width="0.1" height="2.2"/>
	<rect x="136.1" y="313.6" class="st64" width="0.1" height="2.2"/>
	<rect x="137" y="313.6" class="st64" width="0.1" height="2.2"/>
	<rect x="137.9" y="313.6" class="st64" width="0.1" height="2.2"/>
	<rect x="138.8" y="313.6" class="st64" width="0.1" height="2.2"/>
	<rect x="139.7" y="313.6" class="st64" width="0.1" height="2.2"/>
	<rect x="140.7" y="313.6" class="st64" width="0.1" height="2.2"/>
	<rect x="141.6" y="313.6" class="st64" width="0.1" height="2.2"/>
	<rect x="142.5" y="313.6" class="st64" width="0.1" height="2.2"/>
	<rect x="143.4" y="313.6" class="st64" width="0.1" height="2.2"/>
	<rect x="144.4" y="313.6" class="st64" width="0.1" height="2.2"/>
	<rect x="145.3" y="313.6" class="st64" width="0.1" height="2.2"/>
	<rect x="146.2" y="313.6" class="st64" width="0.1" height="2.2"/>
</g>
<rect x="121.2" y="313.5" class="st56" width="25.2" height="0.3"/>
<rect x="121.2" y="315.7" class="st55" width="25.2" height="0.3"/>
<rect x="119.8" y="316" class="st55" width="25.2" height="2.5"/>
<g>
	<rect x="119.8" y="316.2" class="st64" width="0.1" height="2.2"/>
	<rect x="120.8" y="316.2" class="st64" width="0.1" height="2.2"/>
	<rect x="121.7" y="316.2" class="st64" width="0.1" height="2.2"/>
	<rect x="122.6" y="316.2" class="st64" width="0.1" height="2.2"/>
	<rect x="123.5" y="316.2" class="st64" width="0.1" height="2.2"/>
	<rect x="124.5" y="316.2" class="st64" width="0.1" height="2.2"/>
	<rect x="125.4" y="316.2" class="st64" width="0.1" height="2.2"/>
	<rect x="126.3" y="316.2" class="st64" width="0.1" height="2.2"/>
	<rect x="127.2" y="316.2" class="st64" width="0.1" height="2.2"/>
	<rect x="128.1" y="316.2" class="st64" width="0.1" height="2.2"/>
	<rect x="129.1" y="316.2" class="st64" width="0.1" height="2.2"/>
	<rect x="130" y="316.2" class="st64" width="0.1" height="2.2"/>
	<rect x="130.9" y="316.2" class="st64" width="0.1" height="2.2"/>
	<rect x="131.8" y="316.2" class="st64" width="0.1" height="2.2"/>
	<rect x="132.8" y="316.2" class="st64" width="0.1" height="2.2"/>
	<rect x="133.7" y="316.2" class="st64" width="0.1" height="2.2"/>
	<rect x="134.6" y="316.2" class="st64" width="0.1" height="2.2"/>
	<rect x="135.5" y="316.2" class="st64" width="0.1" height="2.2"/>
	<rect x="136.5" y="316.2" class="st64" width="0.1" height="2.2"/>
	<rect x="137.4" y="316.2" class="st64" width="0.1" height="2.2"/>
	<rect x="138.3" y="316.2" class="st64" width="0.1" height="2.2"/>
	<rect x="139.2" y="316.2" class="st64" width="0.1" height="2.2"/>
	<rect x="140.1" y="316.2" class="st64" width="0.1" height="2.2"/>
	<rect x="141.1" y="316.2" class="st64" width="0.1" height="2.2"/>
	<rect x="142" y="316.2" class="st64" width="0.1" height="2.2"/>
	<rect x="142.9" y="316.2" class="st64" width="0.1" height="2.2"/>
	<rect x="143.8" y="316.2" class="st64" width="0.1" height="2.2"/>
	<rect x="144.8" y="316.2" class="st64" width="0.1" height="2.2"/>
</g>
<rect x="119.8" y="316" class="st56" width="25.2" height="0.3"/>
<rect x="119.8" y="318.2" class="st55" width="25.2" height="0.3"/>
<rect x="120.7" y="318.5" class="st55" width="25.2" height="2.5"/>
<g>
	<rect x="120.8" y="318.7" class="st64" width="0.1" height="2.2"/>
	<rect x="121.7" y="318.7" class="st64" width="0.1" height="2.2"/>
	<rect x="122.7" y="318.7" class="st64" width="0.1" height="2.2"/>
	<rect x="123.6" y="318.7" class="st64" width="0.1" height="2.2"/>
	<rect x="124.5" y="318.7" class="st64" width="0.1" height="2.2"/>
	<rect x="125.4" y="318.7" class="st64" width="0.1" height="2.2"/>
	<rect x="126.3" y="318.7" class="st64" width="0.1" height="2.2"/>
	<rect x="127.3" y="318.7" class="st64" width="0.1" height="2.2"/>
	<rect x="128.2" y="318.7" class="st64" width="0.1" height="2.2"/>
	<rect x="129.1" y="318.7" class="st64" width="0.1" height="2.2"/>
	<rect x="130" y="318.7" class="st64" width="0.1" height="2.2"/>
	<rect x="131" y="318.7" class="st64" width="0.1" height="2.2"/>
	<rect x="131.9" y="318.7" class="st64" width="0.1" height="2.2"/>
	<rect x="132.8" y="318.7" class="st64" width="0.1" height="2.2"/>
	<rect x="133.7" y="318.7" class="st64" width="0.1" height="2.2"/>
	<rect x="134.7" y="318.7" class="st64" width="0.1" height="2.2"/>
	<rect x="135.6" y="318.7" class="st64" width="0.1" height="2.2"/>
	<rect x="136.5" y="318.7" class="st64" width="0.1" height="2.2"/>
	<rect x="137.4" y="318.7" class="st64" width="0.1" height="2.2"/>
	<rect x="138.3" y="318.7" class="st64" width="0.1" height="2.2"/>
	<rect x="139.3" y="318.7" class="st64" width="0.1" height="2.2"/>
	<rect x="140.2" y="318.7" class="st64" width="0.1" height="2.2"/>
	<rect x="141.1" y="318.7" class="st64" width="0.1" height="2.2"/>
	<rect x="142" y="318.7" class="st64" width="0.1" height="2.2"/>
	<rect x="143" y="318.7" class="st64" width="0.1" height="2.2"/>
	<rect x="143.9" y="318.7" class="st64" width="0.1" height="2.2"/>
	<rect x="144.8" y="318.7" class="st64" width="0.1" height="2.2"/>
	<rect x="145.7" y="318.7" class="st64" width="0.1" height="2.2"/>
</g>
<rect x="120.7" y="318.5" class="st56" width="25.2" height="0.3"/>
<rect x="120.7" y="320.8" class="st55" width="25.2" height="0.3"/>
<rect x="121.2" y="321.1" class="st55" width="25.2" height="2.5"/>
<g>
	<rect x="121.3" y="321.2" class="st64" width="0.1" height="2.2"/>
	<rect x="122.2" y="321.2" class="st64" width="0.1" height="2.2"/>
	<rect x="123.1" y="321.2" class="st64" width="0.1" height="2.2"/>
	<rect x="124.1" y="321.2" class="st64" width="0.1" height="2.2"/>
	<rect x="125" y="321.2" class="st64" width="0.1" height="2.2"/>
	<rect x="125.9" y="321.2" class="st64" width="0.1" height="2.2"/>
	<rect x="126.8" y="321.2" class="st64" width="0.1" height="2.2"/>
	<rect x="127.8" y="321.2" class="st64" width="0.1" height="2.2"/>
	<rect x="128.7" y="321.2" class="st64" width="0.1" height="2.2"/>
	<rect x="129.6" y="321.2" class="st64" width="0.1" height="2.2"/>
	<rect x="130.5" y="321.2" class="st64" width="0.1" height="2.2"/>
	<rect x="131.4" y="321.2" class="st64" width="0.1" height="2.2"/>
	<rect x="132.4" y="321.2" class="st64" width="0.1" height="2.2"/>
	<rect x="133.3" y="321.2" class="st64" width="0.1" height="2.2"/>
	<rect x="134.2" y="321.2" class="st64" width="0.1" height="2.2"/>
	<rect x="135.1" y="321.2" class="st64" width="0.1" height="2.2"/>
	<rect x="136.1" y="321.2" class="st64" width="0.1" height="2.2"/>
	<rect x="137" y="321.2" class="st64" width="0.1" height="2.2"/>
	<rect x="137.9" y="321.2" class="st64" width="0.1" height="2.2"/>
	<rect x="138.8" y="321.2" class="st64" width="0.1" height="2.2"/>
	<rect x="139.7" y="321.2" class="st64" width="0.1" height="2.2"/>
	<rect x="140.7" y="321.2" class="st64" width="0.1" height="2.2"/>
	<rect x="141.6" y="321.2" class="st64" width="0.1" height="2.2"/>
	<rect x="142.5" y="321.2" class="st64" width="0.1" height="2.2"/>
	<rect x="143.4" y="321.2" class="st64" width="0.1" height="2.2"/>
	<rect x="144.4" y="321.2" class="st64" width="0.1" height="2.2"/>
	<rect x="145.3" y="321.2" class="st64" width="0.1" height="2.2"/>
	<rect x="146.2" y="321.2" class="st64" width="0.1" height="2.2"/>
</g>
<rect x="121.2" y="321.1" class="st56" width="25.2" height="0.3"/>
<rect x="121.2" y="323.3" class="st55" width="25.2" height="0.3"/>
<rect x="119.8" y="323.6" class="st55" width="25.2" height="2.5"/>
<g>
	<rect x="119.8" y="323.8" class="st64" width="0.1" height="2.2"/>
	<rect x="120.8" y="323.8" class="st64" width="0.1" height="2.2"/>
	<rect x="121.7" y="323.8" class="st64" width="0.1" height="2.2"/>
	<rect x="122.6" y="323.8" class="st64" width="0.1" height="2.2"/>
	<rect x="123.5" y="323.8" class="st64" width="0.1" height="2.2"/>
	<rect x="124.5" y="323.8" class="st64" width="0.1" height="2.2"/>
	<rect x="125.4" y="323.8" class="st64" width="0.1" height="2.2"/>
	<rect x="126.3" y="323.8" class="st64" width="0.1" height="2.2"/>
	<rect x="127.2" y="323.8" class="st64" width="0.1" height="2.2"/>
	<rect x="128.1" y="323.8" class="st64" width="0.1" height="2.2"/>
	<rect x="129.1" y="323.8" class="st64" width="0.1" height="2.2"/>
	<rect x="130" y="323.8" class="st64" width="0.1" height="2.2"/>
	<rect x="130.9" y="323.8" class="st64" width="0.1" height="2.2"/>
	<rect x="131.8" y="323.8" class="st64" width="0.1" height="2.2"/>
	<rect x="132.8" y="323.8" class="st64" width="0.1" height="2.2"/>
	<rect x="133.7" y="323.8" class="st64" width="0.1" height="2.2"/>
	<rect x="134.6" y="323.8" class="st64" width="0.1" height="2.2"/>
	<rect x="135.5" y="323.8" class="st64" width="0.1" height="2.2"/>
	<rect x="136.5" y="323.8" class="st64" width="0.1" height="2.2"/>
	<rect x="137.4" y="323.8" class="st64" width="0.1" height="2.2"/>
	<rect x="138.3" y="323.8" class="st64" width="0.1" height="2.2"/>
	<rect x="139.2" y="323.8" class="st64" width="0.1" height="2.2"/>
	<rect x="140.1" y="323.8" class="st64" width="0.1" height="2.2"/>
	<rect x="141.1" y="323.8" class="st64" width="0.1" height="2.2"/>
	<rect x="142" y="323.8" class="st64" width="0.1" height="2.2"/>
	<rect x="142.9" y="323.8" class="st64" width="0.1" height="2.2"/>
	<rect x="143.8" y="323.8" class="st64" width="0.1" height="2.2"/>
	<rect x="144.8" y="323.8" class="st64" width="0.1" height="2.2"/>
</g>
<rect x="119.8" y="323.6" class="st56" width="25.2" height="0.3"/>
<rect x="119.8" y="325.8" class="st55" width="25.2" height="0.3"/>
<rect x="120.7" y="326.1" class="st55" width="25.2" height="2.5"/>
<g>
	<rect x="120.8" y="326.3" class="st64" width="0.1" height="2.2"/>
	<rect x="121.7" y="326.3" class="st64" width="0.1" height="2.2"/>
	<rect x="122.7" y="326.3" class="st64" width="0.1" height="2.2"/>
	<rect x="123.6" y="326.3" class="st64" width="0.1" height="2.2"/>
	<rect x="124.5" y="326.3" class="st64" width="0.1" height="2.2"/>
	<rect x="125.4" y="326.3" class="st64" width="0.1" height="2.2"/>
	<rect x="126.3" y="326.3" class="st64" width="0.1" height="2.2"/>
	<rect x="127.3" y="326.3" class="st64" width="0.1" height="2.2"/>
	<rect x="128.2" y="326.3" class="st64" width="0.1" height="2.2"/>
	<rect x="129.1" y="326.3" class="st64" width="0.1" height="2.2"/>
	<rect x="130" y="326.3" class="st64" width="0.1" height="2.2"/>
	<rect x="131" y="326.3" class="st64" width="0.1" height="2.2"/>
	<rect x="131.9" y="326.3" class="st64" width="0.1" height="2.2"/>
	<rect x="132.8" y="326.3" class="st64" width="0.1" height="2.2"/>
	<rect x="133.7" y="326.3" class="st64" width="0.1" height="2.2"/>
	<rect x="134.7" y="326.3" class="st64" width="0.1" height="2.2"/>
	<rect x="135.6" y="326.3" class="st64" width="0.1" height="2.2"/>
	<rect x="136.5" y="326.3" class="st64" width="0.1" height="2.2"/>
	<rect x="137.4" y="326.3" class="st64" width="0.1" height="2.2"/>
	<rect x="138.3" y="326.3" class="st64" width="0.1" height="2.2"/>
	<rect x="139.3" y="326.3" class="st64" width="0.1" height="2.2"/>
	<rect x="140.2" y="326.3" class="st64" width="0.1" height="2.2"/>
	<rect x="141.1" y="326.3" class="st64" width="0.1" height="2.2"/>
	<rect x="142" y="326.3" class="st64" width="0.1" height="2.2"/>
	<rect x="143" y="326.3" class="st64" width="0.1" height="2.2"/>
	<rect x="143.9" y="326.3" class="st64" width="0.1" height="2.2"/>
	<rect x="144.8" y="326.3" class="st64" width="0.1" height="2.2"/>
	<rect x="145.7" y="326.3" class="st64" width="0.1" height="2.2"/>
</g>
<rect x="120.7" y="326.1" class="st56" width="25.2" height="0.3"/>
<rect x="120.7" y="328.3" class="st55" width="25.2" height="0.3"/>
<g>
	<g class="st65">
		<polygon class="st55" points="120,305.9 120,305.9 120,303.4 119,303.4 119,303.4 119,300.9 119,300.9 130.4,300.9 130.4,300.9 
			130.4,303.4 131.3,303.4 131.4,303.4 131.4,305.9 131.3,305.9 		"/>
	</g>
	<g class="st65">
		<polygon class="st55" points="118.5,305.9 129.9,305.9 129.9,305.9 129.9,308.4 130.9,308.4 130.9,308.4 130.9,311 131.6,311 
			131.6,311 131.6,313.5 132.6,313.5 132.6,313.5 132.6,316 132.6,316 121.2,316 121.2,316 121.2,313.5 120.2,313.5 120.2,313.5 
			120.2,311 119.5,311 119.5,311 119.5,308.4 118.5,308.4 118.5,308.4 118.5,305.9 		"/>
	</g>
	<g class="st65">
		<polygon class="st55" points="131.1,316 131.1,316 131.1,318.5 132.1,318.5 132.1,318.5 132.1,321.1 132.1,321.1 120.7,321.1 
			120.7,321.1 120.7,318.5 119.8,318.5 119.8,318.5 119.8,316 119.8,316 		"/>
	</g>
	<g class="st65">
		<polygon class="st55" points="121.2,323.6 121.2,321.1 121.2,321.1 132.6,321.1 132.6,321.1 132.6,323.6 132.6,323.6 121.2,323.6 
					"/>
	</g>
	<g class="st65">
		<polygon class="st55" points="131.1,323.6 131.1,323.6 131.1,326.1 132.1,326.1 132.1,326.1 132.1,328.7 132.1,328.7 120.7,328.7 
			120.7,328.7 120.7,326.1 119.8,326.1 119.8,326.1 119.8,323.6 119.8,323.6 		"/>
	</g>
</g>
<path class="st66" d="M118.5,297.4c1.4-0.6,2.4-3,1.7-6.1s-3.3-6.2-3.5-6.7s0.3-2.4,0.3-3.5c0-0.4-0.1-0.8-0.2-1.2
	c-0.2-0.2-0.4-0.3-0.8,0.1c-0.2,0.2-0.4,0.4-0.6,0.5c0.4,1.4,0.8,3.5,0.5,4c-0.5,0.8-2.2,2-1.8,1.5s1.2-1.6,1.2-2.2
	c-0.3-1.2-0.8-2.3-1.4-3.4c-0.3-0.1-0.6-0.1-0.7,0.1s-0.6,0.5,1.3,3.5c0,0-3,3.7-3.7,5.9s-1.3,4.2-0.4,5.8s3.4,2.2,5.2,2.2
	c0.7,0,1.5,0,2.3-0.1C118,297.6,118.2,297.4,118.5,297.4z"/>
<path class="st67" d="M114,286.1c-0.3,0.5,1.3-0.7,1.8-1.5c0.3-0.5-0.1-2.6-0.5-4c-0.2,0.1-0.5,0.2-0.8,0.1l-0.8-0.2
	c0.6,1.1,1,2.2,1.4,3.4C115.2,284.5,114.3,285.6,114,286.1z"/>
<path class="st68" d="M123.2,292.6c-0.6-2.6-1.8-5-3.6-7.1c-1.8-1.7-2-1.8-1.1-2.6c0.6-0.6,1.1-1.3,1.6-2c0.2-0.4-0.8-0.8-1.3-0.5
	c-0.6,0.3-1.3,0.2-1.8-0.2l-0.2-0.2c0.1,0.4,0.2,0.8,0.2,1.2c0,1.1-0.5,2.9-0.3,3.5s2.8,3.6,3.5,6.7s-0.2,5.5-1.7,6.1
	c-0.3,0.1-0.5,0.2-0.7,0.4c1.3-0.1,2.6-0.3,3.8-0.7C122.9,296.4,123.6,294.9,123.2,292.6z"/>
<path class="st67" d="M123.2,292.6c-0.6-2.6-1.8-5-3.6-7.1c-1.8-1.7-2-1.8-1.1-2.6c0.6-0.6,1.1-1.3,1.6-2c0.2-0.4-0.8-0.8-1.3-0.5
	c-0.6,0.3-1.3,0.2-1.8-0.2l-0.2-0.2c0.1,0.4,0.2,0.8,0.2,1.2c0,1.1-0.5,2.9-0.3,3.5s2.8,3.6,3.5,6.7s-0.2,5.5-1.7,6.1
	c-0.3,0.1-0.5,0.2-0.7,0.4c1.3-0.1,2.6-0.3,3.8-0.7C122.9,296.4,123.6,294.9,123.2,292.6z"/>
<path class="st69" d="M115,283.7c0,0,1.1-0.1,1.4-0.1c0.5-0.1,1.1-0.2,1.6-0.3c0.2,0,0.3,0.2,0.3,0.3c0.1,0.2,0,0.3-0.1,0.4
	c-1.2,0.2-2.5,0.3-3.7,0.3c-0.3,0-0.4-0.1-0.4-0.3c0-0.2,0.1-0.3,0.3-0.3C114.5,283.6,114.8,283.7,115,283.7z"/>
<path class="st70" d="M116.7,284.5c0.2,0.2,0.3,0.5,0.3,0.8c0,0.1,0,0.3,0.1,0.4v-0.1c0.1-0.3,0.1-0.6,0.2-0.9
	C117.1,284.6,116.9,284.5,116.7,284.5z"/>
<path class="st69" d="M116.7,284.5c0.2,0.2,0.3,0.5,0.3,0.8c0,0.1,0,0.3,0.1,0.4v-0.1c0.1-0.3,0.1-0.6,0.2-0.9
	C117.1,284.6,116.9,284.5,116.7,284.5z"/>
<path class="st71" d="M116.7,284.5L116.7,284.5z"/>
<path class="st72" d="M119,285.8c-0.1-0.2-0.2-0.4-0.3-0.6c-0.1,0-0.3,0-0.4-0.1c-0.3-0.2-0.7-0.5-1-0.6h-0.5c0.2,0,0.4,0.1,0.5,0.2
	l0,0c0.5,0.4,0.9,1,1.1,1.7c0.1,0.6,0.2,0.7,0.4,0.8c0.2,0,0.3-0.1,0.4-0.2c0,0,0,0,0,0C119.3,286.5,119.2,286.2,119,285.8z"/>
<path class="st72" d="M116.7,284.5c0.5,0,1,0,1.4-0.1l0,0c0.5-0.1,0.4-0.6,0.1-0.6s-3.4,0-3.8,0s-0.7-0.1-0.7,0.2s0.4,0.4,0.4,0.4
	L116.7,284.5c0,0.4-0.1,0.9-0.4,1.2c0,0.1-0.1,0.4,0.1,0.5s0.5-0.1,0.6-0.6c-0.1-0.1-0.1-0.3-0.1-0.4
	C117,285,116.8,284.7,116.7,284.5L116.7,284.5z"/>
<path class="st73" d="M116.7,284.5L116.7,284.5z"/>
<path class="st73" d="M118.2,284.4L118.2,284.4z"/>
<path class="st69" d="M118.4,285.2c0.1,0.1,0.2,0.1,0.4,0.1c-0.2-0.4-0.6-0.9-0.6-0.9c-0.5,0.1-1,0.1-1.4,0.1h0.1h0.5
	C117.7,284.7,118,284.9,118.4,285.2z"/>
<path class="st74" d="M116,295.9v-0.8c-1,0-1.8-0.7-1.9-1.6h0.8c0.1,0.5,0.5,0.9,1.1,1v-2.2c-1.2-0.4-1.7-0.8-1.8-1.7
	c0-0.9,0.8-1.7,1.7-1.7c0,0,0,0,0,0v-0.6h0.5v0.6c0.9,0,1.6,0.6,1.7,1.5h-0.8c-0.1-0.4-0.5-0.8-0.9-0.8v2c1.4,0.4,1.8,1,1.9,1.8
	c0,1-0.7,1.6-1.8,1.8v0.9L116,295.9z M116,291.3v-1.9c-0.5,0-0.9,0.3-0.9,0.8c0,0,0,0.1,0,0.1C115,290.8,115.3,291.1,116,291.3
	L116,291.3z M116.6,292.3v2.1c0.6-0.1,1-0.4,1-1S117.3,292.6,116.6,292.3L116.6,292.3z"/>
<path class="st47" d="M130.2,284.3c0,0-6,3-9.6-0.3s-3.4-5.1-2.9-6.5c-0.8-2.1,1.6-6.2,5.2-6.2c0,0,1.7-1.5,1.6-3s0.4-4.6,3.9-4.2
	c3.5,0.4,3.4,1.4,3.3,2.2c-0.2,0.9,0,1.9,0.6,2.6c1.3,1.5,2,3.3,2,5.3C134.3,277.3,136.5,280.9,130.2,284.3z"/>
<path class="st47" d="M134,265.1c0.7-0.7,0.9-1.8,0.4-2.7c-0.9-1.4-2.6-2.6-6,0c-1,0.5-2.1,0.8-3.2,0.9c-0.7,0.1-1.9,0.4-1.5,3.3
	s0.6,3.6-1.2,5s-3.5,3,0.1,7.2s6.7,3.4,9.2,2.5s5.4-3.7,4.8-5.5s-1.8-2.4-1.2-4S136.6,267.2,134,265.1z"/>
<path class="st75" d="M144.8,273c-0.1,1.6-0.4,4.6-0.5,6.6l-0.3,2.1c-0.4,3.1-1.2,5.4-2.8,6c-0.8,0.2-1.7-0.1-2.3-0.7
	c-2.5-1.9-4.7-4.3-6.3-7c0,0-3.2-7.3-2.3-7.9c0.9,0.4,1.7,0.9,2.4,1.5c2.4,2.7,4.7,5.7,6.6,8.8c1.4,2.4,3.6-7.5,4-9.3
	C143.3,273.1,144.6,272.5,144.8,273z"/>
<path class="st75" d="M154.6,325.5l-1.5-2.6c0.1-0.7,0.3-1.9,0.4-3.3h-2.5c0.2,1.4,0.4,2.5,0.5,3.3l-0.1,1.4L154.6,325.5z"/>
<path class="st75" d="M146.6,325.5l-1.5-2.6c0.1-0.7,0.3-1.9,0.4-3.3H143c0.2,1.4,0.4,2.5,0.5,3.3l-0.1,1.4L146.6,325.5z"/>
<path class="st76" d="M121.9,295.5c0,0,9.3,3,14.9,0.4c0,0-1.5-9.6-1.2-11.1s1.9-1.7,1.9-3.3c-0.1-2.3-3.3-6-5-8.3
	c-0.1-0.2-0.2-0.2-0.3-0.3c-1.2-0.5-2.5-0.8-3.8-0.9c-2.5,0.3-5.3,1.2-6.3,2.3c-1,2.8,1.8,9.8,1.3,15.2
	C122.9,291.5,122.4,293.5,121.9,295.5z"/>
<path class="st75" d="M132.5,265.6c-1.2,0.4-2.5,0.4-3.8,0.1c-0.1,0.6-0.5,1.1-1.1,1.2c0,0-0.1-0.2-0.5,0s-0.4,1.5,0.7,1.9
	c0.1,0.4,0.3,0.7,0.3,1.1c0,0.7-0.1,1.4-0.2,2.2c0.8,1,1.7,1.9,2.7,2.6c0.8,0.3,2.9,1.2,0.9-2.4c-0.2-0.4-0.3-0.8-0.3-1.3
	c0,0,1.3,0.1,1.1-1.7C132.2,268,132.3,266.8,132.5,265.6z"/>
<path class="st77" d="M128.9,270.1c0.8,0.8,1.7,1.5,2.6,2.1c-0.2-0.4-0.3-0.8-0.3-1.3C130.4,270.8,129.6,270.5,128.9,270.1z"/>
<path class="st78" d="M122.8,275.4c-1.3,2.5-0.4,9.5-0.1,11.9c-0.4,2.5-1,5-1.7,7.4c1.6-0.1,3.2,0.1,4.6,0.8
	c0.4-1.1,8.1-3.6,8.9-4.6c-4-1.7-7.1-2.2-8-4.8c-0.4-1.4,0-5-1-9.2C125,274.5,123.2,274.7,122.8,275.4z"/>
<path class="st75" d="M144.7,273.3l0.1-0.5c0.1-0.3,0.3-0.5,0.6-0.6l0,0c0.3-0.1,0.5-0.2,0.7-0.4c0.1-0.1,0.3-0.2,0.4-0.4l0,0
	c0.3-0.3,0.5-0.6,0.8-0.9c0,0,0.1-0.2,0.1-0.3s-0.1,0-0.2,0c0.1-0.1,0.2-0.2,0.2-0.3s0.2-0.3,0.1-0.3s-0.2,0-0.3,0.1l0,0
	c0.1-0.1,0.2-0.2,0.2-0.3s0.1-0.2,0-0.4s-0.2,0-0.4,0c-0.1,0-0.1,0.1-0.2,0.2c0.1-0.1,0.1-0.2,0.1-0.3s-0.3,0-0.4,0.1
	c-0.3,0.2-0.5,0.3-0.8,0.5l-0.8,0.7l0.1-0.2v-0.3c0.1-0.2,0-0.5-0.1-0.4l-0.5,0.5c-0.1,0.1-0.1,0.2-0.2,0.3l-0.5,1
	c-0.1,0.3-0.2,0.6-0.3,0.9c0,0.2-0.1,0.5-0.1,0.7l-0.2,0.9C143.6,273.7,144.2,273.6,144.7,273.3z"/>
<path class="st79" d="M127.7,293.7c1.1-2.4,23.8-2,26.7-0.8c1.1,0.7,1.8,1.8,1.9,3.1c0.3,1.4,0.3,2.8,0.2,4.2l-0.3,3.1v0
	c-0.5,6.2-1.3,12.4-2.5,18.5c-0.5,0.3-1.8,0.1-2.7-0.1c-0.6-0.2-1-0.8-1-1.5c-0.5-6.5-0.5-13.1-0.1-19.6c-2.6,0-10.8,0-12.9,0.1
	c-4.1,0.2-9.2-2.7-9.4-4.8L127.7,293.7z"/>
<path class="st18" d="M120.6,297.6c0.4,2.1,2,3.3,5.2,3.3c2.2,0,12.5-0.1,15.8-0.1c-0.3,6.7-0.1,13.4,0.6,20c0,0.6,0.4,1.2,1,1.4
	c0.9,0.2,2.3,0.4,2.7,0c1.1-6.1,1.7-12.3,2-18.5l0,0l0.2-3.1c0.1-1.6,0-3.2-0.5-4.8c-0.3-1.2-1-2.3-2.1-2.9
	c-2.7-1.2-23.6-0.8-24,0.1C120.8,294.5,120.5,296.1,120.6,297.6z"/>
<path class="st75" d="M136.7,291.2c0,0,2-0.1,2.5-0.1c0.5-0.1,1.1-0.1,1.6,0c0.7,0.3,1.3,0.7,1.8,1.1c0.3,0.3,0.4,0.4,0.3,0.5
	c0,0.1,0,0.2,0,0.2c-0.1,0.1-0.2,0.1-0.3,0.1c0,0,0,0.1-0.2,0.1c-0.2,0-0.3,0-0.4-0.1c0,0,0,0-0.1,0.1s-0.6,0-0.8-0.1
	c-0.3-0.1-0.6-0.1-0.9-0.1c-0.1,0-0.4,0.2-0.9,0.2c-0.7,0-1.4-0.1-2-0.4c-0.7-0.2-1.5-0.3-2.2-0.2c0-0.4,0-0.9,0.1-1.3
	C135.4,291.1,136,291.2,136.7,291.2z"/>
<path class="st75" d="M125.5,275.8c0.4,1.7-1,10.1-0.4,11.6s10.9,3.8,10.9,3.8l-0.3,1.4c0,0-9.1,0.4-12.2-0.5
	c-3.3-1-3.4-2.2-3.6-4.6c0-4,0.4-8.1,1.2-12C122.3,272.6,125,273.3,125.5,275.8z"/>
<path class="st74" d="M137.3,293.3h18.9c0.1,0,0.2-0.1,0.2-0.1l4.6-14.3c0-0.1,0-0.2-0.1-0.3c0,0,0,0,0,0h-18.5
	c-0.3,0-0.5,0.2-0.6,0.5l-4.6,14C137.1,293.2,137.2,293.3,137.3,293.3C137.3,293.3,137.3,293.3,137.3,293.3z"/>
<path class="st74" d="M143.1,293h-17.7c-0.2,0-0.3-0.2-0.3-0.3l0,0c0-0.2,0.2-0.3,0.3-0.3h17.7c0.2,0,0.3,0.2,0.3,0.3l0,0
	C143.5,292.8,143.3,293,143.1,293z"/>
<path class="st69" d="M143.5,293.3h-17.7c-0.4,0-0.7-0.3-0.7-0.7l0,0l0,0h18.4l0,0V293.3L143.5,293.3z"/>
<path class="st30" d="M137.4,293.3H156c0.4,0,0.8-0.3,0.9-0.6l4.4-13.5c0.1-0.2,0-0.5-0.3-0.6c-0.1,0-0.1,0-0.2,0h-18
	c-0.4,0-0.7,0.3-0.9,0.6L137.4,293.3z"/>
<path class="st16" d="M148.6,285.9c0,0.7,0.8,1.2,1.8,1.2s1.8-0.5,1.8-1.2s-0.8-1.2-1.8-1.2S148.6,285.2,148.6,285.9z"/>
<path class="st69" d="M148.4,326.5l-2.9-0.1c-0.3,0-0.5-0.1-0.7-0.3l-1.1-1.2v1.4h-0.4l-0.3-1.6c-0.1-0.3,0-0.7,0.2-1l0.2-0.3
	c0.1-0.1,0.2-0.1,0.2,0c0,0,0,0,0,0l1.6,1.4c0.3,0.3,0.7,0.4,1.1,0.5l0.4,0c0.2,0,0.5,0.1,0.7,0.2l0.4,0.2c0.1,0,0.1,0.1,0.2,0.1
	c0.1,0.1,0.2,0.2,0.3,0.4l0.2,0.3C148.5,326.6,148.5,326.6,148.4,326.5C148.4,326.6,148.4,326.6,148.4,326.5z"/>
<path class="st69" d="M156.5,326.5l-2.9-0.1c-0.3,0-0.5-0.1-0.7-0.3l-1.1-1.2v1.4h-0.4l-0.4-1.6c-0.1-0.3,0-0.7,0.2-1l0.2-0.3
	c0.1-0.1,0.2-0.1,0.2,0c0,0,0,0,0,0l1.6,1.4c0.3,0.3,0.7,0.4,1.1,0.5l0.3,0c0.2,0,0.5,0.1,0.7,0.2l0.4,0.2l0.2,0.1
	c0.1,0.1,0.2,0.2,0.3,0.4l0.2,0.3C156.6,326.6,156.6,326.6,156.5,326.5z"/>
<linearGradient id="SVGID_16_" gradientUnits="userSpaceOnUse" x1="-2145.405" y1="101.33" x2="-2145.405" y2="117.59" gradientTransform="matrix(-1 0 0 -1 -1930.23 430)">
	<stop  offset="0.36" style="stop-color:#5761A6"/>
	<stop  offset="0.53" style="stop-color:#5866A9"/>
	<stop  offset="0.73" style="stop-color:#5B75B0"/>
	<stop  offset="0.95" style="stop-color:#608DBC"/>
	<stop  offset="1" style="stop-color:#6294C0"/>
</linearGradient>
<path class="st80" d="M183.2,312.4h69.9v1.7h-1c-2.6,0-4.7,2.1-4.7,4.7v3.5c0,2.6,2.1,4.7,4.7,4.7h1v1.7h-69.9c-3.3,0-6-2.7-6-6
	v-4.4C177.2,315.1,179.9,312.4,183.2,312.4z"/>
<path class="st81" d="M211.6,314.1h40.4c-1.8,0.7-3.6,2.5-3.6,4.5v3.6c0,2.7,1.7,4.9,3.6,4.9h-40.4c-2.6,0-4.8-2.1-4.8-4.7v-3.5
	C206.8,316.2,208.9,314.1,211.6,314.1C211.5,314.1,211.5,314.1,211.6,314.1z"/>
<path class="st82" d="M248.3,320.3v1.9c0,2.7,1.7,4.9,3.6,4.9h-40.4c-2.6,0-4.8-2.1-4.8-4.7v-2L248.3,320.3z"/>
<path class="st34" d="M211,312.4h42.1v1.7h-41.6c-2.6,0-4.8,2.1-4.8,4.7c0,0,0,0,0,0v3.5c0,2.6,2.2,4.7,4.8,4.7h41.6v1.6H211
	c-3.3,0-6-2.7-6-6v-4.3C205,315.1,207.7,312.4,211,312.4z"/>
<path class="st83" d="M225.9,326c0,0-1.4-0.3-1.4-1.4v-4.3h4v4.2c0,0.8,0.6,1.4,1.3,1.6c0,0-2.1,0.1-3.1-1
	C226.4,325.3,226.1,325.6,225.9,326z"/>
<linearGradient id="SVGID_17_" gradientUnits="userSpaceOnUse" x1="-2148.675" y1="117.62" x2="-2148.675" y2="130.96" gradientTransform="matrix(-1 0 0 -1 -1930.23 430)">
	<stop  offset="0" style="stop-color:#005679"/>
	<stop  offset="4.000000e-02" style="stop-color:#016687"/>
	<stop  offset="0.14" style="stop-color:#0288A5"/>
	<stop  offset="0.23" style="stop-color:#03A3BC"/>
	<stop  offset="0.34" style="stop-color:#04B6CD"/>
	<stop  offset="0.44" style="stop-color:#05C1D7"/>
	<stop  offset="0.55" style="stop-color:#05C5DA"/>
	<stop  offset="0.62" style="stop-color:#0AC5DA"/>
	<stop  offset="0.71" style="stop-color:#19C6DB"/>
	<stop  offset="0.81" style="stop-color:#31C8DB"/>
	<stop  offset="0.91" style="stop-color:#52CADC"/>
	<stop  offset="0.97" style="stop-color:#6ECCDD"/>
</linearGradient>
<path class="st84" d="M192.2,299.1h57.4v1.4h-0.8c-2.1,0-3.9,1.7-3.9,3.9l0,0v2.8c0,2.1,1.7,3.9,3.9,3.9h0.8v1.4h-57.4
	c-2.7,0-4.9-2.2-4.9-4.9c0,0,0,0,0,0V304C187.3,301.3,189.5,299.1,192.2,299.1C192.2,299.1,192.2,299.1,192.2,299.1z"/>
<path class="st81" d="M215.5,300.4h33.1c-1.5,0.6-3,2-3,3.7v2.9c0,2.2,1.4,4,3,4h-33.1c-2.2,0-3.9-1.7-3.9-3.9c0,0,0,0,0,0v-2.8
	C211.5,302.1,213.3,300.4,215.5,300.4z"/>
<path class="st82" d="M245.6,305.5v1.5c0,2.2,1.4,4,3,4h-33.2c-2.2,0-3.9-1.7-3.9-3.9c0,0,0,0,0,0v-1.6L245.6,305.5z"/>
<path class="st85" d="M215,299.1h34.6v1.4h-34.1c-2.2,0-3.9,1.7-3.9,3.9c0,0,0,0,0,0v2.8c0,2.2,1.8,3.9,3.9,3.9c0,0,0,0,0,0h34.1
	v1.4H215c-2.7,0-4.9-2.2-4.9-4.9c0,0,0,0,0,0V304C210.1,301.3,212.3,299.1,215,299.1C215,299.1,215,299.1,215,299.1z"/>
<path class="st18" d="M236.8,319.9l3.1-1.5c0.6-0.3,1.3,0,1.6,0.5l3.2,6.4c0.3,0.6,0,1.3-0.5,1.6l-3.1,1.5c-0.6,0.3-1.3,0-1.6-0.5
	l-3.2-6.4C235.9,320.9,236.2,320.2,236.8,319.9z"/>
<rect x="233.6" y="293.7" transform="matrix(0.8971 -0.4418 0.4418 0.8971 -111.6085 135.2668)" class="st86" width="1.9" height="27.1"/>
<rect x="231.9" y="294.5" transform="matrix(0.8971 -0.4418 0.4418 0.8971 -112.1633 134.5851)" class="st34" width="1.9" height="27.1"/>
<rect x="230.2" y="295.4" transform="matrix(0.8971 -0.4418 0.4418 0.8971 -112.7225 133.9044)" class="st87" width="1.9" height="27.1"/>
<rect x="236" y="319.8" transform="matrix(0.897 -0.442 0.442 0.897 -116.9815 138.575)" class="st6" width="5.8" height="1.2"/>
<path class="st88" d="M224.2,297.2l0.3-6l4.9,3.4C228.2,296.3,226.3,297.2,224.2,297.2z"/>
<polygon class="st47" points="226,292.2 224.6,291.2 224.5,292.9 "/>
<path class="st47" d="M198.5,287.1c-0.8-0.3-4.6-1.7-4.4-2.6c0.5-1.7,5.9-8.3,5.9-8.3c3.4-8.2,7.9-8.1,7.9-8.1
	c1.4,1.1,1.2,4.6-1.3,8.6L198.5,287.1z"/>
<path class="st47" d="M191.2,319.4l0.1,3.8c-0.6,0.4-1.4,0.5-2,0.1l0.2-3.4C190,319.7,190.6,319.5,191.2,319.4z"/>
<path class="st47" d="M189.6,321.4c0,0,0.2,1-0.4,1.3s-1.1,0.1-1.9-0.2c-1.1-0.4-3,0.9-0.9,1.1c1,0.2,2.1,0,3.1-0.3
	c0.4-0.3,0.6-0.8,0.5-1.3L189.6,321.4z"/>
<path class="st47" d="M199.4,319.8l-0.1,3.7c-0.6,0.4-1.4,0.4-2,0l0.4-3.4C198.2,320.1,198.8,320,199.4,319.8z"/>
<path class="st47" d="M197.7,321.8c0,0,0.1,1-0.5,1.2s-1.1,0-1.9-0.3c-1.1-0.4-3.1,0.7-0.9,1.1c1,0.2,2.1,0.1,3.1-0.1
	c0.4-0.3,0.6-0.8,0.5-1.3L197.7,321.8z"/>
<path class="st16" d="M207.9,267.7c-4.4,3.3-4.9,14.2-6.2,22.1c-0.1,0.5-0.1,1,0,1.5c0.4,1.2,3.3,2.4,8.2,2.3c4.4-0.1,8.1-1.2,9-2.6
	l0,0l0.1-0.1c0.2-0.4,0.3-0.8,0.2-1.3c-0.2-3-0.2-5.9-0.9-8.5c-2.2-11.6-4.1-13.1-4.3-13c-1.1-0.7-2.3-1-3.6-0.9
	C209.6,267.3,208.7,267.5,207.9,267.7z"/>
<path class="st47" d="M208.2,267.6c-0.5,0.3-1,0.7-1.3,1.2c-1,1.5-2.9,5.6-1.9,12.1c1.1,7-0.7,10.9-0.5,14.7c0,0.7-0.1,3.4-1.9,2.5
	c-1-0.5-2.3-1.2-2.5-2.5c0.1-0.6,1.9-6,1.2-10.4c-0.8-5.1,0.2-10.5,2.2-13.8c0.9-1.3,2.1-2.4,3.4-3.3c0.5-0.3,1-0.6,1.5-0.8
	C208.3,267.4,208.2,267.5,208.2,267.6z"/>
<linearGradient id="SVGID_18_" gradientUnits="userSpaceOnUse" x1="-292.5179" y1="122.9873" x2="-260.9173" y2="131.4501" gradientTransform="matrix(1 0 0 -1 477.56 430)">
	<stop  offset="0.15" style="stop-color:#E44899"/>
	<stop  offset="0.19" style="stop-color:#D3438E"/>
	<stop  offset="0.27" style="stop-color:#A73570"/>
	<stop  offset="0.39" style="stop-color:#601E41"/>
	<stop  offset="0.53" style="stop-color:#000000"/>
</linearGradient>
<path class="st89" d="M214.9,292.1c-1.1-2.5-24-2-26.9-0.8c-1.1,0.7-1.8,1.8-2,3.1c-0.3,1.4-0.3,2.8-0.2,4.3l0.3,3.1v0
	c0.5,6.2,1.3,12.5,2.6,18.6c0.5,0.3,1.8,0.1,2.8-0.1c0.6-0.2,1-0.8,1-1.5c0.5-6.7,0.6-13.5,0.1-20.2c4.6,0.4,10.9,0.4,13,0.5
	c4.1,0.2,9.3-2.7,9.4-4.8L214.9,292.1z"/>
<path class="st18" d="M221.7,292.1c-1-2.5-22.1-2-24.8-0.8c-1.1,0.6-1.9,1.7-2.2,2.9c-0.4,1.6-0.6,3.2-0.5,4.8l0.2,3.1v0
	c0.3,6.3,1,12.5,2.1,18.7c0.5,0.4,1.8,0.1,2.8,0c0.6-0.2,1-0.8,1.1-1.4c0.7-6.7,0.9-13.5,0.6-20.3h16c3.8,0,4.8-2.7,4.7-4.8
	L221.7,292.1z"/>
<path class="st47" d="M212.6,286.7c-0.6,1.9-2.6,9.4,0.1,10.5c3.2,1.3,11.3-0.1,10-3.5c-0.5-1.9-0.6-3.8-0.4-5.7
	c0.2-3.9,0-7.8-0.5-11.7c-0.7-4.1-4.6-8-9.6-9.1c-0.5,0.2-0.2,0.5,0.1,0.7c0.2,0.2,0.4,0.4,0.4,0.6c0.5,1.9-0.8,3.6-0.2,6
	C213.6,279.2,213.5,282.1,212.6,286.7z"/>
<path class="st90" d="M222.3,287.1c0,0.6-0.3,1.2-0.9,1.6c-0.4,0.3-0.9,0.7-1.1,0.9c-1.5,0.9-3.2,1.6-5,1.8
	c-1.1,0.1-2.3,0.2-3.5,0.2c0.3-1.5,0.6-3.4,0.8-4.4c2.6-1.7,5.6-1.8,5.8-2.1c0.7-1.3-1.8-5.6-2.8-7.7c-2.7-5.7,0.4-7.2,1.4-8.1
	c2.4,1.6,4.1,4.1,4.7,7C222.2,279.9,222.4,283.5,222.3,287.1z"/>
<path class="st47" d="M206.3,263.1c-0.4-0.3-0.8-0.6-1-1.1c-0.1-0.4-0.1-0.8,0-1.2c0,0-0.9-0.5-0.4-1.2s3.5-0.6,3.5-0.6L206.3,263.1
	z"/>
<path class="st75" d="M212.2,262.5c0,0-0.2,4.5-0.3,5.8c0,0.4-0.2,0.9-0.6,1.1c-0.6,0.3-1.2,0.5-1.9,0.5c-0.7,0.1-1.4-0.1-2-0.5
	c-0.1-0.1-0.1-0.2-0.1-0.3c0.6-1.5,0.9-3.1,0.7-4.7L212.2,262.5"/>
<path class="st77" d="M207.4,268.9c0.4-1.2,0.7-2.5,0.7-3.8c0,0,3.6-0.5,3.6-0.4C211.7,266.3,210.8,267.9,207.4,268.9z"/>
<path class="st75" d="M206.2,260.6c-0.6,5,0.8,6.9,2,7c3.3,0.3,4.6-2.1,5-4.2s-1.3-4.4-2.9-4.7S206.4,258.4,206.2,260.6z"/>
<path class="st47" d="M204.6,257.8c0.4-0.5,1-1.3,2.7-0.1c0.4,0.3,0.9-0.4,2.1-0.5c1.9-0.1,2,1,3.2,1.2c0.8,0.2,0.8,0.8,1.6,1.9
	c0.6,0.7-0.3,1.4,0.2,2.1s-1,1.2-1,1.8c0.1,1.5-1.1,2.1-1.4,2.7c-0.1,0.2-0.2-0.6-0.3-0.8c-0.1-0.6,0-1.2,0.2-1.8
	c0.4-0.1,1.3-0.5,0.8-2s-1.3,0.3-1.3,0.3c-0.2-0.4-0.2-0.8-0.2-1.2c0.1-1-0.9-1.3-2.3-1c-0.6,0.1-0.9-0.6-1.3-0.4
	c-0.8,0.3-1.6-0.1-2,0.3c-0.3,0.2-0.7-0.2-1-0.3C203.6,259.7,204,258.8,204.6,257.8z"/>
<path class="st47" d="M206.2,264.9c0.3-0.3,0.6-0.5,1-0.5c0.4,0,1.6-0.4,2.4,0.2s0.9,0.4,1.1,0s0.6-2.7,0.9-2.9s0.1,1.9,0.1,1.9
	c-0.1,0.3-0.2,0.6-0.3,0.9c-0.1,0.4-0.1,0.8-0.1,1.1c0.1,0.5,0,0.9-0.3,1.3c-0.5,0.5-1.3,0.7-2,0.7c-1.1,0-1.4,0-1.9-0.6
	C206.5,266.4,206.2,265.7,206.2,264.9z"/>
<path class="st75" d="M207.6,288.9c0,0-2-0.1-2.6-0.1c-0.5-0.1-1.1-0.1-1.6,0c-0.6,0.3-1.2,0.6-1.8,1.1c-0.3,0.3-0.4,0.4-0.3,0.5
	c0,0.1,0,0.1,0,0.2c0,0.1,0.2,0.1,0.3,0.1c0,0,0,0.1,0.2,0.1c0.2,0,0.3,0,0.4-0.1c0,0,0,0,0,0.1s0.6,0,0.8-0.1
	c0.3-0.1,0.6-0.1,0.9-0.1c0.1,0,0.4,0.1,0.9,0.2c0.7,0,1.4-0.1,2.1-0.4c0.7-0.2,1.4-0.3,2.1-0.3c0,0,0.1-1.1,0-1.2
	S208.3,288.9,207.6,288.9z"/>
<path class="st47" d="M217.8,269.2c-0.8-0.5-1.7-0.7-2.7-0.7c-2.7,0.5-2.5,3.2-1,5.6c4.1,6.2,5.7,11.3,5.5,12.1
	c-0.2,1,2.3,1.4,2.8,1.2s2.5-0.7,2.5-1.8c-0.1-2.5-0.5-4.9-1.1-7.3c-0.6-2.5-1.8-4.8-3.5-6.8C219.7,270.6,218.8,269.8,217.8,269.2z"
	/>
<path class="st47" d="M207.5,291.1c-0.4-0.1-0.6-0.4-0.6-0.7c0-0.7,0.6-2.2,1.1-2.3c1.7-0.3,8.8-2.2,13.5-2.1c0,0.4,3.6-0.9,3.6-0.9
	c0.8,5.6-1.9,5.7-5.8,6.4C219.1,291.5,211.4,292.2,207.5,291.1z"/>
<path class="st91" d="M205.4,291.9h-18.1c-0.1,0-0.2-0.1-0.2-0.1l-4.5-13.7c0-0.1,0-0.2,0.1-0.3c0,0,0,0,0,0h17.8
	c0.3,0,0.5,0.2,0.6,0.4l4.4,13.4C205.6,291.8,205.6,291.9,205.4,291.9C205.4,291.9,205.4,291.9,205.4,291.9z"/>
<path class="st91" d="M199.8,291h17c0.2,0,0.3,0.1,0.3,0.3v0c0,0.2-0.1,0.3-0.3,0.3h-17c-0.2,0-0.3-0.1-0.3-0.3v0
	C199.5,291.1,199.6,291,199.8,291z"/>
<path class="st30" d="M205.3,291.9h-17.8c-0.4,0-0.7-0.2-0.9-0.6l-4.2-12.9c-0.1-0.2,0-0.5,0.3-0.6c0,0,0.1,0,0.1,0h17.3
	c0.4,0,0.7,0.2,0.8,0.6L205.3,291.9z"/>
<path class="st30" d="M199.5,291.3h17.7l0,0l0,0c0,0.4-0.3,0.6-0.6,0.6h-17l0,0L199.5,291.3L199.5,291.3z"/>
<path class="st16" d="M195.6,284.9c0,0.7-0.8,1.2-1.7,1.2s-1.8-0.5-1.8-1.2s0.8-1.2,1.8-1.2S195.6,284.2,195.6,284.9z"/>
<path class="st75" d="M243.3,251.6l0.2-0.5c0.1-0.3,0-0.6-0.1-0.9l0,0c-0.2-0.2-0.3-0.5-0.4-0.7c-0.1-0.2-0.1-0.4-0.1-0.5l0,0
	c-0.1-0.4-0.1-0.8-0.1-1.2c0,0,0-0.3,0.1-0.3s0.1,0.1,0.2,0.2c0-0.2,0-0.3,0-0.4s0-0.3,0.1-0.3s0.2,0.1,0.2,0.2s0,0,0,0
	c0-0.1,0-0.2,0-0.3c0-0.1,0-0.3,0.2-0.3s0.2,0.1,0.3,0.2c0,0.1,0.1,0.2,0.1,0.3c0-0.1,0-0.2,0.1-0.3s0.2,0.2,0.3,0.3
	c0.1,0.3,0.2,0.6,0.3,0.9l0.3,1.1c0-0.2,0.1-0.3,0.1-0.3l0.1-0.3c0.1-0.2,0.3-0.4,0.3-0.2l0.1,0.7c0,0.1,0,0.2,0,0.4l-0.1,1.1
	c0,0.3-0.1,0.6-0.3,0.9c-0.1,0.2-0.2,0.5-0.3,0.7l-0.4,0.8C244,252.5,243.6,252.1,243.3,251.6z"/>
<path class="st92" d="M252.4,290c-0.2,3-0.2,6,0,9c-0.1,0.6-0.1,1.1-0.1,1.7c0,0,1.7,19.8,2.5,23.6c0.8,0.6,1.9-0.3,1.9-0.3
	c0.7-3.8,2.1-13.5,2-20.1v0v-3.1c0-0.5,0-1-0.1-1.5C259.5,297.6,252.5,288.2,252.4,290z"/>
<path class="st90" d="M251.9,271.4c-0.5,2-0.8,4-0.8,6c-0.1,2.9,0.2,16.2,0.6,19.3c-0.1,0.6,1,21.6,1.9,25.7c1.1,1,3.9-0.1,3.9-0.1
	c1.5-4,1.3-24.8,1.2-25.3c0.9-1.7,1.5-14.2,2.4-17.8c0.1-0.3,0.1-6.6,0.2-6.9C257.4,271.5,255.8,272.6,251.9,271.4z"/>
<path class="st47" d="M254.4,247.6c-0.8,1.1-1.7,2.5-2,2.9c-0.6,0.7-0.8,1.6-0.5,2.4c0.3,1.1,2.6,2,4,1.6s3.5-1.4,3.6-3.8
	s-0.1-7.1-0.1-7.1l-1.6-1.1C257.7,242.5,255.1,246.5,254.4,247.6z"/>
<path class="st91" d="M243.5,251.2c-0.1,0.1,1.4,0.9,1.4,0.9c-1,1.6-1.6,6.4-1.8,7.7c0,0.1,0.1,0.2,0.2,0.2c0,0,0,0,0.1,0
	c1.6-0.4,9.1-9.5,12-10.4c0.7-0.2-1.2,5.9-1.3,6.1c-0.9,1.3-3.2,4.2-4.6,5c-5.8,3.5-7.8,3.2-9.1,2.5c-1.5-0.8-0.7-3.5-0.3-4.5
	C240.6,257.2,242.4,252.7,243.5,251.2z"/>
<polygon class="st92" points="256.8,323.4 256.9,325.6 252.8,327.2 254.9,323.6 "/>
<path class="st47" d="M250.4,328.7l3.8-0.1c0.3,0,0.6-0.2,0.9-0.4l1.5-1.5v1.9h0.6l0.5-2.1c0.1-0.5,0-1-0.3-1.4l-0.3-0.5
	c-0.1-0.1-0.2-0.1-0.3,0c0,0,0,0,0,0l-2.1,1.8c-0.4,0.3-0.9,0.6-1.4,0.6l-0.4,0.1c-0.3,0-0.6,0.1-0.9,0.2l-0.6,0.2
	c-0.1,0.1-0.2,0.1-0.3,0.2c-0.2,0.1-0.3,0.3-0.4,0.5l-0.2,0.3C250.2,328.6,250.3,328.7,250.4,328.7
	C250.3,328.7,250.4,328.7,250.4,328.7z"/>
<path class="st92" d="M269.3,298.4c0.3,0.7,0.5,1.4,0.7,2.1l0.8,3.1c0,0,0,0,0,0c1.4,6.7,2.9,15.6,3.3,19.8
	c-0.7,0.4-1.5,0.5-2.3,0.3c-1.7-3.7-8-21.7-8-21.7c-0.3-1.2-0.5-2.4-0.5-3.7L269.3,298.4z"/>
<path class="st92" d="M273.9,322.5l0.5,2.6l-2.6,3h-3l1.8-1.5c0.2-0.2,0.3-0.4,0.4-0.7l0.5-2.9L273.9,322.5z"/>
<path class="st47" d="M272.7,328.5l0.4-0.2c0.3-0.1,0.6-0.4,0.7-0.7l0.9-2.1l0.8,1.8l0.5-0.2l-0.4-2.3c-0.1-0.5-0.4-0.9-0.8-1.2
	l-0.5-0.3c-0.1-0.1-0.2-0.1-0.3,0c0,0,0,0,0,0l-0.5,1.6c-0.3,0.5-0.7,1.6-1.2,1.8l-1,0.4c-0.5,0.1-1-0.3-1.3-0.3l-1.1,0.6
	c-0.4,0.2-0.7,0.6-0.8,1.1L272.7,328.5z"/>
<path class="st58" d="M268.3,270.6c1.8,4,2.2,8.4,1.2,12.6c-0.2,7.2,0.1,14.1,0.3,14.5c0,0,4.3,17.2,4.3,23.2c0,0-2.4,1.9-3.7,1
	c-2.6-4.2-7.3-22.3-7.3-22.3c-0.4-1.4-5.2-27.5-5.2-28.7L268.3,270.6z"/>
<path class="st91" d="M269.4,272.9c0,0-12.3,3.6-18.1,0.9c0,0,1.6-10.2,1.3-11.8s-2-1.8-2-3.5c0.1-2.4,2.3-5.9,4.1-8.4
	c0.7-0.7,1.6-1.2,2.5-1.6c1-0.2,2-0.3,3-0.2c2.6,0.3,3.3,0.7,4.5,2.2c1.9,3.7,0.4,9.4,0.9,15C267,268,268.3,270.4,269.4,272.9z"/>
<path class="st91" d="M261.8,250.4c0.8-0.5,1.8-0.5,2.5,0.2c1.5,1.1,4.5,7.4,5.9,8.4s7.2-3.6,8.2-4.5c0.1-0.1,0.2-0.1,0.3,0l1,0.8
	c0.1,0.1,0.1,0.2,0,0.3c-0.9,1.2-6.1,7.9-9.2,8.3c-2.4,0.3-3.1-1.2-4.7-3.1c-2-2.5-3.6-5.2-5-8C260.4,251.4,261.8,250.4,261.8,250.4
	z"/>
<path class="st92" d="M279.7,255.5l0.5-0.4c0.2-0.1,0.4-0.2,0.7-0.2c0.2,0,0.6,0.1,0.9,0.1c0.6,0,1.2-0.1,1.8-0.3
	c0.2-0.1,0.9-0.3,0.7-0.5c0.2-0.1,0.2-0.3,0.1-0.4c0.1-0.1,0.3-0.1,0.2-0.3s-0.4-0.1-0.4-0.1s0.3-0.3-0.5-0.3s-1.6,0.1-1.6,0.1
	l0.2-0.2c0.2-0.1,0.3-0.4,0.1-0.4l-0.7,0.1c-0.1,0-0.2,0-0.3,0.1l-1.2,0.5l-0.1,0.1l-1.6,1.3C278.5,254.6,278.6,255.2,279.7,255.5z"
	/>
<path class="st92" d="M255.5,242c-0.2,0.9-0.4,1.9-0.7,2.8c-0.3,0.6-0.5,1.2-0.5,1.9c0,0.6,0.1,1,1,1s0.8,0,0.8,0
	c0,0.6,0,1.2-0.1,1.8c-0.1,0.4-0.3,0.7-0.5,1.1c-0.2,0.3-0.2,0.6,0,0.9c0.4,0.4,0.9,0.6,1.5,0.5c0.9-0.2,1.8-0.7,2.6-1.3l-0.4-7.1
	c0,0-2-2-2.4-1.9S255.5,242,255.5,242z"/>
<path class="st77" d="M258.1,247c-0.5,0.8-1.1,1.5-1.9,2v-1.4C256.8,247.5,257.5,247.3,258.1,247z"/>
<path class="st47" d="M257.5,247.4c-0.3,1-0.4,2.1-0.4,3.1c0.2,1,0.2,2.4,1.6,3.2s3.9,1.2,5.4,0.1s1.9-3.6,0.6-4.8s-2.5-1.1-2.6-2.6
	s0.8-2.4-0.1-3.8c-0.5-1-1.5-1.7-2.6-1.6c-1-0.1-1.1,0-1.6-0.5c-0.7-0.6-1.5-0.8-2.4-0.6c-0.5,0.1-1,0.5-1.3,0.9
	c0,0.1-0.2,1,1.4,1.5c0.5,0.6,1.2,0.9,1.9,0.8c0.7,0.1,1.2,0.7,1.1,1.4c0,0,0,0.1,0,0.1C258.2,245.5,257.6,246.9,257.5,247.4z"/>
<path class="st16" d="M292.1,229.4v-11c0-0.1,0-0.1,0.1-0.1c0.5,0,1,0,1.6,0c0.1,0,0.1,0,0.1,0.1v11L292.1,229.4L292.1,229.4z"/>
<path class="st16" d="M276.2,230.3c0-3.1,0-6.2,0-9.4c0-0.1,0-0.1,0.1-0.1h1.6c0.1,0,0.1,0,0.1,0.1v9.4H276.2z"/>
<path class="st16" d="M289.8,230.5v-8.9c0-0.1,0-0.1,0.1-0.1h1.6c0,0,0.1,0,0.1,0.1c0,3,0,5.9,0,8.9l0,0L289.8,230.5
	C289.9,230.5,289.8,230.5,289.8,230.5z"/>
<path class="st16" d="M278.5,230.8C278.5,230.8,278.5,230.8,278.5,230.8v-8.4c0-0.1,0-0.1,0.1-0.1h1.6c0.1,0,0.1,0,0.1,0.1
	c0,2.8,0,5.6,0,8.4v0.1L278.5,230.8L278.5,230.8z"/>
<path class="st16" d="M280.8,231.5v-7.2c0,0,0-0.1,0.1-0.1h1.6c0,0,0.1,0,0.1,0.1v7.2H280.8z"/>
<path class="st16" d="M287.6,232.1c0,0,0-0.1,0-0.1v-6c0-0.1,0-0.1,0.1-0.1h1.6c0.1,0,0.1,0,0.1,0.1v6.1H287.6L287.6,232.1z"/>
<path class="st16" d="M274,232.1v-6.2c0-0.1,0-0.1,0.1-0.1h1.6c0.1,0,0.1,0,0.1,0.1v6.2H274L274,232.1z"/>
<path class="st17" d="M292.1,229.4h1.7l0,0c0,0,0,0.1,0,0.1v6.1h-1.7c0,0-0.1,0-0.1-0.1C292.1,233.5,292.1,231.4,292.1,229.4z"/>
<path class="st16" d="M285.3,232.3v-5.8c0-0.1,0-0.1,0.1-0.1h1.6c0,0,0.1,0,0.1,0.1c0,1.9,0,3.9,0,5.8v0.1l0,0H285.3L285.3,232.3z"
	/>
<path class="st17" d="M276.2,230.3h1.8c0,0,0,0.1,0,0.1v5.2c0,0.1,0,0.1-0.1,0.1h-1.6c0,0-0.1,0-0.1-0.1L276.2,230.3z"/>
<path class="st17" d="M289.8,230.5h1.7v5.1c0,0,0,0-0.1,0h-1.7V230.5z"/>
<path class="st16" d="M269.4,232.8v-3.7c0-0.4,0-0.8,0-1.1c0,0,0-0.1,0.1-0.1h1.6c0.1,0,0.1,0,0.1,0.1v4.9L269.4,232.8L269.4,232.8z
	"/>
<path class="st16" d="M283,232.8V228c0-0.1,0-0.1,0.1-0.1h1.6c0,0,0.1,0,0.1,0.1v4.8l0,0L283,232.8L283,232.8z"/>
<path class="st17" d="M278.5,230.8h1.7c0,0,0,0,0,0.1v4.6c0,0.1,0,0.1-0.1,0.1h-1.5c-0.1,0-0.1,0-0.1-0.1L278.5,230.8
	C278.5,230.9,278.5,230.8,278.5,230.8z"/>
<path class="st16" d="M271.7,233.1v-4.3c0-0.1,0-0.1,0.1-0.1h1.6c0.1,0,0.1,0,0.1,0.1v4.3H271.7L271.7,233.1z"/>
<path class="st17" d="M280.8,231.5h1.7c0,0,0,0,0,0.1v3.9c0,0.1,0,0.1-0.1,0.1h-1.6c-0.1,0-0.1,0-0.1-0.1L280.8,231.5
	C280.8,231.6,280.8,231.5,280.8,231.5z"/>
<path class="st16" d="M267.2,233.6v-3.5c0-0.1,0-0.1,0.1-0.1h1.6c0.1,0,0.1,0,0.1,0.1c0,1.2,0,2.4,0,3.5L267.2,233.6L267.2,233.6z"
	/>
<path class="st17" d="M274,232.1h1.7v3.5c0,0,0,0-0.1,0H274c0,0,0,0-0.1,0s0-0.1,0-0.1L274,232.1z"/>
<path class="st17" d="M287.6,232.1h1.7v3.5c0,0,0,0-0.1,0h-1.6c0,0-0.1,0-0.1,0L287.6,232.1L287.6,232.1z"/>
<path class="st17" d="M285.3,232.3h1.7v3.2c0,0,0,0.1,0,0.1s0,0-0.1,0h-1.6c0,0,0,0-0.1,0s0-0.1,0-0.1V232.3z"/>
<path class="st17" d="M283,232.8h1.7c0,0,0,0.1,0,0.1v2.6c0,0.1,0,0.1-0.1,0.1h-1.6c0,0-0.1,0-0.1,0v-2.6
	C283,232.9,283,232.9,283,232.8L283,232.8z"/>
<path class="st17" d="M269.5,232.8h1.7l0,0c0,0,0,0,0,0.1v2.7c0,0,0,0-0.1,0h-1.6c0,0-0.1,0-0.1,0L269.5,232.8
	C269.4,232.9,269.4,232.8,269.5,232.8z"/>
<path class="st17" d="M271.7,233.1h1.8l0,0c0,0,0,0.1,0,0.1v2.4c0,0,0,0-0.1,0h-1.7L271.7,233.1
	C271.7,233.1,271.7,233.1,271.7,233.1L271.7,233.1z"/>
<path class="st17" d="M267.2,233.6h1.8l0,0c0,0,0,0,0,0.1v1.9c0,0,0,0,0,0.1c0,0,0,0-0.1,0h-1.6c0,0,0,0-0.1,0
	C267.2,234.9,267.2,234.3,267.2,233.6C267.2,233.6,267.2,233.6,267.2,233.6C267.2,233.5,267.2,233.6,267.2,233.6z"/>
<path class="st16" d="M293.8,235.6v-6.1c0,0,0-0.1,0-0.1V235.6C293.8,235.5,293.9,235.6,293.8,235.6z"/>
<path class="st16" d="M289.8,230.5v5c0,0,0,0,0-0.1V230.5C289.8,230.5,289.8,230.5,289.8,230.5z"/>
<path class="st16" d="M291.6,235.6v-5.1l0,0c0,0,0,0.1,0,0.1V235.6C291.6,235.5,291.6,235.6,291.6,235.6z"/>
<path class="st16" d="M274,232.1v3.4c0,0,0,0.1,0,0.1V232.1z"/>
<path class="st16" d="M275.7,235.6v-3.5l0,0c0,0,0,0.1,0,0.1V235.6C275.7,235.5,275.7,235.6,275.7,235.6z"/>
<path class="st16" d="M287.6,232.1v3.5c0,0,0,0,0-0.1V232.1C287.6,232.1,287.6,232.1,287.6,232.1z"/>
<path class="st16" d="M289.3,235.6v-3.5l0,0V235.6C289.3,235.5,289.3,235.6,289.3,235.6z"/>
<path class="st16" d="M285.3,232.3v3.2c0,0,0,0.1,0,0.1s0,0,0-0.1V232.3L285.3,232.3z"/>
<path class="st16" d="M287,235.6C287,235.6,287,235.5,287,235.6v-3.3l0,0V235.6L287,235.6z"/>
<path class="st16" d="M269.5,232.8C269.4,232.8,269.4,232.9,269.5,232.8v2.8c0,0,0,0,0-0.1V232.8L269.5,232.8L269.5,232.8z"/>
<path class="st16" d="M271.2,235.6v-2.7c0,0,0-0.1,0-0.1V235.6C271.2,235.5,271.2,235.6,271.2,235.6z"/>
<path class="st16" d="M283,232.8C283,232.9,283,232.9,283,232.8v2.7c0,0,0,0,0-0.1V232.8z"/>
<path class="st16" d="M271.7,233.1C271.7,233.1,271.7,233.2,271.7,233.1v2.5c0,0,0,0,0-0.1V233.1z"/>
<path class="st16" d="M273.4,235.6v-2.4c0,0,0-0.1,0-0.1V235.6C273.4,235.5,273.5,235.6,273.4,235.6z"/>
<path class="st16" d="M277.1,230.7c0,0,0,0.1,0,0.1v2.4c0,0,0-0.1,0-0.1V230.7z"/>
<path class="st16" d="M279.4,233.2C279.4,233.2,279.4,233.2,279.4,233.2v-2.4c0,0,0-0.1,0-0.1V233.2z"/>
</svg>
