<svg id="Layer_1" data-name="Layer 1" xmlns="http://www.w3.org/2000/svg" viewBox="0 0 370 427.58"><title>dffdf</title><g opacity="0.4"><path d="M358.7,360.93c-4.63,2.1-31.47,3.24-68.1,3.77h-.92c-11.12.16-23.12.26-35.67.32l-6.86,0-17.69,0c-25.5,0-52.22-.12-77.63-.31l-12.56-.1-9-.08-34.12-.36-2.27,0c-18.79-.21-35.05-.44-47.11-.61a43.36,43.36,0,0,1-14.38-2.68l-1.14-.45a43.21,43.21,0,0,1-25.64-29,94.73,94.73,0,0,1-2.7-30.21H366.71C374.37,331.07,372.07,354.85,358.7,360.93Z" fill="#89f"/></g><path d="M124.75,303.39c-2.63-4.59-4.56-4.74-8.78-5.07-1.16-.09-2.47-.19-4-.4-3.42-.46-4.55-2.29-5.85-4.42a19.72,19.72,0,0,0-2.09-3c-2.73-3.1-8.87-2.19-8.93-2.18l-.13-.82a17.09,17.09,0,0,1,3.66-.08,8.79,8.79,0,0,1,6,2.53,20.46,20.46,0,0,1,2.17,3.08c1.29,2.11,2.23,3.63,5.26,4,1.51.2,2.81.3,4,.39,4.39.34,6.58.51,9.43,5.48Z" fill="#070738"/><circle cx="320.74" cy="187.06" r="16.04" transform="translate(-28.47 60.89) rotate(-10.39)" fill="#91b5f8"/><circle cx="320.42" cy="186.94" r="12.76" transform="translate(-49.04 153.56) rotate(-25.1)" fill="#fff"/><circle cx="320.41" cy="186.82" r="1.43" fill="#7c9af2"/><path d="M320.41,187.1h-.29a.29.29,0,0,1,0-.57h0v-8.8l-.36.51a.28.28,0,1,1-.46-.32l.87-1.26a.29.29,0,0,1,.52.16l0,10A.29.29,0,0,1,320.41,187.1Z" fill="#7c9af2"/><path d="M321.39,178.28a.27.27,0,0,1-.22-.1l-1-1.18a.29.29,0,0,1,.05-.4.27.27,0,0,1,.39,0l1,1.18a.29.29,0,0,1,0,.4A.32.32,0,0,1,321.39,178.28Z" fill="#7c9af2"/><path d="M315.27,188a.27.27,0,0,1-.2-.09l-.85-.87a.29.29,0,0,1-.05-.31.29.29,0,0,1,.26-.17h6.65a.3.3,0,0,1,.29.29v.28a.29.29,0,1,1-.57,0h-5.7l.37.39a.28.28,0,0,1,0,.4A.32.32,0,0,1,315.27,188Z" fill="#7c9af2"/><path d="M314.43,187.15a.26.26,0,0,1-.18-.07.28.28,0,0,1,0-.4l.79-1a.28.28,0,0,1,.4,0,.29.29,0,0,1,0,.4l-.79,1A.29.29,0,0,1,314.43,187.15Z" fill="#7c9af2"/><path d="M233.16,275.22V296.3c0,3.58-2.18,6.48-4.86,6.48H145.24c-2.68,0-4.86-2.9-4.86-6.48V275.22c0-3.58,2.18-6.48,4.86-6.48h0c2.69,0,4.87,2.9,4.87,6.48v13c0,3.58,2.18,6.48,4.87,6.48h63.59c2.68,0,4.86-2.9,4.86-6.48v-13c0-3.58,2.18-6.48,4.87-6.48h0C231,268.74,233.16,271.64,233.16,275.22Z" fill="#7c9af2"/><rect x="150.11" y="274.94" width="73.32" height="0.73" fill="#7c9af2"/><path d="M108.65,164.86H266.9a20.69,20.69,0,0,1,20.69,20.69v71.55a20.68,20.68,0,0,1-20.68,20.68H108.65A20.68,20.68,0,0,1,88,257.09V185.54A20.69,20.69,0,0,1,108.65,164.86Z" fill="#070738"/><rect x="93.05" y="169.42" width="189.25" height="102.21" fill="#15156d"/><polygon points="278.51 325.3 95.03 325.3 113.53 306.46 262.39 306.46 278.51 325.3" fill="#202077"/><rect x="95.04" y="325.3" width="183.47" height="2.41" fill="#0c0c4c"/><rect x="114.58" y="310.41" width="146.23" height="0.64" fill="#070738"/><rect x="109.63" y="314.35" width="155.11" height="0.64" fill="#070738"/><rect x="105.5" y="318.7" width="163.37" height="0.64" fill="#070738"/><rect x="115.33" y="307.51" width="6.61" height="1.98" fill="#2f2f91"/><rect x="125.72" y="307.51" width="6.61" height="1.98" fill="#2f2f91"/><rect x="138.11" y="307.51" width="6.61" height="1.98" fill="#2f2f91"/><rect x="147.94" y="307.51" width="6.61" height="1.98" fill="#2f2f91"/><rect x="158.58" y="307.51" width="6.61" height="1.98" fill="#2f2f91"/><rect x="204.87" y="307.51" width="6.61" height="1.98" fill="#2f2f91"/><rect x="214.7" y="307.51" width="6.61" height="1.98" fill="#2f2f91"/><rect x="225.33" y="307.51" width="6.61" height="1.98" fill="#2f2f91"/><path d="M49.59,281.67h-.05a.27.27,0,0,1-.2-.33C59.4,242.51,68.85,215,76,203.9c.15-.25.27-.42.31-.51a.29.29,0,0,1,.37-.14.28.28,0,0,1,.13.37,4,4,0,0,1-.34.58c-7.08,11.06-16.51,38.5-26.56,77.26A.27.27,0,0,1,49.59,281.67Z" fill="#567cd8"/><path d="M81.13,201.72c-.85,1.25-5.25,3.65-5.6,3.41s.23-5.21,1.08-6.46a2.73,2.73,0,1,1,4.52,3.05Z" fill="#567cd8"/><path d="M72.61,205.75c.5,1.46-.25,6.53-.66,6.67s-4.12-3.4-4.62-4.86a2.79,2.79,0,1,1,5.28-1.81Z" fill="#567cd8"/><path d="M78.3,214.35c-1.54.16-6.31-1.71-6.36-2.15s4.25-3.24,5.78-3.4a2.79,2.79,0,1,1,.58,5.55Z" fill="#567cd8"/><path d="M60.41,231.69c1.1,2.35.77,10.95.1,11.26S53,238,51.92,235.67a4.69,4.69,0,0,1,8.49-4Z" fill="#567cd8"/><path d="M71.46,245c-2.53.54-10.84-1.72-11-2.44s6.49-6.18,9-6.73a4.69,4.69,0,0,1,2,9.17Z" fill="#567cd8"/><path d="M54.06,241.55c1.94,2.5,3.86,12.85,3.15,13.41S46.94,251.08,45,248.58a5.73,5.73,0,1,1,9.06-7Z" fill="#567cd8"/><path d="M69.79,258.94c-3.15.34-13-3.45-13.07-4.35s8.68-6.71,11.83-7.05a5.73,5.73,0,1,1,1.24,11.4Z" fill="#567cd8"/><path d="M66.11,271.61c-3.15.35-13-3.45-13.07-4.35s8.68-6.71,11.83-7.05a5.73,5.73,0,1,1,1.24,11.4Z" fill="#567cd8"/><path d="M62.91,284.13c-3.09.74-13.31-1.8-13.52-2.68s7.78-7.74,10.86-8.48a5.74,5.74,0,0,1,2.66,11.16Z" fill="#567cd8"/><path d="M68.85,213.83c.51,1.48-.25,6.63-.67,6.78s-4.19-3.46-4.7-4.94a2.84,2.84,0,1,1,5.37-1.84Z" fill="#567cd8"/><path d="M74.43,222.67c-1.56.16-6.41-1.74-6.46-2.18s4.32-3.3,5.87-3.46a2.84,2.84,0,1,1,.59,5.64Z" fill="#567cd8"/><path d="M64.49,221.36c.9,2,.42,9.42-.16,9.68s-6.33-4.41-7.22-6.45a4,4,0,1,1,7.38-3.23Z" fill="#567cd8"/><path d="M73.43,233.89c-2.22.23-9.11-2.47-9.17-3.1s6.12-4.69,8.34-4.91a4,4,0,0,1,.83,8Z" fill="#567cd8"/><path d="M44.27,286.82h.06a.31.31,0,0,0,.27-.35c-5.44-44.75-11.9-76.79-18.17-90.23a5.75,5.75,0,0,1-.27-.62.31.31,0,0,0-.39-.2.31.31,0,0,0-.2.4,5.9,5.9,0,0,0,.3.69c6.24,13.37,12.67,45.35,18.11,90A.31.31,0,0,0,44.27,286.82Z" fill="#7c9af2"/><path d="M21,193.05c.75,1.52,5.3,4.85,5.73,4.63s.51-5.85-.24-7.36A3.07,3.07,0,1,0,21,193.05Z" fill="#7c9af2"/><path d="M29.89,198.8c-.77,1.55-.69,7.32-.25,7.54s5.09-3.19,5.87-4.74a3.14,3.14,0,0,0-5.62-2.8Z" fill="#7c9af2"/><path d="M22.28,207.54c1.68.41,7.28-1,7.4-1.45s-4.25-4.25-5.94-4.65a3.14,3.14,0,0,0-1.46,6.1Z" fill="#7c9af2"/><path d="M39.63,229.52c-1.57,2.45-2.48,12.08-1.78,12.53s9.08-4.39,10.65-6.84a5.27,5.27,0,1,0-8.87-5.69Z" fill="#7c9af2"/><path d="M25.34,242.73c2.74,1,12.33-.3,12.61-1.08s-6.32-7.86-9.06-8.84a5.27,5.27,0,0,0-3.55,9.92Z" fill="#7c9af2"/><path d="M45.25,241.44c-2.54,2.5-6.22,13.76-5.5,14.48s12-2.79,14.55-5.29a6.45,6.45,0,1,0-9-9.19Z" fill="#7c9af2"/><path d="M25.14,258.49c3.45.85,15-1.92,15.21-2.91s-8.68-8.76-12.14-9.61a6.45,6.45,0,1,0-3.07,12.52Z" fill="#7c9af2"/><path d="M47.47,256.11c-2.54,2.5-6.22,13.76-5.51,14.48s12-2.79,14.56-5.29a6.45,6.45,0,0,0-9.05-9.19Z" fill="#7c9af2"/><path d="M27.35,273.16c3.46.85,15-1.92,15.22-2.91s-8.69-8.77-12.14-9.61a6.45,6.45,0,1,0-3.08,12.52Z" fill="#7c9af2"/><path d="M54.57,275.29c-3.29,1.35-11,10.35-10.6,11.29s12.18,2,15.48.65a6.45,6.45,0,0,0-4.88-11.94Z" fill="#7c9af2"/><path d="M29.07,287.59c3.32,1.27,15.09,0,15.45-1S37,276.82,33.68,275.54a6.45,6.45,0,1,0-4.61,12Z" fill="#7c9af2"/><path d="M32.88,208.36c-.79,1.57-.71,7.43-.26,7.66s5.18-3.24,6-4.81a3.19,3.19,0,0,0-5.71-2.85Z" fill="#7c9af2"/><path d="M25.35,217.38c1.71.42,7.4-1,7.52-1.47s-4.32-4.32-6-4.73a3.19,3.19,0,1,0-1.49,6.2Z" fill="#7c9af2"/><path d="M36.62,217.4c-1.3,2.14-1.87,10.44-1.26,10.81s7.71-4,9-6.11a4.53,4.53,0,1,0-7.75-4.7Z" fill="#7c9af2"/><path d="M24.8,230c2.43.58,10.51-1.4,10.68-2.1s-6.13-6.13-8.56-6.71A4.53,4.53,0,1,0,24.8,230Z" fill="#7c9af2"/><path d="M37.43,286.61l0,0a.18.18,0,0,0,.09-.25c-11.27-24.82-20.82-42.12-26.88-48.73-.13-.15-.23-.25-.27-.31a.19.19,0,0,0-.26,0,.18.18,0,0,0-.05.26c.05.07.15.17.3.34,6,6.58,15.56,23.86,26.82,48.64A.19.19,0,0,0,37.43,286.61Z" fill="#acc7fc"/><path d="M7,236.76c.71.73,3.94,1.83,4.15,1.62s-.76-3.46-1.48-4.2A1.86,1.86,0,1,0,7,236.76Z" fill="#acc7fc"/><path d="M13.14,238.46c-.17,1,.93,4.34,1.22,4.39s2.36-2.76,2.53-3.8a1.9,1.9,0,1,0-3.75-.59Z" fill="#acc7fc"/><path d="M10.34,244.88c1-.07,4-1.88,4-2.18s-3.22-1.68-4.27-1.61a1.9,1.9,0,0,0,.27,3.79Z" fill="#acc7fc"/><path d="M24.34,254.4c-.46,1.7.77,7.42,1.25,7.55s4.44-4.18,4.9-5.88a3.19,3.19,0,1,0-6.15-1.67Z" fill="#acc7fc"/><path d="M18.5,264.62c1.76.06,7.06-2.42,7.08-2.92s-5.08-3.38-6.83-3.45a3.19,3.19,0,1,0-.25,6.37Z" fill="#acc7fc"/><path d="M29.75,260.26c-1,1.9-1.09,9.06-.54,9.35s6.42-3.8,7.43-5.7a3.9,3.9,0,1,0-6.89-3.65Z" fill="#acc7fc"/><path d="M21.25,273.75c2.15-.14,8.28-3.83,8.24-4.45s-6.6-3.48-8.75-3.34a3.9,3.9,0,0,0,.51,7.79Z" fill="#acc7fc"/><path d="M33.7,268.31c-1,1.91-1.09,9.07-.55,9.35s6.43-3.79,7.44-5.69a3.9,3.9,0,1,0-6.89-3.66Z" fill="#acc7fc"/><path d="M25.19,281.8c2.15-.14,8.29-3.83,8.25-4.44s-6.6-3.48-8.75-3.34a3.9,3.9,0,0,0,.5,7.78Z" fill="#acc7fc"/><path d="M41.28,278.08c-1.66,1.38-4.45,8-4.06,8.44s7.38-1.06,9-2.44a3.9,3.9,0,1,0-5-6Z" fill="#acc7fc"/><path d="M28.8,289.81c2.15.13,8.7-2.76,8.74-3.38s-6.11-4.27-8.26-4.4a3.9,3.9,0,1,0-.48,7.78Z" fill="#acc7fc"/><path d="M16.6,243.42c-.17,1.06.94,4.42,1.25,4.47s2.39-2.81,2.56-3.86a1.93,1.93,0,1,0-3.81-.61Z" fill="#acc7fc"/><path d="M13.9,250c1.06-.08,4.09-1.92,4.07-2.22s-3.28-1.7-4.34-1.63A1.93,1.93,0,0,0,13.9,250Z" fill="#acc7fc"/><path d="M20.4,248c-.36,1.47.82,6.36,1.24,6.46s3.72-3.69,4.08-5.16A2.74,2.74,0,0,0,20.4,248Z" fill="#acc7fc"/><path d="M15.88,257.4c1.51-.11,5.81-2.72,5.78-3.15s-4.65-2.42-6.16-2.32a2.74,2.74,0,0,0,.38,5.47Z" fill="#acc7fc"/><path d="M43,285.9h0a19.19,19.19,0,0,1,19.19,19.19v7.05a0,0,0,0,1,0,0H23.82a0,0,0,0,1,0,0v-7.05A19.19,19.19,0,0,1,43,285.9Z" transform="translate(86.03 598.05) rotate(-180)" fill="#567cd8"/><g opacity="0.6"><path d="M345.66,247.13c-2.07-3.18-6.38-5.13-6.71-8.9-.13-1.41.34-2.95-.39-4.15s-2.63-1.53-4.16-1.37a6.38,6.38,0,0,0-4.53,2c-1.31,1.7-1,4.08-1.43,6.18-1,5.06-6,8.17-10.53,10.6-2.37,1.27-4.84,2.61-6.28,4.87-2.43,3.83-1.09,8.8-1.29,13.33a18.86,18.86,0,0,1-3.47,10.05c-1.23,1.73-2.74,3.24-3.88,5a7.79,7.79,0,0,0-1.36,6c.35,1.35,1.7,3.08,3.24,3.13,2,.08,1.9-1.46,2.42-2.91,1.12-3.14,3.65-4.74,6.92-5.22,2.74-.4,5.56-.07,8.31-.47s5.63-1.75,6.67-4.33.06-5.2.46-7.78c.55-3.59,3.47-6.27,6.21-8.65l7.05-6.12a14.4,14.4,0,0,0,2.95-3.14A7.8,7.8,0,0,0,345.66,247.13Zm-7,8.44c-2.49,2.77-6.45,3-9.72,4.36-2.54,1-4.73,2.29-7.59,2.15-1.85-.08-4.12-.64-4.18-2.85-.09-3.82,5.1-4.49,7.8-4.66a12.53,12.53,0,0,0,4.9-1,6.49,6.49,0,0,0,2.69-2.5,10.07,10.07,0,0,1,1.32-2.16,3.19,3.19,0,0,1,1.45-.82,3.89,3.89,0,0,1,4.26,1.71C340.67,251.61,340.06,254,338.67,255.57Z" fill="#fff"/></g><rect x="293.05" y="291.2" width="26.08" height="31.5" fill="#fa7267"/><path d="M327.28,315.06h-10.1a1.81,1.81,0,1,1,0-3.62h8.29V299.53h-7.32a1.82,1.82,0,0,1,0-3.63h9.13a1.81,1.81,0,0,1,1.81,1.82v15.53A1.81,1.81,0,0,1,327.28,315.06Z" fill="#fa7267"/><g opacity="0.1"><rect x="100.54" y="176.4" width="44.4" height="44.4" fill="#dde7fe"/></g><g opacity="0.1"><rect x="100.54" y="225.69" width="44.4" height="40.45" fill="#dde7fe"/></g><g opacity="0.1"><rect x="153.54" y="230.78" width="120.7" height="35.36" fill="#dde7fe"/></g><g opacity="0.1"><rect x="252.7" y="175.89" width="21.55" height="49.68" fill="#dde7fe"/></g><rect x="153.55" y="176.4" width="91.41" height="50.02" fill="#dde7fe"/><g opacity="0.5"><rect x="160.07" y="235.15" width="109.64" height="2.76" fill="#4d7dc4"/></g><g opacity="0.5"><rect x="160.07" y="240.72" width="109.64" height="2.76" fill="#4d7dc4"/></g><rect x="208.92" y="246.28" width="60.79" height="2.76" fill="#5d8dd8"/><rect x="196.49" y="251.85" width="47.15" height="2.76" fill="#5d8dd8"/><rect x="208.92" y="257.41" width="60.79" height="2.76" fill="#070738"/><rect x="103.73" y="212.81" width="29.04" height="1.38" fill="#dde7fe"/><rect x="135.57" y="212.81" width="3.19" height="3.19" fill="#dde7fe"/><rect x="114.59" y="212.81" width="13.32" height="1.38" fill="#ef8b86"/><rect x="103.73" y="205.25" width="29.04" height="1.38" fill="#dde7fe"/><rect x="135.57" y="205.25" width="3.19" height="3.19" fill="#dde7fe"/><rect x="107.53" y="205.25" width="9.28" height="1.38" fill="#ef8b86"/><rect x="103.73" y="197.69" width="29.04" height="1.38" fill="#dde7fe"/><rect x="135.57" y="197.69" width="3.19" height="3.19" fill="#6c7aff"/><rect x="118.1" y="197.69" width="9.28" height="1.38" fill="#6c7aff"/><rect x="103.73" y="190.14" width="29.04" height="1.38" fill="#dde7fe"/><rect x="135.57" y="190.14" width="3.19" height="3.19" fill="#6c7aff"/><rect x="107.53" y="190.14" width="14.11" height="1.38" fill="#6c7aff"/><rect x="103.73" y="182.58" width="29.04" height="1.38" fill="#dde7fe"/><rect x="135.57" y="182.58" width="3.19" height="3.19" fill="#fa7267"/><rect x="117.43" y="182.58" width="12.38" height="1.38" fill="#ef8b86"/><rect x="116.81" y="229.98" width="2.82" height="2.82" fill="#ef8b86"/><rect x="121.85" y="229.98" width="2.82" height="2.82" fill="#dde7fe"/><rect x="126.62" y="230.35" width="14.71" height="1.05" fill="#dde7fe"/><polygon points="112.6 229.63 114.92 231.39 112.6 232.74 112.6 229.63" fill="#dde7fe"/><rect x="116.81" y="235.38" width="2.82" height="2.82" fill="#4851ec"/><rect x="121.85" y="235.38" width="2.82" height="2.82" fill="#dde7fe"/><rect x="126.62" y="235.74" width="14.71" height="1.05" fill="#dde7fe"/><polygon points="112.6 235.03 114.92 236.79 112.6 238.14 112.6 235.03" fill="#dde7fe"/><rect x="116.81" y="240.78" width="2.82" height="2.82" fill="#ef8b86"/><rect x="121.85" y="240.78" width="2.82" height="2.82" fill="#dde7fe"/><rect x="126.62" y="241.14" width="14.71" height="1.05" fill="#dde7fe"/><polygon points="112.6 240.42 114.92 242.19 112.6 243.53 112.6 240.42" fill="#dde7fe"/><rect x="116.81" y="246.17" width="2.82" height="2.82" fill="#ef8b86"/><rect x="121.85" y="246.17" width="2.82" height="2.82" fill="#dde7fe"/><rect x="126.62" y="246.53" width="14.71" height="1.05" fill="#dde7fe"/><polygon points="112.6 245.82 114.92 247.58 112.6 248.93 112.6 245.82" fill="#dde7fe"/><rect x="116.81" y="251.57" width="2.82" height="2.82" fill="#5d8dd8"/><rect x="121.85" y="251.57" width="2.82" height="2.82" fill="#dde7fe"/><rect x="126.62" y="251.93" width="14.71" height="1.05" fill="#dde7fe"/><polygon points="112.6 251.22 114.92 252.98 112.6 254.33 112.6 251.22" fill="#dde7fe"/><rect x="116.81" y="256.96" width="2.82" height="2.82" fill="#5d8dd8"/><rect x="121.85" y="256.96" width="2.82" height="2.82" fill="#dde7fe"/><rect x="126.62" y="257.33" width="14.71" height="1.05" fill="#dde7fe"/><polygon points="112.6 256.61 114.92 258.37 112.6 259.72 112.6 256.61" fill="#dde7fe"/><g opacity="0.5"><path d="M103.3,231.19a2.54,2.54,0,0,1,1.75-1,2.21,2.21,0,0,1,1.66,1,2,2,0,0,1-1.66,1A2.11,2.11,0,0,1,103.3,231.19Z" fill="#dde7fe"/><path d="M104.34,231.19a.67.67,0,1,1,.66.66A.66.66,0,0,1,104.34,231.19Z" fill="#15156d"/><path d="M104.6,231.19a.41.41,0,1,1,.4.4A.4.4,0,0,1,104.6,231.19Z" fill="#dde7fe"/></g><g opacity="0.5"><path d="M103.3,236.58a2.54,2.54,0,0,1,1.75-1,2.21,2.21,0,0,1,1.66,1,2,2,0,0,1-1.66,1A2.11,2.11,0,0,1,103.3,236.58Z" fill="#dde7fe"/><path d="M104.34,236.58a.67.67,0,1,1,.66.67A.67.67,0,0,1,104.34,236.58Z" fill="#15156d"/><path d="M104.6,236.58a.41.41,0,0,1,.81,0,.41.41,0,1,1-.81,0Z" fill="#dde7fe"/></g><g opacity="0.5"><path d="M103.3,242a2.54,2.54,0,0,1,1.75-1,2.21,2.21,0,0,1,1.66,1,2,2,0,0,1-1.66,1A2.11,2.11,0,0,1,103.3,242Z" fill="#dde7fe"/><path d="M104.34,242a.67.67,0,1,1,.66.66A.66.66,0,0,1,104.34,242Z" fill="#15156d"/><path d="M104.6,242a.41.41,0,1,1,.81,0,.41.41,0,1,1-.81,0Z" fill="#dde7fe"/></g><g opacity="0.5"><path d="M103.3,247.38a2.54,2.54,0,0,1,1.75-1,2.21,2.21,0,0,1,1.66,1,2,2,0,0,1-1.66,1A2.11,2.11,0,0,1,103.3,247.38Z" fill="#dde7fe"/><path d="M104.34,247.38a.67.67,0,1,1,.66.66A.67.67,0,0,1,104.34,247.38Z" fill="#15156d"/><path d="M104.6,247.38a.41.41,0,1,1,.4.4A.4.4,0,0,1,104.6,247.38Z" fill="#dde7fe"/></g><g opacity="0.5"><path d="M103.3,252.77a2.54,2.54,0,0,1,1.75-1,2.21,2.21,0,0,1,1.66,1,2,2,0,0,1-1.66,1A2.11,2.11,0,0,1,103.3,252.77Z" fill="#dde7fe"/><path d="M104.34,252.77a.67.67,0,0,1,1.33,0,.67.67,0,1,1-1.33,0Z" fill="#15156d"/><path d="M104.6,252.77a.41.41,0,1,1,.81,0,.41.41,0,1,1-.81,0Z" fill="#dde7fe"/></g><g opacity="0.5"><path d="M103.3,258.17a2.54,2.54,0,0,1,1.75-1,2.21,2.21,0,0,1,1.66,1,2,2,0,0,1-1.66,1A2.11,2.11,0,0,1,103.3,258.17Z" fill="#dde7fe"/><path d="M104.34,258.17a.67.67,0,1,1,.66.66A.67.67,0,0,1,104.34,258.17Z" fill="#15156d"/><path d="M104.6,258.17a.41.41,0,1,1,.4.4A.4.4,0,0,1,104.6,258.17Z" fill="#dde7fe"/></g><rect x="227.93" y="251.85" width="41.77" height="2.76" fill="#ef8b86"/><rect x="235.32" y="246.28" width="24.27" height="2.76" fill="#ef8b86"/><rect x="232.63" y="235.15" width="28.09" height="2.76" fill="#ef8b86"/><rect x="241.18" y="240.72" width="24.27" height="2.76" fill="#4851ec"/><path d="M245,217.05v9.37h-91.4V209.61s20.35,2.09,31.48,5,31.22-.36,39.35,1.35S245,217.05,245,217.05Z" fill="#7c9af2"/><path d="M165.8,209.89l.65.37a2.22,2.22,0,0,0,.91.26l55.19,3.34a5.55,5.55,0,0,0,1.41-.09l5.37-1a1.91,1.91,0,0,0,1.53-2.16h0s.41-4-.92-6.32c0,0,.43-1.8-.44-2.42,0,0,.2-1.64-.17-1.8s-4.7-.75-5.73-1.08-9.46-4.74-13.87-5.16-13.5-1.38-17.87,0a88.26,88.26,0,0,0-10.72,4.55s-12.21.54-14.39,3.64a15.15,15.15,0,0,0-2.19,5.14A2.53,2.53,0,0,0,165.8,209.89Z" fill="#fa7267"/><path d="M183.25,199.76s7.24-4.81,12.56-5.11,16.05-.27,22,3.7a16.89,16.89,0,0,1-2.89,1.75c-.54.05-25.24.18-26.89.12S183.25,199.76,183.25,199.76Z" fill="#17152b"/><path d="M191.86,193.79l.76.42s-10.26,4.76-10.86,4.69a.64.64,0,0,1-.62-.56S188.53,194.68,191.86,193.79Z" fill="#17152b"/><path d="M167,203.38a4.15,4.15,0,0,1,2-2.06c1.27-.45,3.56-.43,3.54-.13s-1.88,1.32-1.9,1.69a1.39,1.39,0,0,0,.18.73Z" fill="#7c9af2"/><path d="M166.17,208.14s.14.92.44.93,1.08-1.86,1-2.1-1.68-.18-1.72-.14A12.14,12.14,0,0,0,166.17,208.14Z" fill="#17152b"/><path d="M200.78,195l-1.13,5s-12.27.09-12.68,0-.39-1.46.11-1.86a31.47,31.47,0,0,1,7.78-2.66A51.55,51.55,0,0,1,200.78,195Z" fill="#2e2d56"/><path d="M185.51,198.62a7.24,7.24,0,0,1,1.76-.66,1.5,1.5,0,0,1,.37,1.77l-1.86,0A1.71,1.71,0,0,1,185.51,198.62Z" fill="#fa7267"/><path d="M202.07,199.91l.6-4.79a73.65,73.65,0,0,1,9.27,1.24l1.9,3.5-11.59.06Z" fill="#2e2d56"/><path d="M213.74,197.39l1.25,1.86a.2.2,0,0,0,.29.06l1.2-.82a.21.21,0,0,0,0-.37l-2.44-1A.21.21,0,0,0,213.74,197.39Z" fill="#17152b"/><path d="M208.22,211.67l-23.33-1.41a1.6,1.6,0,0,1-1.5-1.42,26,26,0,0,1-.14-4.54,16.73,16.73,0,0,1,1-4.64l.06,0a16.93,16.93,0,0,0-1,4.62,25.83,25.83,0,0,0,.14,4.53,1.53,1.53,0,0,0,1.44,1.36l23.33,1.41a1.52,1.52,0,0,0,1.31-.6l5.9-7.66a1.5,1.5,0,0,0,.11-1.65l-1-1.81.06,0,1,1.8a1.56,1.56,0,0,1-.12,1.73l-5.89,7.67A1.6,1.6,0,0,1,208.22,211.67Z" fill="#17152b"/><path d="M200.2,211.16c-.77-4,.67-11.36.69-11.44l.07,0c0,.07-1.46,7.44-.69,11.41Z" fill="#17152b"/><path d="M198.46,203.18a1,1,0,1,0-1,.77A.91.91,0,0,0,198.46,203.18Z" fill="#b7413e"/><rect x="197.19" y="201.33" width="0.56" height="3.49" rx="0.14" ry="0.14" transform="translate(-17.16 387.93) rotate(-86.54)" fill="#fa7267"/><path d="M213,203.46a1,1,0,1,0-1,.77A.91.91,0,0,0,213,203.46Z" fill="#b7413e"/><rect x="211.77" y="201.61" width="0.56" height="3.49" rx="0.14" ry="0.14" transform="translate(-3.73 402.74) rotate(-86.54)" fill="#f26052"/><path d="M229.5,201.86l-3.75-.22c-.76,0-1.83,0-1.16.51s2.88,1.44,2.81,1.72-.21.68-.21.68,2.35.21,2.75-.27C229.94,204.28,230.39,202.56,229.5,201.86Z" fill="#fff"/><path d="M222.54,211.22a5.46,5.46,0,1,0-5.79,5.13A5.46,5.46,0,0,0,222.54,211.22Z" fill="#17152b"/><path d="M216.83,215a4.14,4.14,0,1,1,4.39-3.88A4.14,4.14,0,0,1,216.83,215Zm.48-7.87a3.75,3.75,0,1,0,3.52,4A3.76,3.76,0,0,0,217.31,207.16Z" fill="#7c9af2"/><path d="M218.38,211A1.3,1.3,0,1,0,217,212.2,1.3,1.3,0,0,0,218.38,211Z" fill="#7c9af2"/><polygon points="217.35 209.93 217.97 207.15 216.66 207.07 216.95 209.91 217.35 209.93" fill="#7c9af2"/><polygon points="218.07 210.41 220.37 208.72 219.43 207.8 217.79 210.14 218.07 210.41" fill="#7c9af2"/><polygon points="218.19 211.38 221.01 211.8 221 210.48 218.19 210.98 218.19 211.38" fill="#7c9af2"/><polygon points="216.16 210.3 214.09 208.34 215.13 207.54 216.48 210.06 216.16 210.3" fill="#7c9af2"/><polygon points="217.22 212.01 217.5 214.85 216.19 214.77 216.83 211.98 217.22 212.01" fill="#7c9af2"/><polygon points="218 211.61 220.07 213.57 219.03 214.38 217.69 211.86 218 211.61" fill="#7c9af2"/><polygon points="216.09 211.5 213.8 213.2 214.74 214.12 216.37 211.78 216.09 211.5" fill="#7c9af2"/><polygon points="215.93 211.24 213.08 211.32 213.25 210.01 215.98 210.84 215.93 211.24" fill="#7c9af2"/><path d="M182.18,208.78a5.46,5.46,0,1,0-5.78,5.13A5.46,5.46,0,0,0,182.18,208.78Z" fill="#17152b"/><path d="M176.48,212.59a4.14,4.14,0,1,1,4.38-3.88A4.15,4.15,0,0,1,176.48,212.59Zm.47-7.87a3.75,3.75,0,1,0,3.52,4A3.75,3.75,0,0,0,177,204.72Z" fill="#7c9af2"/><path d="M178,208.54a1.3,1.3,0,1,0-1.37,1.22A1.3,1.3,0,0,0,178,208.54Z" fill="#7c9af2"/><polygon points="176.99 207.49 177.61 204.71 176.3 204.63 176.6 207.47 176.99 207.49" fill="#7c9af2"/><polygon points="177.72 207.97 180.01 206.28 179.07 205.36 177.43 207.69 177.72 207.97" fill="#7c9af2"/><polygon points="177.83 208.94 180.66 209.36 180.64 208.04 177.83 208.54 177.83 208.94" fill="#7c9af2"/><polygon points="175.8 207.86 173.73 205.9 174.78 205.1 176.12 207.62 175.8 207.86" fill="#7c9af2"/><polygon points="176.87 209.57 177.15 212.41 175.83 212.33 176.47 209.54 176.87 209.57" fill="#7c9af2"/><polygon points="177.64 209.17 179.72 211.13 178.67 211.94 177.33 209.42 177.64 209.17" fill="#7c9af2"/><polygon points="175.73 209.06 173.44 210.76 174.38 211.68 176.01 209.34 175.73 209.06" fill="#7c9af2"/><polygon points="175.57 208.8 172.72 208.88 172.89 207.57 175.62 208.4 175.57 208.8" fill="#7c9af2"/><path d="M189.68,190.33a3.8,3.8,0,0,1-1.27.36l-1,.15a5.2,5.2,0,0,1-2.22,0c-.52-.14-1-.44-1.48-.55a12.63,12.63,0,0,0-1.63,0,1.43,1.43,0,0,1-.46-.07.62.62,0,0,1-.43-.66.72.72,0,0,1,.67-.51c.44,0,1,.2,1.27-.05a1.19,1.19,0,0,0,.22-.33,1.41,1.41,0,0,1,.72-.43,5.87,5.87,0,0,1,2.57,0,8.86,8.86,0,0,0,1.78-.09c.78,0,1.57,0,1.85.72A1.2,1.2,0,0,1,189.68,190.33Z" fill="#fff"/><path d="M187.11,184.2c-.54-.14-1.19-.47-1.14-1s.63-.75,1.13-.74a6.23,6.23,0,0,0,1.49,0,2.9,2.9,0,0,0,1.44-1.27,5.2,5.2,0,0,1,1.47-1.45,2.08,2.08,0,0,1,2-.12c.46.25.79.73,1.28.93a3.56,3.56,0,0,0,2.09-.24c.7-.18,1.63-.06,1.84.62s-.25,1.3.16,1.74c2.08,2.26-2,1.5-3.47,1.6C192.63,184.49,189.83,184.87,187.11,184.2Z" fill="#fff"/><path d="M220.51,186.74a2.22,2.22,0,0,1-.82,2.89,3.25,3.25,0,0,1-3.18,0,6.15,6.15,0,0,0-1.58-.79c-1.42-.29-3.15,1.44-4.48.45-1.14-.87-.6-1.66.27-2.33C213.32,184.91,217.63,187.59,220.51,186.74Z" fill="#fff"/><path d="M169.05,185.56s-.09.11-.24.33-.42.61-.73,1.11a70.66,70.66,0,0,0-9.69,28.28q-.34-.53-.66-1.08a23.44,23.44,0,0,1-1.1-2.11c1.39-5.77,4.74-17.59,10.43-25.42.34-.46.68-.91,1-1.34l0,0v0l.08-.1.39-.46.15.3,0,0,.15.28Z" fill="#7c9af2"/><path d="M178.2,186.43a3.87,3.87,0,0,1,.53,1c-.44.08-.95.15-1.5.2a3,3,0,0,0-1.59-1.36,3.5,3.5,0,0,1,.55,1.41,14.88,14.88,0,0,1-1.84-.09,5.25,5.25,0,0,0-1.21-2.16,5.58,5.58,0,0,1-.42,1.89,15.62,15.62,0,0,1-1.51-.42l-.22-1.09a6.23,6.23,0,0,1-.56.81,15.64,15.64,0,0,1-2.24-1.07l-.18-1.13s6.37-3.79,12.79,2.42a9,9,0,0,1-1.37.44A2.19,2.19,0,0,0,178.2,186.43Z" fill="#7c9af2"/><path d="M159.88,181.45a4.2,4.2,0,0,0-.93.64,12.36,12.36,0,0,0,1.23.87,3,3,0,0,1,2-.46,3.49,3.49,0,0,0-1.14,1,13.68,13.68,0,0,0,1.67.77c.7-.87,1.57.52,1.57.52a14.25,14.25,0,0,0,1.53.34l.71-.87a5,5,0,0,0,.11,1,16.64,16.64,0,0,0,2.48.1l.69-.92s-3.89-6.32-12.46-3.8a9.56,9.56,0,0,0,1,1A2.12,2.12,0,0,1,159.88,181.45Z" fill="#7c9af2"/><path d="M167.54,180.36a2.84,2.84,0,0,0-.72-.12c0,.29.09.61.17,1a1.92,1.92,0,0,1,1.15.71,2.16,2.16,0,0,0-1-.06,11.18,11.18,0,0,0,.42,1.11,3.36,3.36,0,0,1,1.57.32,3.62,3.62,0,0,0-1.08.63c.17.28.35.56.56.85l.72-.08a2.55,2.55,0,0,0-.39.5,10.73,10.73,0,0,0,1.1,1.16l.73-.11s1.06-4.67-4-7.38a5.64,5.64,0,0,0,0,.93A1.44,1.44,0,0,1,167.54,180.36Z" fill="#7c9af2"/><path d="M173.15,182.84a2.35,2.35,0,0,1,.6.42,8.42,8.42,0,0,1-.8.56,1.93,1.93,0,0,0-1.31-.32,2.32,2.32,0,0,1,.73.65,10.9,10.9,0,0,1-1.08.49,3.4,3.4,0,0,0-1.34-.88,3.64,3.64,0,0,1,.32,1.21,9.82,9.82,0,0,1-1,.2l-.45-.56a3.57,3.57,0,0,1-.07.63,12,12,0,0,1-1.61,0l-.44-.6s2.55-4.06,8.07-2.38a5.88,5.88,0,0,1-.66.65A1.42,1.42,0,0,0,173.15,182.84Z" fill="#7c9af2"/><path d="M176.83,191.5a3.61,3.61,0,0,1-.14,1.12,13.29,13.29,0,0,1-1.34-.69,3,3,0,0,0-.53-2,3.5,3.5,0,0,1-.35,1.47,13.9,13.9,0,0,1-1.46-1.12,5.25,5.25,0,0,0,.23-2.46,5.64,5.64,0,0,1-1.42,1.3c-.34-.37-.67-.77-1-1.21l.44-1a5.19,5.19,0,0,1-.92.35,18.28,18.28,0,0,1-1.23-2.16l.5-1s7.4.53,9.12,9.3a10,10,0,0,1-1.37-.43A2.22,2.22,0,0,0,176.83,191.5Z" fill="#7c9af2"/><path d="M169.67,194.59a4,4,0,0,1-.89.73c-.17-.42-.35-.91-.51-1.45a3.05,3.05,0,0,0,1-1.86,3.58,3.58,0,0,1-1.29.84,14.07,14.07,0,0,1-.29-1.85,5.41,5.41,0,0,0,1.89-1.66,5.87,5.87,0,0,1-2,0c0-.52,0-1,.1-1.6l1-.45a5,5,0,0,1-.92-.38,16.19,16.19,0,0,1,.59-2.46l1.09-.42s5.11,5.56.27,13.26a10.57,10.57,0,0,1-.72-1.28A2.18,2.18,0,0,0,169.67,194.59Z" fill="#7c9af2"/><path d="M159.7,189.49a3.9,3.9,0,0,0-.12,1.15,15,15,0,0,0,1.5-.38,3,3,0,0,1,1-1.89,3.62,3.62,0,0,0,0,1.54,14.21,14.21,0,0,0,1.72-.78,2.45,2.45,0,0,1,.36-1.87,4.1,4.1,0,0,0,1.09,1c.42-.29.85-.61,1.28-1l-.21-1.12a6.15,6.15,0,0,0,.84.57,17.47,17.47,0,0,0,1.73-1.87l-.26-1.15s-7.5-1.18-11.25,7.16a9.2,9.2,0,0,0,1.47-.11A2.22,2.22,0,0,1,159.7,189.49Z" fill="#7c9af2"/><path d="M245,184.48v3.6c-1-1.88-1.93-3.39-2.64-4.5h0c-.51-.8-.91-1.4-1.18-1.79l-.38-.53.19-.36h0l.24-.46,0-.06h0l.24-.47.63.73h0l.12.15h0l0,0h0l.06.08h0c.56.69,1.11,1.41,1.65,2.15C244.28,183.51,244.62,184,245,184.48Z" fill="#7c9af2"/><path d="M226,182.65a6.68,6.68,0,0,0-.85,1.61,23.64,23.64,0,0,0,2.41.32,4.82,4.82,0,0,1,2.56-2.18,5.53,5.53,0,0,0-.89,2.26,25.53,25.53,0,0,0,3-.14,8.42,8.42,0,0,1,1.95-3.47,9,9,0,0,0,.68,3,24.7,24.7,0,0,0,2.43-.67l.36-1.76a8.43,8.43,0,0,0,.89,1.31,26.12,26.12,0,0,0,3.61-1.72l.29-1.82s-10.26-6.1-20.59,3.9a15.2,15.2,0,0,0,2.21.7A3.46,3.46,0,0,1,226,182.65Z" fill="#7c9af2"/><path d="M245,176.4v3l-.19-.25a10.34,10.34,0,0,1-.18,1.58l-.75.07-.34,0h0c-.39,0-.79,0-1.19.06h-1.71l-.09-.12-.1-.13-.92-1.23.06-.09h0c.06-.1.17-.25.32-.46l.31-.39c.19-.23.42-.49.68-.78h0l.31-.32h0l.34-.34c.21-.2.43-.4.68-.61Z" fill="#7c9af2"/><path d="M243.37,176.4c-.08.22-.18.44-.28.67a3.93,3.93,0,0,0-1.33.11c-.22,0-.42.11-.6.17h0c-.35.12-.59.23-.59.23l.28.09h0a6.13,6.13,0,0,1,1,.56c.28.2.48.37.48.37-.11.19-.23.38-.35.57l-.21.31-.34.48-.28,0H241l-.61-.07h-.1a2.3,2.3,0,0,1,.2.22l.19.25.24.34-.2.24c-.19.22-.38.44-.59.66h0c-.3.33-.63.65-1,1l-1-.17-.14,0s0-.09-.05-.25v0a10.23,10.23,0,0,1,0-2.89h0s0,0,0-.07a9.51,9.51,0,0,1,.24-1.18,10,10,0,0,1,.51-1.51Z" fill="#7c9af2"/><path d="M244.52,179.85l-.69,1v0h-.34c-.43,0-.85,0-1.25,0h-.1l-.59,0-.31,0c0-.09,0-.2,0-.31s0-.08,0-.12a2.58,2.58,0,0,1,0-.38,1.48,1.48,0,0,1,0-.2h0l-.13.17-.32.39,0,.06-.21.27h0a14,14,0,0,1-1.54-.32h-.05a7.92,7.92,0,0,1,.27-1.4,2.44,2.44,0,0,1,.23-.54,7,7,0,0,0-1.4.73l-.14.1h0a3.67,3.67,0,0,0-.6.58l-.55-.22c-.42-.18-.82-.37-1.19-.56a3.41,3.41,0,0,1,1.17-1,3.1,3.1,0,0,0-2.11.5,13.87,13.87,0,0,1-1.17-.8h0l-.12-.1a4.39,4.39,0,0,1,1-.68,2.3,2.3,0,0,0-1.54.21c-.31-.27-.55-.5-.72-.68h8.5a11.72,11.72,0,0,1,1.12.61l.26.17a10.36,10.36,0,0,1,1.29,1A9.09,9.09,0,0,1,244.52,179.85Z" fill="#7c9af2"/><path d="M228.22,190.82a6.2,6.2,0,0,0,.23,1.8,23.6,23.6,0,0,0,2.16-1.11,4.81,4.81,0,0,1,.85-3.25,5.62,5.62,0,0,0,.57,2.36,25.12,25.12,0,0,0,2.34-1.81,8.37,8.37,0,0,1-.37-4,8.82,8.82,0,0,0,2.28,2.1c.55-.6,1.09-1.24,1.62-1.94l-.72-1.65a9.13,9.13,0,0,0,1.48.57,26.65,26.65,0,0,0,2-3.48l-.8-1.66s-11.9.86-14.67,15a14.87,14.87,0,0,0,2.21-.69A3.49,3.49,0,0,1,228.22,190.82Z" fill="#7c9af2"/><path d="M239.75,195.78a6.26,6.26,0,0,0,1.42,1.18,22.12,22.12,0,0,0,.83-2.33,4.88,4.88,0,0,1-1.64-3,5.64,5.64,0,0,0,2.07,1.35,24.92,24.92,0,0,0,.48-3,8.63,8.63,0,0,1-3-2.68,9.14,9.14,0,0,0,3.15,0,22.94,22.94,0,0,0-.15-2.57l-1.68-.72a9,9,0,0,0,1.49-.61,29,29,0,0,0-1-4l-1.76-.67s-8.22,8.94-.44,21.32a15.58,15.58,0,0,0,1.16-2.05A3.52,3.52,0,0,1,239.75,195.78Z" fill="#7c9af2"/><path d="M245,178.3v4.07a9.83,9.83,0,0,1-1,.67l-.15.09c-.49-.45-1-.94-1.45-1.46-.11-.11-.22-.24-.33-.36l-.36-.41-.11-.13-.33-.4h0l-.05-.06-.15-.18,0-.21h0l0-.18.12-.5.08-.37.13-.59.4-.05c.28,0,.7,0,1.23,0A17.44,17.44,0,0,1,245,178.3Z" fill="#7c9af2"/><path d="M244.8,184l.15-.83v1Z" fill="#7c9af2"/><path d="M181.07,192.53c-5.74-7.33-12.12-7.59-12.19-7.59v-.16c.06,0,6.53.26,12.31,7.65Z" fill="#15156d"/><path d="M168.14,184.86a.68.68,0,1,1,.68.68A.68.68,0,0,1,168.14,184.86Z" fill="#fa7267"/><path d="M180.46,192.41a.68.68,0,1,1,.68.68A.68.68,0,0,1,180.46,192.41Z" fill="#fa7267"/><rect x="194.28" y="181.93" width="11.46" height="0.17" fill="#15156d"/><path d="M193.6,182a.68.68,0,1,1,.68.68A.68.68,0,0,1,193.6,182Z" fill="#fa7267"/><path d="M205.06,182a.68.68,0,1,1,.68.68A.67.67,0,0,1,205.06,182Z" fill="#fa7267"/><rect x="200.36" y="187.81" width="11.46" height="0.17" fill="#15156d"/><path d="M199.68,187.89a.68.68,0,0,1,1.36,0,.68.68,0,0,1-1.36,0Z" fill="#fa7267"/><path d="M211.14,187.89a.68.68,0,1,1,.68.68A.68.68,0,0,1,211.14,187.89Z" fill="#fa7267"/><rect x="223.18" y="231.83" width="1.65" height="1.65" transform="translate(230.14 -90.25) rotate(45)" fill="#fa7267"/><rect x="223.92" y="233.82" width="0.17" height="26.34" fill="#fa7267"/><path d="M193.89,208.64c-.89,0-1.81,0-2.74-.07a94.46,94.46,0,0,1-16.22-2.35,147.88,147.88,0,0,1-18.33-5.41l.06-.16A147.54,147.54,0,0,0,175,206.06c9.32,2.1,22.28,3.89,31.09.53s18.21-2.89,24.51-1.89a59.8,59.8,0,0,1,11.67,3l-.06.15a60.32,60.32,0,0,0-11.64-3c-6.27-1-15.61-1.48-24.42,1.88A34.6,34.6,0,0,1,193.89,208.64Z" fill="#15156d"/><path d="M241.13,207.8a.68.68,0,1,1,.68.68A.68.68,0,0,1,241.13,207.8Z" fill="#fa7267"/><path d="M207.27,206.06a.68.68,0,1,1,.68.68A.68.68,0,0,1,207.27,206.06Z" fill="#17152b"/><path d="M188.37,208.45a.68.68,0,1,1,.68.69A.68.68,0,0,1,188.37,208.45Z" fill="#17152b"/><path d="M156.12,200.73a.68.68,0,1,1,.68.68A.68.68,0,0,1,156.12,200.73Z" fill="#fa7267"/><path d="M164.47,216.71a2.06,2.06,0,0,1-.17.23l-.27.36c-.53.73-1.1,1.62-1.71,2.65l-.16.29c-.5.87-1,1.84-1.56,2.9-.1.19-.2.38-.29.57-.43.85-.86,1.75-1.31,2.71h-.26q.7-1.51,1.38-2.85h0l.07-.15h0l.28-.53h0c.5-1,1-1.89,1.46-2.7q.25-.46.51-.87c.5-.83,1-1.55,1.42-2.16h0l.26-.34c.07-.1.13-.17.15-.21a.12.12,0,0,1,.16,0A.11.11,0,0,1,164.47,216.71Z" fill="#bdd1f9"/><path d="M166.39,216.07a5.89,5.89,0,0,1-2.5,1.23,5.81,5.81,0,0,1,.7-2.7,1.16,1.16,0,0,1,1.8,1.47Z" fill="#bdd1f9"/><path d="M162.63,217.45a6.24,6.24,0,0,1-.54,2.81,6.18,6.18,0,0,1-1.77-2.24,1.19,1.19,0,0,1,.87-1.44A1.2,1.2,0,0,1,162.63,217.45Z" fill="#bdd1f9"/><path d="M164.71,221.32a6,6,0,0,1-2.61-1.16,6.2,6.2,0,0,1,2.58-1.22,1.19,1.19,0,0,1,0,2.38Z" fill="#bdd1f9"/><path d="M160.73,220.73a6.09,6.09,0,0,1-.55,2.85,6.18,6.18,0,0,1-1.8-2.27,1.21,1.21,0,0,1,2.35-.58Z" fill="#bdd1f9"/><path d="M162.76,224.69a6.24,6.24,0,0,1-2.66-1.17,6.27,6.27,0,0,1,2.62-1.24,1.21,1.21,0,1,1,0,2.41Z" fill="#bdd1f9"/><path d="M158.55,226.42h-2.07a5.83,5.83,0,0,1-1.14-1.57,1.72,1.72,0,0,1,3.26-1.09A8,8,0,0,1,158.55,226.42Z" fill="#bdd1f9"/><path d="M193,216.71a2.06,2.06,0,0,0,.17.23l.27.36a29.42,29.42,0,0,1,1.71,2.65l.17.29c.5.87,1,1.84,1.56,2.9.09.19.19.38.29.57.42.85.86,1.75,1.3,2.71h.26c-.47-1-.93-2-1.37-2.85h0l-.07-.15h0l-.27-.53h0c-.51-1-1-1.89-1.46-2.7-.17-.31-.35-.6-.51-.87-.5-.83-1-1.55-1.42-2.16h0c-.08-.12-.17-.23-.25-.34a1.5,1.5,0,0,1-.15-.21.14.14,0,0,0-.17,0A.12.12,0,0,0,193,216.71Z" fill="#17152b"/><path d="M191.11,216.07a5.84,5.84,0,0,0,2.5,1.23,6.07,6.07,0,0,0-.7-2.7,1.17,1.17,0,0,0-1.64-.16A1.15,1.15,0,0,0,191.11,216.07Z" fill="#17152b"/><path d="M194.87,217.45a6.12,6.12,0,0,0,.53,2.81,6.19,6.19,0,0,0,1.78-2.24,1.19,1.19,0,1,0-2.31-.57Z" fill="#17152b"/><path d="M192.78,221.32a6.11,6.11,0,0,0,2.62-1.16,6.26,6.26,0,0,0-2.58-1.22,1.19,1.19,0,0,0,0,2.38Z" fill="#17152b"/><path d="M196.77,220.73a6.23,6.23,0,0,0,.54,2.85,6.18,6.18,0,0,0,1.8-2.27,1.21,1.21,0,1,0-2.34-.58Z" fill="#17152b"/><path d="M194.74,224.69a6.2,6.2,0,0,0,2.65-1.17,6.2,6.2,0,0,0-2.62-1.24,1.21,1.21,0,1,0,0,2.41Z" fill="#17152b"/><path d="M199,226.42H201a5.83,5.83,0,0,0,1.14-1.57,1.71,1.71,0,0,0-3.25-1.09A7.75,7.75,0,0,0,199,226.42Z" fill="#17152b"/><path d="M172.64,221.74a12.19,12.19,0,0,0-7.4-5.91l0-.16a12.38,12.38,0,0,1,7.52,6Z" fill="#15156d"/><path d="M165.25,215.06a.69.69,0,1,1-.68.69A.69.69,0,0,1,165.25,215.06Z" fill="#fa7267"/><path d="M172.72,221a.68.68,0,1,1-.68.68A.68.68,0,0,1,172.72,221Z" fill="#fa7267"/><path d="M184.54,222.67l-.15-.07a12.44,12.44,0,0,1,7.16-6.42l0,.16A12.31,12.31,0,0,0,184.54,222.67Z" fill="#15156d"/><path d="M183.8,222.52a.68.68,0,1,1,.56.79A.68.68,0,0,1,183.8,222.52Z" fill="#fa7267"/><path d="M190.91,216.15a.67.67,0,0,1,.78-.56.68.68,0,1,1-.23,1.34A.67.67,0,0,1,190.91,216.15Z" fill="#fa7267"/><rect x="255.16" y="178.81" width="11.53" height="0.61" fill="#5d8dd8"/><rect x="255.16" y="180.32" width="8.92" height="0.61" fill="#5d8dd8"/><rect x="270.64" y="178.81" width="1.16" height="1.16" fill="#5d8dd8"/><rect x="255.16" y="185.55" width="11.53" height="0.61" fill="#5d8dd8"/><rect x="255.16" y="187.06" width="8.92" height="0.61" fill="#5d8dd8"/><rect x="270.64" y="185.55" width="1.16" height="1.16" fill="#5d8dd8"/><rect x="255.16" y="192.29" width="11.53" height="0.61" fill="#5d8dd8"/><rect x="255.16" y="193.8" width="8.92" height="0.61" fill="#5d8dd8"/><rect x="270.64" y="192.29" width="1.16" height="1.16" fill="#5d8dd8"/><rect x="255.16" y="199.02" width="11.53" height="0.61" fill="#5d8dd8"/><rect x="255.16" y="200.54" width="8.92" height="0.61" fill="#5d8dd8"/><rect x="270.64" y="199.02" width="1.16" height="1.16" fill="#5d8dd8"/><rect x="255.16" y="205.76" width="11.53" height="0.61" fill="#5d8dd8"/><rect x="255.16" y="207.28" width="8.92" height="0.61" fill="#5d8dd8"/><rect x="270.64" y="205.76" width="1.16" height="1.16" fill="#5d8dd8"/><rect x="255.16" y="212.5" width="11.53" height="0.61" fill="#5d8dd8"/><rect x="255.16" y="214.02" width="8.92" height="0.61" fill="#5d8dd8"/><rect x="270.64" y="212.5" width="1.16" height="1.16" fill="#5d8dd8"/><rect x="255.16" y="219.24" width="11.53" height="0.61" fill="#5d8dd8"/><rect x="255.16" y="220.76" width="8.92" height="0.61" fill="#5d8dd8"/><rect x="270.64" y="219.24" width="1.16" height="1.16" fill="#5d8dd8"/><path d="M312.91,341.41l-2-.44a.52.52,0,0,1-.28-.82l1.48-2.09a.51.51,0,0,1,.51-.2l1.13.24a.51.51,0,0,1,.36.64l-.59,2.28A.51.51,0,0,1,312.91,341.41Z" fill="#97a6ff"/><path d="M312.94,341.66l-.26-.05.82-3.79.26.05a2,2,0,0,0,2.17-1h0a1.57,1.57,0,0,1,1.7-.79l19.26,4.17L335,349.07l-19.26-4.17a1.58,1.58,0,0,1-1.21-1.42h0A2,2,0,0,0,312.94,341.66Z" fill="#060633"/><rect x="339.92" y="344.88" width="7.64" height="2.79" transform="translate(755.04 83.8) rotate(102.24)" fill="#060633"/><path d="M316.41,345.05l1.91-8.82,22.49,4.87a.16.16,0,0,1,.12.2l-1.84,8.48a.17.17,0,0,1-.2.14Z" fill="#97a6ff"/><rect x="326.39" y="333.3" width="1.91" height="14.95" transform="translate(729.79 93.13) rotate(102.24)" fill="#fff"/><rect x="335.55" y="341.33" width="9.12" height="8.57" transform="translate(749.99 86.54) rotate(102.24)" fill="#060633"/><path d="M345,340.57a.53.53,0,0,0-.21-.11l-10.41-2.25a.6.6,0,0,0-.25,1.18l9.84,2.13-.14.67a.57.57,0,1,0,1.11.24l.27-1.26A.56.56,0,0,0,345,340.57Z" fill="#060633"/><rect x="318.82" y="308.14" width="2.71" height="43.86" transform="translate(18.49 677.12) rotate(-94.87)" fill="#ea5750"/><polygon points="346.64 327.81 342.15 329.56 341.92 326.86 346.64 327.81" fill="#0b0755"/><rect x="295.98" y="330.66" width="1.93" height="2.78" transform="translate(-8.68 656.13) rotate(-94.87)" fill="#4851ec"/><rect x="302.01" y="331.21" width="2.71" height="0.59" transform="translate(-1.16 661.93) rotate(-94.87)" fill="#4851ec"/><path d="M89.4,341.31,75.11,324.79a4.86,4.86,0,0,0-3.55-1l-18.34,1.36c-1.38.1-2,.73-1.44,1.41L66.07,343a4.84,4.84,0,0,0,3.55,1L88,342.71C89.34,342.61,90,342,89.4,341.31Z" fill="#050521"/><polygon points="51.56 325.75 51.56 323.75 89.26 339.32 89.59 339.75 89.62 341.87 72.96 342.57 51.56 325.75" fill="#050521"/><path d="M71.82,321.69l-18,1.34c-1.44.1-2.12.76-1.51,1.47L65.72,340c.88,1,3.28,1.72,5.36,1.56l16.15-1.2c1.54-.11,2.25-.81,1.61-1.56l-14.1-16.28A3.94,3.94,0,0,0,71.82,321.69Z" fill="#7c9af2"/><path d="M88,340.49l-18.34,1.37a4.84,4.84,0,0,1-3.55-1L51.78,324.31c-.58-.67.06-1.3,1.44-1.41l18.34-1.36a4.81,4.81,0,0,1,3.55,1L89.4,339.09C90,339.76,89.34,340.39,88,340.49ZM53.49,323.21c-1,.08-1.51.55-1.08,1.05l14.3,16.52a3.64,3.64,0,0,0,2.65.77l18.33-1.37c1-.07,1.52-.54,1.08-1L74.48,322.62a3.63,3.63,0,0,0-2.65-.77Z" fill="#202077"/><path d="M88.24,340.31l-18.66,1.38a4.39,4.39,0,0,1-3.23-.93l-.15-.18,22.7-1.69.36.43C89.67,339.79,89.22,340.24,88.24,340.31Z" fill="#202077"/><rect x="70.59" y="282.15" width="24.61" height="24.61" rx="12.3" ry="12.3" fill="#070738"/><path d="M74.44,293.9a8.45,8.45,0,1,1,8.44,8.45A8.45,8.45,0,0,1,74.44,293.9Z" fill="#3030b5"/><rect x="82.36" y="285.86" width="0.19" height="16.85" transform="translate(-175.42 130.27) rotate(-41.89)" fill="#070738"/><rect x="84.88" y="283.34" width="0.19" height="16.85" transform="translate(-173.1 131.31) rotate(-41.89)" fill="#070738"/><rect x="87.67" y="280.92" width="0.19" height="16.85" transform="translate(-170.77 132.55) rotate(-41.89)" fill="#070738"/><rect x="80.07" y="288.52" width="0.19" height="16.85" transform="matrix(0.74, -0.67, 0.67, 0.74, -177.79, 129.42)" fill="#070738"/><rect x="71.09" y="290.17" width="16.85" height="0.19" transform="translate(-173.5 127.29) rotate(-41.89)" fill="#070738"/><rect x="73.71" y="293.05" width="16.85" height="0.19" transform="translate(-174.85 129.93) rotate(-41.93)" fill="#070738"/><rect x="76.55" y="295.8" width="16.85" height="0.19" transform="translate(-175.87 132.39) rotate(-41.9)" fill="#070738"/><rect x="78.91" y="298.4" width="16.85" height="0.19" transform="translate(-176.91 134.48) rotate(-41.86)" fill="#070738"/><rect x="77.91" y="290.68" width="0.19" height="16.85" transform="translate(-179.77 128.53) rotate(-41.89)" fill="#070738"/><path d="M284.29,301.26h-.83s-.3-4.55-13.84-7.64c-7.49-1.71-10.81-5.93-12.27-9.17a15.41,15.41,0,0,1-1.4-6.7l.83.06-.41,0,.41,0a14.68,14.68,0,0,0,1.34,6.34c2,4.44,5.95,7.35,11.68,8.66C284.12,296.09,284.29,301.05,284.29,301.26Z" fill="#070738"/><path d="M240.82,315.28c1-1.77,7,1.07,7.13,1.14,0-.11-1.76-7-2.62-9s-1.48-6.14,0-6.89,4.81,9.1,4.92,9.43c-.07-.31-2.2-6.83-1-7.8s5.52,7.55,5.65,7.86a37.3,37.3,0,0,1-1.09-4.22c-.3-1.93,1.79-2.31,2.73-.73,1.13,1.9,2.16,3.81,2.23,4,0-.18-.3-1.43-.57-2.86-.37-1.94.93-4.1,3,.73a46.42,46.42,0,0,1,3.5,15.51,22.32,22.32,0,0,1-.1,4.15l-5.45,1.52-2.73.76s-.86-.62-2.08-1.56a71.49,71.49,0,0,1-8-6.74C244.05,317.92,239.82,317.07,240.82,315.28Z" fill="#f9a58f"/><path d="M141.38,322.92c-.41-2-7-1.05-7.14-1,0-.1,3.55-6.34,5.18-7.85,2.48-2.29,4.93-3.14,3.92-3.84-2.2-1.51-9.15,4.53-9.36,4.81.16-.27,6.45-8.95,5.61-10.22s-9.82,8.65-10,8.92a38,38,0,0,0,2.3-3.71c.86-1.76-1-2.74-2.39-1.51-1.64,1.48-3.2,3-3.32,3.19.08-.17.7-1.28,1.39-2.57.92-1.74.32-4.19-3.13-.2a46.48,46.48,0,0,0-7.94,13.77,22.24,22.24,0,0,0-1.13,4l4.75,3.07,2.38,1.54s1-.34,2.45-.87a72.16,72.16,0,0,0,9.59-4.08C137.51,324.48,141.8,324.93,141.38,322.92Z" fill="#f9a58f"/><path d="M96.14,364.25l34.12.36,2.07-32.41h0A19.34,19.34,0,0,0,121,325.89c-3.51-.62-8.88.61-8.88.61s-6.58,10.52-11.24,19.43a91.59,91.59,0,0,0-7,18.29Z" fill="#6c7aff"/><path d="M290.6,364.7h-.92c-11.12.16-23.12.26-35.67.32l-2.27-35.42-.2-3.07a9.74,9.74,0,0,1,7-3.74c6.26-.77,8.37,0,8.37,0s11.57,15.3,17.52,25.11C288.47,354.63,290.6,364.7,290.6,364.7Z" fill="#6c7aff"/><path d="M209.88,262h0c-.05-.32-.09-.64-.15-1a25.13,25.13,0,1,0-45.43,18.78c3.36,5.36,6.28,9.93,9.18,13.65A35.9,35.9,0,0,1,180.91,315l.09,6.13c16.67,5.28,22.21-3.51,22.21-3.51l-1.73-11a2.79,2.79,0,0,1,2.09-3.13h0C222.2,298.8,211.45,270.47,209.88,262Z" fill="#f9a58f"/><polygon points="158.6 272.59 168.17 287.73 172.5 286 171.22 263.94 158.6 272.59" fill="#060633"/><path d="M204.39,275.73a3.75,3.75,0,0,1,1.49-2.18c1.52-1.09,4.32-2.54,6.86-1,3.72,2.28-.41,11.69-7.32,9.17C205.42,281.73,203.3,280.43,204.39,275.73Z" fill="#e88874"/><path d="M171.63,284.47a3.78,3.78,0,0,0-1.49-2.18c-1.52-1.08-4.32-2.54-6.86-1-3.72,2.28.41,11.69,7.33,9.17C170.61,290.47,172.72,289.17,171.63,284.47Z" fill="#e88874"/><path d="M156.15,271.37a11.24,11.24,0,0,1-1.92-5,40.61,40.61,0,0,1,1.82-21.48c.82-2.22,1.93-4.49,3.91-5.79a1.55,1.55,0,0,1,.95-.33c.83.07,1.09,1.14,1.13,2l.3,5.82a66.59,66.59,0,0,1,8.88-9.64A22.41,22.41,0,0,1,183,231.53c1.22-.13,2.67,0,3.35,1,.92,1.39-.27,3.17-1.39,4.4,8.72-.43,18-.72,25.53,3.7,1,.61,2.17,1.6,1.92,2.79s-1.54,1.61-2.68,1.65a8.92,8.92,0,0,0-3.35.25,31,31,0,0,0,4,2c1.3.74,2.49,2.09,2.25,3.56-.36,2.23-3.31,2.73-5.57,2.69l-18.95-.35c.61,1.43,2.05,2.29,3,3.48s1.32,3.31,0,4.06a3.4,3.4,0,0,1-1.93.2l-13.93-1.3a5.25,5.25,0,0,1,1.36,5.69,8.5,8.5,0,0,1-3.49,3.74C169.33,271.56,159.63,275.78,156.15,271.37Z" fill="#fa7267"/><path d="M207.71,251.36s-.93,48.86-19.16,51.79-33.15-38.36-33.15-38.36l26.82-17.27,20.63-1.75Z" fill="#fa7267"/><path d="M251.74,332.46a59.56,59.56,0,0,0-11.91-10.54h0c-4.37-2.75-14.34-6.24-37-6.81-5-.13-10.63-.11-17,.09-1.7.05-3.35.11-5,.24-19.52,1.54-25.51,3.12-34.55,7.36-3.82,1.79-9,5.83-14,9.4-9.44,6.74-25,18.79-36.19,32.05l34.12.36,9,.08,12.56.1c25.41.19,52.13.32,77.63.31l17.69,0,6.86,0c12.55-.06,24.55-.16,35.67-.32C279,350.56,260.3,342.34,251.74,332.46Z" fill="#6c7aff"/><path d="M268,350.43c-3.58-6.68-16.2-17.79-16.33-17.91l.11-.12c.13.11,12.77,11.24,16.37,18Z" fill="#202077"/><path d="M264.48,345.36l0-.16a22.61,22.61,0,0,1,6.64-.21l0,.16C268.63,344.64,264.52,345.36,264.48,345.36Z" fill="#202077"/><path d="M118.38,350.43l-.14-.08c3.59-6.71,13.93-18.09,14-18.21l.12.11C132.29,332.37,122,343.74,118.38,350.43Z" fill="#202077"/><path d="M121.64,345.36a20.81,20.81,0,0,0-6.3-.21l0-.16a20.5,20.5,0,0,1,6.36.21Z" fill="#202077"/><path d="M255.87,304.36a8,8,0,0,0-2.93-1.53c-1.38-.25-.86,1.1,0,2.15l.86,1Z" fill="#f9a58f"/><rect x="268.64" y="271.5" width="19.35" height="17.44" transform="translate(57.25 -47.06) rotate(10.77)" fill="#6c7aff"/><rect x="269.91" y="271.62" width="19.35" height="3.83" transform="translate(56.02 -47.41) rotate(10.77)" fill="#5368e5"/><rect x="81.63" y="172.4" width="19.35" height="17.44" transform="translate(-39.65 26.23) rotate(-13.46)" fill="#6c7aff"/><rect x="80.05" y="172.59" width="19.35" height="3.83" transform="translate(-38.16 25.68) rotate(-13.46)" fill="#5368e5"/><rect x="280.29" y="257.43" width="19.35" height="17.44" transform="translate(-41.56 54.01) rotate(-9.93)" fill="#fa7267"/><rect x="279.11" y="257.53" width="19.35" height="3.83" transform="translate(-40.42 53.7) rotate(-9.93)" fill="#e25952"/><path d="M85.42,354.55c-3.89,4.86-16.08,3.79-27.88,2.76-6.62-.58-12.87-1.13-16.42-.4-5,1-7.52,2.7-8.74,4l-1.14-.45c1.29-1.55,4-3.55,9.65-4.71,3.71-.76,10-.2,16.75.39,11,.95,23.38,2,26.88-2.33a4.72,4.72,0,0,0,1.15-4.1c-.85-3.91-6.6-6.88-6.65-6.91l.52-1c.26.13,6.3,3.26,7.26,7.7A5.89,5.89,0,0,1,85.42,354.55Z" fill="#6c7aff"/><path d="M80.49,342.8l-2.63.19a.6.6,0,0,1-.64-.55h0a.6.6,0,0,1,.55-.64l2.63-.18a.59.59,0,0,1,.64.55h0A.6.6,0,0,1,80.49,342.8Z" fill="#6c7aff"/></svg>