<svg id="Layer_1" data-name="Layer 1" xmlns="http://www.w3.org/2000/svg" viewBox="0 0 370 427.58"><title>dffdf</title><line x1="130.55" y1="336.97" x2="130.55" y2="33.17" fill="none" stroke="#bbe5ff" stroke-linecap="round" stroke-miterlimit="10"/><line x1="54.7" y1="257.86" x2="54.7" y2="95.32" fill="none" stroke="#bbe5ff" stroke-linecap="round" stroke-miterlimit="10"/><line x1="147.59" y1="296.37" x2="147.59" y2="55.23" fill="none" stroke="#bbe5ff" stroke-linecap="round" stroke-miterlimit="10"/><line x1="220.06" y1="296.37" x2="220.06" y2="57.82" fill="none" stroke="#bbe5ff" stroke-linecap="round" stroke-miterlimit="10"/><line x1="290.55" y1="342.62" x2="290.55" y2="63.47" fill="none" stroke="#bbe5ff" stroke-linecap="round" stroke-miterlimit="10"/><path d="M57.28,92.74a2.58,2.58,0,1,1-2.58-2.58A2.57,2.57,0,0,1,57.28,92.74Z" fill="none" stroke="#bbe5ff" stroke-linecap="round" stroke-miterlimit="10"/><path d="M133.13,30.58A2.59,2.59,0,1,1,130.55,28,2.59,2.59,0,0,1,133.13,30.58Z" fill="none" stroke="#bbe5ff" stroke-linecap="round" stroke-miterlimit="10"/><path d="M150.17,52.65a2.59,2.59,0,1,1-2.58-2.58A2.58,2.58,0,0,1,150.17,52.65Z" fill="none" stroke="#bbe5ff" stroke-linecap="round" stroke-miterlimit="10"/><path d="M293.13,60.4a2.59,2.59,0,1,1-2.58-2.58A2.58,2.58,0,0,1,293.13,60.4Z" fill="none" stroke="#bbe5ff" stroke-linecap="round" stroke-miterlimit="10"/><line x1="323.83" y1="187.19" x2="323.83" y2="82.11" fill="none" stroke="#bbe5ff" stroke-linecap="round" stroke-miterlimit="10"/><path d="M326.41,79.13a2.58,2.58,0,1,1-2.58-2.58A2.58,2.58,0,0,1,326.41,79.13Z" fill="none" stroke="#bbe5ff" stroke-linecap="round" stroke-miterlimit="10"/><line x1="364.23" y1="296.27" x2="364.23" y2="150.4" fill="none" stroke="#bbe5ff" stroke-linecap="round" stroke-miterlimit="10"/><path d="M366.81,147.42a2.59,2.59,0,1,1-2.58-2.59A2.59,2.59,0,0,1,366.81,147.42Z" fill="none" stroke="#bbe5ff" stroke-linecap="round" stroke-miterlimit="10"/><line x1="17.34" y1="289.35" x2="17.34" y2="143.47" fill="none" stroke="#bbe5ff" stroke-linecap="round" stroke-miterlimit="10"/><path d="M19.92,140.49a2.58,2.58,0,1,1-2.58-2.58A2.57,2.57,0,0,1,19.92,140.49Z" fill="none" stroke="#bbe5ff" stroke-linecap="round" stroke-miterlimit="10"/><path d="M222.64,55.23a2.59,2.59,0,1,1-2.58-2.58A2.59,2.59,0,0,1,222.64,55.23Z" fill="none" stroke="#bbe5ff" stroke-linecap="round" stroke-miterlimit="10"/><path d="M348.8,196.82V167A5.09,5.09,0,0,0,344,162l-13.2-.87a78.51,78.51,0,0,0-7.71-18.58l8.73-9.95a5.09,5.09,0,0,0-.22-7l-21.06-21.06a5.1,5.1,0,0,0-7-.23L293.66,113a79.35,79.35,0,0,0-18.58-7.71l-.86-13.2a5.1,5.1,0,0,0-5.09-4.76H239.35a5.1,5.1,0,0,0-5.09,4.76l-.86,13.2A79.35,79.35,0,0,0,214.82,113l-9.95-8.73a5.1,5.1,0,0,0-7,.23L176.84,125.6a5.1,5.1,0,0,0-.22,7l8.73,9.95a79.35,79.35,0,0,0-7.71,18.58l-13.2.87a5.09,5.09,0,0,0-4.76,5.08v29.78a5.1,5.1,0,0,0,4.76,5.09l13.2.86a79,79,0,0,0,7.71,18.58l-8.73,10a5.11,5.11,0,0,0,.22,7l21.06,21.06a5.1,5.1,0,0,0,7,.23l9.95-8.74a78.51,78.51,0,0,0,18.58,7.71l.86,13.2a5.11,5.11,0,0,0,5.09,4.77h29.78a5.11,5.11,0,0,0,5.09-4.77l.86-13.2a78.51,78.51,0,0,0,18.58-7.71l9.95,8.74a5.1,5.1,0,0,0,7-.23l21.06-21.06a5.1,5.1,0,0,0,.22-7l-8.73-10a78.16,78.16,0,0,0,7.71-18.58l13.2-.86A5.1,5.1,0,0,0,348.8,196.82ZM259,228.65A47,47,0,1,1,301,186.72,47,47,0,0,1,259,228.65Z" fill="none" stroke="#8ab7ce" stroke-miterlimit="10"/><path d="M156.06,234V213.67a3.48,3.48,0,0,0-3.25-3.48l-9-.59a54.09,54.09,0,0,0-5.26-12.69l6-6.79a3.49,3.49,0,0,0-.15-4.76L130,171a3.47,3.47,0,0,0-4.75-.16l-6.8,6a54.09,54.09,0,0,0-12.69-5.26l-.59-9a3.49,3.49,0,0,0-3.47-3.26H81.31a3.49,3.49,0,0,0-3.48,3.26l-.58,9a53.92,53.92,0,0,0-12.69,5.26l-6.8-6A3.48,3.48,0,0,0,53,171L38.62,185.36a3.48,3.48,0,0,0-.16,4.76l6,6.79a53.7,53.7,0,0,0-5.27,12.69l-9,.59a3.49,3.49,0,0,0-3.26,3.48V234a3.49,3.49,0,0,0,3.26,3.47l9,.59a53.7,53.7,0,0,0,5.27,12.69l-6,6.8a3.47,3.47,0,0,0,.16,4.75L53,276.69a3.48,3.48,0,0,0,4.76.16l6.8-6a53.92,53.92,0,0,0,12.69,5.26l.58,9a3.48,3.48,0,0,0,3.48,3.25h20.34a3.48,3.48,0,0,0,3.47-3.25l.59-9a54.09,54.09,0,0,0,12.69-5.26l6.8,6a3.47,3.47,0,0,0,4.75-.16l14.39-14.38a3.48,3.48,0,0,0,.15-4.75l-6-6.8a54.09,54.09,0,0,0,5.26-12.69l9-.59A3.48,3.48,0,0,0,156.06,234ZM94.75,255.74a32.07,32.07,0,1,1,28.64-28.63A32.08,32.08,0,0,1,94.75,255.74Z" fill="none" stroke="#8ab7ce" stroke-miterlimit="10"/><polygon points="355.11 389.5 17.34 389.5 83.12 338.27 289.33 338.27 355.11 389.5" fill="#d7e8f2"/><rect x="83.12" y="187.19" width="206.22" height="119.82" fill="#a3caef"/><rect x="89.19" y="190.72" width="194.06" height="112.76" fill="#4e6d84"/><path d="M144.69,215.25H101.17a1.63,1.63,0,0,1-1.62-1.62h0a1.63,1.63,0,0,1,1.62-1.62h43.52a1.63,1.63,0,0,1,1.62,1.62h0A1.63,1.63,0,0,1,144.69,215.25Z" fill="#66e29e"/><path d="M195.9,215.25H152.37a1.63,1.63,0,0,1-1.62-1.62h0a1.63,1.63,0,0,1,1.62-1.62H195.9a1.62,1.62,0,0,1,1.61,1.62h0A1.62,1.62,0,0,1,195.9,215.25Z" fill="#66e29e"/><path d="M216.49,215.25H204.55a1.63,1.63,0,0,1-1.62-1.62h0a1.63,1.63,0,0,1,1.62-1.62h11.94a1.63,1.63,0,0,1,1.62,1.62h0A1.63,1.63,0,0,1,216.49,215.25Z" fill="#80aeff"/><path d="M158.67,245.87h-57.5a1.63,1.63,0,0,1-1.62-1.62h0a1.63,1.63,0,0,1,1.62-1.62h57.5a1.63,1.63,0,0,1,1.62,1.62h0A1.63,1.63,0,0,1,158.67,245.87Z" fill="#66e29e"/><path d="M201.76,245.87H167.47a1.63,1.63,0,0,1-1.62-1.62h0a1.63,1.63,0,0,1,1.62-1.62h34.29a1.62,1.62,0,0,1,1.61,1.62h0A1.62,1.62,0,0,1,201.76,245.87Z" fill="#80aeff"/><path d="M122.2,225.45h-21a1.62,1.62,0,0,1-1.62-1.61h0a1.63,1.63,0,0,1,1.62-1.62h21a1.63,1.63,0,0,1,1.62,1.62h0A1.62,1.62,0,0,1,122.2,225.45Z" fill="#80aeff"/><path d="M165.29,225.45H128.1a1.61,1.61,0,0,1-1.61-1.61h0a1.62,1.62,0,0,1,1.61-1.62h37.19a1.63,1.63,0,0,1,1.62,1.62h0A1.62,1.62,0,0,1,165.29,225.45Z" fill="#66e29e"/><path d="M139.51,205H101.17a1.63,1.63,0,0,1-1.62-1.62h0a1.63,1.63,0,0,1,1.62-1.62h38.34a1.63,1.63,0,0,1,1.62,1.62h0A1.63,1.63,0,0,1,139.51,205Z" fill="#66e29e"/><path d="M236.92,205H147.57a1.63,1.63,0,0,1-1.62-1.62h0a1.63,1.63,0,0,1,1.62-1.62h89.35a1.63,1.63,0,0,1,1.62,1.62h0A1.63,1.63,0,0,1,236.92,205Z" fill="#80aeff"/><path d="M216.49,235.66H197.42A1.63,1.63,0,0,1,195.8,234h0a1.62,1.62,0,0,1,1.62-1.61h19.07a1.62,1.62,0,0,1,1.62,1.61h0A1.63,1.63,0,0,1,216.49,235.66Z" fill="#80aeff"/><path d="M190.52,235.66H101.17A1.63,1.63,0,0,1,99.55,234h0a1.62,1.62,0,0,1,1.62-1.61h89.35a1.62,1.62,0,0,1,1.62,1.61h0A1.63,1.63,0,0,1,190.52,235.66Z" fill="#66e29e"/><path d="M144.69,266.29H101.17a1.63,1.63,0,0,1-1.62-1.62h0a1.63,1.63,0,0,1,1.62-1.62h43.52a1.63,1.63,0,0,1,1.62,1.62h0A1.63,1.63,0,0,1,144.69,266.29Z" fill="#66e29e"/><path d="M195.9,266.29H152.37a1.63,1.63,0,0,1-1.62-1.62h0a1.63,1.63,0,0,1,1.62-1.62H195.9a1.62,1.62,0,0,1,1.61,1.62h0A1.62,1.62,0,0,1,195.9,266.29Z" fill="#66e29e"/><path d="M216.49,266.29H204.55a1.63,1.63,0,0,1-1.62-1.62h0a1.63,1.63,0,0,1,1.62-1.62h11.94a1.63,1.63,0,0,1,1.62,1.62h0A1.63,1.63,0,0,1,216.49,266.29Z" fill="#80aeff"/><path d="M158.67,296.91h-57.5a1.63,1.63,0,0,1-1.62-1.62h0a1.62,1.62,0,0,1,1.62-1.61h57.5a1.62,1.62,0,0,1,1.62,1.61h0A1.63,1.63,0,0,1,158.67,296.91Z" fill="#66e29e"/><path d="M201.76,296.91H167.47a1.63,1.63,0,0,1-1.62-1.62h0a1.62,1.62,0,0,1,1.62-1.61h34.29a1.61,1.61,0,0,1,1.61,1.61h0A1.62,1.62,0,0,1,201.76,296.91Z" fill="#80aeff"/><path d="M122.2,276.5h-21a1.63,1.63,0,0,1-1.62-1.62h0a1.63,1.63,0,0,1,1.62-1.62h21a1.63,1.63,0,0,1,1.62,1.62h0A1.63,1.63,0,0,1,122.2,276.5Z" fill="#80aeff"/><path d="M165.29,276.5H128.1a1.62,1.62,0,0,1-1.61-1.62h0a1.62,1.62,0,0,1,1.61-1.62h37.19a1.63,1.63,0,0,1,1.62,1.62h0A1.63,1.63,0,0,1,165.29,276.5Z" fill="#66e29e"/><path d="M139.51,256.08H101.17a1.63,1.63,0,0,1-1.62-1.62h0a1.63,1.63,0,0,1,1.62-1.62h38.34a1.63,1.63,0,0,1,1.62,1.62h0A1.63,1.63,0,0,1,139.51,256.08Z" fill="#66e29e"/><rect x="145.95" y="252.84" width="83.58" height="3.24" rx="1.43" ry="1.43" fill="#80aeff"/><path d="M216.49,286.7H197.42a1.62,1.62,0,0,1-1.62-1.61h0a1.63,1.63,0,0,1,1.62-1.62h19.07a1.63,1.63,0,0,1,1.62,1.62h0A1.62,1.62,0,0,1,216.49,286.7Z" fill="#80aeff"/><path d="M190.52,286.7H101.17a1.62,1.62,0,0,1-1.62-1.61h0a1.63,1.63,0,0,1,1.62-1.62h89.35a1.63,1.63,0,0,1,1.62,1.62h0A1.62,1.62,0,0,1,190.52,286.7Z" fill="#66e29e"/><polygon points="355.11 358.24 17.34 358.24 83.12 307.01 289.33 307.01 355.11 358.24" fill="#b3d6ff"/><line x1="68.26" y1="310.21" x2="77.34" y2="303.37" fill="none" stroke="#8ab7ce" stroke-linecap="round" stroke-miterlimit="10"/><line x1="35.63" y1="334.79" x2="64.98" y2="312.68" fill="none" stroke="#8ab7ce" stroke-linecap="round" stroke-miterlimit="10"/><path d="M52.11,369.34H9.28A6.53,6.53,0,0,1,5.36,357.6l9.4-7.09" fill="none" stroke="#8ab7ce" stroke-linecap="round" stroke-miterlimit="10"/><line x1="232.95" y1="369.34" x2="83.12" y2="369.34" fill="none" stroke="#8ab7ce" stroke-linecap="round" stroke-miterlimit="10"/><line x1="332.44" y1="369.34" x2="260.07" y2="369.34" fill="none" stroke="#8ab7ce" stroke-linecap="round" stroke-miterlimit="10"/><line x1="329.85" y1="330.52" x2="342.81" y2="340.28" fill="none" stroke="#8ab7ce" stroke-linecap="round" stroke-miterlimit="10"/><line x1="302.49" y1="309.91" x2="327.28" y2="328.58" fill="none" stroke="#8ab7ce" stroke-linecap="round" stroke-miterlimit="10"/><polygon points="104.16 311.81 92.94 311.81 97.03 308.6 107.77 308.6 104.16 311.81" fill="#6e89a0"/><polygon points="97.75 317.79 85.32 317.79 90.1 314.04 101.94 314.04 97.75 317.79" fill="#6e89a0"/><polygon points="116.69 317.79 104.26 317.79 108.14 314.04 119.98 314.04 116.69 317.79" fill="#6e89a0"/><polygon points="135.63 317.79 123.2 317.79 126.18 314.04 138.02 314.04 135.63 317.79" fill="#6e89a0"/><polygon points="154.56 317.79 142.14 317.79 144.22 314.04 156.06 314.04 154.56 317.79" fill="#6e89a0"/><polygon points="173.5 317.79 161.07 317.79 162.26 314.04 174.1 314.04 173.5 317.79" fill="#6e89a0"/><polygon points="192.44 317.79 180.01 317.79 180.31 314.04 192.15 314.04 192.44 317.79" fill="#6e89a0"/><polygon points="211.38 317.79 198.95 317.79 198.35 314.04 210.19 314.04 211.38 317.79" fill="#6e89a0"/><polygon points="230.31 317.79 217.89 317.79 216.39 314.04 228.23 314.04 230.31 317.79" fill="#6e89a0"/><polygon points="249.25 317.79 236.82 317.79 234.43 314.04 246.27 314.04 249.25 317.79" fill="#6e89a0"/><polygon points="268.19 317.79 255.76 317.79 252.47 314.04 264.31 314.04 268.19 317.79" fill="#6e89a0"/><polygon points="287.13 317.79 274.7 317.79 270.51 314.04 282.35 314.04 287.13 317.79" fill="#6e89a0"/><polygon points="90.75 324.06 77.34 324.06 82.88 319.71 95.61 319.71 90.75 324.06" fill="#6e89a0"/><polygon points="111.19 324.06 97.77 324.06 102.27 319.71 115 319.71 111.19 324.06" fill="#6e89a0"/><polygon points="131.62 324.06 118.21 324.06 121.67 319.71 134.4 319.71 131.62 324.06" fill="#6e89a0"/><polygon points="152.06 324.06 138.65 324.06 141.07 319.71 153.8 319.71 152.06 324.06" fill="#6e89a0"/><polygon points="172.5 324.06 159.08 324.06 160.46 319.71 173.19 319.71 172.5 324.06" fill="#6e89a0"/><polygon points="192.93 324.06 179.52 324.06 179.86 319.71 192.59 319.71 192.93 324.06" fill="#6e89a0"/><polygon points="213.37 324.06 199.96 324.06 199.26 319.71 211.99 319.71 213.37 324.06" fill="#6e89a0"/><polygon points="233.8 324.06 220.39 324.06 218.65 319.71 231.38 319.71 233.8 324.06" fill="#6e89a0"/><polygon points="254.24 324.06 240.83 324.06 238.05 319.71 250.78 319.71 254.24 324.06" fill="#6e89a0"/><polygon points="274.68 324.06 261.26 324.06 257.45 319.71 270.18 319.71 274.68 324.06" fill="#6e89a0"/><polygon points="295.11 324.06 281.7 324.06 276.84 319.71 289.57 319.71 295.11 324.06" fill="#6e89a0"/><polygon points="82.11 331.79 67.49 331.79 74.04 326.64 87.86 326.64 82.11 331.79" fill="#6e89a0"/><polygon points="104.4 331.79 89.77 331.79 95.1 326.64 108.92 326.64 104.4 331.79" fill="#6e89a0"/><polygon points="237.76 331.79 112.06 331.79 116.15 326.64 234.91 326.64 237.76 331.79" fill="#6e89a0"/><polygon points="260.39 331.79 245.77 331.79 242.48 326.64 256.3 326.64 260.39 331.79" fill="#6e89a0"/><polygon points="282.68 331.79 268.05 331.79 263.54 326.64 277.35 326.64 282.68 331.79" fill="#6e89a0"/><polygon points="304.96 331.79 290.34 331.79 284.59 326.64 298.41 326.64 304.96 331.79" fill="#6e89a0"/><polygon points="126.88 311.81 115.66 311.81 118.75 308.6 129.49 308.6 126.88 311.81" fill="#6e89a0"/><polygon points="142.92 311.81 131.69 311.81 134.09 308.6 144.82 308.6 142.92 311.81" fill="#6e89a0"/><polygon points="158.96 311.81 147.73 311.81 149.42 308.6 160.16 308.6 158.96 311.81" fill="#6e89a0"/><polygon points="175 311.81 163.77 311.81 164.76 308.6 175.49 308.6 175 311.81" fill="#6e89a0"/><polygon points="191.04 311.81 179.81 311.81 180.09 308.6 190.83 308.6 191.04 311.81" fill="#6e89a0"/><polygon points="207.07 311.81 195.85 311.81 195.43 308.6 206.16 308.6 207.07 311.81" fill="#6e89a0"/><polygon points="223.65 311.81 212.42 311.81 211.27 308.6 222 308.6 223.65 311.81" fill="#6e89a0"/><polygon points="249.04 311.81 237.81 311.81 235.55 308.6 246.28 308.6 249.04 311.81" fill="#6e89a0"/><polygon points="264.28 311.81 253.05 311.81 250.12 308.6 260.85 308.6 264.28 311.81" fill="#6e89a0"/><polygon points="279.51 311.81 268.29 311.81 264.69 308.6 275.42 308.6 279.51 311.81" fill="#6e89a0"/><polygon points="224.73 351.3 147.72 351.3 153.8 336.97 218.65 336.97 224.73 351.3" fill="#85aed6"/><path d="M17.34,358.24H355.11a0,0,0,0,1,0,0v.65a5,5,0,0,1-5,5H22.34a5,5,0,0,1-5-5v-.65a0,0,0,0,1,0,0Z" fill="#96c1ea"/><rect x="36.47" y="147.58" width="57.74" height="57.74" rx="11.43" ry="11.43" fill="#958ed6"/><rect x="33.05" y="144.16" width="64.58" height="64.58" rx="12.78" ry="12.78" fill="none" stroke="#958ed6" stroke-miterlimit="10"/><path d="M44.64,169.13h5.79c3.23,0,5.91,1,5.91,4.73s-2.48,4.77-5.76,4.77H48.07v6.07H44.64Zm3.43,6.6h2.29c1.21,0,2.42-.42,2.42-1.87,0-1.61-1.63-1.83-3-1.83H48.07Z" fill="#e1f4ff"/><path d="M58.5,169.13h3.43v5.81H68.6v-5.81H72V184.7H68.6V178H61.93v6.73H58.5Z" fill="#e1f4ff"/><path d="M75.2,169.13H81c3.23,0,5.91,1,5.91,4.73s-2.48,4.77-5.76,4.77H78.63v6.07H75.2Zm3.43,6.6h2.29c1.21,0,2.42-.42,2.42-1.87,0-1.61-1.63-1.83-3-1.83H78.63Z" fill="#e1f4ff"/><rect x="272.11" y="223.97" width="57.74" height="57.74" rx="11.43" ry="11.43" fill="#679af4"/><rect x="268.69" y="220.55" width="64.58" height="64.58" rx="12.78" ry="12.78" fill="none" stroke="#80aeff" stroke-miterlimit="10"/><path d="M291.39,247a3.86,3.86,0,0,0-3.09-1.33c-2.71,0-4.71,2.2-4.71,5.24s2,5.24,4.6,5.24a3.89,3.89,0,0,0,3.36-1.75l3,2.23a7.1,7.1,0,0,1-5.89,2.83c-5.08,0-8.78-3.33-8.78-8.55s3.7-8.55,8.78-8.55a7,7,0,0,1,5.49,2.39Z" fill="#e1f4ff"/><path d="M296.19,250.63H301v-4.85h2.9v4.85h4.85v2.9h-4.85v4.85H301v-4.85h-4.85Z" fill="#e1f4ff"/><path d="M311.51,250.63h4.85v-4.85h2.89v4.85h4.86v2.9h-4.86v4.85h-2.89v-4.85h-4.85Z" fill="#e1f4ff"/><rect x="254.87" y="161.68" width="40.94" height="40.94" rx="8.1" ry="8.1" fill="#f79b48"/><rect x="252.45" y="159.25" width="45.79" height="45.79" rx="9.06" ry="9.06" fill="none" stroke="#f79b48" stroke-miterlimit="10"/><path d="M260.18,177.56h1.89v3.2h3.67v-3.2h1.89v8.58h-1.89v-3.71h-3.67v3.71h-1.89Z" fill="#e1f4ff"/><path d="M271,179.23h-2.45v-1.67h6.79v1.67h-2.45v6.91H271Z" fill="#e1f4ff"/><path d="M276.34,177.56h2.86l2,5.6h0l2-5.6H286v8.58h-1.89v-6.58h0l-2.25,6.58h-1.44l-2.17-6.58h0v6.58h-1.89Z" fill="#e1f4ff"/><path d="M287.85,177.56h1.89v6.84h3.5v1.74h-5.39Z" fill="#e1f4ff"/><rect x="104.42" y="83.31" width="57.74" height="57.74" rx="11.43" ry="11.43" fill="#f78c57"/><rect x="101.01" y="79.89" width="64.58" height="64.58" rx="12.78" ry="12.78" fill="none" stroke="#f78c57" stroke-miterlimit="10"/><path d="M119.87,113.74c0,2.18-.56,4.24-3.76,4.24a3.32,3.32,0,0,1-3.61-2.74l2.38-.58a1.22,1.22,0,0,0,1.17,1c1.21,0,1.23-1.35,1.23-2.23v-7.55h2.59Z" fill="#e1f4ff"/><path d="M126,105.91h2.14l5.13,11.77h-2.93l-1-2.49h-4.57l-1,2.49h-2.86Zm1,3.42L125.55,113h2.87Z" fill="#e1f4ff"/><path d="M132.24,105.91h3l2.91,7.72h0l3-7.72h2.78L139,117.68h-2.08Z" fill="#e1f4ff"/><path d="M148,105.91h2.14l5.12,11.77H152.3l-1-2.49h-4.57l-1,2.49h-2.86Zm1,3.42L147.52,113h2.88Z" fill="#e1f4ff"/><rect x="76.29" y="236.52" width="42.66" height="42.66" rx="8.44" ry="8.44" fill="#f9bf3e"/><rect x="73.77" y="234" width="47.72" height="47.72" rx="9.44" ry="9.44" fill="none" stroke="#f9bf3e" stroke-miterlimit="10"/><path d="M94.8,259.59c0,3.06-.8,6-5.28,6-2.61,0-4.53-1.21-5.07-3.85l3.34-.81a1.7,1.7,0,0,0,1.64,1.44c1.7,0,1.72-1.89,1.72-3.13v-10.6H94.8Z" fill="#e1f4ff"/><path d="M106.09,252.63a3.53,3.53,0,0,0-2.63-1.09c-1,0-2.46.46-2.46,1.7,0,3,7.62,1.07,7.62,6.86,0,3.69-3,5.44-6.38,5.44a7.86,7.86,0,0,1-5.55-2.07l2.59-2.85a4,4,0,0,0,3.17,1.56c1.19,0,2.52-.56,2.52-1.73,0-3-7.75-1.4-7.75-6.91,0-3.52,3.06-5.37,6.31-5.37a7.46,7.46,0,0,1,5.06,1.73Z" fill="#e1f4ff"/><path d="M335,296.26a2.59,2.59,0,1,1-2.58-2.58A2.58,2.58,0,0,1,335,296.26Z" fill="none" stroke="#96c1ea" stroke-miterlimit="10" stroke-width="1.33"/><path d="M297.7,128.62a2.59,2.59,0,1,1-2.59-2.58A2.58,2.58,0,0,1,297.7,128.62Z" fill="none" stroke="#96c1ea" stroke-miterlimit="10" stroke-width="1.33"/><path d="M317.81,191.54a1.68,1.68,0,1,1-1.68-1.67A1.68,1.68,0,0,1,317.81,191.54Z" fill="#f78c57"/><circle cx="60.17" cy="288.42" r="1.67" fill="#f78c57"/><circle cx="81.05" cy="128.62" r="1.67" fill="#f78c57"/><path d="M306.64,302.08a1.68,1.68,0,1,1-1.68-1.67A1.68,1.68,0,0,1,306.64,302.08Z" fill="#f78c57"/><path d="M126.4,156.67a2.59,2.59,0,1,1-2.58-2.58A2.58,2.58,0,0,1,126.4,156.67Z" fill="none" stroke="#96c1ea" stroke-miterlimit="10" stroke-width="1.33"/><path d="M35.63,295.29a2.59,2.59,0,1,1-2.58-2.58A2.59,2.59,0,0,1,35.63,295.29Z" fill="none" stroke="#96c1ea" stroke-miterlimit="10" stroke-width="1.33"/><path d="M65.34,128.62A2.59,2.59,0,1,1,62.75,126,2.58,2.58,0,0,1,65.34,128.62Z" fill="none" stroke="#96c1ea" stroke-miterlimit="10" stroke-width="1.33"/></svg>